<svg width="167" height="34" fill="none" xmlns="http://www.w3.org/2000/svg"><path fill-rule="evenodd" clip-rule="evenodd" d="M162.644 15.665c.252 0 .233-.124.193-.286-.273-1.088-.727-2.088-1.572-2.847-1.824-1.637-3.929-1.793-6.133-.995-1.898.688-2.938 2.152-3.393 4.076.056.022.082.042.107.042 3.6.003 7.198.002 10.798.01Zm3.886.089c.144.928.126 1.86.023 2.794-.034.307-.12.386-.425.384-2.33-.013-4.66-.007-6.99-.007-2.329 0-4.659.007-6.988-.008-.362-.002-.411.075-.302.418.755 2.38 2.832 3.914 5.441 4.018 1.768.07 3.377-.305 4.685-1.577.117-.114.219-.074.342-.047 1.075.231 2.149.472 3.228.68.323.062.36.12.17.399-1.188 1.748-2.779 2.964-4.804 3.558-2.909.853-5.742.646-8.402-.867-2.45-1.394-3.88-3.556-4.384-6.304-.458-2.494-.131-4.892 1.184-7.096 1.434-2.403 3.58-3.815 6.312-4.313 2.45-.447 4.787-.115 6.88 1.308 2.348 1.597 3.599 3.89 4.03 6.66Zm-31.402 7.533c3.445.004 6.04-2.612 6.032-6.079-.009-3.438-2.617-6.053-6.03-6.047-3.406.007-6.025 2.668-5.991 6.088.034 3.46 2.588 6.034 5.989 6.038Zm9.699-21.746c0 8.12-.003 16.24.007 24.361.001.366-.067.5-.467.485a57.53 57.53 0 0 0-2.887-.004c-.256.004-.333-.06-.326-.323.02-.678.007-1.356.007-2.128-.772.898-1.603 1.58-2.586 2.064-3.134 1.54-7.245.941-9.838-1.434-3.846-3.523-4.357-9.213-1.202-13.396 2.645-3.507 7.765-4.606 11.485-2.465.4.23.784.486 1.122.799.327.302.632.629.962.96.106-.146.054-.302.054-.443.004-2.581.01-5.162-.006-7.743-.002-.325.077-.459.4-.52a91.763 91.763 0 0 0 3.025-.632c.226-.051.27.012.25.21-.006.069 0 .139 0 .209Zm-31.083 21.721c3.392-.004 5.989-2.629 5.982-6.046-.007-3.42-2.605-6.023-6.005-6.013-3.364.009-5.967 2.652-5.947 6.037.02 3.408 2.616 6.027 5.97 6.022Zm.012-15.651c5.367.01 9.662 4.312 9.637 9.656a9.61 9.61 0 0 1-5.981 8.873 9.61 9.61 0 0 1-3.691.711c-5.362-.016-9.603-4.277-9.592-9.64.011-5.368 4.264-9.61 9.627-9.6ZM88.75 10.025c.998-1.173 2.144-1.913 3.543-2.193 2.577-.516 4.98-.198 6.975 1.682 1.227 1.157 1.795 2.654 2.026 4.297.094.666.09 1.335.09 2.005 0 3.39-.003 6.782.007 10.173 0 .295-.045.406-.377.397a50.376 50.376 0 0 0-2.888 0c-.355.011-.4-.12-.399-.426.01-3.433.007-6.866.006-10.299 0-.572-.018-1.144-.162-1.702-.41-1.595-1.48-2.555-3.133-2.764-1.734-.219-3.316.092-4.507 1.5-.708.837-1 1.854-1.11 2.925-.135 1.322-.062 2.649-.068 3.974-.01 2.135-.01 4.27.005 6.405.003.318-.08.393-.39.386-.963-.02-1.925-.02-2.888-.002-.277.005-.379-.043-.378-.354.01-5.596.01-11.192 0-16.788 0-.285.09-.38.35-.43 1.012-.2 2.021-.408 3.025-.638.248-.057.28.013.276.227-.01.499-.003.998-.003 1.625ZM70.833 20.48c1.086 2.497 3.516 3.536 6.061 2.616 1.068-.387 1.603-1.25 1.385-2.22-.121-.537-.49-.862-.933-1.122-.776-.457-1.643-.677-2.498-.922-1.244-.355-2.5-.672-3.66-1.265-1.442-.736-2.483-1.808-2.715-3.473-.358-2.578.733-4.679 3.127-5.742 2.803-1.244 5.54-1.012 8.079.775.834.588 1.43 1.396 1.907 2.296.125.236.072.323-.141.439-.856.465-1.706.94-2.548 1.43-.226.133-.299.096-.414-.138-.966-1.965-3.604-2.73-5.47-1.6-1.22.737-1.252 2.246-.054 3.005.823.522 1.767.737 2.689.998 1.057.3 2.12.579 3.13 1.024 1.957.864 3.196 2.263 3.232 4.496.035 2.202-.93 3.913-2.906 4.834-3.214 1.5-6.382 1.322-9.33-.773-.915-.65-1.54-1.562-1.987-2.591-.066-.153-.122-.262.075-.373.994-.557 1.98-1.127 2.971-1.694Zm-10.601 6.363c-2.426.008-4.636-.565-6.369-2.4-.531-.562-.926-1.215-1.24-1.92-.079-.178-.065-.26.111-.36.922-.517 1.84-1.042 2.752-1.58.2-.118.246-.05.308.129.607 1.756 1.962 2.482 3.702 2.63.838.071 1.675.015 2.462-.333.944-.418 1.401-1.294 1.156-2.196-.14-.51-.507-.82-.939-1.07-.779-.452-1.645-.67-2.5-.916-1.23-.353-2.473-.667-3.622-1.251-1.472-.749-2.52-1.843-2.74-3.546-.326-2.514.794-4.553 3.074-5.672 2.863-1.405 6.69-.802 8.85 1.392.492.502.872 1.08 1.209 1.695.12.22.05.305-.14.41-.853.468-1.707.94-2.547 1.432-.252.149-.322.078-.437-.158-.945-1.935-3.591-2.698-5.448-1.582-1.244.747-1.27 2.266-.043 3.026.913.565 1.96.78 2.974 1.07 1.017.289 2.037.57 2.999 1.019 1.94.904 3.08 2.366 3.058 4.568-.022 2.223-1.114 3.795-3.072 4.791-.5.247-1.025.436-1.568.562-.654.15-1.32.238-1.99.26Zm-20.303-3.557c3.433.004 6.01-2.578 6.027-6.038.017-3.459-2.597-6.099-6.028-6.088-3.4.011-5.967 2.607-5.981 6.048-.014 3.455 2.563 6.073 5.982 6.078Zm9.693-14.73c0 5.79-.003 11.579.008 17.368 0 .346-.05.478-.44.463a53.372 53.372 0 0 0-2.888-.005c-.274.005-.359-.068-.35-.346.02-.663.006-1.327.006-2.007-.198.18-.374.326-.537.487-1.788 1.774-3.978 2.44-6.443 2.305-4.334-.24-7.888-3.636-8.575-8.024-.77-4.916 2.147-9.693 6.835-10.868 3.266-.818 6.19-.163 8.541 2.4.035.04.046.1.067.15l.112-.072c0-.418.01-.836-.004-1.253-.006-.202.053-.29.262-.333 1.064-.215 2.126-.445 3.186-.678.16-.035.238-.023.221.161-.007.083 0 .168 0 .251l-.001.001Zm-22.505 4.645c0 4.24-.004 8.481.008 12.722 0 .343-.047.479-.44.464-.961-.035-1.924-.02-2.887-.005-.251.003-.327-.053-.327-.319.008-8.341.007-16.683 0-25.025 0-.223.066-.32.282-.363 1.037-.208 2.072-.428 3.104-.66.336-.076.26.131.26.297v12.889ZM9.752 23.157c3.486-.072 6.044-2.704 5.97-6.142-.073-3.413-2.715-5.95-6.131-5.887-3.393.063-6.005 2.74-5.924 6.068.085 3.441 2.728 6.03 6.085 5.961ZM19.357 8.3c-.005.083 0 .167 0 .25 0 5.526-.005 11.051.002 16.576.003 2.117-.498 4.063-1.907 5.694-1.344 1.555-3.071 2.48-5.07 2.861-2.79.534-5.495.3-8.022-1.106-1.275-.709-2.24-1.733-2.944-3.008-.119-.215-.157-.312.158-.371 1.08-.205 2.154-.444 3.228-.68.15-.033.25-.047.358.095.766 1.014 1.834 1.511 3.051 1.72 1.518.26 3.03.282 4.492-.285 1.866-.725 2.825-2.147 2.995-4.106.06-.7.01-1.408.01-2.09l-.848.78c-2.763 2.535-7.115 2.616-10.137.797-5.332-3.213-6.319-10.353-2.091-14.93 2.927-3.169 8.012-3.825 11.453-1.48.59.4 1.1.888 1.643 1.505 0-.54.005-.97-.003-1.401-.003-.16.028-.25.209-.288 1.077-.223 2.152-.453 3.226-.69.154-.035.205.008.197.157Z" fill="#000"/></svg>