<svg width="377" height="64" fill="none" xmlns="http://www.w3.org/2000/svg"><path d="M102.828 49.514v-34.69h6.757v28.992h16.588v5.698h-23.345ZM130.823 39.833V24.908h6.504v14.118c0 1.11.101 2.05.303 2.824.235.773.555 1.395.958 1.865.437.471.941.824 1.513 1.06a6.352 6.352 0 0 0 2.017.302c.806 0 1.546-.151 2.218-.454a5.467 5.467 0 0 0 1.765-1.412c.504-.638.891-1.395 1.16-2.269.268-.907.403-1.916.403-3.025V24.908h6.454v24.606h-6.152v-3.53h-.201a7.623 7.623 0 0 1-1.261 1.816 8.25 8.25 0 0 1-1.714 1.31 8.32 8.32 0 0 1-2.118.757c-.739.168-1.529.252-2.37.252-1.311 0-2.538-.185-3.68-.555a8.07 8.07 0 0 1-3.026-1.764c-.84-.807-1.512-1.866-2.017-3.177-.504-1.344-.756-2.941-.756-4.79ZM161.214 49.514V24.908h6.201v3.53h.202a6.71 6.71 0 0 1 1.261-1.765 7.288 7.288 0 0 1 1.764-1.31 7.354 7.354 0 0 1 2.068-.808 11.603 11.603 0 0 1 2.47-.252c1.311 0 2.538.185 3.681.555a7.62 7.62 0 0 1 2.975 1.765c.874.806 1.563 1.882 2.067 3.227.504 1.31.757 2.89.757 4.74v14.924h-6.505V35.396c0-1.11-.117-2.05-.353-2.824-.201-.773-.521-1.395-.958-1.865a3.342 3.342 0 0 0-1.512-1.009c-.572-.235-1.227-.353-1.967-.353a5.21 5.21 0 0 0-2.269.505c-.672.302-1.26.773-1.765 1.411-.504.64-.907 1.412-1.21 2.32-.269.874-.403 1.865-.403 2.975v12.958h-6.504ZM200.221 45.581c.773 0 1.513-.117 2.219-.353a5.423 5.423 0 0 0 1.966-1.11 4.932 4.932 0 0 0 1.311-1.865c.336-.773.504-1.664.504-2.672v-2.168c-.1.168-.235.32-.403.454-.168.1-.353.201-.555.302a13.942 13.942 0 0 1-1.462.403l-3.781.606c-.639.1-1.194.252-1.664.453a3.651 3.651 0 0 0-1.16.757 2.578 2.578 0 0 0-.605.958 3.094 3.094 0 0 0-.202 1.16c0 .47.084.907.252 1.31.168.37.404.69.706.958.336.27.74.471 1.21.605.471.135 1.026.202 1.664.202Zm-9.731.454c-.336-.874-.504-1.832-.504-2.874s.151-1.967.453-2.773a5.767 5.767 0 0 1 1.513-2.168c.706-.64 1.58-1.16 2.622-1.563 1.076-.438 2.336-.774 3.782-1.009l4.739-.706c.673-.1 1.21-.202 1.614-.302.403-.135.706-.27.907-.404.236-.134.387-.302.454-.504.101-.202.151-.454.151-.756 0-.605-.1-1.16-.302-1.664a3.303 3.303 0 0 0-.807-1.311c-.336-.37-.79-.656-1.361-.857-.538-.202-1.177-.303-1.916-.303-.74 0-1.412.101-2.017.303a3.646 3.646 0 0 0-1.462.806 3.58 3.58 0 0 0-.958 1.261 6.368 6.368 0 0 0-.404 1.664h-6.05c.101-1.345.42-2.555.958-3.63a8.212 8.212 0 0 1 2.319-2.723c.975-.74 2.101-1.294 3.378-1.664 1.311-.37 2.723-.555 4.236-.555 1.815 0 3.395.202 4.739.605 1.379.37 2.521.941 3.429 1.715a6.662 6.662 0 0 1 2.017 2.773c.471 1.11.706 2.403.706 3.882v16.236h-6.202v-2.925h-.303a6.442 6.442 0 0 1-1.361 1.513 7.144 7.144 0 0 1-1.765 1.11 8.178 8.178 0 0 1-2.168.655 12.59 12.59 0 0 1-2.571.252c-1.345 0-2.555-.168-3.631-.504-1.042-.336-1.916-.807-2.622-1.412a6.024 6.024 0 0 1-1.613-2.168ZM219.464 49.514V24.908h6.202v3.732h.101a8.14 8.14 0 0 1 1.059-1.765 6.97 6.97 0 0 1 1.462-1.362 6.396 6.396 0 0 1 1.866-.907 7.512 7.512 0 0 1 2.974-.252c.269.033.538.084.807.15a4.8 4.8 0 0 1 .908.303c.302.135.605.303.907.505l-1.311 5.596a8.389 8.389 0 0 0-.806-.353 9.837 9.837 0 0 0-.757-.252 4.993 4.993 0 0 0-.756-.15 4.989 4.989 0 0 0-.706-.051c-.907 0-1.714.201-2.42.605-.672.37-1.244.907-1.714 1.613-.437.672-.774 1.48-1.009 2.42-.202.908-.302 1.916-.302 3.026v11.748h-6.505ZM238.046 32.169c0-2.555.403-4.924 1.21-7.11.807-2.184 1.967-4.084 3.479-5.697a15.633 15.633 0 0 1 5.496-3.782c2.152-.907 4.521-1.361 7.11-1.361 2.117 0 4.05.286 5.798.857 1.748.538 3.278 1.345 4.589 2.42a12.968 12.968 0 0 1 3.227 3.782c.84 1.479 1.428 3.143 1.764 4.992h-6.756c-.269-1.009-.656-1.9-1.16-2.673a7.415 7.415 0 0 0-1.866-1.966c-.705-.538-1.529-.941-2.47-1.21-.941-.27-1.983-.404-3.126-.404-1.58 0-3.009.303-4.286.908a9.107 9.107 0 0 0-3.278 2.47c-.907 1.076-1.596 2.37-2.067 3.883-.47 1.48-.706 3.11-.706 4.891 0 1.748.236 3.361.706 4.84.504 1.48 1.21 2.774 2.118 3.883a9.631 9.631 0 0 0 3.277 2.521c1.278.605 2.689.908 4.236.908 1.21 0 2.285-.135 3.227-.404.974-.269 1.798-.672 2.47-1.21a7.071 7.071 0 0 0 1.765-1.966c.504-.773.891-1.664 1.16-2.673h6.756c-.336 1.85-.924 3.513-1.764 4.992a13.259 13.259 0 0 1-3.278 3.832c-1.311 1.042-2.857 1.849-4.639 2.42-1.748.538-3.68.807-5.798.807-2.622 0-5.009-.437-7.16-1.31-2.118-.908-3.933-2.169-5.446-3.782-1.479-1.614-2.621-3.513-3.428-5.698-.773-2.185-1.16-4.572-1.16-7.16ZM276.484 49.514V24.908h6.202v3.732h.101a8.178 8.178 0 0 1 1.058-1.765 6.976 6.976 0 0 1 1.463-1.362 6.402 6.402 0 0 1 1.865-.907 7.517 7.517 0 0 1 2.975-.252c.269.033.538.084.807.15.302.068.605.169.907.303.303.135.605.303.908.505l-1.311 5.596a8.405 8.405 0 0 0-.807-.353 9.967 9.967 0 0 0-.756-.252 4.993 4.993 0 0 0-.756-.15 5 5 0 0 0-.706-.051c-.908 0-1.715.201-2.42.605-.673.37-1.244.907-1.715 1.613-.437.672-.773 1.48-1.008 2.42-.202.908-.303 1.916-.303 3.026v11.748h-6.504ZM296.17 39.833V24.908h6.505v14.118c0 1.11.101 2.05.302 2.824.236.773.555 1.395.958 1.865.437.471.941.824 1.513 1.06a6.352 6.352 0 0 0 2.017.302 5.34 5.34 0 0 0 2.218-.454 5.456 5.456 0 0 0 1.765-1.412c.504-.638.891-1.395 1.16-2.269.269-.907.403-1.916.403-3.025V24.908h6.454v24.606h-6.151v-3.53h-.202a7.595 7.595 0 0 1-1.261 1.816 8.25 8.25 0 0 1-1.714 1.31 8.306 8.306 0 0 1-2.118.757c-.739.168-1.529.252-2.369.252-1.311 0-2.538-.185-3.681-.555a8.058 8.058 0 0 1-3.025-1.764c-.841-.807-1.513-1.866-2.017-3.177-.505-1.344-.757-2.941-.757-4.79ZM324.746 42.455h6.101c0 .605.134 1.126.403 1.563.302.437.689.79 1.16 1.059.504.269 1.058.47 1.664.605.605.1 1.243.151 1.916.151.84 0 1.579-.067 2.218-.201.672-.135 1.227-.337 1.664-.605.437-.27.756-.589.958-.959.235-.37.353-.806.353-1.31 0-.438-.084-.807-.252-1.11a1.767 1.767 0 0 0-.656-.756 4.23 4.23 0 0 0-1.109-.504c-.437-.168-.975-.303-1.613-.404l-4.488-.706a18.081 18.081 0 0 1-3.076-.706 9.29 9.29 0 0 1-2.42-1.31 5.95 5.95 0 0 1-1.613-2.017c-.37-.84-.555-1.816-.555-2.925 0-1.277.269-2.403.807-3.378a7.08 7.08 0 0 1 2.269-2.521c.975-.706 2.117-1.227 3.428-1.563 1.345-.37 2.79-.555 4.337-.555 1.58 0 3.025.151 4.336.454 1.311.302 2.437.773 3.378 1.412.975.605 1.715 1.378 2.219 2.32.538.94.806 2.033.806 3.277h-6c0-.538-.134-1.009-.403-1.412a2.433 2.433 0 0 0-1.008-1.009 4.278 4.278 0 0 0-1.513-.554 8.145 8.145 0 0 0-1.866-.202c-.672 0-1.294.067-1.865.202a5.374 5.374 0 0 0-1.412.554 2.754 2.754 0 0 0-.958.908c-.202.37-.303.773-.303 1.21 0 .403.068.756.202 1.059.134.269.353.52.655.756.303.202.69.387 1.16.555.504.168 1.126.302 1.866.403l4.437.706c1.109.168 2.101.42 2.975.757a8.284 8.284 0 0 1 2.42 1.26c.706.504 1.261 1.176 1.664 2.017.403.807.605 1.781.605 2.924 0 1.345-.286 2.538-.857 3.58-.538 1.042-1.328 1.916-2.37 2.622-1.042.673-2.286 1.177-3.731 1.513-1.412.336-2.975.504-4.689.504-1.648 0-3.16-.168-4.538-.504-1.379-.303-2.572-.757-3.58-1.362-1.009-.638-1.782-1.445-2.32-2.42-.538-.975-.806-2.1-.806-3.378ZM353.15 49.514V12.605h6.505v9.328c0 .538-.017 1.177-.051 1.916 0 .706-.033 1.463-.101 2.27a53.093 53.093 0 0 1-.151 2.319h.202a6.73 6.73 0 0 1 1.26-1.765 7.293 7.293 0 0 1 1.765-1.31 7.36 7.36 0 0 1 2.067-.808 11.613 11.613 0 0 1 2.471-.252c1.311 0 2.538.185 3.681.555a7.626 7.626 0 0 1 2.975 1.765c.874.806 1.563 1.882 2.067 3.227.504 1.31.756 2.89.756 4.74v14.924h-6.504V35.396c0-1.11-.118-2.05-.353-2.824-.202-.773-.521-1.395-.958-1.865a3.345 3.345 0 0 0-1.513-1.009c-.571-.235-1.227-.353-1.966-.353a5.21 5.21 0 0 0-2.269.505c-.672.302-1.261.773-1.765 1.411-.504.605-.907 1.362-1.21 2.27-.269.873-.403 1.865-.403 2.974v13.009h-6.505Z" fill="#fff"/><g clip-path="url(#a)"><path fill-rule="evenodd" clip-rule="evenodd" d="M36.121 26.172c10.196 0 18.462 8.25 18.462 18.428 0 10.177-8.266 18.427-18.462 18.427S17.659 54.777 17.659 44.6c0-10.178 8.266-18.428 18.462-18.428ZM36.27 0c10.328.153 19.027 3.917 26.336 11.29 10.913 11.007 12.1 28.343 6.632 39.95-.076.161-.267.376-.534.307s-.251-.433-.212-.644c1.1-5.953 1.49-18.21-7.038-27.313-9.11-9.726-17.116-11.706-25.184-11.706-8.068 0-18.132 3.337-25.246 11.706-8.228 9.679-8.15 21.431-7.091 27.318.034.19.14.511-.162.64-.303.126-.515-.15-.6-.333-5.455-11.607-4.262-28.926 6.643-39.925C17.124 3.917 25.942.153 36.27 0Z" fill="#fff"/></g><defs><clipPath id="a"><path fill="#fff" d="M0 0h72.723v63.027H0z"/></clipPath></defs></svg>