<svg xmlns="http://www.w3.org/2000/svg" width="400" height="108" fill="none"><path fill="#E5A243" d="M19.705 99.306a16.497 16.497 0 0 1-2.561 3.771c-.996 1.09-2.063 1.991-3.201 2.703a13.387 13.387 0 0 1-3.486 1.565c-1.186.379-2.3.569-3.343.569-1.518 0-2.798-.403-3.842-1.209-1.043-.759-1.565-1.897-1.565-3.415 0-.522.048-1.091.143-1.707.142-.664.403-1.376.782-2.134a906.63 906.63 0 0 1 10.742-21.483A903.232 903.232 0 0 1 23.76 58.688c3.367-5.976 6.544-11.406 9.532-16.29 2.988-4.933 5.69-9.13 8.11-12.592 2.465-3.51 4.552-6.212 6.26-8.11 1.754-1.896 3.035-2.845 3.84-2.845 1.66 0 2.894.474 3.7 1.423.806.948 1.21 2.063 1.21 3.343 0 1.044-.262 2.087-.783 3.13-1.186 2.419-2.537 5.17-4.055 8.252a2701.37 2701.37 0 0 0-4.695 9.746c-1.66 3.414-3.39 6.971-5.193 10.67-1.802 3.652-3.58 7.304-5.335 10.955a1110.452 1110.452 0 0 1-5.193 10.528 863.597 863.597 0 0 1-4.695 9.39 379.462 379.462 0 0 1-3.913 7.754c-1.138 2.23-2.086 3.984-2.845 5.264Zm83.158-83.23c0 .854-.332 2.064-.996 3.629-.616 1.517-1.517 3.011-2.703 4.481-1.138 1.47-2.537 2.751-4.197 3.842-1.612 1.09-3.415 1.636-5.406 1.636-.475 0-1.067-.024-1.779-.071a8.904 8.904 0 0 1-2.134-.57 4.87 4.87 0 0 1-1.707-1.209c-.474-.521-.711-1.209-.711-2.063 0-.426.213-1.02.64-1.778.427-.806.877-1.66 1.351-2.56.522-.902.996-1.78 1.423-2.633.427-.854.64-1.565.64-2.134 0-1.613-1.138-2.774-3.414-3.486-2.276-.759-6.094-1.138-11.453-1.138-5.36.19-10.196.522-14.512.996-4.316.427-8.3.996-11.95 1.707-3.653.664-7.067 1.447-10.244 2.348a196.554 196.554 0 0 0-9.39 2.916 222.795 222.795 0 0 0-9.39 3.273c-3.13 1.138-6.474 2.3-10.03 3.485l-.997.285a2.491 2.491 0 0 1-.782.142c-.759 0-1.447-.166-2.063-.498a5.541 5.541 0 0 1-1.636-1.351 8.353 8.353 0 0 1-1.067-1.921A6.928 6.928 0 0 1 0 21.199c0-1.233.996-2.609 2.988-4.126 1.992-1.565 4.718-3.13 8.18-4.695 3.462-1.565 7.54-3.083 12.236-4.553 4.695-1.518 9.746-2.845 15.152-3.984a169.569 169.569 0 0 1 17.002-2.774A148.546 148.546 0 0 1 73.27 0c5.075 0 9.462.403 13.16 1.21 3.7.806 6.759 1.92 9.177 3.343 2.419 1.422 4.221 3.13 5.407 5.122 1.185 1.944 1.802 4.078 1.849 6.402ZM69.571 41.117c0-1.09.19-2.205.57-3.344a10.273 10.273 0 0 1 1.849-3.2c.806-.95 1.802-1.732 2.988-2.348 1.233-.617 2.68-.925 4.34-.925 2.75 0 4.67.545 5.761 1.636 1.09 1.044 1.636 2.371 1.636 3.984 0 .9-.19 1.897-.569 2.987a9.852 9.852 0 0 1-1.565 3.06c-.711.9-1.636 1.66-2.774 2.276-1.138.616-2.49.924-4.055.924-2.94 0-5.003-.45-6.189-1.351-1.185-.949-1.85-2.182-1.992-3.7Zm-7.825 16.006c.807-1.328 1.731-2.277 2.775-2.846 1.043-.569 2.11-.854 3.2-.854 1.803 0 3.344.593 4.625 1.779 1.328 1.138 1.992 2.608 1.992 4.41-.048.427-.119.854-.214 1.28-.047.428-.19.854-.427 1.281a119.898 119.898 0 0 0-1.636 3.13l-1.21 2.419-.995 2.134c-.332.711-.735 1.565-1.21 2.56-.569 1.187-1.209 2.49-1.92 3.913a89.256 89.256 0 0 0-2.063 4.269 61.583 61.583 0 0 0-1.636 4.339c-.427 1.423-.64 2.727-.64 3.912 0 1.28.308 2.135.924 2.561.664.38 1.59.57 2.775.57 1.328 0 2.703-.285 4.126-.854 1.47-.57 2.94-1.304 4.41-2.206a42.528 42.528 0 0 0 4.34-3.058 75.238 75.238 0 0 0 3.983-3.557 80.736 80.736 0 0 0 3.486-3.415c1.09-1.09 1.992-2.063 2.703-2.916.948-.901 1.897-1.352 2.845-1.352.854 0 1.542.38 2.063 1.138.57.76.854 1.731.854 2.917 0 1.09-.285 2.252-.854 3.485-.521 1.234-1.399 2.395-2.632 3.486a173.474 173.474 0 0 1-7.398 7.114 69.144 69.144 0 0 1-7.754 5.975c-2.608 1.708-5.24 3.083-7.896 4.126-2.656 1.044-5.335 1.565-8.038 1.565-3.842 0-6.877-.972-9.106-2.916-2.181-1.992-3.272-5.075-3.272-9.248 0-2.182.308-4.316.925-6.402a50.913 50.913 0 0 1 2.205-6.047 79.25 79.25 0 0 1 2.703-5.69 62.317 62.317 0 0 0 2.419-5.265c.237-.617.64-1.565 1.21-2.845.616-1.28 1.256-2.585 1.92-3.913.758-1.565 1.565-3.225 2.418-4.98Z"/><path fill="#E5A243" d="M109.123 100.231c0-2.276.498-4.6 1.494-6.971 1.043-2.371 2.348-4.814 3.913-7.327a134.12 134.12 0 0 1 5.121-7.612 144.262 144.262 0 0 0 5.265-7.967c.474-.759.853-1.47 1.138-2.134a5.72 5.72 0 0 0 .427-2.134c0-.76-.214-1.376-.641-1.85-.427-.522-1.043-.782-1.849-.782-1.945 0-3.818.426-5.62 1.28-1.802.806-3.533 1.897-5.193 3.272-1.66 1.328-3.249 2.87-4.766 4.624a79.693 79.693 0 0 0-4.197 5.478c-1.281 1.85-2.49 3.699-3.628 5.548a865.936 865.936 0 0 1-3.13 5.051 42.684 42.684 0 0 0-2.348 5.122 42.709 42.709 0 0 1-2.347 5.122c-.806 1.565-1.731 2.869-2.775 3.912-1.043 1.091-2.347 1.636-3.912 1.636-1.707 0-3.059-.545-4.055-1.636-.996-1.091-1.494-2.395-1.494-3.912 0-.854.309-2.182.925-3.984a133.493 133.493 0 0 1 2.348-6.26 225.06 225.06 0 0 1 3.343-7.683c1.233-2.703 2.442-5.382 3.628-8.038a648.56 648.56 0 0 0 3.415-7.47 258.699 258.699 0 0 0 2.703-6.046c.853-2.04 1.968-3.557 3.343-4.553 1.423-.996 2.822-1.494 4.197-1.494 1.186 0 2.229.451 3.13 1.352.949.854 1.423 2.11 1.423 3.77 0 1.233-.285 2.585-.854 4.055 1.281-1.186 2.656-2.466 4.126-3.841a37.03 37.03 0 0 1 4.766-3.77c1.755-1.186 3.699-2.158 5.834-2.917 2.134-.759 4.529-1.138 7.184-1.138 1.328 0 2.585.166 3.771.498 1.185.332 2.229.853 3.13 1.565.948.711 1.707 1.636 2.276 2.774.616 1.138.972 2.513 1.067 4.126a47.017 47.017 0 0 1 3.557-3.201 28.124 28.124 0 0 1 4.126-2.917 23.793 23.793 0 0 1 4.908-2.063c1.755-.522 3.699-.782 5.833-.782 1.565 0 3.059.166 4.482.498 1.423.332 2.679.9 3.77 1.707a7.626 7.626 0 0 1 2.632 2.988c.664 1.233.996 2.75.996 4.552 0 2.846-.664 5.549-1.992 8.11a37.334 37.334 0 0 1-4.552 7.042 90.46 90.46 0 0 1-2.277 2.704 52.745 52.745 0 0 0-2.774 3.485 26.893 26.893 0 0 0-2.348 3.842c-.664 1.28-.996 2.49-.996 3.628 0 1.043.309 1.707.925 1.991.664.285 1.518.427 2.561.427 1.992 0 4.15-.593 6.474-1.778a44.793 44.793 0 0 0 6.758-4.268 76.732 76.732 0 0 0 6.188-5.264c1.945-1.85 3.486-3.391 4.624-4.624.285-.332.617-.57.996-.712.38-.142.759-.213 1.138-.213.854 0 1.613.38 2.277 1.138.711.759 1.067 1.755 1.067 2.988 0 .948-.285 1.992-.854 3.13s-1.541 2.252-2.916 3.343a159.16 159.16 0 0 1-7.897 7.114 77.261 77.261 0 0 1-8.109 5.975c-2.703 1.708-5.43 3.083-8.181 4.126-2.703 1.044-5.406 1.565-8.109 1.565-3.51 0-6.355-.83-8.537-2.49-2.134-1.659-3.201-4.291-3.201-7.896 0-2.37.451-4.6 1.352-6.686a33.675 33.675 0 0 1 3.343-5.976 82.474 82.474 0 0 1 4.197-5.62 47.364 47.364 0 0 0 3.841-5.406c.475-.759.854-1.47 1.139-2.134a5.718 5.718 0 0 0 .426-2.134c0-.76-.213-1.376-.64-1.85-.427-.522-1.043-.782-1.849-.782-1.945 0-3.818.426-5.62 1.28-1.802.806-3.533 1.897-5.193 3.272-1.66 1.328-3.249 2.87-4.766 4.624a79.693 79.693 0 0 0-4.197 5.478c-1.281 1.85-2.49 3.699-3.628 5.548a877.272 877.272 0 0 1-3.13 5.051 42.747 42.747 0 0 0-2.348 5.122 42.74 42.74 0 0 1-2.347 5.122c-.806 1.565-1.731 2.869-2.774 3.912-1.044 1.091-2.348 1.636-3.913 1.636-.569 0-1.186-.118-1.85-.355a6.593 6.593 0 0 1-1.849-.854 6.085 6.085 0 0 1-1.352-1.352 3.656 3.656 0 0 1-.569-1.707Z"/><path fill="#E5A243" d="M209.283 60.68a3.286 3.286 0 0 0-.64-.072h-.64c-1.802 0-3.486.356-5.051 1.067a17.14 17.14 0 0 0-4.339 2.846 23.04 23.04 0 0 0-3.486 3.912 55.079 55.079 0 0 0-2.703 4.41 41.818 41.818 0 0 0-2.063 4.127 53.011 53.011 0 0 0-1.209 3.343 72.763 72.763 0 0 0 5.122-2.917 265.992 265.992 0 0 0 5.05-3.13 99.716 99.716 0 0 0 4.055-2.703c1.186-.806 2.016-1.351 2.49-1.636 2.134-1.328 3.604-2.56 4.41-3.699.806-1.186 1.21-2.205 1.21-3.059 0-.711-.238-1.28-.712-1.707a2.7 2.7 0 0 0-1.494-.783Zm2.561-9.818c3.936 0 6.877.949 8.821 2.846 1.945 1.897 2.917 4.529 2.917 7.896 0 1.992-.522 4.079-1.565 6.26-1.044 2.182-2.846 4.41-5.407 6.687-2.561 2.229-5.999 4.529-10.314 6.9-4.269 2.324-9.628 4.672-16.077 7.043.237 1.375.972 2.466 2.205 3.272 1.233.759 2.869 1.138 4.908 1.138 2.182 0 4.506-.308 6.972-.925a59.011 59.011 0 0 0 7.398-2.49 109.918 109.918 0 0 0 7.185-3.2c2.323-1.186 4.41-2.3 6.26-3.344a114.433 114.433 0 0 0 4.695-2.703c1.28-.759 2.134-1.233 2.561-1.423.426-.284.806-.45 1.138-.498.379-.047.711-.071.996-.071.569 0 1.043.142 1.422.427.38.237.688.545.925.925.285.332.474.711.569 1.138.095.38.143.711.143.996 0 .426-.048.948-.143 1.565-.095.569-.45 1.233-1.067 1.992-.237.237-1.043.877-2.418 1.92-1.328 1.044-3.059 2.277-5.193 3.7-2.134 1.422-4.624 2.94-7.47 4.552a87.261 87.261 0 0 1-8.963 4.34 66.268 66.268 0 0 1-9.817 3.272c-3.414.901-6.781 1.351-10.101 1.351-2.845 0-5.383-.545-7.612-1.636a17.593 17.593 0 0 1-5.619-4.41c-1.518-1.85-2.68-3.984-3.486-6.403-.806-2.418-1.209-4.956-1.209-7.611 0-2.04.403-4.268 1.209-6.687.806-2.466 1.968-4.932 3.486-7.398 1.517-2.466 3.367-4.861 5.548-7.185a41.187 41.187 0 0 1 7.47-6.26c2.75-1.802 5.762-3.249 9.034-4.34 3.32-1.09 6.853-1.636 10.599-1.636Z"/><path fill="#E5A243" d="M241.935 82.091c-.522 1.091-1.043 2.372-1.565 3.842-.474 1.422-.711 2.703-.711 3.841 0 .712.142 1.28.426 1.707.285.427.83.64 1.636.64.996 0 2.229-.284 3.7-.853 1.517-.617 3.13-1.399 4.837-2.347a88.46 88.46 0 0 0 5.406-3.344c1.897-1.28 3.77-2.584 5.62-3.912a187.67 187.67 0 0 0 5.264-4.055 196.463 196.463 0 0 0 4.553-3.77c.379-.332.83-.57 1.351-.712.522-.142.973-.213 1.352-.213.948 0 1.731.332 2.348.996.616.664.924 1.541.924 2.632 0 .996-.332 2.11-.996 3.343-.664 1.233-1.825 2.443-3.485 3.628a199.853 199.853 0 0 1-9.177 7.967c-3.082 2.514-6.165 4.743-9.248 6.687-3.035 1.897-6.07 3.415-9.105 4.553-2.988 1.138-5.904 1.707-8.75 1.707-1.944 0-3.58-.261-4.908-.782-1.281-.522-2.324-1.233-3.13-2.134-.759-.901-1.304-1.969-1.636-3.201a14.99 14.99 0 0 1-.498-3.913c0-2.324.332-4.695.996-7.114.711-2.466 1.541-4.718 2.489-6.758a784.32 784.32 0 0 1 5.051-11.026c1.707-3.651 3.272-6.995 4.695-10.03l21.554-45.883c.854-1.85 1.992-3.154 3.415-3.912 1.47-.76 2.94-1.139 4.41-1.139 1.47 0 2.798.403 3.984 1.21 1.233.806 1.85 2.11 1.85 3.912 0 .854-.214 1.755-.641 2.703a25.468 25.468 0 0 1-1.494 3.06 713.164 713.164 0 0 0-4.268 8.18l-5.264 10.528c-1.849 3.794-3.77 7.754-5.762 11.88a1464.88 1464.88 0 0 1-5.762 11.95c-1.85 3.89-3.604 7.589-5.264 11.098a4912.688 4912.688 0 0 0-4.197 9.034Z"/><path fill="#E5A243" d="M296.923 60.68a3.286 3.286 0 0 0-.64-.072h-.64c-1.802 0-3.486.356-5.051 1.067a17.14 17.14 0 0 0-4.339 2.846 23.084 23.084 0 0 0-3.486 3.912 55.079 55.079 0 0 0-2.703 4.41 41.818 41.818 0 0 0-2.063 4.127 53.011 53.011 0 0 0-1.209 3.343 72.763 72.763 0 0 0 5.122-2.917 265.992 265.992 0 0 0 5.05-3.13 99.716 99.716 0 0 0 4.055-2.703c1.186-.806 2.016-1.351 2.49-1.636 2.134-1.328 3.604-2.56 4.41-3.699.806-1.186 1.21-2.205 1.21-3.059 0-.711-.238-1.28-.712-1.707a2.7 2.7 0 0 0-1.494-.783Zm2.561-9.818c3.936 0 6.877.949 8.821 2.846 1.945 1.897 2.917 4.529 2.917 7.896 0 1.992-.522 4.079-1.565 6.26-1.044 2.182-2.846 4.41-5.407 6.687-2.561 2.229-5.999 4.529-10.314 6.9-4.269 2.324-9.628 4.672-16.077 7.043.237 1.375.972 2.466 2.205 3.272 1.233.759 2.869 1.138 4.908 1.138 2.182 0 4.506-.308 6.972-.925a59.011 59.011 0 0 0 7.398-2.49 109.918 109.918 0 0 0 7.185-3.2c2.324-1.186 4.41-2.3 6.26-3.344a114.433 114.433 0 0 0 4.695-2.703c1.28-.759 2.134-1.233 2.561-1.423.426-.284.806-.45 1.138-.498.379-.047.711-.071.996-.071.569 0 1.043.142 1.422.427.38.237.688.545.925.925.285.332.475.711.569 1.138.095.38.143.711.143.996 0 .426-.048.948-.143 1.565-.094.569-.45 1.233-1.067 1.992-.237.237-1.043.877-2.418 1.92-1.328 1.044-3.059 2.277-5.193 3.7-2.134 1.422-4.624 2.94-7.47 4.552a87.261 87.261 0 0 1-8.963 4.34 66.268 66.268 0 0 1-9.817 3.272c-3.414.901-6.781 1.351-10.101 1.351-2.845 0-5.383-.545-7.612-1.636a17.593 17.593 0 0 1-5.619-4.41c-1.518-1.85-2.68-3.984-3.486-6.403-.806-2.418-1.209-4.956-1.209-7.611 0-2.04.403-4.268 1.209-6.687.806-2.466 1.968-4.932 3.486-7.398 1.517-2.466 3.367-4.861 5.548-7.185a41.187 41.187 0 0 1 7.47-6.26c2.75-1.802 5.762-3.249 9.034-4.34 3.32-1.09 6.853-1.636 10.599-1.636Z"/><path fill="#E5A243" d="M338.04 62.6c2.893 1.518 5.478 3.249 7.754 5.193 2.276 1.944 4.197 4.007 5.762 6.189 1.613 2.134 2.822 4.316 3.628 6.544.854 2.23 1.281 4.41 1.281 6.545 0 2.703-.783 5.145-2.348 7.327-1.518 2.134-3.533 3.96-6.047 5.478-2.466 1.47-5.311 2.584-8.536 3.343a39.193 39.193 0 0 1-9.675 1.209c-2.466 0-4.86-.284-7.184-.853-2.324-.522-4.458-1.352-6.403-2.49a17.869 17.869 0 0 1-4.908-4.34c-1.375-1.802-2.347-3.936-2.917-6.402-.094-.38-.142-.687-.142-.925 0-1.28.451-2.37 1.352-3.272.901-.948 1.897-1.422 2.987-1.422.522 0 1.091.094 1.708.284.664.19 1.162.617 1.494 1.28.616 1.139 1.47 2.158 2.561 3.06a20.154 20.154 0 0 0 3.77 2.347 26.007 26.007 0 0 0 4.339 1.494c1.565.332 3.083.498 4.553.498 1.517 0 2.964-.143 4.339-.427 1.423-.285 2.656-.735 3.699-1.352 1.091-.616 1.945-1.399 2.561-2.347.617-.949.925-2.11.925-3.486 0-2.419-.545-4.648-1.636-6.687-1.091-2.039-2.514-3.912-4.268-5.62-1.708-1.754-3.676-3.367-5.905-4.837a173.3 173.3 0 0 0-6.544-4.34c-.237-.141-.593-.544-1.067-1.208-.475-.712-.712-1.423-.712-2.135 0-.569.143-1.02.427-1.351a36.461 36.461 0 0 1 2.632-3.059 25.947 25.947 0 0 1 3.201-2.846 14.45 14.45 0 0 1 3.699-2.134 10.375 10.375 0 0 1 4.126-.853c1.044 0 2.016.142 2.917.427.901.284 1.66.664 2.276 1.138.617.427 1.091.925 1.423 1.494.379.521.569 1.02.569 1.493a4 4 0 0 1-.498 1.921 7.68 7.68 0 0 1-1.351 1.779 16.476 16.476 0 0 1-1.85 1.707 60.345 60.345 0 0 1-1.992 1.636Z"/><path fill="#E5A243" d="M381.576 62.6c2.893 1.518 5.477 3.249 7.754 5.193 2.276 1.944 4.197 4.007 5.762 6.189 1.612 2.134 2.821 4.316 3.628 6.544.853 2.23 1.28 4.41 1.28 6.545 0 2.703-.783 5.145-2.348 7.327-1.517 2.134-3.533 3.96-6.046 5.478-2.466 1.47-5.312 2.584-8.536 3.343a39.205 39.205 0 0 1-9.675 1.209c-2.466 0-4.861-.284-7.185-.853-2.324-.522-4.458-1.352-6.402-2.49a17.869 17.869 0 0 1-4.908-4.34c-1.376-1.802-2.348-3.936-2.917-6.402-.095-.38-.142-.687-.142-.925 0-1.28.45-2.37 1.351-3.272.901-.948 1.897-1.422 2.988-1.422.522 0 1.091.094 1.707.284.664.19 1.162.617 1.494 1.28.617 1.139 1.47 2.158 2.561 3.06a20.186 20.186 0 0 0 3.77 2.347 26.018 26.018 0 0 0 4.34 1.494c1.565.332 3.082.498 4.552.498 1.518 0 2.964-.143 4.34-.427 1.422-.285 2.655-.735 3.699-1.352 1.09-.616 1.944-1.399 2.561-2.347.616-.949.924-2.11.924-3.486 0-2.419-.545-4.648-1.636-6.687-1.091-2.039-2.513-3.912-4.268-5.62-1.707-1.754-3.675-3.367-5.904-4.837a173.328 173.328 0 0 0-6.545-4.34c-.237-.141-.593-.544-1.067-1.208-.474-.712-.711-1.423-.711-2.135 0-.569.142-1.02.427-1.351a36.277 36.277 0 0 1 2.632-3.059 25.947 25.947 0 0 1 3.201-2.846 14.434 14.434 0 0 1 3.699-2.134 10.372 10.372 0 0 1 4.126-.853c1.043 0 2.015.142 2.916.427.901.284 1.66.664 2.277 1.138.616.427 1.091.925 1.422 1.494.38.521.57 1.02.57 1.493a4 4 0 0 1-.498 1.921 7.685 7.685 0 0 1-1.352 1.779 16.39 16.39 0 0 1-1.85 1.707 59.296 59.296 0 0 1-1.991 1.636Z"/></svg>