<svg width="70" height="118" viewBox="0 0 70 118" fill="none" xmlns="http://www.w3.org/2000/svg">
<path fill-rule="evenodd" clip-rule="evenodd" d="M61.973 13.2479C60.7064 11.595 59.2286 10.1575 57.6834 8.76714C50.3252 2.26363 40.166 -1.11397 30.3663 0.330433L29.8799 0.410666C24.0491 1.27792 18.7427 3.8342 14.0477 7.32873L13.762 7.54248C9.96568 10.3786 6.65406 14.4839 4.48952 18.6859C4.35101 18.9567 4.2118 19.2267 4.06732 19.4944C1.31502 24.5575 0.0686134 30.3478 0.047837 36.0789C0.0478779 36.3653 0.0478853 36.6517 0.0472233 36.9381C0.0456671 37.4817 0.0446136 38.0253 0.0442285 38.5689C0.0438208 39.1611 0.0428044 39.7533 0.0415862 40.3455C0.0386266 41.7796 0.0369335 43.2138 0.0356576 44.6479C0.0351776 45.1942 0.0346454 45.7404 0.0340557 46.2866C0.0314334 48.6929 0.0289767 51.0993 0.0278354 53.5056L0.0268081 55.714C0.0256916 58.0846 0.0226659 60.4552 0.0180326 62.8257C0.0132415 65.275 0.0100555 67.7243 0.00950528 70.1736C0.00925006 71.5459 0.00886539 72.9181 0.00530907 74.2904C0.00215256 75.4655 4.72647e-05 76.6406 0.000925688 77.8157L0.00119653 78.0339C0.00187159 78.5644 0.00254665 79.095 0.00059922 79.6256C-0.0384204 87.84 1.8239 95.9542 6.84803 102.646C7.02617 102.879 7.20377 103.113 7.37797 103.349C8.81833 105.308 10.5654 106.987 12.3691 108.61L12.7635 108.957C17.5545 113.175 23.6847 115.874 29.9873 116.758L30.3078 116.802C34.9955 117.477 39.9224 117.259 44.4589 115.836L44.9993 115.661C48.6377 114.576 52.213 112.882 55.2468 110.585L55.697 110.241C58.035 108.552 60.1139 106.468 61.9346 104.235L62.2583 103.822C64.2735 101.259 65.8475 98.561 67.1391 95.5713C67.2238 95.3737 67.3085 95.1761 67.3932 94.9785C68.1379 93.2831 68.6678 91.5678 69.0681 89.7594C69.1306 89.473 69.1933 89.1867 69.2586 88.9009C69.9322 85.9562 70.003 83.0418 69.9985 80.0334C69.9976 79.4443 69.9979 78.8552 69.9986 78.2661C70.0001 77.1088 70.0004 75.9516 69.9995 74.7943C69.9989 73.8457 69.9985 72.897 69.9987 71.9484L69.9991 70.7124C70 68.136 69.9994 65.5596 69.9979 62.9831C69.9965 60.7721 69.9963 58.5612 69.9976 56.3502C69.9991 53.7668 70.0001 51.1835 69.9992 48.6001L69.9988 47.3578C69.9985 46.4072 69.9986 45.4565 69.9993 44.5059C70.0001 43.3372 70.0004 42.1686 69.9991 40.9999C69.9983 40.4006 69.9973 39.8013 69.998 39.2019C70.0047 35.0423 70.0048 30.8033 68.8045 26.7789C68.7327 26.5489 68.6617 26.3187 68.5936 26.0876C67.2545 21.5325 65.0953 17.2964 62.197 13.537L61.973 13.2479ZM47.505 19.2771L47.2813 19.096C43.0125 15.6196 36.9806 14.1942 31.5807 15.1568L31.1634 15.2448C27.2721 16.007 23.5633 17.9883 20.8201 20.8533L20.4657 21.2356C18.4376 23.3778 16.6822 25.8294 15.7157 28.6395L15.6161 28.9379C14.4713 32.3485 14.2675 35.7118 14.2794 39.2849C14.2815 39.8568 14.2816 40.4286 14.281 41.0004C14.2798 42.1238 14.2805 43.2473 14.2828 44.3708C14.2854 45.689 14.2862 47.0073 14.2863 48.3256C14.2865 50.6771 14.2882 53.0286 14.2916 55.3802C14.2949 57.6658 14.2974 59.9514 14.298 62.237L14.2985 64.3711C14.299 66.5651 14.3004 68.759 14.3022 70.9529C14.3028 71.744 14.3034 72.535 14.3038 73.3261C14.3044 74.5908 14.3053 75.8555 14.3072 77.1201L14.3076 77.3399C14.3084 77.8454 14.3093 78.3509 14.3095 78.8564C14.3096 79.392 14.3099 79.9275 14.311 80.4631C14.3113 80.5799 14.3116 80.6967 14.3118 80.8135C14.312 80.8926 14.3122 80.9716 14.3123 81.0507C14.312 81.5569 14.3132 82.063 14.3188 82.5692C14.4789 87.6323 16.854 92.9807 20.5125 96.479L20.8936 96.8328C22.5563 98.4284 24.3274 99.5856 26.3678 100.632C27.4362 101.177 28.4894 101.727 29.4668 102.428C32.8271 105.097 34.3213 108.552 34.9758 112.699L35.0146 112.951H35.1572C35.2161 111.588 35.4659 110.258 35.8704 108.957C37.1595 105.353 39.7999 102.645 43.1627 100.916C45.8419 99.5441 48.2876 98.0657 50.2672 95.758L50.562 95.4064C52.4925 93.2315 53.872 90.7127 54.7651 87.9519L54.8767 87.5971C55.7659 84.8491 55.759 82.0053 55.7498 79.15C55.7478 78.5598 55.7477 77.9695 55.7482 77.3793C55.7494 76.2202 55.7487 75.0612 55.7465 73.9022C55.7439 72.5419 55.7431 71.1816 55.7429 69.8213C55.7428 67.3958 55.741 64.9703 55.7376 62.5448C55.7343 60.1861 55.7318 57.8273 55.7312 55.4685L55.7307 53.2671C55.7303 51.0046 55.7288 48.7422 55.7271 46.4797C55.7264 45.6636 55.7258 44.8475 55.7254 44.0314C55.7248 42.7261 55.7239 41.4208 55.722 40.1154L55.7216 39.8883C55.7208 39.3668 55.7199 38.8453 55.7197 38.3238C55.7196 37.7708 55.7193 37.2178 55.7182 36.6648C55.7177 36.4629 55.7173 36.261 55.7169 36.059C55.717 35.9414 55.7174 35.8239 55.7178 35.7063C55.72 35.0403 55.7223 34.374 55.6663 33.7102C54.9665 27.9599 51.9555 22.898 47.505 19.2771Z" fill="#282828"/>
<path d="M37.7197 52.859C38.0748 52.8598 38.4299 52.8604 38.7851 52.8608C39.7129 52.8625 40.6408 52.8667 41.5686 52.8714C42.5182 52.8758 43.4677 52.8778 44.4172 52.8799C46.2753 52.8845 48.1334 52.8917 49.9915 52.9008C49.9935 53.1506 49.9949 53.4004 49.9961 53.6502C49.9969 53.7893 49.9978 53.9285 49.9986 54.0718C49.9356 57.5625 47.9714 60.9078 45.5697 63.3132C44.1422 64.6319 42.6527 65.5753 40.8449 66.2729C40.6933 66.3333 40.6933 66.3333 40.5387 66.3948C38.1877 67.2545 35.7147 67.2234 33.2484 67.2062C32.9067 67.2054 32.565 67.2048 32.2233 67.2044C31.3327 67.2028 30.4422 67.1986 29.5516 67.1938C28.6393 67.1894 27.727 67.1875 26.8147 67.1853C25.0312 67.1808 23.2477 67.1735 21.4642 67.1644C21.4625 66.9148 21.4613 66.6653 21.4602 66.4157C21.4591 66.2072 21.4591 66.2072 21.458 65.9945C21.5116 62.5446 23.4012 59.3098 25.7166 56.8768C29.1236 53.5822 33.1624 52.8287 37.7197 52.859Z" fill="#282828"/>
</svg>
