<svg width="136" height="277" fill="none" xmlns="http://www.w3.org/2000/svg"><path d="M37.513 2.27a.9.9 0 1 0 0-1.8.9.9 0 0 0 0 1.8ZM44.713 2.31a.94.94 0 1 0 0-1.88.94.94 0 0 0 0 1.88ZM51.913 2.34a.97.97 0 1 0 0-1.94.97.97 0 0 0 0 1.94ZM59.113 2.37a1 1 0 1 0 0-2 1 1 0 0 0 0 2ZM66.313 2.41a1.04 1.04 0 1 0 0-2.08 1.04 1.04 0 0 0 0 2.08ZM73.513 2.44a1.07 1.07 0 1 0 0-2.14 1.07 1.07 0 0 0 0 2.14ZM80.713 2.47a1.1 1.1 0 1 0 0-2.2 1.1 1.1 0 0 0 0 2.2ZM87.913 2.47a1.1 1.1 0 1 0 0-2.2 1.1 1.1 0 0 0 0 2.2ZM95.113 2.46a1.09 1.09 0 1 0 0-2.18 1.09 1.09 0 0 0 0 2.18ZM102.313 2.44a1.07 1.07 0 1 0 0-2.139 1.07 1.07 0 0 0 0 2.14ZM109.513 2.44a1.07 1.07 0 1 0 0-2.139 1.07 1.07 0 0 0 0 2.14ZM116.713 2.42a1.05 1.05 0 1 0 0-2.099 1.05 1.05 0 0 0 0 2.1ZM123.913 2.41a1.04 1.04 0 1 0 0-2.08 1.04 1.04 0 0 0 0 2.08ZM131.113 2.4a1.03 1.03 0 1 0 0-2.059 1.03 1.03 0 0 0 0 2.06ZM5.113 5.71a.74.74 0 1 0 0-1.48.74.74 0 0 0 0 1.48ZM12.313 5.75a.78.78 0 1 0 0-1.56.78.78 0 0 0 0 1.56ZM19.513 5.78a.81.81 0 1 0 0-1.619.81.81 0 0 0 0 1.62ZM26.713 5.81a.84.84 0 1 0 0-1.679.84.84 0 0 0 0 1.68ZM55.513 5.94a.97.97 0 1 0 0-1.94.97.97 0 0 0 0 1.94ZM62.713 5.97a1 1 0 1 0 0-2 1 1 0 0 0 0 2ZM69.913 6.01a1.04 1.04 0 1 0 0-2.08 1.04 1.04 0 0 0 0 2.08ZM77.113 6.04a1.07 1.07 0 1 0 0-2.14 1.07 1.07 0 0 0 0 2.14ZM84.313 6.07a1.1 1.1 0 1 0 0-2.2 1.1 1.1 0 0 0 0 2.2ZM91.513 6.07a1.1 1.1 0 1 0 0-2.2 1.1 1.1 0 0 0 0 2.2ZM98.713 6.06a1.09 1.09 0 1 0 0-2.18 1.09 1.09 0 0 0 0 2.18ZM105.913 6.04a1.07 1.07 0 1 0 0-2.14 1.07 1.07 0 0 0 0 2.14ZM113.113 6.04a1.07 1.07 0 1 0 0-2.14 1.07 1.07 0 0 0 0 2.14ZM120.313 6.02a1.05 1.05 0 1 0 0-2.099 1.05 1.05 0 0 0 0 2.1ZM127.513 6.01a1.04 1.04 0 1 0 0-2.08 1.04 1.04 0 0 0 0 2.08ZM134.713 6a1.03 1.03 0 1 0-.001-2.06 1.03 1.03 0 0 0 .001 2.06ZM30.313 9.41a.84.84 0 1 0 0-1.679.84.84 0 0 0 0 1.68ZM37.513 9.44a.87.87 0 1 0 0-1.74.87.87 0 0 0 0 1.74ZM44.713 9.47a.9.9 0 1 0 0-1.8.9.9 0 0 0 0 1.8ZM51.913 9.51a.94.94 0 1 0 0-1.88.94.94 0 0 0 0 1.88ZM59.113 9.54a.97.97 0 1 0 0-1.94.97.97 0 0 0 0 1.94ZM66.313 9.57a1 1 0 1 0 0-2 1 1 0 0 0 0 2ZM73.513 9.61a1.04 1.04 0 1 0 0-2.08 1.04 1.04 0 0 0 0 2.08ZM80.713 9.64a1.07 1.07 0 1 0 0-2.14 1.07 1.07 0 0 0 0 2.14ZM87.913 9.67a1.1 1.1 0 1 0 0-2.2 1.1 1.1 0 0 0 0 2.2ZM95.113 9.67a1.1 1.1 0 1 0 0-2.2 1.1 1.1 0 0 0 0 2.2ZM102.313 9.66a1.09 1.09 0 1 0 0-2.18 1.09 1.09 0 0 0 0 2.18ZM109.513 9.64a1.07 1.07 0 1 0 0-2.14 1.07 1.07 0 0 0 0 2.14ZM116.713 9.64a1.07 1.07 0 1 0 0-2.14 1.07 1.07 0 0 0 0 2.14ZM123.913 9.62a1.05 1.05 0 1 0 0-2.099 1.05 1.05 0 0 0 0 2.1ZM131.113 9.61a1.04 1.04 0 1 0 0-2.08 1.04 1.04 0 0 0 0 2.08ZM5.113 12.87a.7.7 0 1 0 0-1.4.7.7 0 0 0 0 1.4ZM12.313 12.91a.74.74 0 1 0 0-1.48.74.74 0 0 0 0 1.48ZM19.513 12.95a.78.78 0 1 0 0-1.56.78.78 0 0 0 0 1.56ZM62.713 13.14a.97.97 0 1 0 0-1.94.97.97 0 0 0 0 1.94ZM69.913 13.17a1 1 0 1 0 0-2 1 1 0 0 0 0 2ZM77.113 13.21a1.04 1.04 0 1 0 0-2.08 1.04 1.04 0 0 0 0 2.08ZM84.313 13.24a1.07 1.07 0 1 0 0-2.14 1.07 1.07 0 0 0 0 2.14ZM91.513 13.27a1.1 1.1 0 1 0 0-2.2 1.1 1.1 0 0 0 0 2.2ZM98.713 13.27a1.1 1.1 0 1 0 0-2.2 1.1 1.1 0 0 0 0 2.2ZM105.913 13.26a1.09 1.09 0 1 0 0-2.18 1.09 1.09 0 0 0 0 2.18ZM113.113 13.24a1.07 1.07 0 1 0 0-2.14 1.07 1.07 0 0 0 0 2.14ZM120.313 13.24a1.07 1.07 0 1 0 0-2.14 1.07 1.07 0 0 0 0 2.14ZM127.513 13.22a1.05 1.05 0 1 0 0-2.1 1.05 1.05 0 0 0 0 2.1ZM134.713 13.21a1.04 1.04 0 1 0 0-2.08 1.04 1.04 0 0 0 0 2.08ZM23.113 16.55a.78.78 0 1 0 0-1.56.78.78 0 0 0 0 1.56ZM30.313 16.58a.81.81 0 1 0 0-1.62.81.81 0 0 0 0 1.62ZM37.513 16.61a.84.84 0 1 0 0-1.679.84.84 0 0 0 0 1.68ZM44.713 16.64a.87.87 0 1 0 0-1.74.87.87 0 0 0 0 1.74ZM51.913 16.67a.9.9 0 1 0 0-1.8.9.9 0 0 0 0 1.8ZM59.113 16.71a.94.94 0 1 0 0-1.879.94.94 0 0 0 0 1.88ZM66.313 16.74a.97.97 0 1 0 0-1.94.97.97 0 0 0 0 1.94ZM73.513 16.77a1 1 0 1 0 0-2 1 1 0 0 0 0 2ZM80.713 16.81a1.04 1.04 0 1 0 0-2.08 1.04 1.04 0 0 0 0 2.08ZM87.913 16.84a1.07 1.07 0 1 0 0-2.14 1.07 1.07 0 0 0 0 2.14ZM95.113 16.87a1.1 1.1 0 1 0 0-2.2 1.1 1.1 0 0 0 0 2.2ZM102.313 16.87a1.1 1.1 0 1 0 0-2.2 1.1 1.1 0 0 0 0 2.2ZM109.513 16.86a1.09 1.09 0 1 0 0-2.18 1.09 1.09 0 0 0 0 2.18ZM116.713 16.84a1.07 1.07 0 1 0 0-2.139 1.07 1.07 0 0 0 0 2.14ZM123.913 16.84a1.07 1.07 0 1 0 0-2.139 1.07 1.07 0 0 0 0 2.14ZM131.113 16.82a1.05 1.05 0 1 0 0-2.1 1.05 1.05 0 0 0 0 2.1ZM5.113 20.1a.73.73 0 1 0 0-1.46.73.73 0 0 0 0 1.46ZM12.313 20.07a.7.7 0 1 0 0-1.4.7.7 0 0 0 0 1.4ZM69.913 20.34a.97.97 0 1 0 0-1.94.97.97 0 0 0 0 1.94ZM77.113 20.37a1 1 0 1 0 0-2 1 1 0 0 0 0 2ZM84.313 20.41a1.04 1.04 0 1 0 0-2.08 1.04 1.04 0 0 0 0 2.08ZM91.513 20.44a1.07 1.07 0 1 0 0-2.14 1.07 1.07 0 0 0 0 2.14ZM98.713 20.47a1.1 1.1 0 1 0 0-2.2 1.1 1.1 0 0 0 0 2.2ZM105.913 20.47a1.1 1.1 0 1 0 0-2.2 1.1 1.1 0 0 0 0 2.2ZM113.113 20.46a1.09 1.09 0 1 0 0-2.18 1.09 1.09 0 0 0 0 2.18ZM120.313 20.44a1.07 1.07 0 1 0 0-2.14 1.07 1.07 0 0 0 0 2.14ZM127.513 20.44a1.07 1.07 0 1 0 0-2.14 1.07 1.07 0 0 0 0 2.14ZM134.713 20.42a1.05 1.05 0 1 0 0-2.099 1.05 1.05 0 0 0 0 2.1ZM19.513 23.69a.72.72 0 1 0 0-1.44.72.72 0 0 0 0 1.44ZM26.713 23.73a.76.76 0 1 0 0-1.519.76.76 0 0 0 0 1.52ZM33.913 23.76a.79.79 0 1 0 0-1.58.79.79 0 0 0 0 1.58ZM41.113 23.79a.82.82 0 1 0 0-1.64.82.82 0 0 0 0 1.64ZM48.313 23.82a.85.85 0 1 0 0-1.7.85.85 0 0 0 0 1.7ZM55.513 23.86a.89.89 0 1 0 0-1.779.89.89 0 0 0 0 1.78ZM62.713 23.89a.92.92 0 1 0 0-1.84.92.92 0 0 0 0 1.84ZM73.513 23.94a.97.97 0 1 0 0-1.94.97.97 0 0 0 0 1.94ZM80.713 23.97a1 1 0 1 0 0-2 1 1 0 0 0 0 2ZM87.913 24.01a1.04 1.04 0 1 0 0-2.079 1.04 1.04 0 0 0 0 2.08ZM95.113 24.04a1.07 1.07 0 1 0 0-2.14 1.07 1.07 0 0 0 0 2.14ZM102.313 24.07a1.1 1.1 0 1 0 0-2.2 1.1 1.1 0 0 0 0 2.2ZM109.513 24.07a1.1 1.1 0 1 0 0-2.198 1.1 1.1 0 0 0 0 2.199ZM116.713 24.06a1.09 1.09 0 1 0 0-2.18 1.09 1.09 0 0 0 0 2.18ZM123.913 24.04a1.07 1.07 0 1 0 0-2.14 1.07 1.07 0 0 0 0 2.14ZM131.113 24.04a1.07 1.07 0 1 0 0-2.14 1.07 1.07 0 0 0 0 2.14ZM5.113 27.32a.75.75 0 1 0 0-1.5.75.75 0 0 0 0 1.5ZM12.313 27.3a.73.73 0 1 0 0-1.46.73.73 0 0 0 0 1.46ZM66.313 27.49a.92.92 0 1 0 0-1.84.92.92 0 0 0 0 1.84ZM77.113 27.54a.97.97 0 1 0 0-1.94.97.97 0 0 0 0 1.94ZM84.313 27.57a1 1 0 1 0 0-2 1 1 0 0 0 0 2ZM91.513 27.61a1.04 1.04 0 1 0 0-2.079 1.04 1.04 0 0 0 0 2.08ZM98.713 27.64a1.07 1.07 0 1 0 0-2.14 1.07 1.07 0 0 0 0 2.14ZM105.913 27.67a1.1 1.1 0 1 0 0-2.2 1.1 1.1 0 0 0 0 2.2ZM113.113 27.67a1.1 1.1 0 1 0 0-2.2 1.1 1.1 0 0 0 0 2.2ZM120.313 27.66a1.09 1.09 0 1 0 0-2.18 1.09 1.09 0 0 0 0 2.18ZM127.513 27.64a1.07 1.07 0 1 0 0-2.14 1.07 1.07 0 0 0 0 2.14ZM134.713 27.64a1.07 1.07 0 1 0 0-2.14 1.07 1.07 0 0 0 0 2.14ZM15.913 30.9a.73.73 0 1 0 0-1.459.73.73 0 0 0 0 1.46ZM23.113 30.87a.7.7 0 1 0 0-1.4.7.7 0 0 0 0 1.4ZM30.313 30.91a.74.74 0 1 0 0-1.479.74.74 0 0 0 0 1.48ZM37.513 30.95a.78.78 0 1 0 0-1.56.78.78 0 0 0 0 1.56ZM44.713 30.98a.81.81 0 1 0 0-1.62.81.81 0 0 0 0 1.62ZM51.913 31.01a.84.84 0 1 0 0-1.679.84.84 0 0 0 0 1.68ZM59.113 31.04a.87.87 0 1 0 0-1.74.87.87 0 0 0 0 1.74ZM69.913 31.09a.92.92 0 1 0 0-1.84.92.92 0 0 0 0 1.84ZM80.713 31.14a.97.97 0 1 0 0-1.94.97.97 0 0 0 0 1.94ZM87.913 31.17a1 1 0 1 0 0-2 1 1 0 0 0 0 2ZM95.113 31.21a1.04 1.04 0 1 0 0-2.08 1.04 1.04 0 0 0 0 2.08ZM102.313 31.24a1.07 1.07 0 1 0 0-2.14 1.07 1.07 0 0 0 0 2.14ZM109.513 31.27a1.1 1.1 0 1 0 0-2.198 1.1 1.1 0 0 0 0 2.199ZM116.713 31.27a1.1 1.1 0 1 0 0-2.2 1.1 1.1 0 0 0 0 2.2ZM123.913 31.26a1.09 1.09 0 1 0 0-2.18 1.09 1.09 0 0 0 0 2.18ZM131.113 31.24a1.07 1.07 0 1 0 0-2.14 1.07 1.07 0 0 0 0 2.14ZM5.113 34.54a.77.77 0 1 0 0-1.54.77.77 0 0 0 0 1.54ZM62.713 34.64a.87.87 0 1 0 0-1.74.87.87 0 0 0 0 1.74ZM73.513 34.69a.92.92 0 1 0 0-1.84.92.92 0 0 0 0 1.84ZM84.313 34.74a.97.97 0 1 0 0-1.94.97.97 0 0 0 0 1.94ZM91.513 34.77a1 1 0 1 0 0-2 1 1 0 0 0 0 2ZM98.713 34.81a1.04 1.04 0 1 0 0-2.08 1.04 1.04 0 0 0 0 2.08ZM105.913 34.84a1.07 1.07 0 1 0 0-2.139 1.07 1.07 0 0 0 0 2.14ZM113.113 34.87a1.1 1.1 0 1 0 0-2.2 1.1 1.1 0 0 0 0 2.2ZM120.313 34.87a1.1 1.1 0 1 0 0-2.2 1.1 1.1 0 0 0 0 2.2ZM127.513 34.86a1.09 1.09 0 1 0 0-2.18 1.09 1.09 0 0 0 0 2.18ZM134.713 34.84a1.07 1.07 0 1 0 0-2.139 1.07 1.07 0 0 0 0 2.14ZM8.713 38.14a.77.77 0 1 0 0-1.54.77.77 0 0 0 0 1.54ZM15.913 38.12a.75.75 0 1 0 0-1.5.75.75 0 0 0 0 1.5ZM23.113 38.1a.73.73 0 1 0 0-1.46.73.73 0 0 0 0 1.46ZM30.313 38.07a.7.7 0 1 0 0-1.4.7.7 0 0 0 0 1.4ZM37.513 38.11a.74.74 0 1 0 0-1.48.74.74 0 0 0 0 1.48ZM44.713 38.15a.78.78 0 1 0 0-1.56.78.78 0 0 0 0 1.56ZM51.913 38.18a.81.81 0 1 0 0-1.619.81.81 0 0 0 0 1.62ZM66.313 38.24a.87.87 0 1 0 0-1.74.87.87 0 0 0 0 1.74ZM77.113 38.29a.92.92 0 1 0 0-1.84.92.92 0 0 0 0 1.84ZM87.913 38.34a.97.97 0 1 0 0-1.94.97.97 0 0 0 0 1.94ZM95.113 38.37a1 1 0 1 0 0-2 1 1 0 0 0 0 2ZM102.313 38.41a1.04 1.04 0 1 0 0-2.08 1.04 1.04 0 0 0 0 2.08ZM109.513 38.44a1.07 1.07 0 1 0 0-2.14 1.07 1.07 0 0 0 0 2.14ZM116.713 38.47a1.1 1.1 0 1 0 0-2.2 1.1 1.1 0 0 0 0 2.2ZM123.913 38.47a1.1 1.1 0 1 0 0-2.2 1.1 1.1 0 0 0 0 2.2ZM131.113 38.46a1.09 1.09 0 1 0 0-2.18 1.09 1.09 0 0 0 0 2.18ZM55.513 41.78a.81.81 0 1 0 0-1.62.81.81 0 0 0 0 1.62ZM69.913 41.84a.87.87 0 1 0 0-1.74.87.87 0 0 0 0 1.74ZM80.713 41.89a.92.92 0 1 0 0-1.84.92.92 0 0 0 0 1.84ZM91.513 41.94a.97.97 0 1 0 0-1.94.97.97 0 0 0 0 1.94ZM98.713 41.97a1 1 0 1 0 0-2 1 1 0 0 0 0 2ZM105.913 42.01a1.04 1.04 0 1 0 0-2.08 1.04 1.04 0 0 0 0 2.08ZM113.113 42.04a1.07 1.07 0 1 0 0-2.14 1.07 1.07 0 0 0 0 2.14ZM120.313 42.07a1.1 1.1 0 1 0 0-2.2 1.1 1.1 0 0 0 0 2.2ZM127.513 42.07a1.1 1.1 0 1 0 0-2.198 1.1 1.1 0 0 0 0 2.199ZM134.713 42.06a1.09 1.09 0 1 0 0-2.18 1.09 1.09 0 0 0 0 2.18ZM5.113 45.37a.8.8 0 1 0 0-1.6.8.8 0 0 0 0 1.6ZM12.313 45.35a.78.78 0 1 0 0-1.56.78.78 0 0 0 0 1.56ZM19.513 45.33a.76.76 0 1 0 0-1.52.76.76 0 0 0 0 1.52ZM26.713 45.31a.74.74 0 1 0 0-1.48.74.74 0 0 0 0 1.48ZM33.913 45.28a.71.71 0 1 0 0-1.419.71.71 0 0 0 0 1.42ZM41.113 45.29a.72.72 0 1 0 0-1.44.72.72 0 0 0 0 1.44ZM48.313 45.33a.76.76 0 1 0 0-1.52.76.76 0 0 0 0 1.52ZM59.113 45.38a.81.81 0 1 0 0-1.62.81.81 0 0 0 0 1.62ZM73.513 45.44a.87.87 0 1 0 0-1.74.87.87 0 0 0 0 1.74ZM84.313 45.49a.92.92 0 1 0 0-1.84.92.92 0 0 0 0 1.84ZM95.113 45.54a.97.97 0 1 0 0-1.94.97.97 0 0 0 0 1.94ZM102.313 45.57a1 1 0 1 0 0-2 1 1 0 0 0 0 2ZM109.513 45.61a1.04 1.04 0 1 0 0-2.08 1.04 1.04 0 0 0 0 2.08ZM116.713 45.64a1.07 1.07 0 1 0 0-2.14 1.07 1.07 0 0 0 0 2.14ZM123.913 45.67a1.1 1.1 0 1 0 0-2.2 1.1 1.1 0 0 0 0 2.2ZM131.113 45.67a1.1 1.1 0 1 0 0-2.2 1.1 1.1 0 0 0 0 2.2ZM51.913 48.93a.76.76 0 1 0 0-1.52.76.76 0 0 0 0 1.52ZM62.713 48.98a.81.81 0 1 0 0-1.62.81.81 0 0 0 0 1.62ZM77.113 49.04a.87.87 0 1 0 0-1.74.87.87 0 0 0 0 1.74ZM87.913 49.09a.92.92 0 1 0 0-1.84.92.92 0 0 0 0 1.84ZM98.713 49.14a.97.97 0 1 0 0-1.94.97.97 0 0 0 0 1.94ZM105.913 49.17a1 1 0 1 0 0-2 1 1 0 0 0 0 2ZM113.113 49.21a1.04 1.04 0 1 0 0-2.08 1.04 1.04 0 0 0 0 2.08ZM120.313 49.24a1.07 1.07 0 1 0 0-2.14 1.07 1.07 0 0 0 0 2.14ZM127.513 49.27a1.1 1.1 0 1 0 0-2.198 1.1 1.1 0 0 0 0 2.199ZM134.713 49.27a1.1 1.1 0 1 0 0-2.2 1.1 1.1 0 0 0 0 2.2ZM5.113 52.59a.82.82 0 1 0 0-1.64.82.82 0 0 0 0 1.64ZM12.313 52.57a.8.8 0 1 0 0-1.6.8.8 0 0 0 0 1.6ZM19.513 52.55a.78.78 0 1 0 0-1.56.78.78 0 0 0 0 1.56ZM26.713 52.53a.76.76 0 1 0 0-1.52.76.76 0 0 0 0 1.52ZM33.913 52.51a.74.74 0 1 0 0-1.48.74.74 0 0 0 0 1.48ZM41.113 52.48a.71.71 0 1 0 0-1.419.71.71 0 0 0 0 1.42ZM55.513 52.53a.76.76 0 1 0 0-1.52.76.76 0 0 0 0 1.52ZM66.313 52.58a.81.81 0 1 0 0-1.62.81.81 0 0 0 0 1.62ZM80.713 52.64a.87.87 0 1 0 0-1.74.87.87 0 0 0 0 1.74ZM91.513 52.69a.92.92 0 1 0 0-1.84.92.92 0 0 0 0 1.84ZM102.313 52.74a.97.97 0 1 0 0-1.94.97.97 0 0 0 0 1.94ZM109.513 52.77a1 1 0 1 0 0-2 1 1 0 0 0 0 2ZM116.713 52.81a1.04 1.04 0 1 0 0-2.08 1.04 1.04 0 0 0 0 2.08ZM123.913 52.84a1.07 1.07 0 1 0 0-2.139 1.07 1.07 0 0 0 0 2.14ZM131.113 52.87a1.1 1.1 0 1 0 0-2.2 1.1 1.1 0 0 0 0 2.2ZM48.313 56.07a.7.7 0 1 0 0-1.4.7.7 0 0 0 0 1.4ZM59.113 56.13a.76.76 0 1 0 0-1.519.76.76 0 0 0 0 1.52ZM69.913 56.18a.81.81 0 1 0 0-1.619.81.81 0 0 0 0 1.62ZM84.313 56.24a.87.87 0 1 0 0-1.74.87.87 0 0 0 0 1.74ZM95.113 56.29a.92.92 0 1 0 0-1.84.92.92 0 0 0 0 1.84ZM105.913 56.34a.97.97 0 1 0 0-1.939.97.97 0 0 0 0 1.94ZM113.113 56.37a1 1 0 1 0 0-2 1 1 0 0 0 0 2ZM120.313 56.41a1.04 1.04 0 1 0 0-2.08 1.04 1.04 0 0 0 0 2.08ZM127.513 56.44a1.07 1.07 0 1 0 0-2.14 1.07 1.07 0 0 0 0 2.14ZM134.713 56.47a1.1 1.1 0 1 0 0-2.2 1.1 1.1 0 0 0 0 2.2ZM5.113 59.81a.84.84 0 1 0 0-1.68.84.84 0 0 0 0 1.68ZM12.313 59.79a.82.82 0 1 0 0-1.64.82.82 0 0 0 0 1.64ZM19.513 59.77a.8.8 0 1 0 0-1.6.8.8 0 0 0 0 1.6ZM26.713 59.75a.78.78 0 1 0 0-1.56.78.78 0 0 0 0 1.56ZM33.913 59.73a.76.76 0 1 0 0-1.519.76.76 0 0 0 0 1.52ZM41.113 59.71a.74.74 0 1 0 0-1.48.74.74 0 0 0 0 1.48ZM62.713 59.73a.76.76 0 1 0 0-1.519.76.76 0 0 0 0 1.52ZM73.513 59.78a.81.81 0 1 0 0-1.62.81.81 0 0 0 0 1.62ZM87.913 59.84a.87.87 0 1 0 0-1.74.87.87 0 0 0 0 1.74ZM98.713 59.89a.92.92 0 1 0 0-1.84.92.92 0 0 0 0 1.84ZM109.513 59.94a.97.97 0 1 0 0-1.939.97.97 0 0 0 0 1.94ZM116.713 59.97a1 1 0 1 0 0-2 1 1 0 0 0 0 2ZM123.913 60.01a1.04 1.04 0 1 0 0-2.08 1.04 1.04 0 0 0 0 2.08ZM131.113 60.04a1.07 1.07 0 1 0 0-2.14 1.07 1.07 0 0 0 0 2.14ZM44.713 63.31a.74.74 0 1 0 0-1.48.74.74 0 0 0 0 1.48ZM51.913 63.28a.71.71 0 1 0 0-1.419.71.71 0 0 0 0 1.42ZM66.313 63.33a.76.76 0 1 0 0-1.52.76.76 0 0 0 0 1.52ZM77.113 63.38a.81.81 0 1 0 0-1.62.81.81 0 0 0 0 1.62ZM91.513 63.44a.87.87 0 1 0 0-1.74.87.87 0 0 0 0 1.74ZM102.313 63.49a.92.92 0 1 0 0-1.84.92.92 0 0 0 0 1.84ZM113.113 63.54a.97.97 0 1 0 0-1.939.97.97 0 0 0 0 1.94ZM120.313 63.57a1 1 0 1 0 0-2 1 1 0 0 0 0 2ZM127.513 63.61a1.04 1.04 0 1 0 0-2.08 1.04 1.04 0 0 0 0 2.08ZM134.713 63.64a1.07 1.07 0 1 0 0-2.14 1.07 1.07 0 0 0 0 2.14ZM1.513 67.04a.87.87 0 1 0 0-1.74.87.87 0 0 0 0 1.74ZM8.713 67.02a.85.85 0 1 0 0-1.699.85.85 0 0 0 0 1.7ZM15.913 67a.83.83 0 1 0 0-1.66.83.83 0 0 0 0 1.66ZM23.113 66.98a.81.81 0 1 0 0-1.62.81.81 0 0 0 0 1.62ZM30.313 66.96a.79.79 0 1 0 0-1.58.79.79 0 0 0 0 1.58ZM37.513 66.94a.77.77 0 1 0 0-1.54.77.77 0 0 0 0 1.54ZM59.113 66.87a.7.7 0 1 0 0-1.4.7.7 0 0 0 0 1.4ZM69.913 66.93a.76.76 0 1 0 0-1.52.76.76 0 0 0 0 1.52ZM80.713 66.98a.81.81 0 1 0 0-1.62.81.81 0 0 0 0 1.62ZM95.113 67.04a.87.87 0 1 0 0-1.74.87.87 0 0 0 0 1.74ZM105.913 67.09a.92.92 0 1 0 0-1.84.92.92 0 0 0 0 1.84ZM116.713 67.14a.97.97 0 1 0 0-1.94.97.97 0 0 0 0 1.94ZM123.913 67.17a1 1 0 1 0 0-2 1 1 0 0 0 0 2ZM131.113 67.21a1.04 1.04 0 1 0 0-2.08 1.04 1.04 0 0 0 0 2.08ZM41.113 70.54a.77.77 0 1 0 0-1.54.77.77 0 0 0 0 1.54ZM48.313 70.52a.75.75 0 1 0 0-1.5.75.75 0 0 0 0 1.5ZM73.513 70.53a.76.76 0 1 0 0-1.52.76.76 0 0 0 0 1.52ZM84.313 70.58a.81.81 0 1 0 0-1.62.81.81 0 0 0 0 1.62ZM98.713 70.64a.87.87 0 1 0 0-1.74.87.87 0 0 0 0 1.74ZM109.513 70.69a.92.92 0 1 0 0-1.84.92.92 0 0 0 0 1.84ZM120.313 70.74a.97.97 0 1 0 0-1.94.97.97 0 0 0 0 1.94ZM127.513 70.77a1 1 0 1 0 0-2 1 1 0 0 0 0 2ZM134.713 70.81a1.04 1.04 0 1 0 0-2.08 1.04 1.04 0 0 0 0 2.08ZM1.513 74.26a.89.89 0 1 0 0-1.78.89.89 0 0 0 0 1.78ZM8.713 74.24a.87.87 0 1 0 0-1.74.87.87 0 0 0 0 1.74ZM15.913 74.22a.85.85 0 1 0 0-1.7.85.85 0 0 0 0 1.7ZM23.113 74.2a.83.83 0 1 0 0-1.66.83.83 0 0 0 0 1.66ZM30.313 74.18a.81.81 0 1 0 0-1.619.81.81 0 0 0 0 1.62ZM51.913 74.12a.75.75 0 1 0 0-1.5.75.75 0 0 0 0 1.5ZM59.113 74.1a.73.73 0 1 0 0-1.46.73.73 0 0 0 0 1.46ZM66.313 74.07a.7.7 0 1 0 0-1.4.7.7 0 0 0 0 1.4ZM77.113 74.13a.76.76 0 1 0 0-1.519.76.76 0 0 0 0 1.52ZM87.913 74.18a.81.81 0 1 0 0-1.619.81.81 0 0 0 0 1.62ZM102.313 74.24a.87.87 0 1 0 0-1.74.87.87 0 0 0 0 1.74ZM113.113 74.29a.92.92 0 1 0 0-1.84.92.92 0 0 0 0 1.84ZM123.913 74.34a.97.97 0 1 0 0-1.939.97.97 0 0 0 0 1.94ZM131.113 74.37a1 1 0 1 0 0-2 1 1 0 0 0 0 2ZM33.913 77.78a.81.81 0 1 0 0-1.62.81.81 0 0 0 0 1.62ZM41.113 77.76a.79.79 0 1 0 0-1.58.79.79 0 0 0 0 1.58ZM80.713 77.73a.76.76 0 1 0 0-1.519.76.76 0 0 0 0 1.52ZM91.513 77.78a.81.81 0 1 0 0-1.62.81.81 0 0 0 0 1.62ZM105.913 77.84a.87.87 0 1 0 0-1.74.87.87 0 0 0 0 1.74ZM116.713 77.89a.92.92 0 1 0 0-1.84.92.92 0 0 0 0 1.84ZM127.513 77.94a.97.97 0 1 0 0-1.939.97.97 0 0 0 0 1.94ZM134.713 77.97a1 1 0 1 0 0-2 1 1 0 0 0 0 2ZM1.513 81.5a.93.93 0 1 0 0-1.86.93.93 0 0 0 0 1.86ZM8.713 81.46a.89.89 0 1 0 0-1.78.89.89 0 0 0 0 1.78ZM15.913 81.44a.87.87 0 1 0 0-1.74.87.87 0 0 0 0 1.74ZM23.113 81.42a.85.85 0 1 0 0-1.7.85.85 0 0 0 0 1.7ZM44.713 81.36a.79.79 0 1 0 0-1.58.79.79 0 0 0 0 1.58ZM51.913 81.34a.77.77 0 1 0 0-1.54.77.77 0 0 0 0 1.54ZM59.113 81.32a.75.75 0 1 0 0-1.5.75.75 0 0 0 0 1.5ZM66.313 81.3a.73.73 0 1 0 0-1.46.73.73 0 0 0 0 1.46ZM73.513 81.27a.7.7 0 1 0 0-1.4.7.7 0 0 0 0 1.4ZM84.313 81.33a.76.76 0 1 0 0-1.52.76.76 0 0 0 0 1.52ZM95.113 81.38a.81.81 0 1 0 0-1.62.81.81 0 0 0 0 1.62ZM109.513 81.44a.87.87 0 1 0 0-1.738.87.87 0 0 0 0 1.739ZM120.313 81.49a.92.92 0 1 0 0-1.84.92.92 0 0 0 0 1.84ZM131.113 81.54a.97.97 0 1 0 0-1.939.97.97 0 0 0 0 1.94ZM26.713 85.02a.85.85 0 1 0 0-1.7.85.85 0 0 0 0 1.7ZM33.913 85a.83.83 0 1 0 0-1.66.83.83 0 0 0 0 1.66ZM87.913 84.93a.76.76 0 1 0 0-1.52.76.76 0 0 0 0 1.52ZM98.713 84.98a.81.81 0 1 0 0-1.62.81.81 0 0 0 0 1.62ZM113.113 85.04a.87.87 0 1 0 0-1.74.87.87 0 0 0 0 1.74ZM123.913 85.09a.92.92 0 1 0 0-1.84.92.92 0 0 0 0 1.84ZM134.713 85.14a.97.97 0 1 0 0-1.94.97.97 0 0 0 0 1.94ZM1.513 88.72a.95.95 0 1 0 0-1.899.95.95 0 0 0 0 1.9ZM8.713 88.7a.93.93 0 1 0 0-1.86.93.93 0 0 0 0 1.86ZM15.913 88.66a.89.89 0 1 0 0-1.78.89.89 0 0 0 0 1.78ZM37.513 88.6a.83.83 0 1 0 0-1.66.83.83 0 0 0 0 1.66ZM44.713 88.58a.81.81 0 1 0 0-1.62.81.81 0 0 0 0 1.62ZM51.913 88.56a.79.79 0 1 0 0-1.58.79.79 0 0 0 0 1.58ZM59.113 88.54a.77.77 0 1 0 0-1.54.77.77 0 0 0 0 1.54ZM66.313 88.52a.75.75 0 1 0 0-1.5.75.75 0 0 0 0 1.5ZM73.513 88.5a.73.73 0 1 0 0-1.459.73.73 0 0 0 0 1.46ZM80.713 88.47a.7.7 0 1 0 0-1.4.7.7 0 0 0 0 1.4ZM91.513 88.53a.76.76 0 1 0 0-1.52.76.76 0 0 0 0 1.52ZM102.313 88.58a.81.81 0 1 0 0-1.62.81.81 0 0 0 0 1.62ZM116.713 88.64a.87.87 0 1 0 0-1.74.87.87 0 0 0 0 1.74ZM127.513 88.69a.92.92 0 1 0 0-1.84.92.92 0 0 0 0 1.84ZM19.513 92.26a.89.89 0 1 0 0-1.779.89.89 0 0 0 0 1.78ZM26.713 92.24a.87.87 0 1 0 0-1.74.87.87 0 0 0 0 1.74ZM95.113 92.13a.76.76 0 1 0 0-1.519.76.76 0 0 0 0 1.52ZM105.913 92.18a.81.81 0 1 0 0-1.62.81.81 0 0 0 0 1.62ZM120.313 92.24a.87.87 0 1 0 0-1.74.87.87 0 0 0 0 1.74ZM131.113 92.29a.92.92 0 1 0 0-1.84.92.92 0 0 0 0 1.84ZM1.513 95.94a.97.97 0 1 0 0-1.94.97.97 0 0 0 0 1.94ZM8.713 95.92a.95.95 0 1 0 0-1.9.95.95 0 0 0 0 1.9ZM15.913 95.9a.93.93 0 1 0 0-1.86.93.93 0 0 0 0 1.86ZM30.313 95.84a.87.87 0 1 0 0-1.74.87.87 0 0 0 0 1.74ZM37.513 95.82a.85.85 0 1 0 0-1.7.85.85 0 0 0 0 1.7ZM44.713 95.8a.83.83 0 1 0 0-1.66.83.83 0 0 0 0 1.66ZM51.913 95.78a.81.81 0 1 0 0-1.62.81.81 0 0 0 0 1.62ZM59.113 95.76a.79.79 0 1 0 0-1.58.79.79 0 0 0 0 1.58ZM66.313 95.74a.77.77 0 1 0 0-1.54.77.77 0 0 0 0 1.54ZM73.513 95.72a.75.75 0 1 0 0-1.5.75.75 0 0 0 0 1.5ZM80.713 95.7a.73.73 0 1 0 0-1.46.73.73 0 0 0 0 1.46ZM87.913 95.67a.7.7 0 1 0 0-1.4.7.7 0 0 0 0 1.4ZM98.713 95.73a.76.76 0 1 0 0-1.519.76.76 0 0 0 0 1.52ZM109.513 95.78a.81.81 0 1 0 0-1.62.81.81 0 0 0 0 1.62ZM123.913 95.84a.87.87 0 1 0 0-1.74.87.87 0 0 0 0 1.74ZM134.713 95.89a.92.92 0 1 0 0-1.84.92.92 0 0 0 0 1.84ZM5.113 99.54a.97.97 0 1 0 0-1.94.97.97 0 0 0 0 1.94ZM19.513 99.5a.93.93 0 1 0 0-1.86.93.93 0 0 0 0 1.86ZM26.713 99.46a.89.89 0 1 0 0-1.78.89.89 0 0 0 0 1.78ZM102.313 99.33a.76.76 0 1 0-.001-1.52.76.76 0 0 0 .001 1.52ZM113.113 99.38a.81.81 0 1 0 0-1.62.81.81 0 0 0 0 1.62ZM127.513 99.44a.87.87 0 1 0 0-1.738.87.87 0 0 0 0 1.739ZM8.713 103.141a.97.97 0 1 0 0-1.94.97.97 0 0 0 0 1.94ZM15.913 103.121a.95.95 0 1 0 0-1.9.95.95 0 0 0 0 1.9ZM30.313 103.061a.89.89 0 1 0 0-1.78.89.89 0 0 0 0 1.78ZM37.513 103.041a.87.87 0 1 0 0-1.74.87.87 0 0 0 0 1.74ZM44.713 103.021a.85.85 0 1 0 0-1.7.85.85 0 0 0 0 1.7ZM51.913 103.001a.83.83 0 1 0 0-1.66.83.83 0 0 0 0 1.66ZM59.113 102.981a.81.81 0 1 0 0-1.62.81.81 0 0 0 0 1.62ZM66.313 102.961a.79.79 0 1 0 0-1.58.79.79 0 0 0 0 1.58ZM73.513 102.941a.77.77 0 1 0 0-1.54.77.77 0 0 0 0 1.54ZM80.713 102.921a.75.75 0 1 0 0-1.5.75.75 0 0 0 0 1.5ZM87.913 102.901a.73.73 0 1 0 0-1.46.73.73 0 0 0 0 1.46ZM95.113 102.871a.7.7 0 1 0 0-1.4.7.7 0 0 0 0 1.4ZM105.913 102.931a.76.76 0 1 0 0-1.52.76.76 0 0 0 0 1.52ZM116.713 102.981a.81.81 0 1 0 0-1.62.81.81 0 0 0 0 1.62ZM131.113 103.041a.87.87 0 1 0-.001-1.741.87.87 0 0 0 .001 1.741ZM1.513 106.771a1 1 0 1 0 0-2 1 1 0 0 0 0 2ZM12.313 106.741a.97.97 0 1 0 0-1.94.97.97 0 0 0 0 1.94ZM19.513 106.721a.95.95 0 1 0 0-1.9.95.95 0 0 0 0 1.9ZM26.713 106.701a.93.93 0 1 0-.001-1.86.93.93 0 0 0 0 1.86ZM109.513 106.531a.76.76 0 1 0 0-1.52.76.76 0 0 0 0 1.52ZM120.313 106.581a.81.81 0 1 0 0-1.62.81.81 0 0 0 0 1.62ZM134.713 106.641a.87.87 0 1 0-.001-1.741.87.87 0 0 0 .001 1.741ZM5.113 110.371a1 1 0 1 0 0-2 1 1 0 0 0 0 2ZM15.913 110.341a.97.97 0 1 0 0-1.94.97.97 0 0 0 0 1.94ZM30.313 110.301a.93.93 0 1 0 0-1.86.93.93 0 0 0 0 1.86ZM37.513 110.261a.89.89 0 1 0 0-1.78.89.89 0 0 0 0 1.78ZM44.713 110.241a.87.87 0 1 0 0-1.74.87.87 0 0 0 0 1.74ZM51.913 110.221a.85.85 0 1 0 0-1.7.85.85 0 0 0 0 1.7ZM59.113 110.201a.83.83 0 1 0 0-1.66.83.83 0 0 0 0 1.66ZM66.313 110.181a.81.81 0 1 0 0-1.62.81.81 0 0 0 0 1.62ZM73.513 110.161a.79.79 0 1 0 0-1.58.79.79 0 0 0 0 1.58ZM80.713 110.141a.77.77 0 1 0 0-1.54.77.77 0 0 0 0 1.54ZM87.913 110.121a.75.75 0 1 0 0-1.5.75.75 0 0 0 0 1.5ZM95.113 110.101a.73.73 0 1 0 0-1.46.73.73 0 0 0 0 1.46ZM102.313 110.071a.7.7 0 1 0-.002-1.402.7.7 0 0 0 .002 1.402ZM113.113 110.131a.76.76 0 1 0 0-1.52.76.76 0 0 0 0 1.52ZM123.913 110.181a.81.81 0 1 0 0-1.62.81.81 0 0 0 0 1.62ZM8.713 113.971a1 1 0 1 0 0-2 1 1 0 0 0 0 2ZM19.513 113.941a.97.97 0 1 0 0-1.94.97.97 0 0 0 0 1.94ZM26.713 113.921a.95.95 0 1 0 0-1.9.95.95 0 0 0 0 1.9ZM116.713 113.731a.76.76 0 1 0 0-1.52.76.76 0 0 0 0 1.52ZM127.513 113.781a.81.81 0 1 0 0-1.62.81.81 0 0 0 0 1.62ZM134.713 113.811a.84.84 0 1 0 0-1.68.84.84 0 0 0 0 1.68ZM1.513 117.601a1.03 1.03 0 1 0 0-2.06 1.03 1.03 0 0 0 0 2.06ZM12.313 117.571a1 1 0 1 0 0-2 1 1 0 0 0 0 2ZM23.113 117.541a.97.97 0 1 0 0-1.94.97.97 0 0 0 0 1.94ZM30.313 117.521a.95.95 0 1 0 0-1.9.95.95 0 0 0 0 1.9ZM37.513 117.501a.93.93 0 1 0 0-1.86.93.93 0 0 0 0 1.86ZM44.713 117.461a.89.89 0 1 0 0-1.78.89.89 0 0 0 0 1.78ZM51.913 117.441a.87.87 0 1 0 0-1.74.87.87 0 0 0 0 1.74ZM59.113 117.421a.85.85 0 1 0 0-1.7.85.85 0 0 0 0 1.7ZM66.313 117.401a.83.83 0 1 0 0-1.66.83.83 0 0 0 0 1.66ZM73.513 117.381a.81.81 0 1 0 0-1.62.81.81 0 0 0 0 1.62ZM80.713 117.361a.79.79 0 1 0 0-1.58.79.79 0 0 0 0 1.58ZM87.913 117.341a.77.77 0 1 0 0-1.54.77.77 0 0 0 0 1.54ZM95.113 117.321a.75.75 0 1 0 0-1.5.75.75 0 0 0 0 1.5ZM102.313 117.301a.73.73 0 1 0 0-1.46.73.73 0 0 0 0 1.46ZM109.513 117.271a.7.7 0 1 0 0-1.4.7.7 0 0 0 0 1.4ZM120.313 117.331a.76.76 0 1 0 0-1.52.76.76 0 0 0 0 1.52ZM5.113 121.201a1.03 1.03 0 1 0 0-2.06 1.03 1.03 0 0 0 0 2.06ZM15.913 121.171a1 1 0 1 0 0-2 1 1 0 0 0 0 2ZM26.713 121.141a.97.97 0 1 0 0-1.94.97.97 0 0 0 0 1.94ZM123.913 120.931a.76.76 0 1 0 0-1.52.76.76 0 0 0 0 1.52ZM131.113 120.961a.79.79 0 1 0 0-1.58.79.79 0 0 0 0 1.58ZM8.713 124.801a1.03 1.03 0 1 0 0-2.06 1.03 1.03 0 0 0 0 2.06ZM19.513 124.771a1 1 0 1 0 0-2 1 1 0 0 0 0 2ZM30.313 124.741a.97.97 0 1 0 0-1.94.97.97 0 0 0 0 1.94ZM37.513 124.721a.95.95 0 1 0 0-1.9.95.95 0 0 0 0 1.9ZM44.713 124.701a.93.93 0 1 0-.001-1.86.93.93 0 0 0 0 1.86ZM51.913 124.661a.89.89 0 1 0 0-1.78.89.89 0 0 0 0 1.78ZM59.113 124.641a.87.87 0 1 0 0-1.74.87.87 0 0 0 0 1.74ZM66.313 124.621a.85.85 0 1 0 0-1.7.85.85 0 0 0 0 1.7ZM73.513 124.601a.83.83 0 1 0 0-1.66.83.83 0 0 0 0 1.66ZM80.713 124.581a.81.81 0 1 0 0-1.62.81.81 0 0 0 0 1.62ZM87.913 124.561a.79.79 0 1 0 0-1.58.79.79 0 0 0 0 1.58ZM95.113 124.541a.77.77 0 1 0 0-1.54.77.77 0 0 0 0 1.54ZM102.313 124.521a.75.75 0 1 0 0-1.5.75.75 0 0 0 0 1.5ZM109.513 124.501a.73.73 0 1 0 0-1.46.73.73 0 0 0 0 1.46ZM116.713 124.471a.7.7 0 1 0 0-1.4.7.7 0 0 0 0 1.4ZM1.513 128.441a1.07 1.07 0 1 0 0-2.14 1.07 1.07 0 0 0 0 2.14ZM12.313 128.401a1.03 1.03 0 1 0 0-2.06 1.03 1.03 0 0 0 0 2.06ZM23.113 128.371a1 1 0 1 0 0-2 1 1 0 0 0 0 2ZM33.913 128.341a.97.97 0 1 0 0-1.94.97.97 0 0 0 0 1.94ZM123.913 128.091a.72.72 0 1 0 0-1.44.72.72 0 0 0 0 1.44ZM131.113 128.131a.76.76 0 1 0 0-1.52.76.76 0 0 0 0 1.52ZM5.113 132.041a1.07 1.07 0 1 0 0-2.14 1.07 1.07 0 0 0 0 2.14ZM15.913 132.001a1.03 1.03 0 1 0 0-2.06 1.03 1.03 0 0 0 0 2.06ZM26.713 131.971a1 1 0 1 0 0-2 1 1 0 0 0 0 2ZM37.513 131.941a.97.97 0 1 0 0-1.94.97.97 0 0 0 0 1.94ZM44.713 131.921a.95.95 0 1 0 0-1.9.95.95 0 0 0 0 1.9ZM51.913 131.901a.93.93 0 1 0 0-1.86.93.93 0 0 0 0 1.86ZM59.113 131.861a.89.89 0 1 0-.001-1.78.89.89 0 0 0 0 1.78ZM66.313 131.841a.87.87 0 1 0 0-1.74.87.87 0 0 0 0 1.74ZM73.513 131.821a.85.85 0 1 0 0-1.7.85.85 0 0 0 0 1.7ZM80.713 131.801a.83.83 0 1 0 0-1.66.83.83 0 0 0 0 1.66ZM87.913 131.781a.81.81 0 1 0 0-1.62.81.81 0 0 0 0 1.62ZM95.113 131.761a.79.79 0 1 0 0-1.58.79.79 0 0 0 0 1.58ZM102.313 131.741a.77.77 0 1 0 0-1.54.77.77 0 0 0 0 1.54ZM109.513 131.721a.75.75 0 1 0 0-1.5.75.75 0 0 0 0 1.5ZM116.713 131.701a.73.73 0 1 0 0-1.46.73.73 0 0 0 0 1.46ZM5.113 135.651a1.08 1.08 0 1 0 0-2.16 1.08 1.08 0 0 0 0 2.16ZM12.313 135.631a1.06 1.06 0 1 0 0-2.12 1.06 1.06 0 0 0 0 2.12ZM19.513 135.601a1.03 1.03 0 1 0 0-2.06 1.03 1.03 0 0 0 0 2.06ZM30.313 135.571a1 1 0 1 0 0-2 1 1 0 0 0 0 2ZM41.113 135.541a.97.97 0 1 0 0-1.94.97.97 0 0 0 0 1.94ZM120.313 135.301a.73.73 0 1 0 0-1.46.73.73 0 0 0 0 1.46ZM127.513 135.271a.7.7 0 1 0 0-1.4.7.7 0 0 0 0 1.4ZM134.713 135.311a.74.74 0 1 0 0-1.48.74.74 0 0 0 0 1.48ZM5.113 139.271a1.1 1.1 0 1 0-.001-2.2 1.1 1.1 0 0 0 0 2.2ZM12.313 139.241a1.07 1.07 0 1 0 0-2.14 1.07 1.07 0 0 0 0 2.14ZM23.113 139.201a1.03 1.03 0 1 0 0-2.06 1.03 1.03 0 0 0 0 2.06ZM33.913 139.171a1 1 0 1 0 0-2 1 1 0 0 0 0 2ZM44.713 139.141a.97.97 0 1 0 0-1.94.97.97 0 0 0 0 1.94ZM51.913 139.121a.95.95 0 1 0 0-1.9.95.95 0 0 0 0 1.9ZM59.113 139.101a.93.93 0 1 0 0-1.86.93.93 0 0 0 0 1.86ZM66.313 139.061a.89.89 0 1 0 0-1.78.89.89 0 0 0 0 1.78ZM73.513 139.041a.87.87 0 1 0 0-1.74.87.87 0 0 0 0 1.74ZM80.713 139.021a.85.85 0 1 0 0-1.7.85.85 0 0 0 0 1.7ZM87.913 139.001a.83.83 0 1 0 0-1.66.83.83 0 0 0 0 1.66ZM95.113 138.981a.81.81 0 1 0 0-1.62.81.81 0 0 0 0 1.62ZM102.313 138.961a.79.79 0 1 0 0-1.58.79.79 0 0 0 0 1.58ZM109.513 138.941a.77.77 0 1 0 0-1.54.77.77 0 0 0 0 1.54ZM5.113 142.881a1.11 1.11 0 1 0 0-2.22 1.11 1.11 0 0 0 0 2.22ZM12.313 142.851a1.08 1.08 0 1 0 0-2.16 1.08 1.08 0 0 0 0 2.16ZM19.513 142.831a1.06 1.06 0 1 0 0-2.12 1.06 1.06 0 0 0 0 2.12ZM26.713 142.801a1.03 1.03 0 1 0 0-2.06 1.03 1.03 0 0 0 0 2.06ZM37.513 142.771a1 1 0 1 0 0-2 1 1 0 0 0 0 2ZM48.313 142.741a.97.97 0 1 0 0-1.94.97.97 0 0 0 0 1.94ZM113.113 142.541a.77.77 0 1 0 0-1.54.77.77 0 0 0 0 1.54ZM120.313 142.521a.75.75 0 1 0 0-1.5.75.75 0 0 0 0 1.5ZM127.513 142.501a.73.73 0 1 0 0-1.46.73.73 0 0 0 0 1.46ZM5.113 146.491a1.12 1.12 0 1 0-.001-2.24 1.12 1.12 0 0 0 0 2.24ZM12.313 146.471a1.1 1.1 0 1 0 0-2.2 1.1 1.1 0 0 0 0 2.2ZM19.513 146.441a1.07 1.07 0 1 0 0-2.14 1.07 1.07 0 0 0 0 2.14ZM30.313 146.401a1.03 1.03 0 1 0 0-2.06 1.03 1.03 0 0 0 0 2.06ZM41.113 146.371a1 1 0 1 0 0-2 1 1 0 0 0 0 2ZM51.913 146.341a.97.97 0 1 0 0-1.94.97.97 0 0 0 0 1.94ZM59.113 146.321a.95.95 0 1 0 0-1.9.95.95 0 0 0 0 1.9ZM66.313 146.301a.93.93 0 1 0 0-1.86.93.93 0 0 0 0 1.86ZM73.513 146.261a.89.89 0 1 0 0-1.78.89.89 0 0 0 0 1.78ZM80.713 146.241a.87.87 0 1 0 0-1.74.87.87 0 0 0 0 1.74ZM87.913 146.221a.85.85 0 1 0 0-1.7.85.85 0 0 0 0 1.7ZM95.113 146.201a.83.83 0 1 0 0-1.66.83.83 0 0 0 0 1.66ZM102.313 146.181a.81.81 0 1 0 0-1.62.81.81 0 0 0 0 1.62ZM131.113 146.101a.73.73 0 1 0 0-1.46.73.73 0 0 0 0 1.46ZM5.113 150.101a1.13 1.13 0 1 0 0-2.26 1.13 1.13 0 0 0 0 2.26ZM12.313 150.081a1.11 1.11 0 1 0 0-2.22 1.11 1.11 0 0 0 0 2.22ZM19.513 150.051a1.08 1.08 0 1 0 0-2.16 1.08 1.08 0 0 0 0 2.16ZM26.713 150.031a1.06 1.06 0 1 0 0-2.12 1.06 1.06 0 0 0 0 2.12ZM33.913 150.001a1.03 1.03 0 1 0 0-2.06 1.03 1.03 0 0 0 0 2.06ZM44.713 149.971a1 1 0 1 0 0-2 1 1 0 0 0 0 2ZM55.513 149.941a.97.97 0 1 0 0-1.94.97.97 0 0 0 0 1.94ZM105.913 149.781a.81.81 0 1 0 0-1.62.81.81 0 0 0 0 1.62ZM113.113 149.761a.79.79 0 1 0 0-1.58.79.79 0 0 0 0 1.58ZM120.313 149.741a.77.77 0 1 0 0-1.54.77.77 0 0 0 0 1.54ZM5.113 153.711a1.14 1.14 0 1 0 0-2.28 1.14 1.14 0 0 0 0 2.28ZM12.313 153.691a1.12 1.12 0 1 0 0-2.24 1.12 1.12 0 0 0 0 2.24ZM19.513 153.671a1.1 1.1 0 1 0 0-2.2 1.1 1.1 0 0 0 0 2.2ZM26.713 153.641a1.07 1.07 0 1 0 0-2.14 1.07 1.07 0 0 0 0 2.14ZM37.513 153.601a1.03 1.03 0 1 0 0-2.06 1.03 1.03 0 0 0 0 2.06ZM48.313 153.571a1 1 0 1 0 0-2 1 1 0 0 0 0 2ZM59.113 153.541a.97.97 0 1 0 0-1.94.97.97 0 0 0 0 1.94ZM66.313 153.521a.95.95 0 1 0 0-1.9.95.95 0 0 0 0 1.9ZM73.513 153.501a.93.93 0 1 0 0-1.86.93.93 0 0 0 0 1.86ZM80.713 153.461a.89.89 0 1 0 0-1.78.89.89 0 0 0 0 1.78ZM87.913 153.441a.87.87 0 1 0 0-1.74.87.87 0 0 0 0 1.74ZM95.113 153.421a.85.85 0 1 0 0-1.7.85.85 0 0 0 0 1.7ZM123.913 153.341a.77.77 0 1 0 0-1.54.77.77 0 0 0 0 1.54ZM131.113 153.321a.75.75 0 1 0 0-1.5.75.75 0 0 0 0 1.5ZM5.113 157.321a1.15 1.15 0 1 0 0-2.3 1.15 1.15 0 0 0 0 2.3ZM12.313 157.301a1.13 1.13 0 1 0 0-2.26 1.13 1.13 0 0 0 0 2.26ZM19.513 157.281a1.11 1.11 0 1 0 0-2.22 1.11 1.11 0 0 0 0 2.22ZM26.713 157.251a1.08 1.08 0 1 0 0-2.16 1.08 1.08 0 0 0 0 2.16ZM33.913 157.231a1.06 1.06 0 1 0 0-2.12 1.06 1.06 0 0 0 0 2.12ZM41.113 157.201a1.03 1.03 0 1 0 0-2.06 1.03 1.03 0 0 0 0 2.06ZM51.913 157.171a1 1 0 1 0 0-2 1 1 0 0 0 0 2ZM62.713 157.141a.97.97 0 1 0 0-1.94.97.97 0 0 0 0 1.94ZM98.713 157.021a.85.85 0 1 0 0-1.7.85.85 0 0 0 0 1.7ZM105.913 157.001a.83.83 0 1 0-.001-1.661.83.83 0 0 0 .001 1.661ZM113.113 156.981a.81.81 0 1 0 0-1.62.81.81 0 0 0 0 1.62ZM5.113 160.931a1.16 1.16 0 1 0-.001-2.32 1.16 1.16 0 0 0 0 2.32ZM12.313 160.911a1.14 1.14 0 1 0 0-2.28 1.14 1.14 0 0 0 0 2.28ZM19.513 160.891a1.12 1.12 0 1 0 0-2.24 1.12 1.12 0 0 0 0 2.24ZM26.713 160.871a1.1 1.1 0 1 0 0-2.2 1.1 1.1 0 0 0 0 2.2ZM33.913 160.841a1.07 1.07 0 1 0 0-2.14 1.07 1.07 0 0 0 0 2.14ZM44.713 160.801a1.03 1.03 0 1 0 0-2.06 1.03 1.03 0 0 0 0 2.06ZM55.513 160.771a1 1 0 1 0 0-2 1 1 0 0 0 0 2ZM66.313 160.741a.97.97 0 1 0 0-1.94.97.97 0 0 0 0 1.94ZM73.513 160.721a.95.95 0 1 0 0-1.9.95.95 0 0 0 0 1.9ZM80.713 160.701a.93.93 0 1 0-.001-1.86.93.93 0 0 0 0 1.86ZM87.913 160.661a.89.89 0 1 0 0-1.78.89.89 0 0 0 0 1.78ZM116.713 160.581a.81.81 0 1 0 0-1.62.81.81 0 0 0 0 1.62ZM123.913 160.561a.79.79 0 1 0 0-1.58.79.79 0 0 0 0 1.58ZM131.113 160.541a.77.77 0 1 0 0-1.54.77.77 0 0 0 0 1.54ZM5.113 164.531a1.16 1.16 0 1 0 0-2.32 1.16 1.16 0 0 0 0 2.32ZM12.313 164.521a1.15 1.15 0 1 0 0-2.3 1.15 1.15 0 0 0 0 2.3ZM19.513 164.501a1.13 1.13 0 1 0 0-2.26 1.13 1.13 0 0 0 0 2.26ZM26.713 164.481a1.11 1.11 0 1 0 0-2.22 1.11 1.11 0 0 0 0 2.22ZM33.913 164.451a1.08 1.08 0 1 0 0-2.16 1.08 1.08 0 0 0 0 2.16ZM41.113 164.431a1.06 1.06 0 1 0 0-2.12 1.06 1.06 0 0 0 0 2.12ZM48.313 164.401a1.03 1.03 0 1 0 0-2.06 1.03 1.03 0 0 0 0 2.06ZM59.113 164.371a1 1 0 1 0 0-2 1 1 0 0 0 0 2ZM69.913 164.341a.97.97 0 1 0 0-1.94.97.97 0 0 0 0 1.94ZM91.513 164.261a.89.89 0 1 0 0-1.78.89.89 0 0 0 0 1.78ZM98.713 164.241a.87.87 0 1 0 0-1.74.87.87 0 0 0 0 1.74ZM105.913 164.221a.85.85 0 1 0-.001-1.701.85.85 0 0 0 .001 1.701ZM5.113 168.111a1.14 1.14 0 1 0-.001-2.28 1.14 1.14 0 0 0 0 2.28ZM12.313 168.131a1.16 1.16 0 1 0 0-2.32 1.16 1.16 0 0 0 0 2.32ZM19.513 168.111a1.14 1.14 0 1 0 0-2.28 1.14 1.14 0 0 0 0 2.28ZM26.713 168.091a1.12 1.12 0 1 0-.001-2.24 1.12 1.12 0 0 0 0 2.24ZM33.913 168.071a1.1 1.1 0 1 0 0-2.2 1.1 1.1 0 0 0 0 2.2ZM41.113 168.041a1.07 1.07 0 1 0 0-2.14 1.07 1.07 0 0 0 0 2.14ZM51.913 168.001a1.03 1.03 0 1 0 0-2.06 1.03 1.03 0 0 0 0 2.06ZM62.713 167.971a1 1 0 1 0 0-2 1 1 0 0 0 0 2ZM73.513 167.941a.97.97 0 1 0 0-1.94.97.97 0 0 0 0 1.94ZM80.713 167.921a.95.95 0 1 0 0-1.9.95.95 0 0 0 0 1.9ZM87.913 167.901a.93.93 0 1 0 0-1.86.93.93 0 0 0 0 1.86ZM109.513 167.821a.85.85 0 1 0 0-1.7.85.85 0 0 0 0 1.7ZM116.713 167.801a.83.83 0 1 0-.001-1.661.83.83 0 0 0 .001 1.661ZM123.913 167.781a.81.81 0 1 0 0-1.62.81.81 0 0 0 0 1.62ZM131.113 167.761a.79.79 0 1 0 0-1.58.79.79 0 0 0 0 1.58ZM5.113 171.701a1.13 1.13 0 1 0 0-2.26 1.13 1.13 0 0 0 0 2.26ZM12.313 171.731a1.16 1.16 0 1 0 0-2.32 1.16 1.16 0 0 0 0 2.32ZM19.513 171.721a1.15 1.15 0 1 0 0-2.3 1.15 1.15 0 0 0 0 2.3ZM26.713 171.701a1.13 1.13 0 1 0 0-2.26 1.13 1.13 0 0 0 0 2.26ZM33.913 171.681a1.11 1.11 0 1 0 0-2.22 1.11 1.11 0 0 0 0 2.22ZM41.113 171.651a1.08 1.08 0 1 0 0-2.16 1.08 1.08 0 0 0 0 2.16ZM48.313 171.631a1.06 1.06 0 1 0 0-2.12 1.06 1.06 0 0 0 0 2.12ZM55.513 171.601a1.03 1.03 0 1 0 0-2.06 1.03 1.03 0 0 0 0 2.06ZM66.313 171.571a1 1 0 1 0 0-2 1 1 0 0 0 0 2ZM77.113 171.541a.97.97 0 1 0 0-1.94.97.97 0 0 0 0 1.94ZM91.513 171.501a.93.93 0 1 0 0-1.86.93.93 0 0 0 0 1.86ZM98.713 171.461a.89.89 0 1 0 0-1.78.89.89 0 0 0 0 1.78ZM5.113 175.291a1.12 1.12 0 1 0-.001-2.24 1.12 1.12 0 0 0 0 2.24ZM12.313 175.311a1.14 1.14 0 1 0 0-2.28 1.14 1.14 0 0 0 0 2.28ZM19.513 175.331a1.16 1.16 0 1 0 0-2.32 1.16 1.16 0 0 0 0 2.32ZM26.713 175.311a1.14 1.14 0 1 0-.001-2.28 1.14 1.14 0 0 0 0 2.28ZM33.913 175.291a1.12 1.12 0 1 0 0-2.24 1.12 1.12 0 0 0 0 2.24ZM41.113 175.271a1.1 1.1 0 1 0-.001-2.2 1.1 1.1 0 0 0 0 2.2ZM48.313 175.241a1.07 1.07 0 1 0 0-2.14 1.07 1.07 0 0 0 0 2.14ZM59.113 175.201a1.03 1.03 0 1 0 0-2.06 1.03 1.03 0 0 0 0 2.06ZM69.913 175.171a1 1 0 1 0 0-2 1 1 0 0 0 0 2ZM80.713 175.141a.97.97 0 1 0 0-1.94.97.97 0 0 0 0 1.94ZM87.913 175.121a.95.95 0 1 0 0-1.9.95.95 0 0 0 0 1.9ZM102.313 175.061a.89.89 0 1 0-.001-1.781.89.89 0 0 0 .001 1.781ZM109.513 175.041a.87.87 0 1 0 0-1.74.87.87 0 0 0 0 1.74ZM116.713 175.021a.85.85 0 1 0-.001-1.701.85.85 0 0 0 .001 1.701ZM123.913 175.001a.83.83 0 1 0-.001-1.661.83.83 0 0 0 .001 1.661ZM131.113 174.981a.81.81 0 1 0 0-1.62.81.81 0 0 0 0 1.62ZM5.113 178.881a1.11 1.11 0 1 0 0-2.22 1.11 1.11 0 0 0 0 2.22ZM12.313 178.901a1.13 1.13 0 1 0 0-2.26 1.13 1.13 0 0 0 0 2.26ZM19.513 178.931a1.16 1.16 0 1 0 0-2.32 1.16 1.16 0 0 0 0 2.32ZM26.713 178.921a1.15 1.15 0 1 0 0-2.3 1.15 1.15 0 0 0 0 2.3ZM33.913 178.901a1.13 1.13 0 1 0 0-2.26 1.13 1.13 0 0 0 0 2.26ZM41.113 178.881a1.11 1.11 0 1 0 0-2.22 1.11 1.11 0 0 0 0 2.22ZM48.313 178.851a1.08 1.08 0 1 0 0-2.16 1.08 1.08 0 0 0 0 2.16ZM55.513 178.831a1.06 1.06 0 1 0 0-2.12 1.06 1.06 0 0 0 0 2.12ZM62.713 178.801a1.03 1.03 0 1 0 0-2.06 1.03 1.03 0 0 0 0 2.06ZM73.513 178.771a1 1 0 1 0 0-2 1 1 0 0 0 0 2ZM84.313 178.741a.97.97 0 1 0 0-1.94.97.97 0 0 0 0 1.94ZM91.513 178.721a.95.95 0 1 0 0-1.9.95.95 0 0 0 0 1.9ZM98.713 178.701a.93.93 0 1 0-.001-1.86.93.93 0 0 0 0 1.86ZM134.713 178.581a.81.81 0 1 0 0-1.62.81.81 0 0 0 0 1.62ZM5.113 182.471a1.1 1.1 0 1 0-.001-2.2 1.1 1.1 0 0 0 0 2.2ZM12.313 182.491a1.12 1.12 0 1 0 0-2.24 1.12 1.12 0 0 0 0 2.24ZM19.513 182.511a1.14 1.14 0 1 0 0-2.28 1.14 1.14 0 0 0 0 2.28ZM26.713 182.531a1.16 1.16 0 1 0 0-2.32 1.16 1.16 0 0 0 0 2.32ZM33.913 182.511a1.14 1.14 0 1 0 0-2.28 1.14 1.14 0 0 0 0 2.28ZM41.113 182.491a1.12 1.12 0 1 0-.001-2.24 1.12 1.12 0 0 0 0 2.24ZM48.313 182.471a1.1 1.1 0 1 0 0-2.2 1.1 1.1 0 0 0 0 2.2ZM55.513 182.441a1.07 1.07 0 1 0 0-2.14 1.07 1.07 0 0 0 0 2.14ZM66.313 182.401a1.03 1.03 0 1 0 0-2.06 1.03 1.03 0 0 0 0 2.06ZM77.113 182.371a1 1 0 1 0 0-2 1 1 0 0 0 0 2ZM87.913 182.341a.97.97 0 1 0 0-1.94.97.97 0 0 0 0 1.94ZM102.313 182.301a.93.93 0 1 0 0-1.86.93.93 0 0 0 0 1.86ZM109.513 182.261a.89.89 0 1 0 0-1.78.89.89 0 0 0 0 1.78ZM116.713 182.241a.87.87 0 1 0-.001-1.741.87.87 0 0 0 .001 1.741ZM123.913 182.221a.85.85 0 1 0-.001-1.701.85.85 0 0 0 .001 1.701ZM5.113 186.051a1.08 1.08 0 1 0 0-2.16 1.08 1.08 0 0 0 0 2.16ZM12.313 186.081a1.11 1.11 0 1 0 0-2.22 1.11 1.11 0 0 0 0 2.22ZM19.513 186.101a1.13 1.13 0 1 0 0-2.26 1.13 1.13 0 0 0 0 2.26ZM26.713 186.131a1.16 1.16 0 1 0 0-2.32 1.16 1.16 0 0 0 0 2.32ZM33.913 186.121a1.15 1.15 0 1 0 0-2.3 1.15 1.15 0 0 0 0 2.3ZM41.113 186.101a1.13 1.13 0 1 0 0-2.26 1.13 1.13 0 0 0 0 2.26ZM48.313 186.081a1.11 1.11 0 1 0 0-2.22 1.11 1.11 0 0 0 0 2.22ZM55.513 186.051a1.08 1.08 0 1 0 0-2.16 1.08 1.08 0 0 0 0 2.16ZM62.713 186.031a1.06 1.06 0 1 0 0-2.12 1.06 1.06 0 0 0 0 2.12ZM69.913 186.001a1.03 1.03 0 1 0 0-2.06 1.03 1.03 0 0 0 0 2.06ZM80.713 185.971a1 1 0 1 0 0-2 1 1 0 0 0 0 2ZM91.513 185.941a.97.97 0 1 0 0-1.94.97.97 0 0 0 0 1.94ZM98.713 185.921a.95.95 0 1 0 0-1.9.95.95 0 0 0 0 1.9ZM127.513 185.821a.85.85 0 1 0 0-1.7.85.85 0 0 0 0 1.7ZM134.713 185.801a.83.83 0 1 0-.001-1.661.83.83 0 0 0 .001 1.661ZM5.113 189.641a1.07 1.07 0 1 0 0-2.14 1.07 1.07 0 0 0 0 2.14ZM12.313 189.671a1.1 1.1 0 1 0 0-2.2 1.1 1.1 0 0 0 0 2.2ZM19.513 189.691a1.12 1.12 0 1 0 0-2.24 1.12 1.12 0 0 0 0 2.24ZM26.713 189.711a1.14 1.14 0 1 0 0-2.28 1.14 1.14 0 0 0 0 2.28ZM33.913 189.731a1.16 1.16 0 1 0 0-2.32 1.16 1.16 0 0 0 0 2.32ZM41.113 189.711a1.14 1.14 0 1 0 0-2.28 1.14 1.14 0 0 0 0 2.28ZM48.313 189.691a1.12 1.12 0 1 0 0-2.24 1.12 1.12 0 0 0 0 2.24ZM55.513 189.671a1.1 1.1 0 1 0 0-2.2 1.1 1.1 0 0 0 0 2.2ZM62.713 189.641a1.07 1.07 0 1 0 0-2.14 1.07 1.07 0 0 0 0 2.14ZM73.513 189.601a1.03 1.03 0 1 0 0-2.06 1.03 1.03 0 0 0 0 2.06ZM84.313 189.571a1 1 0 1 0 0-2 1 1 0 0 0 0 2ZM95.113 189.541a.97.97 0 1 0 0-1.94.97.97 0 0 0 0 1.94ZM102.313 189.521a.95.95 0 1 0 0-1.9.95.95 0 0 0 0 1.9ZM109.513 189.501a.93.93 0 1 0 0-1.86.93.93 0 0 0 0 1.86ZM116.713 189.461a.89.89 0 1 0-.001-1.781.89.89 0 0 0 .001 1.781ZM5.113 193.221a1.05 1.05 0 1 0 0-2.1 1.05 1.05 0 0 0 0 2.1ZM12.313 193.251a1.08 1.08 0 1 0 0-2.16 1.08 1.08 0 0 0 0 2.16ZM19.513 193.281a1.11 1.11 0 1 0 0-2.22 1.11 1.11 0 0 0 0 2.22ZM26.713 193.301a1.13 1.13 0 1 0 0-2.26 1.13 1.13 0 0 0 0 2.26ZM33.913 193.331a1.16 1.16 0 1 0 0-2.32 1.16 1.16 0 0 0 0 2.32ZM41.113 193.321a1.15 1.15 0 1 0 0-2.3 1.15 1.15 0 0 0 0 2.3ZM48.313 193.301a1.13 1.13 0 1 0 0-2.26 1.13 1.13 0 0 0 0 2.26ZM55.513 193.281a1.11 1.11 0 1 0 0-2.22 1.11 1.11 0 0 0 0 2.22ZM62.713 193.251a1.08 1.08 0 1 0 0-2.16 1.08 1.08 0 0 0 0 2.16ZM69.913 193.231a1.06 1.06 0 1 0 0-2.12 1.06 1.06 0 0 0 0 2.12ZM77.113 193.201a1.03 1.03 0 1 0 0-2.06 1.03 1.03 0 0 0 0 2.06ZM87.913 193.171a1 1 0 1 0 0-2 1 1 0 0 0 0 2ZM98.713 193.141a.97.97 0 1 0 0-1.94.97.97 0 0 0 0 1.94ZM120.313 193.061a.89.89 0 1 0-.001-1.781.89.89 0 0 0 .001 1.781ZM127.513 193.041a.87.87 0 1 0 0-1.74.87.87 0 0 0 0 1.74ZM134.713 193.021a.85.85 0 1 0-.001-1.701.85.85 0 0 0 .001 1.701ZM5.113 196.811a1.04 1.04 0 1 0 0-2.08 1.04 1.04 0 0 0 0 2.08ZM12.313 196.841a1.07 1.07 0 1 0 0-2.14 1.07 1.07 0 0 0 0 2.14ZM19.513 196.871a1.1 1.1 0 1 0 0-2.2 1.1 1.1 0 0 0 0 2.2ZM26.713 196.891a1.12 1.12 0 1 0-.001-2.24 1.12 1.12 0 0 0 0 2.24ZM33.913 196.911a1.14 1.14 0 1 0 0-2.28 1.14 1.14 0 0 0 0 2.28ZM41.113 196.931a1.16 1.16 0 1 0-.001-2.32 1.16 1.16 0 0 0 0 2.32ZM48.313 196.911a1.14 1.14 0 1 0 0-2.28 1.14 1.14 0 0 0 0 2.28ZM55.513 196.891a1.12 1.12 0 1 0 0-2.24 1.12 1.12 0 0 0 0 2.24ZM62.713 196.871a1.1 1.1 0 1 0 0-2.2 1.1 1.1 0 0 0 0 2.2ZM69.913 196.841a1.07 1.07 0 1 0 0-2.14 1.07 1.07 0 0 0 0 2.14ZM80.713 196.801a1.03 1.03 0 1 0 0-2.06 1.03 1.03 0 0 0 0 2.06ZM91.513 196.771a1 1 0 1 0 0-2 1 1 0 0 0 0 2ZM102.313 196.741a.97.97 0 1 0 0-1.94.97.97 0 0 0 0 1.94ZM109.513 196.721a.95.95 0 1 0 0-1.9.95.95 0 0 0 0 1.9ZM116.713 196.701a.93.93 0 1 0-.002-1.862.93.93 0 0 0 .002 1.862ZM8.713 200.411a1.04 1.04 0 1 0 0-2.08 1.04 1.04 0 0 0 0 2.08ZM15.913 200.441a1.07 1.07 0 1 0 0-2.14 1.07 1.07 0 0 0 0 2.14ZM23.113 200.471a1.1 1.1 0 1 0-.001-2.2 1.1 1.1 0 0 0 0 2.2ZM30.313 200.491a1.12 1.12 0 1 0 0-2.24 1.12 1.12 0 0 0 0 2.24ZM37.513 200.511a1.14 1.14 0 1 0 0-2.28 1.14 1.14 0 0 0 0 2.28ZM44.713 200.531a1.16 1.16 0 1 0 0-2.32 1.16 1.16 0 0 0 0 2.32ZM51.913 200.511a1.14 1.14 0 1 0 0-2.28 1.14 1.14 0 0 0 0 2.28ZM59.113 200.491a1.12 1.12 0 1 0-.001-2.24 1.12 1.12 0 0 0 0 2.24ZM66.313 200.471a1.1 1.1 0 1 0 0-2.2 1.1 1.1 0 0 0 0 2.2ZM73.513 200.441a1.07 1.07 0 1 0 0-2.14 1.07 1.07 0 0 0 0 2.14ZM84.313 200.401a1.03 1.03 0 1 0 0-2.06 1.03 1.03 0 0 0 0 2.06ZM95.113 200.371a1 1 0 1 0 0-2 1 1 0 0 0 0 2ZM105.913 200.341a.97.97 0 1 0 0-1.94.97.97 0 0 0 0 1.94ZM120.313 200.301a.93.93 0 1 0 0-1.86.93.93 0 0 0 0 1.86ZM127.513 200.261a.89.89 0 1 0 0-1.78.89.89 0 0 0 0 1.78ZM134.713 200.241a.87.87 0 1 0-.001-1.741.87.87 0 0 0 .001 1.741ZM1.513 203.971a1 1 0 1 0 0-2 1 1 0 0 0 0 2ZM12.313 204.011a1.04 1.04 0 1 0 0-2.08 1.04 1.04 0 0 0 0 2.08ZM19.513 204.041a1.07 1.07 0 1 0 0-2.14 1.07 1.07 0 0 0 0 2.14ZM26.713 204.071a1.1 1.1 0 1 0 0-2.2 1.1 1.1 0 0 0 0 2.2ZM33.913 204.091a1.12 1.12 0 1 0 0-2.24 1.12 1.12 0 0 0 0 2.24ZM41.113 204.111a1.14 1.14 0 1 0-.001-2.28 1.14 1.14 0 0 0 0 2.28ZM48.313 204.131a1.16 1.16 0 1 0 0-2.32 1.16 1.16 0 0 0 0 2.32ZM55.513 204.111a1.14 1.14 0 1 0 0-2.28 1.14 1.14 0 0 0 0 2.28ZM62.713 204.091a1.12 1.12 0 1 0-.001-2.24 1.12 1.12 0 0 0 0 2.24ZM69.913 204.071a1.1 1.1 0 1 0 0-2.2 1.1 1.1 0 0 0 0 2.2ZM77.113 204.041a1.07 1.07 0 1 0 0-2.14 1.07 1.07 0 0 0 0 2.14ZM87.913 204.001a1.03 1.03 0 1 0 0-2.06 1.03 1.03 0 0 0 0 2.06ZM98.713 203.971a1 1 0 1 0 0-2 1 1 0 0 0 0 2ZM109.513 203.941a.97.97 0 1 0 0-1.94.97.97 0 0 0 0 1.94ZM116.713 203.921a.95.95 0 1 0 0-1.9.95.95 0 0 0 0 1.9ZM5.113 207.571a1 1 0 1 0 0-2 1 1 0 0 0 0 2ZM15.913 207.611a1.04 1.04 0 1 0 0-2.08 1.04 1.04 0 0 0 0 2.08ZM23.113 207.641a1.07 1.07 0 1 0 0-2.14 1.07 1.07 0 0 0 0 2.14ZM30.313 207.671a1.1 1.1 0 1 0 0-2.2 1.1 1.1 0 0 0 0 2.2ZM37.513 207.691a1.12 1.12 0 1 0 0-2.24 1.12 1.12 0 0 0 0 2.24ZM44.713 207.711a1.14 1.14 0 1 0 0-2.28 1.14 1.14 0 0 0 0 2.28ZM51.913 207.731a1.16 1.16 0 1 0 0-2.32 1.16 1.16 0 0 0 0 2.32ZM59.113 207.711a1.14 1.14 0 1 0 0-2.28 1.14 1.14 0 0 0 0 2.28ZM66.313 207.691a1.12 1.12 0 1 0 0-2.24 1.12 1.12 0 0 0 0 2.24ZM73.513 207.671a1.1 1.1 0 1 0 0-2.2 1.1 1.1 0 0 0 0 2.2ZM80.713 207.641a1.07 1.07 0 1 0 0-2.14 1.07 1.07 0 0 0 0 2.14ZM91.513 207.601a1.03 1.03 0 1 0 0-2.06 1.03 1.03 0 0 0 0 2.06ZM102.313 207.571a1 1 0 1 0 0-2 1 1 0 0 0 0 2ZM113.113 207.541a.97.97 0 1 0 0-1.94.97.97 0 0 0 0 1.94ZM120.313 207.521a.95.95 0 1 0 0-1.9.95.95 0 0 0 0 1.9ZM127.513 207.501a.93.93 0 1 0 0-1.86.93.93 0 0 0 0 1.86ZM134.713 207.461a.89.89 0 1 0-.001-1.781.89.89 0 0 0 .001 1.781ZM8.713 211.171a1 1 0 1 0 0-2 1 1 0 0 0 0 2ZM19.513 211.211a1.04 1.04 0 1 0 0-2.08 1.04 1.04 0 0 0 0 2.08ZM26.713 211.241a1.07 1.07 0 1 0 0-2.14 1.07 1.07 0 0 0 0 2.14ZM33.913 211.271a1.1 1.1 0 1 0 0-2.2 1.1 1.1 0 0 0 0 2.2ZM41.113 211.291a1.12 1.12 0 1 0-.001-2.24 1.12 1.12 0 0 0 0 2.24ZM48.313 211.311a1.14 1.14 0 1 0 0-2.28 1.14 1.14 0 0 0 0 2.28ZM55.513 211.331a1.16 1.16 0 1 0 0-2.32 1.16 1.16 0 0 0 0 2.32ZM62.713 211.311a1.14 1.14 0 1 0-.001-2.28 1.14 1.14 0 0 0 0 2.28ZM69.913 211.291a1.12 1.12 0 1 0 0-2.24 1.12 1.12 0 0 0 0 2.24ZM77.113 211.271a1.1 1.1 0 1 0-.001-2.2 1.1 1.1 0 0 0 0 2.2ZM84.313 211.241a1.07 1.07 0 1 0 0-2.14 1.07 1.07 0 0 0 0 2.14ZM95.113 211.201a1.03 1.03 0 1 0 0-2.06 1.03 1.03 0 0 0 0 2.06ZM105.913 211.171a1 1 0 1 0 0-2 1 1 0 0 0 0 2ZM116.713 211.141a.97.97 0 1 0 0-1.94.97.97 0 0 0 0 1.94ZM1.513 214.731a.96.96 0 1 0 0-1.92.96.96 0 0 0 0 1.92ZM12.313 214.771a1 1 0 1 0 0-2 1 1 0 0 0 0 2ZM23.113 214.811a1.04 1.04 0 1 0 0-2.08 1.04 1.04 0 0 0 0 2.08ZM30.313 214.841a1.07 1.07 0 1 0 0-2.14 1.07 1.07 0 0 0 0 2.14ZM37.513 214.871a1.1 1.1 0 1 0 0-2.2 1.1 1.1 0 0 0 0 2.2ZM44.713 214.891a1.12 1.12 0 1 0-.001-2.24 1.12 1.12 0 0 0 0 2.24ZM51.913 214.911a1.14 1.14 0 1 0 0-2.28 1.14 1.14 0 0 0 0 2.28ZM59.113 214.931a1.16 1.16 0 1 0-.001-2.32 1.16 1.16 0 0 0 0 2.32ZM66.313 214.911a1.14 1.14 0 1 0 0-2.28 1.14 1.14 0 0 0 0 2.28ZM73.513 214.891a1.12 1.12 0 1 0 0-2.24 1.12 1.12 0 0 0 0 2.24ZM80.713 214.871a1.1 1.1 0 1 0 0-2.2 1.1 1.1 0 0 0 0 2.2ZM87.913 214.841a1.07 1.07 0 1 0 0-2.14 1.07 1.07 0 0 0 0 2.14ZM98.713 214.801a1.03 1.03 0 1 0 0-2.06 1.03 1.03 0 0 0 0 2.06ZM109.513 214.771a1 1 0 1 0 0-2 1 1 0 0 0 0 2ZM120.313 214.741a.97.97 0 1 0 0-1.94.97.97 0 0 0 0 1.94ZM127.513 214.721a.95.95 0 1 0 0-1.9.95.95 0 0 0 0 1.9ZM134.713 214.701a.93.93 0 1 0-.002-1.862.93.93 0 0 0 .002 1.862ZM5.113 218.331a.96.96 0 1 0 0-1.92.96.96 0 0 0 0 1.92ZM15.913 218.371a1 1 0 1 0 0-2 1 1 0 0 0 0 2ZM26.713 218.411a1.04 1.04 0 1 0 0-2.08 1.04 1.04 0 0 0 0 2.08ZM33.913 218.441a1.07 1.07 0 1 0 0-2.14 1.07 1.07 0 0 0 0 2.14ZM41.113 218.471a1.1 1.1 0 1 0-.001-2.2 1.1 1.1 0 0 0 0 2.2ZM48.313 218.491a1.12 1.12 0 1 0 0-2.24 1.12 1.12 0 0 0 0 2.24ZM55.513 218.511a1.14 1.14 0 1 0 0-2.28 1.14 1.14 0 0 0 0 2.28ZM62.713 218.531a1.16 1.16 0 1 0 0-2.32 1.16 1.16 0 0 0 0 2.32ZM69.913 218.511a1.14 1.14 0 1 0 0-2.28 1.14 1.14 0 0 0 0 2.28ZM77.113 218.491a1.12 1.12 0 1 0-.001-2.24 1.12 1.12 0 0 0 0 2.24ZM84.313 218.471a1.1 1.1 0 1 0 0-2.2 1.1 1.1 0 0 0 0 2.2ZM91.513 218.441a1.07 1.07 0 1 0 0-2.14 1.07 1.07 0 0 0 0 2.14ZM102.313 218.401a1.03 1.03 0 1 0 0-2.06 1.03 1.03 0 0 0 0 2.06ZM113.113 218.371a1 1 0 1 0 0-2 1 1 0 0 0 0 2ZM123.913 218.341a.97.97 0 1 0 0-1.94.97.97 0 0 0 0 1.94ZM8.713 221.931a.96.96 0 1 0 0-1.92.96.96 0 0 0 0 1.92ZM19.513 221.971a1 1 0 1 0 0-2 1 1 0 0 0 0 2ZM30.313 222.011a1.04 1.04 0 1 0 0-2.08 1.04 1.04 0 0 0 0 2.08ZM37.513 222.041a1.07 1.07 0 1 0 0-2.14 1.07 1.07 0 0 0 0 2.14ZM44.713 222.071a1.1 1.1 0 1 0 0-2.2 1.1 1.1 0 0 0 0 2.2ZM51.913 222.091a1.12 1.12 0 1 0 0-2.24 1.12 1.12 0 0 0 0 2.24ZM59.113 222.111a1.14 1.14 0 1 0-.001-2.28 1.14 1.14 0 0 0 0 2.28ZM66.313 222.131a1.16 1.16 0 1 0 0-2.32 1.16 1.16 0 0 0 0 2.32ZM73.513 222.111a1.14 1.14 0 1 0 0-2.28 1.14 1.14 0 0 0 0 2.28ZM80.713 222.091a1.12 1.12 0 1 0-.001-2.24 1.12 1.12 0 0 0 0 2.24ZM87.913 222.071a1.1 1.1 0 1 0 0-2.2 1.1 1.1 0 0 0 0 2.2ZM95.113 222.041a1.07 1.07 0 1 0 0-2.14 1.07 1.07 0 0 0 0 2.14ZM105.913 222.001a1.03 1.03 0 1 0 0-2.06 1.03 1.03 0 0 0 0 2.06ZM116.713 221.971a1 1 0 1 0 0-2 1 1 0 0 0 0 2ZM127.513 221.941a.97.97 0 1 0 0-1.94.97.97 0 0 0 0 1.94ZM134.713 221.921a.95.95 0 1 0 0-1.9.95.95 0 0 0 0 1.9ZM1.513 225.491a.92.92 0 1 0 0-1.84.92.92 0 0 0 0 1.84ZM12.313 225.531a.96.96 0 1 0 0-1.92.96.96 0 0 0 0 1.92ZM23.113 225.571a1 1 0 1 0 0-2 1 1 0 0 0 0 2ZM33.913 225.611a1.04 1.04 0 1 0 0-2.08 1.04 1.04 0 0 0 0 2.08ZM41.113 225.641a1.07 1.07 0 1 0 0-2.14 1.07 1.07 0 0 0 0 2.14ZM48.313 225.671a1.1 1.1 0 1 0 0-2.2 1.1 1.1 0 0 0 0 2.2ZM55.513 225.691a1.12 1.12 0 1 0 0-2.24 1.12 1.12 0 0 0 0 2.24ZM62.713 225.711a1.14 1.14 0 1 0 0-2.28 1.14 1.14 0 0 0 0 2.28ZM69.913 225.731a1.16 1.16 0 1 0 0-2.32 1.16 1.16 0 0 0 0 2.32ZM77.113 225.711a1.14 1.14 0 1 0 0-2.28 1.14 1.14 0 0 0 0 2.28ZM84.313 225.691a1.12 1.12 0 1 0 0-2.24 1.12 1.12 0 0 0 0 2.24ZM91.513 225.671a1.1 1.1 0 1 0 0-2.2 1.1 1.1 0 0 0 0 2.2ZM98.713 225.641a1.07 1.07 0 1 0 0-2.14 1.07 1.07 0 0 0 0 2.14ZM109.513 225.601a1.03 1.03 0 1 0 0-2.06 1.03 1.03 0 0 0 0 2.06ZM120.313 225.571a1 1 0 1 0 0-2 1 1 0 0 0 0 2ZM131.113 225.541a.97.97 0 1 0 0-1.94.97.97 0 0 0 0 1.94ZM5.113 229.091a.92.92 0 1 0 0-1.84.92.92 0 0 0 0 1.84ZM15.913 229.131a.96.96 0 1 0 0-1.92.96.96 0 0 0 0 1.92ZM26.713 229.171a1 1 0 1 0 0-2 1 1 0 0 0 0 2ZM37.513 229.211a1.04 1.04 0 1 0 0-2.08 1.04 1.04 0 0 0 0 2.08ZM44.713 229.241a1.07 1.07 0 1 0 0-2.14 1.07 1.07 0 0 0 0 2.14ZM51.913 229.271a1.1 1.1 0 1 0 0-2.2 1.1 1.1 0 0 0 0 2.2ZM59.113 229.291a1.12 1.12 0 1 0-.001-2.24 1.12 1.12 0 0 0 0 2.24ZM66.313 229.311a1.14 1.14 0 1 0 0-2.28 1.14 1.14 0 0 0 0 2.28ZM73.513 229.331a1.16 1.16 0 1 0 0-2.32 1.16 1.16 0 0 0 0 2.32ZM80.713 229.311a1.14 1.14 0 1 0-.001-2.28 1.14 1.14 0 0 0 0 2.28ZM87.913 229.291a1.12 1.12 0 1 0 0-2.24 1.12 1.12 0 0 0 0 2.24ZM95.113 229.271a1.1 1.1 0 1 0-.001-2.2 1.1 1.1 0 0 0 0 2.2ZM102.313 229.241a1.07 1.07 0 1 0 0-2.14 1.07 1.07 0 0 0 0 2.14ZM113.113 229.201a1.03 1.03 0 1 0 0-2.06 1.03 1.03 0 0 0 0 2.06ZM123.913 229.171a1 1 0 1 0 0-2 1 1 0 0 0 0 2ZM134.713 229.141a.97.97 0 1 0 0-1.94.97.97 0 0 0 0 1.94ZM8.713 232.691a.92.92 0 1 0 0-1.84.92.92 0 0 0 0 1.84ZM19.513 232.731a.96.96 0 1 0 0-1.92.96.96 0 0 0 0 1.92ZM30.313 232.771a1 1 0 1 0 0-2 1 1 0 0 0 0 2ZM41.113 232.811a1.04 1.04 0 1 0 0-2.08 1.04 1.04 0 0 0 0 2.08ZM48.313 232.841a1.07 1.07 0 1 0 0-2.14 1.07 1.07 0 0 0 0 2.14ZM55.513 232.871a1.1 1.1 0 1 0 0-2.2 1.1 1.1 0 0 0 0 2.2ZM62.713 232.891a1.12 1.12 0 1 0-.001-2.24 1.12 1.12 0 0 0 0 2.24ZM69.913 232.911a1.14 1.14 0 1 0 0-2.28 1.14 1.14 0 0 0 0 2.28ZM77.113 232.931a1.16 1.16 0 1 0-.001-2.32 1.16 1.16 0 0 0 0 2.32ZM84.313 232.911a1.14 1.14 0 1 0 0-2.28 1.14 1.14 0 0 0 0 2.28ZM91.513 232.891a1.12 1.12 0 1 0 0-2.24 1.12 1.12 0 0 0 0 2.24ZM98.713 232.871a1.1 1.1 0 1 0 0-2.2 1.1 1.1 0 0 0 0 2.2ZM105.913 232.841a1.07 1.07 0 1 0 0-2.14 1.07 1.07 0 0 0 0 2.14ZM116.713 232.801a1.03 1.03 0 1 0 0-2.06 1.03 1.03 0 0 0 0 2.06ZM127.513 232.771a1 1 0 1 0 0-2 1 1 0 0 0 0 2ZM1.513 236.261a.89.89 0 1 0 0-1.78.89.89 0 0 0 0 1.78ZM12.313 236.291a.92.92 0 1 0 0-1.84.92.92 0 0 0 0 1.84ZM23.113 236.331a.96.96 0 1 0 0-1.92.96.96 0 0 0 0 1.92ZM33.913 236.371a1 1 0 1 0 0-2 1 1 0 0 0 0 2ZM44.713 236.411a1.04 1.04 0 1 0 0-2.08 1.04 1.04 0 0 0 0 2.08ZM51.913 236.441a1.07 1.07 0 1 0 0-2.14 1.07 1.07 0 0 0 0 2.14ZM59.113 236.471a1.1 1.1 0 1 0-.001-2.2 1.1 1.1 0 0 0 0 2.2ZM66.313 236.491a1.12 1.12 0 1 0 0-2.24 1.12 1.12 0 0 0 0 2.24ZM73.513 236.511a1.14 1.14 0 1 0 0-2.28 1.14 1.14 0 0 0 0 2.28ZM80.713 236.531a1.16 1.16 0 1 0 0-2.32 1.16 1.16 0 0 0 0 2.32ZM87.913 236.511a1.14 1.14 0 1 0 0-2.28 1.14 1.14 0 0 0 0 2.28ZM95.113 236.491a1.12 1.12 0 1 0-.001-2.24 1.12 1.12 0 0 0 0 2.24ZM102.313 236.471a1.1 1.1 0 1 0-.001-2.201 1.1 1.1 0 0 0 .001 2.201ZM109.513 236.441a1.07 1.07 0 1 0 0-2.14 1.07 1.07 0 0 0 0 2.14ZM120.313 236.401a1.03 1.03 0 1 0 0-2.06 1.03 1.03 0 0 0 0 2.06ZM131.113 236.371a1 1 0 1 0 0-2 1 1 0 0 0 0 2ZM5.113 239.861a.89.89 0 1 0-.001-1.78.89.89 0 0 0 0 1.78ZM15.913 239.891a.92.92 0 1 0 0-1.84.92.92 0 0 0 0 1.84ZM26.713 239.931a.96.96 0 1 0 0-1.92.96.96 0 0 0 0 1.92ZM37.513 239.971a1 1 0 1 0 0-2 1 1 0 0 0 0 2ZM48.313 240.011a1.04 1.04 0 1 0 0-2.08 1.04 1.04 0 0 0 0 2.08ZM55.513 240.041a1.07 1.07 0 1 0 0-2.14 1.07 1.07 0 0 0 0 2.14ZM62.713 240.071a1.1 1.1 0 1 0 0-2.2 1.1 1.1 0 0 0 0 2.2ZM69.913 240.091a1.12 1.12 0 1 0 0-2.24 1.12 1.12 0 0 0 0 2.24ZM77.113 240.111a1.14 1.14 0 1 0-.001-2.28 1.14 1.14 0 0 0 0 2.28ZM84.313 240.131a1.16 1.16 0 1 0 0-2.32 1.16 1.16 0 0 0 0 2.32ZM91.513 240.111a1.14 1.14 0 1 0 0-2.28 1.14 1.14 0 0 0 0 2.28ZM98.713 240.091a1.12 1.12 0 1 0-.001-2.24 1.12 1.12 0 0 0 0 2.24ZM105.913 240.071a1.1 1.1 0 1 0-.001-2.201 1.1 1.1 0 0 0 .001 2.201ZM113.113 240.041a1.07 1.07 0 1 0 0-2.14 1.07 1.07 0 0 0 0 2.14ZM123.913 240.001a1.03 1.03 0 1 0 0-2.06 1.03 1.03 0 0 0 0 2.06ZM134.713 239.971a1 1 0 1 0 0-2 1 1 0 0 0 0 2ZM8.713 243.461a.89.89 0 1 0 0-1.78.89.89 0 0 0 0 1.78ZM19.513 243.491a.92.92 0 1 0 0-1.84.92.92 0 0 0 0 1.84ZM30.313 243.531a.96.96 0 1 0 0-1.92.96.96 0 0 0 0 1.92ZM41.113 243.571a1 1 0 1 0 0-2 1 1 0 0 0 0 2ZM51.913 243.611a1.04 1.04 0 1 0 0-2.08 1.04 1.04 0 0 0 0 2.08ZM59.113 243.641a1.07 1.07 0 1 0 0-2.14 1.07 1.07 0 0 0 0 2.14ZM66.313 243.671a1.1 1.1 0 1 0 0-2.2 1.1 1.1 0 0 0 0 2.2ZM73.513 243.691a1.12 1.12 0 1 0 0-2.24 1.12 1.12 0 0 0 0 2.24ZM80.713 243.711a1.14 1.14 0 1 0 0-2.28 1.14 1.14 0 0 0 0 2.28ZM87.913 243.731a1.16 1.16 0 1 0 0-2.32 1.16 1.16 0 0 0 0 2.32ZM95.113 243.711a1.14 1.14 0 1 0 0-2.28 1.14 1.14 0 0 0 0 2.28ZM102.313 243.691a1.12 1.12 0 1 0 0-2.24 1.12 1.12 0 0 0 0 2.24ZM109.513 243.671a1.1 1.1 0 1 0 0-2.2 1.1 1.1 0 0 0 0 2.2ZM116.713 243.641a1.07 1.07 0 1 0 0-2.14 1.07 1.07 0 0 0 0 2.14ZM127.513 243.601a1.03 1.03 0 1 0 0-2.06 1.03 1.03 0 0 0 0 2.06ZM12.313 247.061a.89.89 0 1 0 0-1.78.89.89 0 0 0 0 1.78ZM23.113 247.091a.92.92 0 1 0 0-1.84.92.92 0 0 0 0 1.84ZM33.913 247.131a.96.96 0 1 0 0-1.92.96.96 0 0 0 0 1.92ZM44.713 247.171a1 1 0 1 0 0-2 1 1 0 0 0 0 2ZM55.513 247.211a1.04 1.04 0 1 0 0-2.08 1.04 1.04 0 0 0 0 2.08ZM62.713 247.241a1.07 1.07 0 1 0 0-2.14 1.07 1.07 0 0 0 0 2.14ZM69.913 247.271a1.1 1.1 0 1 0 0-2.2 1.1 1.1 0 0 0 0 2.2ZM77.113 247.291a1.12 1.12 0 1 0-.001-2.24 1.12 1.12 0 0 0 0 2.24ZM84.313 247.311a1.14 1.14 0 1 0 0-2.28 1.14 1.14 0 0 0 0 2.28ZM91.513 247.331a1.16 1.16 0 1 0 0-2.32 1.16 1.16 0 0 0 0 2.32ZM98.713 247.311a1.14 1.14 0 1 0-.001-2.28 1.14 1.14 0 0 0 0 2.28ZM105.913 247.291a1.12 1.12 0 1 0 0-2.24 1.12 1.12 0 0 0 0 2.24ZM113.113 247.271a1.1 1.1 0 1 0-.001-2.201 1.1 1.1 0 0 0 .001 2.201ZM120.313 247.241a1.07 1.07 0 1 0 0-2.14 1.07 1.07 0 0 0 0 2.14ZM131.113 247.201a1.03 1.03 0 1 0 0-2.06 1.03 1.03 0 0 0 0 2.06ZM5.113 250.611a.84.84 0 1 0 0-1.68.84.84 0 0 0 0 1.68ZM15.913 250.661a.89.89 0 1 0 0-1.78.89.89 0 0 0 0 1.78ZM26.713 250.691a.92.92 0 1 0 0-1.84.92.92 0 0 0 0 1.84ZM37.513 250.731a.96.96 0 1 0 0-1.92.96.96 0 0 0 0 1.92ZM48.313 250.771a1 1 0 1 0 0-2 1 1 0 0 0 0 2ZM59.113 250.811a1.04 1.04 0 1 0 0-2.08 1.04 1.04 0 0 0 0 2.08ZM66.313 250.841a1.07 1.07 0 1 0 0-2.14 1.07 1.07 0 0 0 0 2.14ZM73.513 250.871a1.1 1.1 0 1 0 0-2.2 1.1 1.1 0 0 0 0 2.2ZM80.713 250.891a1.12 1.12 0 1 0-.001-2.24 1.12 1.12 0 0 0 0 2.24ZM87.913 250.911a1.14 1.14 0 1 0 0-2.28 1.14 1.14 0 0 0 0 2.28ZM95.113 250.931a1.16 1.16 0 1 0-.001-2.32 1.16 1.16 0 0 0 0 2.32ZM102.313 250.911a1.14 1.14 0 1 0-.002-2.282 1.14 1.14 0 0 0 .002 2.282ZM109.513 250.891a1.12 1.12 0 1 0 0-2.24 1.12 1.12 0 0 0 0 2.24ZM116.713 250.871a1.1 1.1 0 1 0-.001-2.201 1.1 1.1 0 0 0 .001 2.201ZM123.913 250.841a1.07 1.07 0 1 0 0-2.14 1.07 1.07 0 0 0 0 2.14ZM134.713 250.801a1.03 1.03 0 1 0 0-2.06 1.03 1.03 0 0 0 0 2.06ZM8.713 254.211a.84.84 0 1 0 0-1.68.84.84 0 0 0 0 1.68ZM19.513 254.261a.89.89 0 1 0 0-1.78.89.89 0 0 0 0 1.78ZM30.313 254.291a.92.92 0 1 0 0-1.84.92.92 0 0 0 0 1.84ZM41.113 254.331a.96.96 0 1 0 0-1.92.96.96 0 0 0 0 1.92ZM51.913 254.371a1 1 0 1 0 0-2 1 1 0 0 0 0 2ZM62.713 254.411a1.04 1.04 0 1 0 0-2.08 1.04 1.04 0 0 0 0 2.08ZM69.913 254.441a1.07 1.07 0 1 0 0-2.14 1.07 1.07 0 0 0 0 2.14ZM77.113 254.471a1.1 1.1 0 1 0-.001-2.2 1.1 1.1 0 0 0 0 2.2ZM84.313 254.491a1.12 1.12 0 1 0 0-2.24 1.12 1.12 0 0 0 0 2.24ZM91.513 254.511a1.14 1.14 0 1 0 0-2.28 1.14 1.14 0 0 0 0 2.28ZM98.713 254.531a1.16 1.16 0 1 0 0-2.32 1.16 1.16 0 0 0 0 2.32ZM105.913 254.511a1.14 1.14 0 1 0 0-2.28 1.14 1.14 0 0 0 0 2.28ZM113.113 254.491a1.12 1.12 0 1 0-.001-2.241 1.12 1.12 0 0 0 .001 2.241ZM120.313 254.471a1.1 1.1 0 1 0-.001-2.201 1.1 1.1 0 0 0 .001 2.201ZM127.513 254.441a1.07 1.07 0 1 0 0-2.14 1.07 1.07 0 0 0 0 2.14ZM12.313 257.811a.84.84 0 1 0 0-1.68.84.84 0 0 0 0 1.68ZM23.113 257.861a.89.89 0 1 0-.001-1.78.89.89 0 0 0 0 1.78ZM33.913 257.891a.92.92 0 1 0 0-1.84.92.92 0 0 0 0 1.84ZM44.713 257.931a.96.96 0 1 0 0-1.92.96.96 0 0 0 0 1.92ZM55.513 257.971a1 1 0 1 0 0-2 1 1 0 0 0 0 2ZM66.313 258.011a1.04 1.04 0 1 0 0-2.08 1.04 1.04 0 0 0 0 2.08ZM73.513 258.041a1.07 1.07 0 1 0 0-2.14 1.07 1.07 0 0 0 0 2.14ZM80.713 258.071a1.1 1.1 0 1 0 0-2.2 1.1 1.1 0 0 0 0 2.2ZM87.913 258.091a1.12 1.12 0 1 0 0-2.24 1.12 1.12 0 0 0 0 2.24ZM95.113 258.111a1.14 1.14 0 1 0-.001-2.28 1.14 1.14 0 0 0 0 2.28ZM102.313 258.131a1.16 1.16 0 1 0 0-2.32 1.16 1.16 0 0 0 0 2.32ZM109.513 258.111a1.14 1.14 0 1 0 0-2.28 1.14 1.14 0 0 0 0 2.28ZM116.713 258.091a1.12 1.12 0 1 0-.001-2.241 1.12 1.12 0 0 0 .001 2.241ZM123.913 258.071a1.1 1.1 0 1 0-.001-2.201 1.1 1.1 0 0 0 .001 2.201ZM131.113 258.041a1.07 1.07 0 1 0 0-2.14 1.07 1.07 0 0 0 0 2.14ZM5.113 261.381a.81.81 0 1 0 0-1.62.81.81 0 0 0 0 1.62ZM15.913 261.411a.84.84 0 1 0 0-1.68.84.84 0 0 0 0 1.68ZM26.713 261.461a.89.89 0 1 0 0-1.78.89.89 0 0 0 0 1.78ZM37.513 261.491a.92.92 0 1 0 0-1.84.92.92 0 0 0 0 1.84ZM48.313 261.531a.96.96 0 1 0 0-1.92.96.96 0 0 0 0 1.92ZM59.113 261.571a1 1 0 1 0 0-2 1 1 0 0 0 0 2ZM69.913 261.611a1.04 1.04 0 1 0 0-2.08 1.04 1.04 0 0 0 0 2.08ZM77.113 261.641a1.07 1.07 0 1 0 0-2.14 1.07 1.07 0 0 0 0 2.14ZM84.313 261.671a1.1 1.1 0 1 0 0-2.2 1.1 1.1 0 0 0 0 2.2ZM91.513 261.691a1.12 1.12 0 1 0 0-2.24 1.12 1.12 0 0 0 0 2.24ZM98.713 261.711a1.14 1.14 0 1 0 0-2.28 1.14 1.14 0 0 0 0 2.28ZM105.913 261.731a1.16 1.16 0 1 0 0-2.32 1.16 1.16 0 0 0 0 2.32ZM113.113 261.711a1.14 1.14 0 1 0 0-2.28 1.14 1.14 0 0 0 0 2.28ZM120.313 261.691a1.12 1.12 0 1 0 0-2.24 1.12 1.12 0 0 0 0 2.24ZM127.513 261.671a1.1 1.1 0 1 0 0-2.2 1.1 1.1 0 0 0 0 2.2ZM134.713 261.641a1.07 1.07 0 1 0 0-2.14 1.07 1.07 0 0 0 0 2.14ZM8.713 264.981a.81.81 0 1 0 0-1.62.81.81 0 0 0 0 1.62ZM19.513 265.011a.84.84 0 1 0 0-1.68.84.84 0 0 0 0 1.68ZM30.313 265.061a.89.89 0 1 0 0-1.78.89.89 0 0 0 0 1.78ZM41.113 265.091a.92.92 0 1 0 0-1.84.92.92 0 0 0 0 1.84ZM51.913 265.131a.96.96 0 1 0 0-1.92.96.96 0 0 0 0 1.92ZM62.713 265.171a1 1 0 1 0 0-2 1 1 0 0 0 0 2ZM73.513 265.211a1.04 1.04 0 1 0 0-2.08 1.04 1.04 0 0 0 0 2.08ZM80.713 265.241a1.07 1.07 0 1 0 0-2.14 1.07 1.07 0 0 0 0 2.14ZM87.913 265.271a1.1 1.1 0 1 0 0-2.2 1.1 1.1 0 0 0 0 2.2ZM95.113 265.291a1.12 1.12 0 1 0-.001-2.24 1.12 1.12 0 0 0 0 2.24ZM102.313 265.311a1.14 1.14 0 1 0-.002-2.282 1.14 1.14 0 0 0 .002 2.282ZM109.513 265.331a1.16 1.16 0 1 0 0-2.32 1.16 1.16 0 0 0 0 2.32ZM116.713 265.311a1.14 1.14 0 1 0-.002-2.282 1.14 1.14 0 0 0 .002 2.282ZM123.913 265.291a1.12 1.12 0 1 0 0-2.24 1.12 1.12 0 0 0 0 2.24ZM131.113 265.271a1.1 1.1 0 1 0-.001-2.201 1.1 1.1 0 0 0 .001 2.201ZM12.313 268.581a.81.81 0 1 0 0-1.62.81.81 0 0 0 0 1.62ZM23.113 268.611a.84.84 0 1 0 0-1.68.84.84 0 0 0 0 1.68ZM33.913 268.661a.89.89 0 1 0 0-1.78.89.89 0 0 0 0 1.78ZM44.713 268.691a.92.92 0 1 0 0-1.84.92.92 0 0 0 0 1.84ZM55.513 268.731a.96.96 0 1 0 0-1.92.96.96 0 0 0 0 1.92ZM66.313 268.771a1 1 0 1 0 0-2 1 1 0 0 0 0 2ZM77.113 268.811a1.04 1.04 0 1 0 0-2.08 1.04 1.04 0 0 0 0 2.08ZM84.313 268.841a1.07 1.07 0 1 0 0-2.14 1.07 1.07 0 0 0 0 2.14ZM91.513 268.871a1.1 1.1 0 1 0 0-2.2 1.1 1.1 0 0 0 0 2.2ZM98.713 268.891a1.12 1.12 0 1 0-.001-2.24 1.12 1.12 0 0 0 0 2.24ZM105.913 268.911a1.14 1.14 0 1 0 0-2.28 1.14 1.14 0 0 0 0 2.28ZM113.113 268.931a1.16 1.16 0 1 0-.002-2.322 1.16 1.16 0 0 0 .002 2.322ZM120.313 268.911a1.14 1.14 0 1 0-.002-2.282 1.14 1.14 0 0 0 .002 2.282ZM127.513 268.891a1.12 1.12 0 1 0 0-2.24 1.12 1.12 0 0 0 0 2.24ZM134.713 268.871a1.1 1.1 0 1 0-.001-2.201 1.1 1.1 0 0 0 .001 2.201ZM5.113 272.141a.77.77 0 1 0 0-1.54.77.77 0 0 0 0 1.54ZM15.913 272.181a.81.81 0 1 0 0-1.62.81.81 0 0 0 0 1.62ZM26.713 272.211a.84.84 0 1 0 0-1.68.84.84 0 0 0 0 1.68ZM37.513 272.261a.89.89 0 1 0 0-1.78.89.89 0 0 0 0 1.78ZM48.313 272.291a.92.92 0 1 0 0-1.84.92.92 0 0 0 0 1.84ZM59.113 272.331a.96.96 0 1 0 0-1.92.96.96 0 0 0 0 1.92ZM69.913 272.371a1 1 0 1 0 0-2 1 1 0 0 0 0 2ZM80.713 272.411a1.04 1.04 0 1 0 0-2.08 1.04 1.04 0 0 0 0 2.08ZM87.913 272.441a1.07 1.07 0 1 0 0-2.14 1.07 1.07 0 0 0 0 2.14ZM95.113 272.471a1.1 1.1 0 1 0-.001-2.2 1.1 1.1 0 0 0 0 2.2ZM102.313 272.491a1.12 1.12 0 1 0-.001-2.241 1.12 1.12 0 0 0 .001 2.241ZM109.513 272.511a1.14 1.14 0 1 0 0-2.28 1.14 1.14 0 0 0 0 2.28ZM116.713 272.531a1.16 1.16 0 1 0 0-2.32 1.16 1.16 0 0 0 0 2.32ZM123.913 272.511a1.14 1.14 0 1 0 0-2.28 1.14 1.14 0 0 0 0 2.28ZM131.113 272.491a1.12 1.12 0 1 0-.001-2.241 1.12 1.12 0 0 0 .001 2.241ZM8.713 275.741a.77.77 0 1 0 0-1.54.77.77 0 0 0 0 1.54ZM19.513 275.781a.81.81 0 1 0 0-1.62.81.81 0 0 0 0 1.62ZM30.313 275.811a.84.84 0 1 0 0-1.68.84.84 0 0 0 0 1.68ZM41.113 275.861a.89.89 0 1 0-.001-1.78.89.89 0 0 0 0 1.78ZM51.913 275.891a.92.92 0 1 0 0-1.84.92.92 0 0 0 0 1.84ZM62.713 275.931a.96.96 0 1 0 0-1.92.96.96 0 0 0 0 1.92ZM73.513 275.971a1 1 0 1 0 0-2 1 1 0 0 0 0 2ZM84.313 276.011a1.04 1.04 0 1 0 0-2.08 1.04 1.04 0 0 0 0 2.08ZM91.513 276.041a1.07 1.07 0 1 0 0-2.14 1.07 1.07 0 0 0 0 2.14ZM98.713 276.071a1.1 1.1 0 1 0 0-2.2 1.1 1.1 0 0 0 0 2.2ZM105.913 276.091a1.12 1.12 0 1 0 0-2.24 1.12 1.12 0 0 0 0 2.24ZM113.113 276.111a1.14 1.14 0 1 0-.002-2.282 1.14 1.14 0 0 0 .002 2.282ZM120.313 276.131a1.16 1.16 0 1 0 0-2.32 1.16 1.16 0 0 0 0 2.32ZM127.513 276.111a1.14 1.14 0 1 0 0-2.28 1.14 1.14 0 0 0 0 2.28ZM134.713 276.091a1.12 1.12 0 1 0-.001-2.241 1.12 1.12 0 0 0 .001 2.241Z" fill="#000"/></svg>