<svg width="237" height="237" fill="none" xmlns="http://www.w3.org/2000/svg"><path d="M51 85.31a1.05 1.05 0 1 0 0-2.1h-2.1a1.05 1.05 0 1 0 0 2.1H51Zm120.73-1.05c0 .63.51 1.15 1.14 1.15h2.29c.63 0 1.14-.51 1.14-1.15 0-.63-.51-1.15-1.14-1.15h-2.29c-.62.01-1.14.52-1.14 1.15ZM57.89 85.31a1.05 1.05 0 1 0 0-2.1h-2.1a1.05 1.05 0 1 0 0 2.1h2.1Zm-13.79 0a1.05 1.05 0 1 0 0-2.1H42a1.05 1.05 0 1 0 0 2.1h2.1Zm-12.73-1.05c0-.58-.47-1.05-1.05-1.05h-2.1a1.05 1.05 0 1 0 0 2.1h2.1c.58 0 1.05-.47 1.05-1.05Zm133.77 0c0 .55.45.99.99.99h1.99c.55 0 .99-.45.99-.99 0-.55-.45-.99-.99-.99h-1.99c-.54 0-.99.44-.99.99ZM64.78 85.31a1.05 1.05 0 1 0 0-2.1h-2.1a1.05 1.05 0 1 0 0 2.1h2.1Zm27.6.02a1.071 1.071 0 0 0 0-2.14h-2.14a1.071 1.071 0 0 0 0 2.14h2.14Zm-20.7-.02a1.05 1.05 0 1 0 0-2.1h-2.1a1.05 1.05 0 1 0 0 2.1h2.1Zm87.56-2.04c-.55 0-.99.44-.99.99s.45.99.99.99h1.99c.55 0 .99-.45.99-.99 0-.55-.45-.99-.99-.99h-1.99Zm-59.94 2.1c.61 0 1.1-.49 1.1-1.1 0-.61-.49-1.1-1.1-1.1h-2.21c-.61 0-1.1.49-1.1 1.1 0 .61.49 1.1 1.1 1.1h2.21Zm-13.84-.06a1.05 1.05 0 1 0 0-2.1h-2.1a1.05 1.05 0 1 0 0 2.1h2.1Zm-6.89 0a1.05 1.05 0 1 0 0-2.1h-2.1a1.05 1.05 0 1 0 0 2.1h2.1Zm-41.36 0a1.05 1.05 0 1 0 0-2.1h-2.1a1.05 1.05 0 1 0 0 2.1h2.1Zm-10.56-7.94c0 .72.59 1.31 1.31 1.31h2.62c.72 0 1.31-.59 1.31-1.31 0-.72-.59-1.31-1.31-1.31h-2.62c-.72 0-1.31.59-1.31 1.31Zm152.13 6.89c0 .59.48 1.07 1.07 1.07h2.14a1.071 1.071 0 0 0 0-2.14h-2.14c-.6 0-1.07.48-1.07 1.07ZM33.55 77.37c0 .72.59 1.31 1.31 1.31h2.62c.72 0 1.31-.59 1.31-1.31 0-.72-.59-1.31-1.31-1.31h-2.62c-.73 0-1.31.59-1.31 1.31Zm6.89 0c0 .72.59 1.31 1.31 1.31h2.62c.72 0 1.31-.59 1.31-1.31 0-.72-.59-1.31-1.31-1.31h-2.62c-.72 0-1.31.59-1.31 1.31Zm172.8 6.89c0 .59.48 1.07 1.07 1.07h2.14a1.071 1.071 0 0 0 0-2.14h-2.14c-.59 0-1.07.48-1.07 1.07ZM47.33 77.37c0 .72.59 1.31 1.31 1.31h2.62c.72 0 1.31-.59 1.31-1.31 0-.72-.59-1.31-1.31-1.31h-2.62c-.72 0-1.31.59-1.31 1.31Zm-42.44 8.5c.08-.06.18-.1.25-.17.37.36.87.59 1.42.59h4.04c.57 0 1.08-.24 1.45-.62.36.37.87.6 1.42.6h4a2 2 0 1 0 0-4h-4c-.56 0-1.06.23-1.42.6-.37-.38-.88-.62-1.45-.62H6.56c-.23 0-.43.06-.64.13-.36 1.15-.69 2.31-1.03 3.49Zm187.67-1.61c0 .59.48 1.07 1.07 1.07h2.14a1.071 1.071 0 0 0 0-2.14h-2.14c-.59 0-1.07.48-1.07 1.07Zm-6.89 0c0 .59.48 1.07 1.07 1.07h2.14a1.071 1.071 0 0 0 0-2.14h-2.14c-.59 0-1.07.48-1.07 1.07Zm20.68 0c0 .59.48 1.07 1.07 1.07h2.14a1.071 1.071 0 0 0 0-2.14h-2.14c-.59 0-1.07.48-1.07 1.07Zm13.79 0c0 .59.48 1.07 1.07 1.07h2.14a1.071 1.071 0 0 0 0-2.14h-2.14c-.59 0-1.07.48-1.07 1.07Zm-20.68 0c0 .59.48 1.07 1.07 1.07h2.14a1.071 1.071 0 0 0 0-2.14h-2.14c-.6 0-1.07.48-1.07 1.07Zm6.63 6.89c0 .66.54 1.2 1.2 1.2h2.4c.66 0 1.2-.54 1.2-1.2 0-.66-.54-1.2-1.2-1.2h-2.4c-.66 0-1.2.54-1.2 1.2Zm-20.68 0c0 .66.54 1.2 1.2 1.2h2.4c.66 0 1.2-.54 1.2-1.2 0-.66-.54-1.2-1.2-1.2h-2.4c-.66 0-1.2.54-1.2 1.2ZM54.22 77.37c0 .72.59 1.31 1.31 1.31h2.62c.72 0 1.31-.59 1.31-1.31 0-.72-.59-1.31-1.31-1.31h-2.62c-.72 0-1.31.59-1.31 1.31Zm116.91 13.78c0 .8.65 1.45 1.45 1.45h2.9a1.451 1.451 0 0 0 0-2.9h-2.9c-.81.01-1.45.65-1.45 1.45Zm7.28 0c0 .69.56 1.25 1.25 1.25h2.51a1.25 1.25 0 0 0 0-2.5h-2.51c-.69 0-1.25.56-1.25 1.25Zm20.78 0c0 .66.54 1.2 1.2 1.2h2.4c.66 0 1.2-.54 1.2-1.2 0-.66-.54-1.2-1.2-1.2h-2.4c-.66 0-1.2.54-1.2 1.2Zm-6.89 0c0 .66.54 1.2 1.2 1.2h2.4c.66 0 1.2-.54 1.2-1.2 0-.66-.54-1.2-1.2-1.2h-2.4c-.66 0-1.2.54-1.2 1.2Zm-155.21.93c.51 0 .93-.42.93-.93s-.42-.93-.93-.93h-1.86c-.51 0-.93.42-.93.93s.42.93.93.93h1.86Zm20.68 0c.51 0 .93-.42.93-.93s-.42-.93-.93-.93h-1.86c-.51 0-.93.42-.93.93s.42.93.93.93h1.86Zm6.9 0c.51 0 .93-.42.93-.93s-.42-.93-.93-.93h-1.86c-.51 0-.93.42-.93.93s.42.93.93.93h1.86Zm-13.79 0c.51 0 .93-.42.93-.93s-.42-.93-.93-.93h-1.86c-.51 0-.93.42-.93.93s.42.93.93.93h1.86Zm-6.89 0c.51 0 .93-.42.93-.93s-.42-.93-.93-.93h-1.86c-.51 0-.93.42-.93.93s.42.93.93.93h1.86Zm-12.86-.93c0-.51-.42-.93-.93-.93h-1.86c-.51 0-.93.42-.93.93s.42.93.93.93h1.86c.51 0 .93-.41.93-.93ZM3.96 89.18c-.34 1.32-.63 2.66-.92 3.99h.68c.56 0 1.06-.23 1.42-.59.37.36.87.59 1.42.59h4.04c.56 0 1.06-.23 1.42-.59.37.36.87.59 1.42.59h4.04c.83 0 1.54-.5 1.85-1.22.28.49.79.83 1.39.83h3.26a1.63 1.63 0 0 0 0-3.26h-3.26c-.6 0-1.11.34-1.39.83a2.027 2.027 0 0 0-1.85-1.22h-4.04c-.56 0-1.06.23-1.42.59-.37-.36-.87-.59-1.42-.59H6.56c-.56 0-1.06.23-1.42.59-.3-.3-.72-.48-1.18-.54Zm120.82-5.91c-.55 0-.99.44-.99.99s.44.99.99.99h1.99c.55 0 .99-.45.99-.99 0-.55-.44-.99-.99-.99h-1.99Zm6.89 0c-.55 0-.99.44-.99.99s.44.99.99.99h1.99c.55 0 .99-.45.99-.99 0-.55-.44-.99-.99-.99h-1.99Zm-20.68 0c-.55 0-.99.44-.99.99s.45.99.99.99h1.99c.55 0 .99-.45.99-.99 0-.55-.45-.99-.99-.99h-1.99Zm6.9 0c-.55 0-.99.44-.99.99s.45.99.99.99h1.99c.55 0 .99-.45.99-.99 0-.55-.45-.99-.99-.99h-1.99Zm20.67 0c-.55 0-.99.44-.99.99s.44.99.99.99h1.99c.55 0 .99-.45.99-.99 0-.55-.44-.99-.99-.99h-1.99Zm6.9 0c-.55 0-.99.44-.99.99s.44.99.99.99h1.99c.55 0 .99-.45.99-.99 0-.55-.45-.99-.99-.99h-1.99Zm81.31 7.88c0 .66.54 1.2 1.2 1.2h2.4c.66 0 1.2-.54 1.2-1.2 0-.66-.54-1.2-1.2-1.2h-2.4c-.66 0-1.2.54-1.2 1.2Zm-13.79 0c0 .66.54 1.2 1.2 1.2h2.4c.66 0 1.2-.54 1.2-1.2 0-.66-.54-1.2-1.2-1.2h-2.4c-.66 0-1.2.54-1.2 1.2ZM104.1 83.27c-.55 0-.99.44-.99.99s.45.99.99.99h1.99c.55 0 .99-.45.99-.99 0-.55-.45-.99-.99-.99h-1.99Zm115.78 7.88c0 .66.54 1.2 1.2 1.2h2.4c.66 0 1.2-.54 1.2-1.2 0-.66-.54-1.2-1.2-1.2h-2.4c-.67 0-1.2.54-1.2 1.2ZM20 84.26c0 .66.53 1.19 1.19 1.19h2.38c.66 0 1.19-.53 1.19-1.19 0-.66-.53-1.19-1.19-1.19h-2.38c-.66 0-1.19.54-1.19 1.19Zm132.35-.99c-.55 0-.99.44-.99.99s.45.99.99.99h1.99c.55 0 .99-.45.99-.99 0-.55-.45-.99-.99-.99h-1.99Zm-.8-12.79c0 .5.4.9.9.9h1.8c.5 0 .9-.4.9-.9s-.4-.9-.9-.9h-1.8c-.5 0-.9.4-.9.9Zm-69.69 0c0 .7.57 1.28 1.28 1.28h2.55c.7 0 1.28-.57 1.28-1.28 0-.7-.57-1.28-1.28-1.28h-2.55c-.7 0-1.28.57-1.28 1.28Zm24.12.88c.49 0 .89-.4.89-.89s-.4-.89-.89-.89h-1.78c-.49 0-.89.4-.89.89s.4.89.89.89h1.78Zm-65.54-.88c0 .72.59 1.31 1.31 1.31h2.62c.72 0 1.31-.59 1.31-1.31 0-.72-.59-1.31-1.31-1.31h-2.62c-.72 0-1.31.58-1.31 1.31Zm56.1 0c0 .46.37.83.83.83h1.66c.46 0 .83-.37.83-.83 0-.46-.37-.83-.83-.83h-1.66a.822.822 0 0 0-.83.83Zm-6.12-.89c-.49 0-.89.4-.89.89s.4.89.89.89h1.77c.49 0 .89-.4.89-.89s-.4-.89-.89-.89h-1.77Zm19.77.89c0 .5.4.9.9.9h1.8c.5 0 .9-.4.9-.9s-.4-.9-.9-.9h-1.8c-.5 0-.9.4-.9.9Zm-38.63 21.6c.51 0 .93-.42.93-.93s-.42-.93-.93-.93H69.7c-.51 0-.93.42-.93.93s.42.93.93.93h1.86Zm-24.23-21.6c0 .72.59 1.31 1.31 1.31h2.62c.72 0 1.31-.59 1.31-1.31 0-.72-.59-1.31-1.31-1.31h-2.62c-.72 0-1.31.58-1.31 1.31Zm6.89 0c0 .72.59 1.31 1.31 1.31h2.62c.72 0 1.31-.59 1.31-1.31 0-.72-.59-1.31-1.31-1.31h-2.62c-.72 0-1.31.58-1.31 1.31Zm13.79 0c0 .72.59 1.31 1.31 1.31h2.61c.72 0 1.31-.59 1.31-1.31 0-.72-.59-1.31-1.31-1.31h-2.61c-.72 0-1.31.58-1.31 1.31Zm6.89 0c0 .72.59 1.31 1.31 1.31h2.61c.72 0 1.31-.59 1.31-1.31 0-.72-.59-1.31-1.31-1.31h-2.61c-.72 0-1.31.58-1.31 1.31Zm-13.78 0c0 .72.59 1.31 1.31 1.31h2.62c.72 0 1.31-.59 1.31-1.31 0-.72-.59-1.31-1.31-1.31h-2.62c-.73 0-1.31.58-1.31 1.31Zm55.96 0c0 .5.4.9.9.9h1.8c.5 0 .9-.4.9-.9s-.4-.9-.9-.9h-1.8c-.49 0-.9.4-.9.9Zm6.9 0c0 .5.4.9.9.9h1.8c.5 0 .9-.4.9-.9s-.4-.9-.9-.9h-1.8c-.5 0-.9.4-.9.9Zm55.38 0c0 .43.35.78.78.78h1.56a.781.781 0 0 0 0-1.56h-1.56c-.43 0-.78.35-.78.78Zm-6.89 0c0 .43.35.78.78.78h1.56a.781.781 0 0 0 0-1.56h-1.56c-.44 0-.78.35-.78.78Zm20.68 0c0 .43.35.78.78.78h1.56a.781.781 0 0 0 0-1.56h-1.56c-.44 0-.78.35-.78.78Zm-27.67 0c0 .45.37.82.82.82h1.65c.45 0 .82-.37.82-.82 0-.45-.37-.82-.82-.82h-1.65a.811.811 0 0 0-.82.82Zm34.56 0c0 .43.35.78.78.78h1.56a.781.781 0 0 0 0-1.56h-1.56c-.43 0-.78.35-.78.78Zm-13.79 0c0 .43.35.78.78.78h1.56a.781.781 0 0 0 0-1.56h-1.56c-.43 0-.78.35-.78.78Zm-48.49 0c0 .5.4.9.9.9h1.8c.5 0 .9-.4.9-.9s-.4-.9-.9-.9h-1.8c-.5 0-.9.4-.9.9Zm-6.89 0c0 .5.4.9.9.9h1.8c.5 0 .9-.4.9-.9s-.4-.9-.9-.9h-1.8c-.5 0-.9.4-.9.9Zm76.06 0c0 .43.35.78.78.78h1.56a.781.781 0 0 0 0-1.56h-1.56c-.43 0-.78.35-.78.78Zm-48.49 0c0 .5.4.9.9.9h1.8c.5 0 .9-.4.9-.9s-.4-.9-.9-.9h-1.8c-.5 0-.9.4-.9.9Zm-13.78 0c0 .5.4.9.9.9h1.8c.5 0 .9-.4.9-.9s-.4-.9-.9-.9h-1.8c-.5 0-.9.4-.9.9Zm-6.9 6.89c0 .5.4.9.9.9h1.8c.5 0 .9-.4.9-.9s-.4-.9-.9-.9h-1.8c-.5 0-.9.4-.9.9Zm-20.68 0c0 .5.4.9.9.9h1.8c.5 0 .9-.4.9-.9s-.4-.9-.9-.9h-1.8c-.49 0-.9.4-.9.9Zm-13.78 0c0 .5.4.9.9.9h1.8c.5 0 .9-.4.9-.9s-.4-.9-.9-.9h-1.8c-.5 0-.9.4-.9.9Zm6.89 0c0 .5.4.9.9.9h1.8c.5 0 .9-.4.9-.9s-.4-.9-.9-.9h-1.8c-.5 0-.9.4-.9.9Zm13.79 0c0 .5.4.9.9.9h1.8c.5 0 .9-.4.9-.9s-.4-.9-.9-.9h-1.8c-.5 0-.9.4-.9.9Zm6.89 0c0 .5.4.9.9.9h1.8c.5 0 .9-.4.9-.9s-.4-.9-.9-.9h-1.8c-.5 0-.9.4-.9.9Zm-69.75 0c0 .72.59 1.31 1.31 1.31h2.62c.72 0 1.31-.59 1.31-1.31 0-.72-.59-1.31-1.31-1.31h-2.62c-.73 0-1.31.59-1.31 1.31Zm83.54 0c0 .5.4.9.9.9h1.8c.5 0 .9-.4.9-.9s-.4-.9-.9-.9h-1.8c-.5 0-.9.4-.9.9Zm-76.65 0c0 .72.59 1.31 1.31 1.31h2.61c.72 0 1.31-.59 1.31-1.31 0-.72-.59-1.31-1.31-1.31h-2.61c-.72 0-1.31.59-1.31 1.31Zm31.9 0a.85.85 0 0 0-.85-.85h-1.71a.85.85 0 1 0 0 1.7h1.71c.47 0 .85-.38.85-.85Zm-25.01 0c0 .72.59 1.31 1.31 1.31h2.61c.72 0 1.31-.59 1.31-1.31 0-.72-.59-1.31-1.31-1.31h-2.61c-.72 0-1.31.59-1.31 1.31Zm14.16 0c0 .62.5 1.12 1.13 1.12h2.25c.62 0 1.13-.5 1.13-1.12 0-.62-.5-1.12-1.13-1.12h-2.25c-.63 0-1.13.5-1.13 1.12Zm-7.26 0c0 .72.59 1.31 1.31 1.31h2.62c.72 0 1.31-.59 1.31-1.31 0-.72-.59-1.31-1.31-1.31h-2.62c-.73 0-1.31.59-1.31 1.31Zm83.58 0c0 .48.39.88.88.88h1.75c.48 0 .88-.39.88-.88s-.39-.88-.88-.88h-1.75c-.49 0-.88.4-.88.88Zm27.77 0c0 .43.35.78.78.78h1.56a.781.781 0 0 0 0-1.56h-1.56c-.44 0-.78.35-.78.78Zm6.89 0c0 .43.35.78.78.78h1.56a.781.781 0 0 0 0-1.56h-1.56c-.43 0-.78.35-.78.78Zm20.68 0c0 .43.35.78.78.78h1.56a.781.781 0 0 0 0-1.56h-1.56c-.43 0-.78.35-.78.78Zm-13.79 0c0 .43.35.78.78.78h1.56a.781.781 0 0 0 0-1.56h-1.56c-.43 0-.78.35-.78.78Zm6.89 0c0 .43.35.78.78.78h1.56a.781.781 0 0 0 0-1.56h-1.56c-.43 0-.78.35-.78.78ZM10.61 75.35H8.44c-.52 1.34-1.03 2.68-1.51 4.04h3.67c.48 0 .9-.19 1.24-.47.39.37.9.6 1.47.6h4.3c.8 0 1.47-.45 1.84-1.1.3.36.74.6 1.25.6h3.31c.91 0 1.65-.74 1.65-1.65 0-.91-.74-1.65-1.65-1.65H20.7c-.51 0-.95.24-1.25.6-.37-.64-1.04-1.1-1.84-1.1h-4.3c-.57 0-1.09.23-1.47.6-.33-.28-.75-.47-1.23-.47Zm147.83 2.02c0 .5.4.9.9.9h1.8c.5 0 .9-.4.9-.9s-.4-.9-.9-.9h-1.8c-.5 0-.9.4-.9.9ZM33.55 70.48c0 .72.59 1.31 1.31 1.31h2.62c.72 0 1.31-.59 1.31-1.31 0-.72-.59-1.31-1.31-1.31h-2.62c-.73 0-1.31.58-1.31 1.31Zm118 6.89c0 .5.4.9.9.9h1.8c.5 0 .9-.4.9-.9s-.4-.9-.9-.9h-1.8c-.5 0-.9.4-.9.9Zm27.81 0c0 .43.35.78.78.78h1.56a.781.781 0 0 0 0-1.56h-1.56c-.43 0-.78.35-.78.78Zm6.89 0c0 .43.35.78.78.78h1.56a.781.781 0 0 0 0-1.56h-1.56c-.43 0-.78.35-.78.78Zm-13.78 0c0 .43.35.78.78.78h1.56a.781.781 0 0 0 0-1.56h-1.56c-.44 0-.78.35-.78.78Zm-79.72 29.01c.79 0 1.44-.64 1.44-1.44 0-.79-.65-1.44-1.44-1.44h-2.88c-.79 0-1.44.64-1.44 1.44 0 .79.65 1.44 1.44 1.44h2.88Zm38.88-2.48a1.04 1.04 0 1 0 0 2.08h2.08a1.04 1.04 0 1 0 0-2.08h-2.08Zm-13.79 0a1.04 1.04 0 1 0 0 2.08h2.08a1.04 1.04 0 1 0 0-2.08h-2.08Zm67.4 1.04c0 .71.58 1.29 1.29 1.29h2.57c.71 0 1.29-.58 1.29-1.29 0-.71-.58-1.29-1.29-1.29h-2.57c-.72 0-1.29.58-1.29 1.29Zm-46.72-1.04a1.04 1.04 0 1 0 0 2.08h2.08a1.04 1.04 0 1 0 0-2.08h-2.08Zm6.89 0a1.04 1.04 0 1 0 0 2.08h2.08a1.04 1.04 0 1 0 0-2.08h-2.08Zm81.36 7.94c0 .66.54 1.2 1.2 1.2h2.4c.66 0 1.2-.54 1.2-1.2 0-.66-.54-1.2-1.2-1.2h-2.4c-.66-.01-1.2.53-1.2 1.2Zm-65.32-5.69c.67 0 1.21-.54 1.21-1.21 0-.67-.54-1.21-1.21-1.21h-2.42c-.67 0-1.21.54-1.21 1.21 0 .67.54 1.21 1.21 1.21h2.42ZM3.72 113.86c.56 0 1.06-.23 1.42-.59.37.36.87.59 1.42.59h4.04c.56 0 1.06-.23 1.42-.59.37.36.87.59 1.42.59h4.04c.56 0 1.06-.23 1.42-.59.37.36.87.59 1.42.59h4.04c.56 0 1.06-.23 1.42-.59.37.36.87.59 1.42.59h4.04c1.12 0 2.02-.9 2.02-2.02s-.9-2.02-2.02-2.02H27.2c-.56 0-1.06.23-1.42.59-.37-.36-.87-.59-1.42-.59h-4.04c-.56 0-1.06.23-1.42.59-.37-.36-.87-.59-1.42-.59h-4.04c-.56 0-1.06.23-1.42.59-.37-.36-.87-.59-1.42-.59H6.56c-.56 0-1.06.23-1.42.59-.37-.36-.87-.59-1.42-.59H.66c-.1 1.34-.18 2.69-.23 4.04h3.29Zm107.18-10.01c-.6 0-1.09.49-1.09 1.09 0 .6.49 1.09 1.09 1.09h2.18c.6 0 1.09-.49 1.09-1.09 0-.6-.49-1.09-1.09-1.09h-2.18Zm108.98 7.99c0 .66.54 1.2 1.2 1.2h2.4c.66 0 1.2-.54 1.2-1.2 0-.66-.54-1.2-1.2-1.2h-2.4c-.67-.01-1.2.53-1.2 1.2Zm-120.24-5.46c.79 0 1.44-.64 1.44-1.44 0-.79-.65-1.44-1.44-1.44h-2.88c-.79 0-1.44.64-1.44 1.44 0 .79.65 1.44 1.44 1.44h2.88Zm4.04-2.86c-.78 0-1.42.64-1.42 1.42 0 .78.64 1.42 1.42 1.42h2.83c.78 0 1.42-.64 1.42-1.42 0-.78-.64-1.42-1.42-1.42h-2.83Zm47.59 1.42c0 .57.47 1.04 1.04 1.04h2.08a1.04 1.04 0 1 0 0-2.08h-2.08c-.58 0-1.04.47-1.04 1.04Zm-81.57-.93c-.51 0-.93.42-.93.93s.42.93.93.93h1.86c.51 0 .93-.42.93-.93s-.42-.93-.93-.93H69.7Zm-6.89 0c-.51 0-.93.42-.93.93s.42.93.93.93h1.86c.51 0 .93-.42.93-.93s-.42-.93-.93-.93h-1.86Zm12.85.93c0 .51.42.93.93.93h1.86c.51 0 .93-.42.93-.93s-.42-.93-.93-.93h-1.86c-.51 0-.93.42-.93.93Zm88.55 0c0 .81.65 1.46 1.46 1.46h2.92c.81 0 1.46-.65 1.46-1.46 0-.81-.65-1.46-1.46-1.46h-2.92c-.81 0-1.46.66-1.46 1.46Zm6.9 0c0 .81.65 1.46 1.46 1.46h2.92c.81 0 1.46-.65 1.46-1.46 0-.81-.65-1.46-1.46-1.46h-2.92c-.81 0-1.46.66-1.46 1.46Zm6.89 0c0 .81.65 1.46 1.46 1.46h2.92c.81 0 1.46-.65 1.46-1.46 0-.81-.65-1.46-1.46-1.46h-2.92c-.81 0-1.46.66-1.46 1.46Zm42.72-34.46c0 .43.35.78.78.78h1.56a.781.781 0 0 0 0-1.56h-1.56c-.43 0-.78.35-.78.78ZM35.21 103.99a.95.95 0 1 0 0 1.9h1.9a.95.95 0 1 0 0-1.9h-1.9Zm50.48 2.23c.7 0 1.28-.57 1.28-1.28 0-.71-.57-1.28-1.28-1.28h-2.55c-.7 0-1.28.57-1.28 1.28 0 .7.57 1.28 1.28 1.28h2.55Zm-36.67-2.21c-.51 0-.93.42-.93.93s.42.93.93.93h1.86c.51 0 .93-.42.93-.93s-.42-.93-.93-.93h-1.86Zm6.89 0c-.51 0-.93.42-.93.93s.42.93.93.93h1.86c.51 0 .93-.42.93-.93s-.42-.93-.93-.93h-1.86Zm-13.78 0c-.51 0-.93.42-.93.93s.42.93.93.93h1.86c.51 0 .93-.42.93-.93s-.42-.93-.93-.93h-1.86Zm82.6-.11a1.04 1.04 0 1 0 0 2.08h2.08a1.04 1.04 0 1 0 0-2.08h-2.08Zm-46.14 9a1.071 1.071 0 0 0 0-2.14h-2.14a1.071 1.071 0 0 0 0 2.14h2.14Zm21.05.37c.79 0 1.44-.64 1.44-1.44 0-.79-.65-1.44-1.44-1.44h-2.88c-.79 0-1.44.64-1.44 1.44 0 .79.65 1.44 1.44 1.44h2.88Zm27.17-.4a1.04 1.04 0 1 0 0-2.08h-2.08a1.04 1.04 0 1 0 0 2.08h2.08Zm-20.28.4c.79 0 1.44-.64 1.44-1.44 0-.79-.65-1.44-1.44-1.44h-2.88c-.79 0-1.44.64-1.44 1.44 0 .79.65 1.44 1.44 1.44h2.88Zm-71.71-2.78a1.34 1.34 0 0 0 0 2.68h2.68a1.34 1.34 0 0 0 0-2.68h-2.68Zm51.03 2.78c.79 0 1.44-.64 1.44-1.44 0-.79-.65-1.44-1.44-1.44h-2.88c-.79 0-1.44.64-1.44 1.44 0 .79.65 1.44 1.44 1.44h2.88Zm6.9 0c.79 0 1.44-.64 1.44-1.44 0-.79-.65-1.44-1.44-1.44h-2.88c-.79 0-1.44.64-1.44 1.44 0 .79.65 1.44 1.44 1.44h2.88Zm28.21-1.43c0-.57-.47-1.04-1.04-1.04h-2.08a1.04 1.04 0 1 0 0 2.08h2.08c.57-.01 1.04-.47 1.04-1.04Zm33.45 1.06a1.071 1.071 0 0 0 0-2.14h-2.14a1.071 1.071 0 0 0 0 2.14h2.14Zm-6.92-.03a1.04 1.04 0 1 0 0-2.08h-2.08a1.04 1.04 0 1 0 0 2.08h2.08Zm-6.89 0a1.04 1.04 0 1 0 0-2.08h-2.08a1.04 1.04 0 1 0 0 2.08h2.08Zm-6.9 0a1.04 1.04 0 1 0 0-2.08h-2.08a1.04 1.04 0 1 0 0 2.08h2.08Zm72.39-1.03c0 .66.54 1.2 1.2 1.2h2.4c.66 0 1.2-.54 1.2-1.2 0-.66-.54-1.2-1.2-1.2h-2.4c-.66-.01-1.2.53-1.2 1.2Zm-13.81 0c0 .67.54 1.21 1.21 1.21h2.42c.67 0 1.21-.54 1.21-1.21 0-.67-.54-1.21-1.21-1.21h-2.42c-.67-.01-1.21.54-1.21 1.21Zm-21.17 0c0 .81.65 1.46 1.46 1.46h2.92c.81 0 1.46-.65 1.46-1.46 0-.81-.65-1.46-1.46-1.46h-2.92c-.81-.01-1.46.65-1.46 1.46Zm6.89 0c0 .81.65 1.46 1.46 1.46h2.92c.81 0 1.46-.65 1.46-1.46 0-.81-.65-1.46-1.46-1.46h-2.92c-.81-.01-1.46.65-1.46 1.46Zm6.95 0c0 .79.64 1.43 1.43 1.43h2.85a1.43 1.43 0 1 0 0-2.86h-2.85c-.79 0-1.43.64-1.43 1.43Zm28.03 0c0 .66.54 1.2 1.2 1.2h2.4c.66 0 1.2-.54 1.2-1.2 0-.66-.54-1.2-1.2-1.2h-2.4c-.66-.01-1.2.53-1.2 1.2Zm-13.79 0c0 .66.54 1.2 1.2 1.2h2.4c.66 0 1.2-.54 1.2-1.2 0-.66-.54-1.2-1.2-1.2h-2.4c-.66-.01-1.2.53-1.2 1.2Zm-34.98 0c0 .81.65 1.46 1.46 1.46h2.92c.81 0 1.46-.65 1.46-1.46 0-.81-.65-1.46-1.46-1.46h-2.92c-.81-.01-1.46.65-1.46 1.46Zm-92.65.92c.51 0 .93-.42.93-.93s-.42-.93-.93-.93H69.7c-.51 0-.93.42-.93.93s.42.93.93.93h1.86Zm-13.79 0c.51 0 .93-.42.93-.93s-.42-.93-.93-.93h-1.86c-.51 0-.93.42-.93.93s.42.93.93.93h1.86Zm6.9 0c.51 0 .93-.42.93-.93s-.42-.93-.93-.93h-1.86c-.51 0-.93.42-.93.93s.42.93.93.93h1.86Zm-19.75-.92c0-.51-.42-.93-.93-.93h-1.86c-.51 0-.93.42-.93.93s.42.93.93.93h1.86c.51-.01.93-.42.93-.93Zm5.96.92c.51 0 .93-.42.93-.93s-.42-.93-.93-.93h-1.86c-.51 0-.93.42-.93.93s.42.93.93.93h1.86Zm48.7-20.22c.76 0 1.38-.62 1.38-1.38 0-.76-.62-1.38-1.38-1.38h-2.77c-.76 0-1.38.62-1.38 1.38 0 .76.62 1.38 1.38 1.38h2.77Zm113.4 5.51c0 .66.54 1.2 1.2 1.2h2.4c.66 0 1.2-.54 1.2-1.2 0-.66-.54-1.2-1.2-1.2h-2.4c-.66 0-1.2.54-1.2 1.2Zm-6.89 0c0 .66.54 1.2 1.2 1.2h2.4c.66 0 1.2-.54 1.2-1.2 0-.66-.54-1.2-1.2-1.2h-2.4c-.66 0-1.2.54-1.2 1.2Zm-168.07 0c0-.51-.42-.93-.93-.93h-1.86c-.51 0-.93.42-.93.93s.42.93.93.93h1.86c.52 0 .93-.42.93-.93Zm161.17 0c0 .66.54 1.2 1.2 1.2h2.4c.66 0 1.2-.54 1.2-1.2 0-.66-.54-1.2-1.2-1.2h-2.4c-.66 0-1.2.54-1.2 1.2ZM3.72 100.07c.56 0 1.06-.23 1.42-.59.37.36.87.59 1.42.59h4.04c.56 0 1.06-.23 1.42-.59.37.36.87.59 1.42.59h4.04c.56 0 1.07-.23 1.44-.6.36.37.87.59 1.42.59h4.02a2.01 2.01 0 0 0 0-4.02h-4.02c-.56 0-1.06.23-1.42.59-.37-.37-.87-.6-1.44-.6h-4.04c-.56 0-1.06.23-1.42.59-.37-.36-.87-.59-1.42-.59H6.56c-.56 0-1.06.23-1.42.59-.37-.36-.87-.59-1.42-.59H2.46c-.26 1.34-.51 2.69-.72 4.04h1.98Zm216.16-2.02c0 .66.54 1.2 1.2 1.2h2.4c.66 0 1.2-.54 1.2-1.2 0-.66-.54-1.2-1.2-1.2h-2.4c-.67 0-1.2.54-1.2 1.2Zm-34.47 0c0 .66.54 1.2 1.2 1.2h2.4c.66 0 1.2-.54 1.2-1.2 0-.66-.54-1.2-1.2-1.2h-2.4c-.66 0-1.2.54-1.2 1.2Zm-14.3 0c0 .81.65 1.46 1.46 1.46h2.92c.81 0 1.46-.65 1.46-1.46 0-.81-.65-1.46-1.46-1.46h-2.92c-.81 0-1.46.65-1.46 1.46Zm-127.12.93c.51 0 .93-.42.93-.93s-.42-.93-.93-.93h-1.86c-.51 0-.93.42-.93.93s.42.93.93.93h1.86Zm124.3-6.67a1.16 1.16 0 0 0 0-2.32h-2.31a1.16 1.16 0 0 0 0 2.32h2.31Zm9.84 5.74c0 .77.62 1.39 1.39 1.39h2.79c.77 0 1.39-.62 1.39-1.39 0-.77-.62-1.39-1.39-1.39h-2.79a1.38 1.38 0 0 0-1.39 1.39Zm14.17 0c0 .66.54 1.2 1.2 1.2h2.4c.66 0 1.2-.54 1.2-1.2 0-.66-.54-1.2-1.2-1.2h-2.4c-.66 0-1.2.54-1.2 1.2Zm34.47 0c0 .66.54 1.2 1.2 1.2h2.4c.66 0 1.2-.54 1.2-1.2 0-.66-.54-1.2-1.2-1.2h-2.4c-.66 0-1.2.54-1.2 1.2Zm-74.46-7.93a1.04 1.04 0 1 0 0 2.08h2.08a1.04 1.04 0 1 0 0-2.08h-2.08Zm5.85 1.03c0 .57.47 1.04 1.04 1.04h2.08a1.04 1.04 0 1 0 0-2.08h-2.08c-.57.01-1.04.47-1.04 1.04Zm-79.71.93c.51 0 .93-.42.93-.93s-.42-.93-.93-.93h-1.86c-.51 0-.93.42-.93.93s.42.93.93.93h1.86Zm66.96-1.96a1.04 1.04 0 1 0 0 2.08h2.08a1.04 1.04 0 1 0 0-2.08h-2.08Zm-60.07 1.96c.51 0 .93-.42.93-.93s-.42-.93-.93-.93h-1.86c-.51 0-.93.42-.93.93s.42.93.93.93h1.86Zm7.17.28c.66 0 1.2-.54 1.2-1.2 0-.66-.54-1.2-1.2-1.2h-2.4c-.66 0-1.2.54-1.2 1.2 0 .66.54 1.2 1.2 1.2h2.4Zm11.52-2.27a1.06 1.06 0 0 0 0 2.12h2.12c.58 0 1.06-.48 1.06-1.06 0-.58-.47-1.06-1.06-1.06h-2.12Zm13.81.03a1.04 1.04 0 1 0 0 2.08h2.08a1.04 1.04 0 1 0 0-2.08h-2.08Zm-6.89 0a1.04 1.04 0 1 0 0 2.08h2.08a1.04 1.04 0 1 0 0-2.08h-2.08Zm27.57 0a1.04 1.04 0 1 0 0 2.08h2.08a1.04 1.04 0 1 0 0-2.08h-2.08Zm-13.79 0a1.04 1.04 0 1 0 0 2.08h2.08a1.04 1.04 0 1 0 0-2.08h-2.08Zm6.9 0a1.04 1.04 0 1 0 0 2.08h2.08a1.04 1.04 0 1 0 0-2.08h-2.08Zm36.88 9.31c.76 0 1.38-.62 1.38-1.38 0-.76-.62-1.38-1.38-1.38h-2.77c-.76 0-1.38.62-1.38 1.38 0 .76.62 1.38 1.38 1.38h2.77Zm-64.65-2.61a1.23 1.23 0 1 0 0 2.46h2.46a1.23 1.23 0 1 0 0-2.46h-2.46Zm57.42 2.28a1.05 1.05 0 1 0 0-2.1h-2.09a1.05 1.05 0 1 0 0 2.1h2.09Zm31.02 5.84c0 .66.54 1.2 1.2 1.2h2.4c.66 0 1.2-.54 1.2-1.2 0-.66-.54-1.2-1.2-1.2h-2.4c-.66 0-1.2.54-1.2 1.2Zm-44.81-5.85a1.04 1.04 0 1 0 0-2.08h-2.08a1.04 1.04 0 1 0 0 2.08h2.08ZM3.72 106.96c.56 0 1.06-.23 1.42-.59.37.36.87.59 1.42.59h4.04c.56 0 1.06-.23 1.42-.59.37.36.87.59 1.42.59h4.04c.56 0 1.06-.23 1.42-.59.37.36.87.59 1.42.59h4.04c.72 0 1.33-.4 1.68-.97.33.43.82.73 1.4.73h3.57c.99 0 1.78-.8 1.78-1.78 0-.99-.8-1.78-1.78-1.78h-3.57c-.58 0-1.08.3-1.4.73-.36-.57-.96-.97-1.68-.97h-4.04c-.56 0-1.06.23-1.42.59-.37-.36-.87-.59-1.42-.59h-4.04c-.56 0-1.06.23-1.42.59-.37-.36-.87-.59-1.42-.59H6.56c-.56 0-1.06.23-1.42.59-.37-.36-.87-.59-1.42-.59H1.36c-.18 1.34-.35 2.69-.48 4.04h2.84Zm136.88-7.87a1.04 1.04 0 1 0 0-2.08h-2.08a1.04 1.04 0 1 0 0 2.08h2.08Zm-89.72-.11c.51 0 .93-.42.93-.93s-.42-.93-.93-.93h-1.86c-.51 0-.93.42-.93.93s.42.93.93.93h1.86Zm169 5.96c0 .66.54 1.2 1.2 1.2h2.4c.66 0 1.2-.54 1.2-1.2 0-.66-.54-1.2-1.2-1.2h-2.4c-.67 0-1.2.54-1.2 1.2Zm-13.79 0c0 .66.54 1.2 1.2 1.2h2.4c.66 0 1.2-.54 1.2-1.2 0-.66-.54-1.2-1.2-1.2h-2.4c-.66 0-1.2.54-1.2 1.2Zm-6.9 0c0 .66.54 1.2 1.2 1.2h2.4c.66 0 1.2-.54 1.2-1.2 0-.66-.54-1.2-1.2-1.2h-2.4c-.66 0-1.2.54-1.2 1.2Zm13.79 0c0 .66.54 1.2 1.2 1.2h2.4c.66 0 1.2-.54 1.2-1.2 0-.66-.54-1.2-1.2-1.2h-2.4c-.66 0-1.2.54-1.2 1.2Zm13.79 0c0 .66.54 1.2 1.2 1.2h2.4c.66 0 1.2-.54 1.2-1.2 0-.66-.54-1.2-1.2-1.2h-2.4c-.66 0-1.2.54-1.2 1.2Zm-72.39-5.85a1.04 1.04 0 1 0 0-2.08h-2.08a1.04 1.04 0 1 0 0 2.08h2.08Zm-20.68 0a1.04 1.04 0 1 0 0-2.08h-2.08a1.04 1.04 0 1 0 0 2.08h2.08ZM28.08 96.86c-.66 0-1.19.53-1.19 1.19 0 .66.53 1.19 1.19 1.19h2.38c.66 0 1.19-.53 1.19-1.19 0-.66-.53-1.19-1.19-1.19h-2.38Zm57.34 2.19c.56 0 1.01-.45 1.01-1.01s-.45-1.01-1.01-1.01h-2.01c-.56 0-1.01.45-1.01 1.01s.45 1.01 1.01 1.01h2.01Zm-6.97-.07c.51 0 .93-.42.93-.93s-.42-.93-.93-.93h-1.86c-.51 0-.93.42-.93.93s.42.93.93.93h1.86Zm-13.78 0c.51 0 .93-.42.93-.93s-.42-.93-.93-.93h-1.86c-.51 0-.93.42-.93.93s.42.93.93.93h1.86Zm-6.9 0c.51 0 .93-.42.93-.93s-.42-.93-.93-.93h-1.86c-.51 0-.93.42-.93.93s.42.93.93.93h1.86Zm13.79 0c.51 0 .93-.42.93-.93s-.42-.93-.93-.93H69.7c-.51 0-.93.42-.93.93s.42.93.93.93h1.86Zm42.5-.93c0-.57-.47-1.04-1.04-1.04h-2.08a1.04 1.04 0 1 0 0 2.08h2.08c.58 0 1.04-.47 1.04-1.04Zm12.75 1.04a1.04 1.04 0 1 0 0-2.08h-2.08a1.04 1.04 0 1 0 0 2.08h2.08Zm-34.09.38c.78 0 1.42-.64 1.42-1.42 0-.78-.64-1.42-1.42-1.42h-2.83c-.78 0-1.42.64-1.42 1.42 0 .78.64 1.42 1.42 1.42h2.83Zm27.2-.38a1.04 1.04 0 1 0 0-2.08h-2.08a1.04 1.04 0 1 0 0 2.08h2.08Zm-20.28.4c.79 0 1.44-.64 1.44-1.44 0-.79-.65-1.44-1.44-1.44h-2.88c-.79 0-1.44.64-1.44 1.44 0 .79.65 1.44 1.44 1.44h2.88Zm65.93-42.8c0 .43.35.78.78.78h1.56a.781.781 0 0 0 0-1.56h-1.56c-.43 0-.78.35-.78.78ZM72.29 29.12c0-.46-.37-.83-.83-.83H69.8c-.46 0-.83.37-.83.83 0 .46.37.83.83.83h1.66c.46 0 .83-.37.83-.83Zm6.06.83c.46 0 .83-.37.83-.83 0-.46-.37-.83-.83-.83h-1.66c-.46 0-.83.37-.83.83 0 .46.37.83.83.83h1.66Zm6.89 0c.46 0 .83-.37.83-.83 0-.46-.37-.83-.83-.83h-1.66c-.46 0-.83.37-.83.83 0 .46.37.83.83.83h1.66Zm45.63-.83c0 .5.4.9.9.9h1.8c.5 0 .9-.4.9-.9s-.4-.9-.9-.9h-1.8c-.5 0-.9.4-.9.9Zm-38.73.83c.46 0 .83-.37.83-.83 0-.46-.37-.83-.83-.83h-1.67c-.46 0-.83.37-.83.83 0 .46.37.83.83.83h1.67Zm121.68 40.53c0 .43.35.78.78.78h1.56a.781.781 0 0 0 0-1.56h-1.56c-.43 0-.78.35-.78.78Zm-101-40.53c.46 0 .83-.37.83-.83 0-.46-.37-.83-.83-.83h-1.66c-.46 0-.83.37-.83.83 0 .46.37.83.83.83h1.66Zm-13.79 0c.46 0 .83-.37.83-.83 0-.46-.37-.83-.83-.83h-1.66c-.46 0-.83.37-.83.83 0 .46.37.83.83.83h1.66Zm20.68 0c.46 0 .83-.37.83-.83 0-.46-.37-.83-.83-.83h-1.66c-.46 0-.83.37-.83.83 0 .46.37.83.83.83h1.66Zm-58.2-.83c0 .62.5 1.11 1.11 1.11h2.23c.61 0 1.11-.5 1.11-1.11 0-.62-.5-1.11-1.11-1.11h-2.23c-.61-.01-1.11.49-1.11 1.11Zm65.11.85a.85.85 0 1 0 0-1.7h-1.71a.85.85 0 1 0 0 1.7h1.71Zm18.27-.85c0 .43.35.78.78.78h1.56a.781.781 0 0 0 0-1.56h-1.56c-.43 0-.78.35-.78.78Zm-38.96.83c.46 0 .83-.37.83-.83 0-.46-.37-.83-.83-.83h-1.66c-.46 0-.83.37-.83.83 0 .46.37.83.83.83h1.66Zm66.54-.83c0 .43.35.78.78.78h1.56a.781.781 0 0 0 0-1.56h-1.56c-.44 0-.78.35-.78.78Zm-45.86-6.06c.46 0 .83-.37.83-.83 0-.46-.37-.83-.83-.83h-1.67c-.46 0-.83.37-.83.83 0 .46.37.83.83.83h1.67Zm25.18 6.06c0 .43.35.78.78.78h1.56a.781.781 0 0 0 0-1.56h-1.56c-.43 0-.78.35-.78.78Zm-89.81-6.9c0 .48.39.88.88.88h1.75c.48 0 .88-.39.88-.88 0-.48-.39-.88-.88-.88h-1.75c-.48.01-.88.4-.88.88Zm57.73.84c.46 0 .83-.37.83-.83 0-.46-.37-.83-.83-.83h-1.66c-.46 0-.83.37-.83.83 0 .46.37.83.83.83h1.66Zm-6.89 0c.46 0 .83-.37.83-.83 0-.46-.37-.83-.83-.83h-1.66c-.46 0-.83.37-.83.83 0 .46.37.83.83.83h1.66Zm-6.89 0c.46 0 .83-.37.83-.83 0-.46-.37-.83-.83-.83h-1.66c-.46 0-.83.37-.83.83 0 .46.37.83.83.83h1.66Zm-66.32 7.95c.35.22.74.38 1.18.38h4.54c.78 0 1.43-.42 1.84-1.01.3.26.67.43 1.1.43h3.37c.93 0 1.69-.76 1.69-1.69 0-.93-.76-1.69-1.69-1.69h-3.37c-.42 0-.8.17-1.1.43-.41-.6-1.06-1.01-1.84-1.01h-1.46c-1.78 1.45-3.53 2.95-5.22 4.5.34-.04.67-.16.96-.34Zm139.75-1.89c0 .43.35.78.78.78h1.56a.781.781 0 0 0 0-1.56h-1.56c-.43 0-.78.35-.78.78Zm-13.79 0c0 .43.35.78.78.78h1.56a.781.781 0 0 0 0-1.56h-1.56c-.43 0-.78.35-.78.78Zm-6.89 0c0 .43.35.78.78.78h1.56a.781.781 0 0 0 0-1.56h-1.56c-.43 0-.78.35-.78.78Zm27.57 0c0 .43.35.78.78.78h1.56a.781.781 0 0 0 0-1.56h-1.56c-.43 0-.78.35-.78.78Zm-132.03 0c0 .72.59 1.31 1.31 1.31h2.62c.72 0 1.31-.59 1.31-1.31 0-.72-.59-1.31-1.31-1.31h-2.62c-.72 0-1.31.59-1.31 1.31Zm44.81-6.06c.46 0 .83-.37.83-.83 0-.46-.37-.83-.83-.83h-1.66c-.46 0-.83.37-.83.83 0 .46.37.83.83.83h1.66Zm52.76 12.95c0 .43.35.78.78.78h1.56a.781.781 0 0 0 0-1.56h-1.56c-.43 0-.78.35-.78.78Zm41.36 0c0 .43.35.78.78.78h1.56a.781.781 0 0 0 0-1.56h-1.56c-.44 0-.78.35-.78.78Zm-34.47 0c0 .43.35.78.78.78h1.56a.781.781 0 0 0 0-1.56h-1.56c-.43 0-.78.35-.78.78Zm13.79 0c0 .43.35.78.78.78h1.56a.781.781 0 0 0 0-1.56h-1.56c-.44 0-.78.35-.78.78Zm-103.68 0c0 .51.41.92.92.92h1.84c.51 0 .92-.41.92-.92s-.41-.92-.92-.92h-1.84c-.51 0-.92.41-.92.92Zm96.78 0c0 .43.35.78.78.78h1.56a.781.781 0 0 0 0-1.56h-1.56c-.43 0-.78.35-.78.78Zm27.58 6.89c0 .43.35.78.78.78h1.56a.781.781 0 0 0 0-1.56h-1.56c-.44.01-.78.35-.78.78ZM32.72 37.91c.35.22.74.38 1.18.38h4.54c.56 0 1.05-.22 1.44-.56.32.21.69.36 1.1.36h4.15c1.15 0 2.08-.93 2.08-2.08s-.93-2.08-2.08-2.08h-4.15c-.41 0-.78.15-1.1.36-.39-.33-.89-.56-1.44-.56h-2.3c-1.51 1.47-2.98 2.96-4.41 4.51.36-.03.69-.15.99-.33ZM27 45.17h4.54c.45 0 .84-.16 1.19-.38.35.22.73.38 1.17.38h4.52c.85 0 1.57-.49 1.95-1.19.28.3.68.49 1.12.49h3.11c.86 0 1.56-.7 1.56-1.56 0-.86-.7-1.56-1.56-1.56h-3.1c-.44 0-.84.19-1.12.49-.38-.7-1.1-1.19-1.95-1.19H33.9c-.44 0-.82.16-1.17.38-.35-.22-.74-.38-1.19-.38h-1.95c-1.22 1.39-2.41 2.81-3.57 4.26.3.14.62.26.98.26Zm34.14-9.16c0 .72.58 1.3 1.3 1.3h2.6c.72 0 1.3-.58 1.3-1.3 0-.72-.58-1.3-1.3-1.3h-2.6c-.72 0-1.3.58-1.3 1.3Zm-6.92 0c0 .72.59 1.31 1.31 1.31h2.62c.72 0 1.31-.59 1.31-1.31 0-.72-.59-1.31-1.31-1.31h-2.62c-.72 0-1.31.59-1.31 1.31Zm-6.93 0c0 .73.59 1.33 1.33 1.33h2.66a1.33 1.33 0 1 0 0-2.66h-2.66c-.74 0-1.33.6-1.33 1.33Zm138.96 0c0 .43.35.78.78.78h1.56a.781.781 0 0 0 0-1.56h-1.56c-.43 0-.78.35-.78.78Zm-87.22.83c.46 0 .83-.37.83-.83 0-.46-.37-.83-.83-.83h-1.66c-.46 0-.83.37-.83.83 0 .46.37.83.83.83h1.66Zm6.9 0c.46 0 .83-.37.83-.83 0-.46-.37-.83-.83-.83h-1.66c-.46 0-.83.37-.83.83 0 .46.37.83.83.83h1.66Zm-13.79 0c.46 0 .83-.37.83-.83 0-.46-.37-.83-.83-.83h-1.67c-.46 0-.83.37-.83.83 0 .46.37.83.83.83h1.67Zm-6.9 0c.46 0 .83-.37.83-.83 0-.46-.37-.83-.83-.83h-1.66c-.46 0-.83.37-.83.83 0 .46.37.83.83.83h1.66Zm27.58 0c.46 0 .83-.37.83-.83 0-.46-.37-.83-.83-.83h-1.66c-.46 0-.83.37-.83.83 0 .46.37.83.83.83h1.66Zm-33.63-.83c0-.46-.37-.83-.83-.83H76.7c-.46 0-.83.37-.83.83 0 .46.37.83.83.83h1.66c.45 0 .83-.37.83-.83Zm51.68 0c0 .5.4.9.9.9h1.8c.5 0 .9-.4.9-.9s-.4-.9-.9-.9h-1.8c-.5 0-.9.4-.9.9Zm13.92 0c0 .46.37.83.83.83h1.66c.46 0 .83-.37.83-.83 0-.46-.37-.83-.83-.83h-1.66c-.46 0-.83.37-.83.83Zm-25.08.83c.46 0 .83-.37.83-.83 0-.46-.37-.83-.83-.83h-1.66c-.46 0-.83.37-.83.83 0 .46.37.83.83.83h1.66Zm18.05-.83c0 .5.4.9.9.9h1.8c.5 0 .9-.4.9-.9s-.4-.9-.9-.9h-1.8c-.5 0-.9.4-.9.9Zm41.6 0c0 .43.35.78.78.78h1.56a.781.781 0 0 0 0-1.56h-1.56c-.43 0-.78.35-.78.78Zm-52.7.89c.49 0 .89-.4.89-.89s-.4-.89-.89-.89h-1.77c-.49 0-.89.4-.89.89s.4.89.89.89h1.77Zm-19.9-35.35c0-.23-.09-.43-.24-.58-1.02.1-2.04.25-3.05.37-.02.07-.04.13-.04.2 0 .46.37.83.83.83h1.66c.47.01.84-.36.84-.82Zm3.56 6.89c0 .46.37.83.83.83h1.66c.46 0 .83-.37.83-.83 0-.46-.37-.83-.83-.83h-1.66c-.46 0-.83.37-.83.83Zm-6.89 0c0 .46.37.83.83.83h1.66c.46 0 .83-.37.83-.83 0-.46-.37-.83-.83-.83h-1.66c-.46 0-.83.37-.83.83Zm13.78 0c0 .46.37.83.83.83h1.66c.46 0 .83-.37.83-.83 0-.46-.37-.83-.83-.83h-1.66c-.45 0-.83.37-.83.83Zm13.88 0c0 .44.35.79.79.79h1.58c.44 0 .79-.35.79-.79 0-.44-.35-.79-.79-.79h-1.58c-.44 0-.79.35-.79.79Zm-6.99 0c0 .46.37.83.83.83h1.67c.46 0 .83-.37.83-.83 0-.46-.37-.83-.83-.83h-1.67c-.45 0-.83.37-.83.83Zm-27.56 0c0 .46.37.83.83.83h1.66c.46 0 .83-.37.83-.83 0-.46-.37-.83-.83-.83h-1.66c-.46 0-.83.37-.83.83Zm69.03 6.89c0 .43.35.78.78.78h1.56a.781.781 0 0 0 0-1.56h-1.56c-.43 0-.78.35-.78.78ZM89.64 8.44c0 .46.37.83.83.83h1.67c.46 0 .83-.37.83-.83 0-.46-.37-.83-.83-.83h-1.67c-.46 0-.83.37-.83.83Zm62.15 6.89c0 .43.35.78.78.78h1.56a.781.781 0 0 0 0-1.56h-1.56c-.43 0-.78.35-.78.78ZM138 8.44c0 .43.35.78.78.78h1.56a.781.781 0 0 0 0-1.56h-1.56c-.43 0-.78.35-.78.78Zm-55.25 0c0 .46.37.83.83.83h1.66c.46 0 .83-.37.83-.83 0-.46-.37-.83-.83-.83h-1.66c-.46 0-.83.37-.83.83Zm75.93 6.89c0 .43.35.78.78.78h1.56a.781.781 0 0 0 0-1.56h-1.56c-.43 0-.78.35-.78.78ZM110.32 1.55c0 .46.37.83.83.83h1.66c.46 0 .83-.37.83-.83 0-.46-.37-.83-.83-.83h-1.66a.822.822 0 0 0-.83.83ZM67.18 224.43c.29.12.61.19.95.19h4.99c.34 0 .66-.07.95-.19.29.12.61.19.95.19h5c.34 0 .66-.07.95-.19.29.12.61.19.95.19h5c.34 0 .66-.07.95-.19.29.12.61.19.95.19h5c.48 0 .9-.17 1.27-.4.26.11.55.17.85.17h4.54c.65 0 1.23-.28 1.64-.72.31.21.66.37 1.07.37h3.83c.64 0 1.19-.34 1.53-.83.35.49.89.83 1.53.83h3.83c.64 0 1.19-.34 1.53-.83.35.49.89.83 1.53.83h3.83c.64 0 1.18-.34 1.53-.82.35.49.89.82 1.53.82h3.83c.64 0 1.18-.34 1.53-.82.35.49.89.82 1.53.82h3.83c.64 0 1.19-.34 1.53-.83.35.49.89.83 1.53.83h3.83c.64 0 1.19-.34 1.53-.83.35.49.89.83 1.53.83h3.83c.64 0 1.19-.34 1.53-.83.35.49.89.83 1.53.83h3.83c.64 0 1.18-.34 1.53-.82.35.49.89.82 1.53.82h3.83c.64 0 1.18-.34 1.53-.82.35.49.89.82 1.53.82h3.83c.73 0 1.34-.42 1.66-1.02.18.31.45.55.77.71 1.86-.94 3.68-1.93 5.48-2.96-.31-.27-.7-.44-1.15-.44h-3.59c-.66 0-1.21.37-1.52.9-.32-.6-.93-1.02-1.66-1.02h-3.83c-.64 0-1.18.34-1.53.82-.35-.49-.89-.82-1.53-.82h-3.83c-.64 0-1.18.34-1.53.82-.35-.49-.89-.82-1.53-.82h-3.83c-.64 0-1.19.34-1.53.83-.35-.49-.89-.83-1.53-.83h-3.83c-.64 0-1.19.34-1.53.83-.35-.49-.89-.83-1.53-.83h-3.83c-.64 0-1.19.34-1.53.83-.35-.49-.89-.83-1.53-.83h-3.83c-.64 0-1.18.34-1.53.82-.35-.49-.89-.82-1.53-.82h-3.83c-.64 0-1.18.34-1.53.82-.35-.49-.89-.82-1.53-.82h-3.83c-.64 0-1.19.34-1.53.83-.35-.49-.89-.83-1.53-.83h-3.83c-.64 0-1.19.34-1.53.83-.35-.49-.89-.83-1.53-.83h-3.83c-.4 0-.76.15-1.07.37-.41-.44-.99-.72-1.64-.72h-4.54c-.3 0-.59.06-.85.17-.38-.23-.8-.4-1.27-.4h-5c-.34 0-.66.07-.95.19-.29-.12-.61-.19-.95-.19h-5c-.34 0-.66.07-.95.19-.29-.12-.61-.19-.95-.19h-5c-.34 0-.66.07-.95.19-.29-.12-.61-.19-.95-.19h-4.99c-.34 0-.66.07-.95.19-.29-.12-.61-.19-.95-.19h-5c-.34 0-.66.07-.95.19-.29-.12-.61-.19-.95-.19h-1.65c2.95 1.77 5.98 3.42 9.09 4.93.15-.04.29-.08.42-.13ZM131.89 2.32h1.56c.43 0 .78-.35.78-.78 0-.03-.01-.05-.01-.07-.98-.13-1.95-.27-2.94-.37-.09.13-.16.28-.16.45-.01.43.34.77.77.77Zm68.15 40.58c0 .43.35.78.78.78h1.56a.781.781 0 0 0 0-1.56h-1.56c-.43.01-.78.35-.78.78Zm-55.15-27.57c0 .43.35.78.78.78h1.56a.781.781 0 0 0 0-1.56h-1.56c-.43 0-.78.35-.78.78Zm-3.06 218.71c-.12-.02-.23-.05-.36-.05h-3.83c-.64 0-1.19.34-1.53.83-.35-.49-.89-.83-1.53-.83h-3.83c-.64 0-1.18.34-1.53.82-.35-.49-.89-.82-1.53-.82h-3.83c-.64 0-1.18.34-1.53.82-.35-.49-.89-.82-1.53-.82h-3.83c-.64 0-1.17.33-1.52.81-.35-.48-.89-.82-1.53-.82h-3.85c-.35 0-.66.12-.95.29-.43-.44-1.02-.71-1.67-.71h-4.69c-.31 0-.61.07-.88.18-.35-.19-.74-.33-1.17-.33h-5c-.34 0-.66.07-.95.19-.29-.12-.61-.19-.95-.19h-1.79a118.12 118.12 0 0 0 49.81.63Zm-54.92-2.53c.34 0 .66-.07.95-.19.29.12.61.19.95.19h5c.35 0 .68-.07.98-.2.29.12.6.19.93.19h4.97c.61 0 1.14-.24 1.57-.6.24.1.51.16.79.16h4.09c.63 0 1.17-.3 1.54-.75.35.37.84.62 1.39.62h3.83c.64 0 1.19-.34 1.53-.83.35.49.89.83 1.53.83h3.83c.64 0 1.18-.34 1.53-.82.35.49.89.82 1.53.82h3.83c.64 0 1.18-.34 1.53-.82.35.49.89.82 1.53.82h3.83c.64 0 1.19-.34 1.53-.83.35.49.89.83 1.53.83h3.83c.64 0 1.19-.34 1.53-.83.35.49.89.83 1.53.83h3.83c.64 0 1.19-.34 1.53-.83.35.49.89.83 1.53.83h2.44c3.2-1.01 6.33-2.16 9.4-3.42-.31-.25-.69-.4-1.12-.4h-3.83c-.64 0-1.18.34-1.53.82-.35-.49-.89-.82-1.53-.82h-3.83c-.64 0-1.19.34-1.53.83-.35-.49-.89-.83-1.53-.83h-3.83c-.64 0-1.19.34-1.53.83-.35-.49-.89-.83-1.53-.83h-3.83c-.64 0-1.19.34-1.53.83-.35-.49-.89-.83-1.53-.83h-3.83c-.64 0-1.18.34-1.53.82-.35-.49-.89-.82-1.53-.82h-3.83c-.64 0-1.18.34-1.53.82-.35-.49-.89-.82-1.53-.82h-3.83c-.64 0-1.19.34-1.53.83-.35-.49-.89-.83-1.53-.83h-3.83c-.55 0-1.04.24-1.39.62-.37-.45-.91-.75-1.54-.75h-4.09c-.28 0-.55.06-.79.16-.43-.36-.97-.6-1.57-.6h-4.97c-.33 0-.64.07-.93.19-.3-.13-.63-.2-.98-.2h-5c-.34 0-.66.07-.95.19-.29-.12-.61-.19-.95-.19h-5c-.34 0-.66.07-.95.19-.29-.12-.61-.19-.95-.19h-5c-.34 0-.66.07-.95.19-.29-.12-.61-.19-.95-.19h-2.06c4.42 1.94 8.99 3.61 13.68 5h2.18v-.02ZM144.89 8.44c0 .43.35.78.78.78h1.56a.781.781 0 0 0 0-1.56h-1.56c-.43 0-.78.35-.78.78Zm-69.04 0c0 .46.37.83.83.83h1.66c.46 0 .83-.37.83-.83 0-.46-.37-.83-.83-.83h-.78c-.57.21-1.12.45-1.68.66 0 .06-.03.11-.03.17Zm75.94 0c0 .43.35.78.78.78h1.56a.781.781 0 0 0 0-1.56h-1.56c-.43 0-.78.35-.78.78Zm-34.58-6.89c0 .46.37.83.83.83h1.66c.46 0 .83-.37.83-.83 0-.46-.37-.83-.83-.83h-1.66a.828.828 0 0 0-.83.83Zm-17.4.28c-.92.14-1.82.32-2.73.49.09.03.19.06.29.06h1.66c.36 0 .66-.23.78-.55Zm24.34-.28c0 .45.36.81.81.81h1.62c.45 0 .81-.36.81-.81 0-.45-.36-.81-.81-.81h-1.62a.8.8 0 0 0-.81.81ZM92.14 23.06c.46 0 .83-.37.83-.83 0-.46-.37-.83-.83-.83h-1.67c-.46 0-.83.37-.83.83 0 .46.37.83.83.83h1.67Zm73.43-.84c0 .43.35.78.78.78h1.56a.781.781 0 0 0 0-1.56h-1.56c-.43.01-.78.35-.78.78Zm-6.89 0c0 .43.35.78.78.78h1.56a.781.781 0 0 0 0-1.56h-1.56c-.43.01-.78.35-.78.78Zm-13.79 0c0 .43.35.78.78.78h1.56a.781.781 0 0 0 0-1.56h-1.56c-.43.01-.78.35-.78.78Zm6.9 0c0 .43.35.78.78.78h1.56a.781.781 0 0 0 0-1.56h-1.56c-.43.01-.78.35-.78.78ZM47.77 24.4h4.35c1.08 0 1.94-.8 2.11-1.84.15.57.65 1.01 1.27 1.01h2.68a1.34 1.34 0 0 0 0-2.68H55.5c-.62 0-1.12.43-1.27 1.01-.13-.78-.64-1.43-1.35-1.7-1.95 1.31-3.87 2.67-5.74 4.09.2.06.41.11.63.11Zm131.59-2.18c0 .43.35.78.78.78h1.56a.781.781 0 0 0 0-1.56h-1.56c-.43.01-.78.35-.78.78Zm-6.89 0c0 .43.35.78.78.78h1.56a.781.781 0 0 0 0-1.56h-1.56c-.44.01-.78.35-.78.78Zm-87.23.84c.46 0 .83-.37.83-.83 0-.46-.37-.83-.83-.83h-1.66c-.46 0-.83.37-.83.83 0 .46.37.83.83.83h1.66Zm-12.95-.84c0-.46-.37-.83-.83-.83H69.8c-.46 0-.83.37-.83.83 0 .46.37.83.83.83h1.66c.46.01.83-.37.83-.83Zm65.65 0c0 .45.36.81.81.81h1.62c.45 0 .81-.36.81-.81 0-.45-.36-.81-.81-.81h-1.62c-.45 0-.81.37-.81.81Zm-7.03 0c0 .48.39.88.88.88h1.75c.48 0 .88-.39.88-.88 0-.48-.39-.88-.88-.88h-1.75c-.48.01-.88.4-.88.88Zm-52.56.84c.46 0 .83-.37.83-.83 0-.46-.37-.83-.83-.83h-1.66c-.46 0-.83.37-.83.83 0 .46.37.83.83.83h1.66Zm45.75-7.73c0 .46.37.83.83.83h1.67c.46 0 .83-.37.83-.83 0-.46-.37-.83-.83-.83h-1.67c-.45 0-.83.37-.83.83Zm-13.78 0c0 .46.37.83.83.83h1.66c.46 0 .83-.37.83-.83 0-.46-.37-.83-.83-.83h-1.66c-.46 0-.83.37-.83.83Zm-6.89 0c0 .46.37.83.83.83h1.66c.46 0 .83-.37.83-.83 0-.46-.37-.83-.83-.83h-1.66c-.46 0-.83.37-.83.83Zm13.78 0c0 .46.37.83.83.83h1.66c.46 0 .83-.37.83-.83 0-.46-.37-.83-.83-.83h-1.66c-.45 0-.83.37-.83.83Zm20.79 0c0 .43.35.78.78.78h1.56a.781.781 0 0 0 0-1.56h-1.56c-.43 0-.78.35-.78.78Zm-41.46 0c0 .46.37.83.83.83h1.66c.46 0 .83-.37.83-.83 0-.46-.37-.83-.83-.83h-1.66c-.46 0-.83.37-.83.83Zm34.48 0c0 .45.37.82.82.82h1.65c.45 0 .82-.37.82-.82 0-.45-.37-.82-.82-.82h-1.65c-.45 0-.82.37-.82.82Zm-68.95 0c0 .46.37.83.83.83h1.66c.46 0 .83-.37.83-.83 0-.46-.37-.83-.83-.83H62.9c-.46 0-.83.37-.83.83Zm6.89 0c0 .46.37.83.83.83h1.66c.46 0 .83-.37.83-.83 0-.46-.37-.83-.83-.83h-1.66c-.45 0-.83.37-.83.83Zm20.68 0c0 .46.37.83.83.83h1.67c.46 0 .83-.37.83-.83 0-.46-.37-.83-.83-.83h-1.67c-.46 0-.83.37-.83.83Zm-6.89 0c0 .46.37.83.83.83h1.66c.46 0 .83-.37.83-.83 0-.46-.37-.83-.83-.83h-1.66c-.46 0-.83.37-.83.83Zm-6.9 0c0 .46.37.83.83.83h1.66c.46 0 .83-.37.83-.83 0-.46-.37-.83-.83-.83h-1.66c-.45 0-.83.37-.83.83Zm61.96 13.79c0 .48.39.88.88.88h1.75c.48 0 .88-.39.88-.88 0-.48-.39-.88-.88-.88h-1.75c-.49 0-.88.39-.88.88Zm-69.8 27.57c0 .72.59 1.31 1.31 1.31h2.61c.72 0 1.31-.59 1.31-1.31 0-.72-.59-1.31-1.31-1.31h-2.61c-.72 0-1.31.59-1.31 1.31Zm118.24 0c0 .43.35.78.78.78h1.56a.781.781 0 0 0 0-1.56h-1.56c-.43 0-.78.35-.78.78Zm-132.03 0c0 .72.59 1.31 1.31 1.31h2.62c.72 0 1.31-.59 1.31-1.31 0-.72-.59-1.31-1.31-1.31h-2.62c-.72 0-1.31.59-1.31 1.31Zm20.83 0c0 .68.55 1.23 1.23 1.23h2.46a1.23 1.23 0 1 0 0-2.46h-2.46c-.67 0-1.23.55-1.23 1.23Zm8.51-.86a.85.85 0 1 0 0 1.7h1.71a.85.85 0 1 0 0-1.7h-1.71Zm29.3 1.73c.48 0 .88-.39.88-.88 0-.48-.39-.88-.88-.88h-1.75c-.48 0-.88.39-.88.88 0 .48.39.88.88.88h1.75Zm87.18 6.02c0 .43.35.78.78.78h1.56a.781.781 0 0 0 0-1.56h-1.56c-.43.01-.78.35-.78.78ZM47.33 56.69c0 .72.59 1.31 1.31 1.31h2.62c.72 0 1.31-.59 1.31-1.31 0-.72-.59-1.31-1.31-1.31h-2.62c-.72 0-1.31.59-1.31 1.31Zm43.14-.83c-.46 0-.83.37-.83.83 0 .46.37.83.83.83h1.67c.46 0 .83-.37.83-.83 0-.46-.37-.83-.83-.83h-1.67Zm116.46 7.72c0 .43.35.78.78.78h1.56a.781.781 0 0 0 0-1.56h-1.56c-.43.01-.78.35-.78.78ZM13.21 65.85h4.54c.44 0 .83-.16 1.18-.38.35.22.74.38 1.18.38h4.54c.72 0 1.33-.35 1.75-.87.3.24.67.4 1.08.4h3.59c.99 0 1.8-.8 1.8-1.8s-.8-1.8-1.8-1.8h-3.59c-.41 0-.78.16-1.08.4-.42-.52-1.03-.87-1.75-.87h-4.54c-.44 0-.83.16-1.18.38-.35-.22-.74-.38-1.18-.38h-2.72a117.3 117.3 0 0 0-2.33 4.45c.17.04.33.09.51.09Zm27.23-9.16c0 .72.59 1.31 1.31 1.31h2.62c.72 0 1.31-.59 1.31-1.31 0-.72-.59-1.31-1.31-1.31h-2.62c-.72 0-1.31.59-1.31 1.31Zm173.38 6.89c0 .43.35.78.78.78h1.56a.781.781 0 0 0 0-1.56h-1.56c-.43.01-.78.35-.78.78Zm-55.18-6.89c0 .44.36.8.8.8h1.6c.44 0 .8-.36.8-.8 0-.44-.36-.8-.8-.8h-1.6c-.44 0-.8.36-.8.8Zm-47.95 53.85c-.72 0-1.3.58-1.3 1.3 0 .72.58 1.3 1.3 1.3h2.6c.72 0 1.3-.58 1.3-1.3 0-.72-.58-1.3-1.3-1.3h-2.6Zm40.86-53.85c0 .5.4.9.9.9h1.8c.5 0 .9-.4.9-.9s-.4-.9-.9-.9h-1.8c-.5 0-.9.4-.9.9Zm27.81 0c0 .43.35.78.78.78h1.56a.781.781 0 0 0 0-1.56h-1.56c-.43 0-.78.35-.78.78Zm-6.89 0c0 .43.35.78.78.78h1.56a.781.781 0 0 0 0-1.56h-1.56c-.44 0-.78.35-.78.78Zm-27.81 0c0 .5.4.9.9.9h1.8c.5 0 .9-.4.9-.9s-.4-.9-.9-.9h-1.8c-.5 0-.9.4-.9.9Zm-27.58 0c0 .5.4.9.9.9h1.8c.5 0 .9-.4.9-.9s-.4-.9-.9-.9h-1.8c-.49 0-.9.4-.9.9Zm-19.71-.83c-.46 0-.83.37-.83.83 0 .46.37.83.83.83h1.66c.46 0 .83-.37.83-.83 0-.46-.37-.83-.83-.83h-1.66Zm6.06.83c0 .46.37.83.83.83h1.66c.46 0 .83-.37.83-.83 0-.46-.37-.83-.83-.83h-1.66c-.46 0-.83.37-.83.83Zm27.44 0c0 .5.4.9.9.9h1.8c.5 0 .9-.4.9-.9s-.4-.9-.9-.9h-1.8c-.5 0-.9.4-.9.9Zm6.89 0c0 .5.4.9.9.9h1.8c.5 0 .9-.4.9-.9s-.4-.9-.9-.9h-1.8c-.5 0-.9.4-.9.9Zm-13.78 0c0 .5.4.9.9.9h1.8c.5 0 .9-.4.9-.9s-.4-.9-.9-.9h-1.8c-.5 0-.9.4-.9.9Zm-62.86 0c0 .72.59 1.31 1.31 1.31h2.62c.72 0 1.31-.59 1.31-1.31 0-.72-.59-1.31-1.31-1.31h-2.62c-.73 0-1.31.59-1.31 1.31Zm13.78 6.89c0 .72.59 1.31 1.31 1.31h2.61c.72 0 1.31-.59 1.31-1.31 0-.72-.59-1.31-1.31-1.31h-2.61c-.72 0-1.31.59-1.31 1.31Zm-6.89 0c0 .72.59 1.31 1.31 1.31h2.61c.72 0 1.31-.59 1.31-1.31 0-.72-.59-1.31-1.31-1.31h-2.61c-.72 0-1.31.59-1.31 1.31Zm14.28 0c0 .59.47 1.06 1.06 1.06h2.12a1.06 1.06 0 0 0 0-2.12h-2.12c-.58 0-1.06.48-1.06 1.06Zm-21.17 0c0 .72.59 1.31 1.31 1.31h2.62c.72 0 1.31-.59 1.31-1.31 0-.72-.59-1.31-1.31-1.31h-2.62c-.73 0-1.31.59-1.31 1.31Zm44.82.85c.47 0 .85-.38.85-.84a.84.84 0 0 0-.85-.84h-1.69c-.47 0-.85.38-.85.84 0 .47.38.84.85.84h1.69Zm-12.97-.85c0-.46-.37-.83-.83-.83h-1.67c-.46 0-.83.37-.83.83 0 .46.37.83.83.83h1.67c.46.01.83-.37.83-.83Zm-59.42 0c0 .72.59 1.31 1.31 1.31h2.62c.72 0 1.31-.59 1.31-1.31 0-.72-.59-1.31-1.31-1.31h-2.62c-.73 0-1.31.59-1.31 1.31Zm-22.21 5c-.61 1.31-1.22 2.62-1.78 3.95h1.09c.42 0 .78-.16 1.11-.37.4.35.9.58 1.47.58h4.52c.51 0 .96-.2 1.34-.49.34.22.72.38 1.15.38h4.3c1.07 0 1.92-.79 2.08-1.81.15.58.66 1.03 1.29 1.03h2.72c.75 0 1.36-.61 1.36-1.36 0-.75-.61-1.36-1.36-1.36h-2.72c-.63 0-1.14.44-1.29 1.03-.17-1.02-1.01-1.81-2.08-1.81h-4.3c-.43 0-.81.16-1.15.38-.38-.28-.83-.49-1.34-.49h-4.52c-.57 0-1.07.23-1.47.58-.14-.11-.28-.18-.42-.24ZM186.25 42.9c0 .43.35.78.78.78h1.56a.781.781 0 0 0 0-1.56h-1.56c-.43.01-.78.35-.78.78ZM54.22 63.58c0 .72.59 1.31 1.31 1.31h2.62c.72 0 1.31-.59 1.31-1.31 0-.72-.59-1.31-1.31-1.31h-2.62c-.72 0-1.31.59-1.31 1.31Zm-13.78 0c0 .72.59 1.31 1.31 1.31h2.62c.72 0 1.31-.59 1.31-1.31 0-.72-.59-1.31-1.31-1.31h-2.62c-.72 0-1.31.59-1.31 1.31Zm6.89 0c0 .72.59 1.31 1.31 1.31h2.62c.72 0 1.31-.59 1.31-1.31 0-.72-.59-1.31-1.31-1.31h-2.62c-.72 0-1.31.59-1.31 1.31Zm132.03 0c0 .43.35.78.78.78h1.56a.781.781 0 0 0 0-1.56h-1.56c-.43.01-.78.35-.78.78Zm-13.79 0c0 .43.35.78.78.78h1.56a.781.781 0 0 0 0-1.56h-1.56c-.43.01-.78.35-.78.78Zm6.9 0c0 .43.35.78.78.78h1.56a.781.781 0 0 0 0-1.56h-1.56c-.44.01-.78.35-.78.78Zm-13.96 0c0 .48.39.87.86.87h1.73c.48 0 .86-.39.86-.87s-.39-.87-.86-.87h-1.73c-.47.01-.86.4-.86.87Zm-6.96 0c0 .5.4.9.9.9h1.8c.5 0 .9-.4.9-.9s-.4-.9-.9-.9h-1.8c-.5.01-.9.41-.9.9Zm34.7 0c0 .43.35.78.78.78h1.56a.781.781 0 0 0 0-1.56h-1.56c-.43.01-.78.35-.78.78Zm6.9 0c0 .43.35.78.78.78h1.56a.781.781 0 0 0 0-1.56h-1.56c-.44.01-.78.35-.78.78Zm-55.39 0c0 .5.4.9.9.9h1.8c.5 0 .9-.4.9-.9s-.4-.9-.9-.9h-1.8c-.5.01-.9.41-.9.9Zm6.9 0c0 .5.4.9.9.9h1.8c.5 0 .9-.4.9-.9s-.4-.9-.9-.9h-1.8c-.5.01-.9.41-.9.9Zm-27.58 0c0 .5.4.9.9.9h1.8c.5 0 .9-.4.9-.9s-.4-.9-.9-.9h-1.8c-.49.01-.9.41-.9.9Zm6.9 0c0 .5.4.9.9.9h1.8c.5 0 .9-.4.9-.9s-.4-.9-.9-.9h-1.8c-.5.01-.9.41-.9.9Zm6.89 0c0 .5.4.9.9.9h1.8c.5 0 .9-.4.9-.9s-.4-.9-.9-.9h-1.8c-.5.01-.9.41-.9.9Zm-20.68 0c0 .5.4.9.9.9h1.8c.5 0 .9-.4.9-.9s-.4-.9-.9-.9h-1.8c-.5.01-.9.41-.9.9Zm-11.16.84c.46 0 .83-.37.83-.83 0-.46-.37-.83-.83-.83h-1.66c-.46 0-.83.37-.83.83 0 .46.37.83.83.83h1.66Zm94.12-7.73c0 .43.35.78.78.78h1.56a.781.781 0 0 0 0-1.56h-1.56c-.44 0-.78.35-.78.78ZM61.12 42.9c0 .72.59 1.31 1.31 1.31h2.62c.72 0 1.31-.59 1.31-1.31 0-.72-.59-1.31-1.31-1.31h-2.62c-.73.01-1.31.59-1.31 1.31Zm-6.9 0c0 .72.59 1.31 1.31 1.31h2.62c.72 0 1.31-.59 1.31-1.31 0-.72-.59-1.31-1.31-1.31h-2.62c-.72.01-1.31.59-1.31 1.31Zm65.52.87c.48 0 .86-.39.86-.87s-.39-.87-.86-.87h-1.73c-.48 0-.86.39-.86.87s.39.87.86.87h1.73Zm-13.81-.03c.46 0 .83-.37.83-.83 0-.46-.37-.83-.83-.83h-1.66c-.46 0-.83.37-.83.83 0 .46.37.83.83.83h1.66Zm-6.9 0c.46 0 .83-.37.83-.83 0-.46-.37-.83-.83-.83h-1.66c-.46 0-.83.37-.83.83 0 .46.37.83.83.83h1.66Zm13.79 0c.46 0 .83-.37.83-.83 0-.46-.37-.83-.83-.83h-1.66c-.46 0-.83.37-.83.83 0 .46.37.83.83.83h1.66Zm80.33 6.06c0 .43.35.78.78.78h1.56a.781.781 0 0 0 0-1.56h-1.56c-.44 0-.78.35-.78.78Zm-6.9 0c0 .43.35.78.78.78h1.56a.781.781 0 0 0 0-1.56h-1.56c-.43 0-.78.35-.78.78Zm13.79 0c0 .43.35.78.78.78h1.56a.781.781 0 0 0 0-1.56h-1.56c-.43 0-.78.35-.78.78ZM47.33 42.9c0 .72.59 1.31 1.31 1.31h2.62c.72 0 1.31-.59 1.31-1.31 0-.72-.59-1.31-1.31-1.31h-2.62c-.72.01-1.31.59-1.31 1.31Zm-22.68 9.17c.44 0 .83-.16 1.18-.38.35.22.74.38 1.18.38h4.54c.63 0 1.2-.26 1.62-.68.31.21.66.36 1.06.36h3.89c1.08 0 1.95-.87 1.95-1.95s-.87-1.95-1.95-1.95h-3.89c-.4 0-.75.15-1.06.36-.41-.42-.98-.68-1.62-.68H27c-.44 0-.83.16-1.18.38-.35-.22-.74-.38-1.18-.38h-.69c-1.12 1.49-2.2 3-3.25 4.54h3.95Zm182.28-2.27c0 .43.35.78.78.78h1.56a.781.781 0 0 0 0-1.56h-1.56c-.43 0-.78.35-.78.78Zm-48.25-6.9c0 .43.35.78.78.78h1.56a.781.781 0 0 0 0-1.56h-1.56c-.43.01-.78.35-.78.78Zm-14 0c0 .49.4.89.89.89h1.77c.49 0 .89-.4.89-.89s-.4-.89-.89-.89h-1.77c-.49.01-.89.4-.89.89Zm20.89 0c0 .43.35.78.78.78h1.56a.781.781 0 0 0 0-1.56h-1.56c-.43.01-.78.35-.78.78Zm-13.8 0c0 .44.35.79.79.79h1.58c.44 0 .79-.35.79-.79 0-.44-.35-.79-.79-.79h-1.58c-.44.01-.79.36-.79.79Zm27.59 0c0 .43.35.78.78.78h1.56a.781.781 0 0 0 0-1.56h-1.56c-.43.01-.78.35-.78.78Zm-6.89 0c0 .43.35.78.78.78h1.56a.781.781 0 0 0 0-1.56h-1.56c-.44.01-.78.35-.78.78Zm-41.6 0c0 .5.4.9.9.9h1.8c.5 0 .9-.4.9-.9s-.4-.9-.9-.9h-1.8c-.5.01-.9.41-.9.9Zm-45.63.84c.46 0 .83-.37.83-.83 0-.46-.37-.83-.83-.83h-1.66c-.46 0-.83.37-.83.83 0 .46.37.83.83.83h1.66Zm-6.05-.84c0-.46-.37-.83-.83-.83H76.7c-.46 0-.83.37-.83.83 0 .46.37.83.83.83h1.66c.45.01.83-.37.83-.83Zm44.79 0c0 .5.4.9.9.9h1.8c.5 0 .9-.4.9-.9s-.4-.9-.9-.9h-1.8c-.5.01-.9.41-.9.9Zm13.78 0c0 .5.4.9.9.9h1.8c.5 0 .9-.4.9-.9s-.4-.9-.9-.9h-1.8c-.5.01-.9.41-.9.9Zm-45.62.84c.46 0 .83-.37.83-.83 0-.46-.37-.83-.83-.83h-1.67c-.46 0-.83.37-.83.83 0 .46.37.83.83.83h1.67Zm-23.87-.84c0 .65.53 1.18 1.18 1.18h2.36c.65 0 1.18-.53 1.18-1.18 0-.65-.53-1.18-1.18-1.18h-2.36c-.65.01-1.18.53-1.18 1.18Zm-7.15 6.9c0 .72.59 1.31 1.31 1.31h2.62c.72 0 1.31-.59 1.31-1.31 0-.72-.59-1.31-1.31-1.31h-2.62c-.73 0-1.31.59-1.31 1.31Zm-6.9 0c0 .72.59 1.31 1.31 1.31h2.62c.72 0 1.31-.59 1.31-1.31 0-.72-.59-1.31-1.31-1.31h-2.62c-.72 0-1.31.59-1.31 1.31Zm-6.89 0c0 .72.59 1.31 1.31 1.31h2.62c.72 0 1.31-.59 1.31-1.31 0-.72-.59-1.31-1.31-1.31h-2.62c-.72 0-1.31.59-1.31 1.31Zm20.68 0c0 .72.59 1.31 1.31 1.31h2.61c.72 0 1.31-.59 1.31-1.31 0-.72-.59-1.31-1.31-1.31h-2.61c-.72 0-1.31.59-1.31 1.31Zm44.82.84c.47 0 .85-.38.85-.84a.84.84 0 0 0-.85-.84h-1.69c-.47 0-.85.38-.85.84 0 .47.38.84.85.84h1.69Zm-37.27-.84c0 .54.44.98.98.98h1.97c.54 0 .98-.44.98-.98s-.44-.98-.98-.98h-1.97a.969.969 0 0 0-.98.98Zm30.37.83c.46 0 .83-.37.83-.83 0-.46-.37-.83-.83-.83h-1.66c-.46 0-.83.37-.83.83 0 .46.37.83.83.83h1.66Zm107.89 6.06c0 .43.35.78.78.78h1.56a.781.781 0 0 0 0-1.56h-1.56c-.43 0-.78.35-.78.78ZM40.44 49.8c0 .72.59 1.31 1.31 1.31h2.62c.72 0 1.31-.59 1.31-1.31 0-.72-.59-1.31-1.31-1.31h-2.62c-.72 0-1.31.59-1.31 1.31Zm159.6 6.89c0 .43.35.78.78.78h1.56a.781.781 0 0 0 0-1.56h-1.56c-.43 0-.78.35-.78.78Zm-20.68-6.89c0 .43.35.78.78.78h1.56a.781.781 0 0 0 0-1.56h-1.56c-.43 0-.78.35-.78.78Zm27.57 6.89c0 .43.35.78.78.78h1.56a.781.781 0 0 0 0-1.56h-1.56c-.43 0-.78.35-.78.78ZM16.38 58.96h1.37c.44 0 .83-.16 1.18-.38.35.22.74.38 1.18.38h4.54c.47 0 .89-.18 1.25-.43.34.21.72.37 1.16.37h4.43c.95 0 1.74-.6 2.06-1.44.26.39.68.66 1.18.66h2.88a1.44 1.44 0 0 0 0-2.88h-2.88c-.5 0-.92.27-1.18.66-.32-.84-1.11-1.44-2.06-1.44h-4.43c-.43 0-.81.16-1.16.37-.36-.25-.78-.43-1.25-.43h-4.54c-.44 0-.82.16-1.17.37-.88 1.39-1.73 2.78-2.56 4.19Zm142.3-9.16c0 .43.35.78.78.78h1.56a.781.781 0 0 0 0-1.56h-1.56c-.43 0-.78.35-.78.78Zm-59.65.83c.46 0 .83-.37.83-.83 0-.46-.37-.83-.83-.83h-1.66c-.46 0-.83.37-.83.83 0 .46.37.83.83.83h1.66Zm38.73-.83c0 .5.4.9.9.9h1.8c.5 0 .9-.4.9-.9s-.4-.9-.9-.9h-1.8c-.5 0-.9.4-.9.9Zm6.9 0c0 .5.4.9.9.9h1.8c.5 0 .9-.4.9-.9s-.4-.9-.9-.9h-1.8c-.5 0-.9.4-.9.9Zm27.81 0c0 .43.35.78.78.78h1.56a.781.781 0 0 0 0-1.56h-1.56c-.44 0-.78.35-.78.78Zm-6.9 0c0 .43.35.78.78.78h1.56a.781.781 0 0 0 0-1.56h-1.56c-.43 0-.78.35-.78.78Zm-13.92 0c0 .47.38.84.85.84h1.69c.47 0 .85-.38.85-.84a.84.84 0 0 0-.85-.84h-1.69a.835.835 0 0 0-.85.84Zm-20.78 0c0 .5.4.9.9.9h1.8c.5 0 .9-.4.9-.9s-.4-.9-.9-.9h-1.8c-.5 0-.9.4-.9.9Zm-44.79 0c0-.46-.37-.83-.83-.83h-1.66c-.46 0-.83.37-.83.83 0 .46.37.83.83.83h1.66c.45 0 .83-.37.83-.83Zm6.06.83c.46 0 .83-.37.83-.83 0-.46-.37-.83-.83-.83h-1.67c-.46 0-.83.37-.83.83 0 .46.37.83.83.83h1.67Zm24.94-.83c0 .5.4.9.9.9h1.8c.5 0 .9-.4.9-.9s-.4-.9-.9-.9h-1.8c-.49 0-.9.4-.9.9Zm6.9 0c0 .5.4.9.9.9h1.8c.5 0 .9-.4.9-.9s-.4-.9-.9-.9h-1.8c-.5 0-.9.4-.9.9Zm-45.12 70.27a1.34 1.34 0 0 0 0-2.68h-2.68a1.34 1.34 0 0 0 0 2.68h2.68Zm85.35 67.59c0 .81.65 1.46 1.46 1.46h2.92c.81 0 1.46-.65 1.46-1.46 0-.81-.65-1.46-1.46-1.46h-2.92c-.81 0-1.46.65-1.46 1.46Zm-37.81.62c.35 0 .63-.28.63-.63s-.28-.63-.63-.63h-1.26c-.35 0-.63.28-.63.63s.28.63.63.63h1.26Zm44.71-.62c0 .81.65 1.46 1.46 1.46h2.92c.81 0 1.46-.65 1.46-1.46 0-.81-.65-1.46-1.46-1.46h-2.92c-.81 0-1.46.65-1.46 1.46Zm-50.97 0c0-.35-.28-.63-.63-.63h-1.26c-.35 0-.63.28-.63.63s.28.63.63.63h1.26a.64.64 0 0 0 .63-.63Zm64.75 0c0 .81.65 1.46 1.46 1.46h2.92c.81 0 1.46-.65 1.46-1.46 0-.81-.65-1.46-1.46-1.46h-2.92c-.81 0-1.46.65-1.46 1.46Zm-80.67-21.56c-.48 0-.88.39-.88.88 0 .48.39.88.88.88h1.75c.48 0 .88-.39.88-.88 0-.48-.39-.88-.88-.88h-1.75ZM178 187.66c0 .81.65 1.46 1.46 1.46h2.92c.81 0 1.46-.65 1.46-1.46 0-.81-.65-1.46-1.46-1.46h-2.92c-.81 0-1.46.65-1.46 1.46Zm-44.71.62c.35 0 .63-.28.63-.63s-.28-.63-.63-.63h-1.25c-.35 0-.63.28-.63.63s.28.63.63.63h1.25Zm-29.07-1.5c-.48 0-.88.39-.88.88 0 .48.39.88.88.88h1.75c.48 0 .88-.39.88-.88 0-.48-.39-.88-.88-.88h-1.75Zm49.83 1.58c.39 0 .7-.31.7-.7 0-.39-.31-.7-.7-.7h-1.41c-.39 0-.7.31-.7.7 0 .39.31.7.7.7h1.41Zm-42.85-1.49c-.44 0-.79.35-.79.79 0 .44.35.79.79.79h1.58c.44 0 .79-.35.79-.79 0-.44-.35-.79-.79-.79h-1.58Zm-13.88-.09c-.48 0-.88.39-.88.88 0 .48.39.88.88.88h1.75c.48 0 .88-.39.88-.88 0-.48-.39-.88-.88-.88h-1.75Zm42.87 1.5c.35 0 .63-.28.63-.63s-.28-.63-.63-.63h-1.25c-.35 0-.63.28-.63.63s.28.63.63.63h1.25Zm6.89 0c.35 0 .63-.28.63-.63s-.28-.63-.63-.63h-1.25c-.35 0-.63.28-.63.63s.28.63.63.63h1.25Zm-77.36-8.42c-.5 0-.91.41-.91.91s.41.91.91.91h1.81c.5 0 .91-.41.91-.91s-.41-.91-.91-.91h-1.81Zm-6.89 0c-.5 0-.91.41-.91.91s.41.91.91.91h1.82c.5 0 .91-.41.91-.91s-.41-.91-.91-.91h-1.82Zm13.81.02c-.49 0-.89.4-.89.89s.4.89.89.89h1.77c.49 0 .89-.4.89-.89s-.4-.89-.89-.89h-1.77Zm13.79.01c-.48 0-.88.39-.88.88 0 .48.39.88.88.88h1.75c.48 0 .88-.39.88-.88 0-.48-.39-.88-.88-.88h-1.75Zm-34.5-.03c-.5 0-.91.41-.91.91s.41.91.91.91h1.82c.5 0 .91-.41.91-.91s-.41-.91-.91-.91h-1.82Zm27.61.03c-.48 0-.88.39-.88.88 0 .48.39.88.88.88h1.75c.48 0 .88-.39.88-.88 0-.48-.39-.88-.88-.88h-1.75Zm70.92 1.99c.61 0 1.11-.5 1.11-1.11 0-.62-.5-1.11-1.11-1.11h-2.23c-.61 0-1.11.5-1.11 1.11 0 .62.5 1.11 1.11 1.11h2.23Zm-130.06 7.8c.56 0 1.06-.23 1.42-.59.37.36.87.59 1.42.59h4.04c1.12 0 2.02-.9 2.02-2.02s-.9-2.02-2.02-2.02h-4.04c-.56 0-1.06.23-1.42.59-.37-.36-.87-.59-1.42-.59h-3.02c.95 1.37 1.92 2.72 2.93 4.04h.09Zm174.28-2.02c0 .81.65 1.46 1.46 1.46h2.92c.81 0 1.46-.65 1.46-1.46 0-.81-.65-1.46-1.46-1.46h-2.92c-.81 0-1.46.65-1.46 1.46Zm-101.36-7.77c-.48 0-.88.39-.88.88 0 .48.39.88.88.88h1.75c.48 0 .88-.39.88-.88 0-.48-.39-.88-.88-.88h-1.75Zm108.25 7.77c0 .81.65 1.46 1.46 1.46h2.92c.81 0 1.46-.65 1.46-1.46 0-.81-.65-1.46-1.46-1.46h-2.92c-.81 0-1.46.65-1.46 1.46Zm-163.5-7.88c-.54 0-.98.44-.98.98s.44.98.98.98h1.97c.54 0 .98-.44.98-.98s-.44-.98-.98-.98h-1.97Zm6.97.08c-.5 0-.91.41-.91.91s.41.91.91.91h1.82c.5 0 .91-.41.91-.91s-.41-.91-.91-.91h-1.82Zm135.85 14.69c0 .81.65 1.46 1.46 1.46h2.92c.81 0 1.46-.65 1.46-1.46 0-.81-.65-1.46-1.46-1.46h-2.92c-.81 0-1.46.65-1.46 1.46Zm-32.8 0c0 .35.28.63.63.63h1.26c.35 0 .63-.28.63-.63s-.28-.63-.63-.63h-1.26c-.35 0-.63.28-.63.63Zm12.12 0c0 .81.65 1.46 1.46 1.46h2.92c.81 0 1.46-.65 1.46-1.46 0-.81-.65-1.46-1.46-1.46h-2.92c-.81 0-1.46.65-1.46 1.46Zm-25.28-.63c-.35 0-.63.28-.63.63s.28.63.63.63h1.25c.35 0 .63-.28.63-.63s-.28-.63-.63-.63h-1.25Zm32.18.63c0 .81.65 1.46 1.46 1.46h2.92c.81 0 1.46-.65 1.46-1.46 0-.81-.65-1.46-1.46-1.46h-2.92c-.81 0-1.46.65-1.46 1.46Zm6.89 0c0 .81.65 1.46 1.46 1.46h2.92c.81 0 1.46-.65 1.46-1.46 0-.81-.65-1.46-1.46-1.46h-2.92c-.81 0-1.46.65-1.46 1.46Zm-32.18-.63c-.35 0-.63.28-.63.63s.28.63.63.63h1.25c.35 0 .63-.28.63-.63s-.28-.63-.63-.63h-1.25Zm-13.78 0c-.35 0-.63.28-.63.63s.28.63.63.63h1.25c.35 0 .63-.28.63-.63s-.28-.63-.63-.63h-1.25Zm-20.71-.03c-.36 0-.66.3-.66.66 0 .36.3.66.66.66h1.32c.36 0 .66-.3.66-.66 0-.36-.3-.66-.66-.66h-1.32Zm-7.1-.21c-.48 0-.86.39-.86.87s.39.87.86.87h1.73c.48 0 .86-.39.86-.87s-.39-.87-.86-.87h-1.73Zm14.02.24c-.35 0-.63.28-.63.63s.28.63.63.63h1.26c.35 0 .63-.28.63-.63s-.28-.63-.63-.63h-1.26Zm6.89 0c-.35 0-.63.28-.63.63s.28.63.63.63h1.26c.35 0 .63-.28.63-.63s-.28-.63-.63-.63h-1.26Zm-69.21-7.17c-.5 0-.91.41-.91.91s.41.91.91.91h1.82c.5 0 .91-.41.91-.91s-.41-.91-.91-.91h-1.82Zm13.79 0c-.5 0-.91.41-.91.91s.41.91.91.91h1.81c.5 0 .91-.41.91-.91s-.41-.91-.91-.91h-1.81Zm-6.89 0c-.5 0-.91.41-.91.91s.41.91.91.91h1.82c.5 0 .91-.41.91-.91s-.41-.91-.91-.91h-1.82Zm27.6.03c-.48 0-.88.39-.88.88 0 .48.39.88.88.88h1.75c.48 0 .88-.39.88-.88 0-.48-.39-.88-.88-.88h-1.75Zm-6.89 0c-.48 0-.88.39-.88.88 0 .48.39.88.88.88h1.75c.48 0 .88-.39.88-.88 0-.48-.39-.88-.88-.88h-1.75Zm115.14 7.77c0 .81.65 1.46 1.46 1.46h2.92c.81 0 1.46-.65 1.46-1.46 0-.81-.65-1.46-1.46-1.46h-2.92c-.81 0-1.46.65-1.46 1.46Zm-149.64-7.8c-.5 0-.91.41-.91.91s.41.91.91.91h1.82c.5 0 .91-.41.91-.91s-.41-.91-.91-.91h-1.82Zm27.58.01c-.5 0-.9.4-.9.9s.4.9.9.9h1.8c.5 0 .9-.4.9-.9s-.4-.9-.9-.9h-1.8Zm115.17 7.79c0 .81.65 1.46 1.46 1.46h2.92c.81 0 1.46-.65 1.46-1.46 0-.81-.65-1.46-1.46-1.46h-2.92c-.81 0-1.46.65-1.46 1.46Zm-149.64-7.8c-.5 0-.91.41-.91.91s.41.91.91.91h1.82c.5 0 .91-.41.91-.91s-.41-.91-.91-.91h-1.82Zm-12.39 9.58h1.29c.99 0 1.78-.8 1.78-1.78 0-.99-.8-1.78-1.78-1.78h-3.57c-.23 0-.45.06-.65.14.96 1.16 1.94 2.3 2.93 3.42Zm7.74-10.01h-2.68a1.34 1.34 0 0 0 0 2.68h2.68a1.34 1.34 0 0 0 0-2.68Zm124.12 2.72c.76 0 1.38-.62 1.38-1.38 0-.76-.62-1.38-1.38-1.38h-2.77c-.76 0-1.38.62-1.38 1.38 0 .76.62 1.38 1.38 1.38h2.77Zm9.49-15.17c0 .81.65 1.46 1.46 1.46h2.92c.81 0 1.46-.65 1.46-1.46 0-.81-.65-1.46-1.46-1.46h-2.92c-.81 0-1.46.66-1.46 1.46Zm6.89 0c0 .81.65 1.46 1.46 1.46h2.92c.81 0 1.46-.65 1.46-1.46 0-.81-.65-1.46-1.46-1.46h-2.92c-.81 0-1.46.66-1.46 1.46Zm-80.68 19.81c-.48 0-.88.39-.88.88 0 .48.39.88.88.88h1.75c.48 0 .88-.39.88-.88 0-.48-.39-.88-.88-.88h-1.75Zm60-19.81c0 .81.65 1.46 1.46 1.46h2.92c.81 0 1.46-.65 1.46-1.46 0-.81-.65-1.46-1.46-1.46h-2.92c-.81 0-1.46.66-1.46 1.46Zm6.89 0c0 .81.65 1.46 1.46 1.46h2.92c.81 0 1.46-.65 1.46-1.46 0-.81-.65-1.46-1.46-1.46h-2.92c-.81 0-1.46.66-1.46 1.46Zm20.68 0c0 .81.65 1.46 1.46 1.46h2.92c.81 0 1.46-.65 1.46-1.46 0-.81-.65-1.46-1.46-1.46h-2.92c-.81 0-1.46.66-1.46 1.46Zm6.9 0c0 .81.65 1.46 1.46 1.46h2.92c.81 0 1.46-.65 1.46-1.46 0-.81-.65-1.46-1.46-1.46h-2.92c-.81 0-1.46.66-1.46 1.46Zm-140.03 0c0-.5-.41-.91-.91-.91h-1.82c-.5 0-.91.41-.91.91s.41.91.91.91h1.82c.51 0 .91-.41.91-.91Zm5.99.91c.5 0 .91-.41.91-.91s-.41-.91-.91-.91h-1.82c-.5 0-.91.41-.91.91s.41.91.91.91h1.82Zm74.29-1.53c-.35 0-.63.28-.63.63s.28.63.63.63h1.25c.35 0 .63-.28.63-.63s-.28-.63-.63-.63h-1.25Zm6.26.62c0 .35.28.63.63.63h1.25c.35 0 .63-.28.63-.63s-.28-.63-.63-.63h-1.25a.64.64 0 0 0-.63.63Zm-73.66.91c.5 0 .91-.41.91-.91s-.41-.91-.91-.91h-1.82c-.5 0-.91.41-.91.91s.41.91.91.91h1.82Zm60.49-1.55c-.35 0-.64.29-.64.64 0 .35.29.64.64.64h1.28c.35 0 .64-.29.64-.64 0-.35-.29-.64-.64-.64h-1.28Zm73.55.64c0 .81.65 1.46 1.46 1.46h2.92c.81 0 1.46-.65 1.46-1.46 0-.81-.65-1.46-1.46-1.46h-2.92c-.81 0-1.46.66-1.46 1.46Zm13.78 0c0 .81.65 1.46 1.46 1.46h2.92c.81 0 1.46-.65 1.46-1.46 0-.81-.65-1.46-1.46-1.46h-2.92c-.81 0-1.46.66-1.46 1.46ZM83.54 166.1c-.48 0-.88.39-.88.88 0 .48.39.88.88.88h1.75c.48 0 .88-.39.88-.88 0-.48-.39-.88-.88-.88h-1.75Zm-13.79 0c-.48 0-.88.39-.88.88 0 .48.39.88.88.88h1.75c.48 0 .88-.39.88-.88 0-.48-.39-.88-.88-.88h-1.75Zm6.89 0c-.48 0-.88.39-.88.88 0 .48.39.88.88.88h1.75c.48 0 .88-.39.88-.88 0-.48-.39-.88-.88-.88h-1.75Zm20.68 0c-.48 0-.88.39-.88.88 0 .48.39.88.88.88h1.75c.48 0 .88-.39.88-.88 0-.48-.39-.88-.88-.88h-1.75Zm-6.89 0c-.48 0-.88.39-.88.88 0 .48.39.88.88.88h1.75c.48 0 .88-.39.88-.88 0-.48-.39-.88-.88-.88h-1.75Zm-27.6-.03c-.5 0-.91.41-.91.91s.41.91.91.91h1.82c.5 0 .91-.41.91-.91s-.41-.91-.91-.91h-1.82Zm142.74 7.8c0 .81.65 1.46 1.46 1.46h2.92c.81 0 1.46-.65 1.46-1.46 0-.81-.65-1.46-1.46-1.46h-2.92c-.81 0-1.46.66-1.46 1.46Zm-190.29 2.02h2.22c.56 0 1.06-.23 1.42-.59.37.36.87.59 1.42.59h4.04c.56 0 1.06-.23 1.42-.59.37.36.87.59 1.42.59h4.04c.56 0 1.06-.23 1.42-.59.37.36.87.59 1.42.59h4.04c.98 0 1.76-.71 1.94-1.63.17.64.73 1.11 1.42 1.11h3.01c.83 0 1.5-.67 1.5-1.5s-.67-1.5-1.5-1.5H41.5c-.69 0-1.25.48-1.42 1.11-.19-.92-.96-1.63-1.94-1.63H34.1c-.56 0-1.06.23-1.42.59-.37-.36-.87-.59-1.42-.59h-4.04c-.56 0-1.06.23-1.42.59-.37-.36-.87-.59-1.42-.59h-4.04c-.56 0-1.06.23-1.42.59-.37-.36-.87-.59-1.42-.59h-4.04c-.11 0-.2.04-.3.06a137.2 137.2 0 0 0 2.12 3.98Zm132.4-7.68a1.23 1.23 0 1 0 0-2.46h-2.46a1.23 1.23 0 1 0 0 2.46h2.46Zm-91.75-2.14c-.5 0-.91.41-.91.91s.41.91.91.91h1.82c.5 0 .91-.41.91-.91s-.41-.91-.91-.91h-1.82Zm-7.06-.17c-.6 0-1.08.48-1.08 1.08 0 .6.48 1.08 1.08 1.08h2.16c.6 0 1.08-.48 1.08-1.08 0-.6-.48-1.08-1.08-1.08h-2.16Zm76.27 14.24c-.35 0-.63.28-.63.63s.28.63.63.63h1.26c.35 0 .63-.28.63-.63s-.28-.63-.63-.63h-1.26Zm39.07.63c0 .81.65 1.46 1.46 1.46h2.92c.81 0 1.46-.65 1.46-1.46 0-.81-.65-1.46-1.46-1.46h-2.92c-.81 0-1.46.65-1.46 1.46Zm6.9 0c0 .81.65 1.46 1.46 1.46h2.92c.81 0 1.46-.65 1.46-1.46 0-.81-.65-1.46-1.46-1.46h-2.92c-.81 0-1.46.65-1.46 1.46Zm-13.79 0c0 .81.65 1.46 1.46 1.46h2.92c.81 0 1.46-.65 1.46-1.46 0-.81-.65-1.46-1.46-1.46h-2.92c-.81 0-1.46.65-1.46 1.46Zm27.57 0c0 .81.65 1.46 1.46 1.46h2.92c.81 0 1.46-.65 1.46-1.46 0-.81-.65-1.46-1.46-1.46h-2.92c-.81 0-1.46.65-1.46 1.46Zm6.9 0c0 .81.65 1.46 1.46 1.46h2.92c.81 0 1.46-.65 1.46-1.46 0-.81-.65-1.46-1.46-1.46h-2.92c-.81 0-1.46.65-1.46 1.46Zm-52.86-.63c-.35 0-.63.28-.63.63s.28.63.63.63h1.25c.35 0 .63-.28.63-.63s-.28-.63-.63-.63h-1.25Zm39.07.63c0 .81.65 1.46 1.46 1.46h2.92c.81 0 1.46-.65 1.46-1.46 0-.81-.65-1.46-1.46-1.46h-2.92c-.81 0-1.46.65-1.46 1.46Zm-66.89-.88c-.48 0-.88.39-.88.88 0 .48.39.88.88.88h1.75c.48 0 .88-.39.88-.88 0-.48-.39-.88-.88-.88h-1.75Zm36.12-5.24a.781.781 0 0 0 0-1.56h-1.56a.781.781 0 0 0 0 1.56h1.56Zm-2.03 6.12c0 .35.28.63.63.63h1.25c.35 0 .63-.28.63-.63s-.28-.63-.63-.63h-1.25c-.35 0-.63.28-.63.63Zm-40.98-.88c-.48 0-.88.39-.88.88 0 .48.39.88.88.88h1.75c.48 0 .88-.39.88-.88 0-.48-.39-.88-.88-.88h-1.75Zm27.82.25c-.35 0-.63.28-.63.63s.28.63.63.63h1.25c.35 0 .63-.28.63-.63s-.28-.63-.63-.63h-1.25Zm-13.85-.07c-.38 0-.69.31-.69.69 0 .38.31.69.69.69h1.38c.38 0 .69-.31.69-.69 0-.38-.31-.69-.69-.69h-1.38Zm87.38.7c0 .81.65 1.46 1.46 1.46h2.92c.81 0 1.46-.65 1.46-1.46 0-.81-.65-1.46-1.46-1.46h-2.92c-.81 0-1.46.65-1.46 1.46ZM90.43 173c-.48 0-.88.39-.88.88 0 .48.39.88.88.88h1.75c.48 0 .88-.39.88-.88 0-.48-.39-.88-.88-.88h-1.75Zm13.79 0c-.48 0-.88.39-.88.88 0 .48.39.88.88.88h1.75c.48 0 .88-.39.88-.88 0-.48-.39-.88-.88-.88h-1.75Zm6.89 0c-.48 0-.88.39-.88.88 0 .48.39.88.88.88h1.75c.48 0 .88-.39.88-.88 0-.48-.39-.88-.88-.88h-1.75Zm6.95.05c-.45 0-.82.37-.82.82 0 .45.37.82.82.82h1.65c.45 0 .82-.37.82-.82 0-.45-.37-.82-.82-.82h-1.65ZM83.54 173c-.48 0-.88.39-.88.88 0 .48.39.88.88.88h1.75c.48 0 .88-.39.88-.88 0-.48-.39-.88-.88-.88h-1.75Zm13.78 0c-.48 0-.88.39-.88.88 0 .48.39.88.88.88h1.75c.48 0 .88-.39.88-.88 0-.48-.39-.88-.88-.88h-1.75Zm101.36 7.77c0 .81.65 1.46 1.46 1.46h2.92c.81 0 1.46-.65 1.46-1.46 0-.81-.65-1.46-1.46-1.46h-2.92c-.81 0-1.46.65-1.46 1.46ZM76.64 173c-.48 0-.88.39-.88.88 0 .48.39.88.88.88h1.75c.48 0 .88-.39.88-.88 0-.48-.39-.88-.88-.88h-1.75Zm-56.28 9.79h4.04c.56 0 1.06-.23 1.42-.59.37.36.87.59 1.42.59h4.04c.64 0 1.18-.31 1.55-.78.35.4.84.66 1.41.66h3.81a1.9 1.9 0 1 0 0-3.8h-3.81c-.57 0-1.06.26-1.41.66-.37-.46-.92-.78-1.55-.78h-4.04c-.56 0-1.06.23-1.42.59-.37-.36-.87-.59-1.42-.59h-4.04c-.56 0-1.06.23-1.42.59-.37-.36-.87-.59-1.42-.59h-.58c.73 1.23 1.5 2.43 2.27 3.63.32.24.7.41 1.15.41Zm131.55-7.48h2.88c.79 0 1.44-.64 1.44-1.44 0-.79-.65-1.44-1.44-1.44h-2.88a1.44 1.44 0 0 0 0 2.88Zm-82.18-2.34c-.5 0-.9.4-.9.9s.4.9.9.9h1.8c.5 0 .9-.4.9-.9s-.4-.9-.9-.9h-1.8Zm122.06 14.69c0 .81.65 1.46 1.46 1.46h2.92c.81 0 1.46-.65 1.46-1.46 0-.81-.65-1.46-1.46-1.46h-2.92c-.81 0-1.46.65-1.46 1.46Zm-73.8 26.68c-.49 0-.89.4-.89.89s.4.89.89.89h1.77c.49 0 .89-.4.89-.89s-.4-.89-.89-.89h-1.77Zm-13.78 0c-.49 0-.89.4-.89.89s.4.89.89.89h1.78c.49 0 .89-.4.89-.89s-.4-.89-.89-.89h-1.78Zm6.89 0c-.49 0-.89.4-.89.89s.4.89.89.89h1.77c.49 0 .89-.4.89-.89s-.4-.89-.89-.89h-1.77Zm34.47 0c-.49 0-.89.4-.89.89s.4.89.89.89h1.77c.49 0 .89-.4.89-.89s-.4-.89-.89-.89h-1.77Zm-13.79 0c-.49 0-.89.4-.89.89s.4.89.89.89h1.77c.49 0 .89-.4.89-.89s-.4-.89-.89-.89h-1.77Zm6.89 0c-.49 0-.89.4-.89.89s.4.89.89.89h1.78c.49 0 .89-.4.89-.89s-.4-.89-.89-.89h-1.78Zm-13.78 0c-.49 0-.89.4-.89.89s.4.89.89.89h1.77c.49 0 .89-.4.89-.89s-.4-.89-.89-.89h-1.77Zm-73.72-.33h-1.96c.95.69 1.89 1.37 2.86 2.03.2-.22.32-.5.32-.81 0-.67-.54-1.22-1.22-1.22Zm133.72 1.22c0 .18.04.35.1.51.94-.64 1.86-1.3 2.77-1.97h-1.42c-.8 0-1.45.66-1.45 1.46Zm-8.21 0c0-.73-.6-1.33-1.33-1.33h-2.66a1.33 1.33 0 1 0 0 2.66h2.66c.74 0 1.33-.59 1.33-1.33Zm-79.49-1c-.56 0-1.01.45-1.01 1.01s.45 1.01 1.01 1.01h2.01c.56 0 1.01-.45 1.01-1.01s-.45-1.01-1.01-1.01h-2.01Zm80.81 1c0 .81.65 1.46 1.46 1.46h2.92c.81 0 1.46-.65 1.46-1.46 0-.81-.65-1.46-1.46-1.46h-2.92c-.81 0-1.46.66-1.46 1.46Zm13.79-6.89c0 .72.53 1.29 1.21 1.41 1.13-.92 2.22-1.88 3.31-2.84-.05-.01-.1-.03-.15-.03h-2.92c-.8 0-1.45.65-1.45 1.46Zm-39.33 6c-.49 0-.89.4-.89.89s.4.89.89.89h1.77c.49 0 .89-.4.89-.89s-.4-.89-.89-.89h-1.77Zm-93.18.89c0-.67-.55-1.22-1.22-1.22h-2.44c-.67 0-1.22.55-1.22 1.22 0 .68.55 1.22 1.22 1.22h2.44c.68 0 1.22-.54 1.22-1.22ZM168 209.2c.48 0 .86-.39.86-.87s-.39-.87-.86-.87h-1.73c-.48 0-.86.39-.86.87s.39.87.86.87H168Zm-123.13-.86c0-.5-.41-.91-.91-.91h-1.82c-.31 0-.58.17-.74.41.54.47 1.07.95 1.62 1.41h.93c.52 0 .92-.41.92-.91Zm132.05 0c0-.8-.65-1.45-1.45-1.45h-2.9a1.451 1.451 0 0 0 0 2.9h2.9c.8 0 1.45-.65 1.45-1.45Zm-86.5-.89c-.49 0-.89.4-.89.89s.4.89.89.89h1.77c.49 0 .89-.4.89-.89s-.4-.89-.89-.89h-1.77Zm-24.24 7.78c0-.67-.55-1.22-1.22-1.22h-2.44c-.67 0-1.22.55-1.22 1.22 0 .68.55 1.22 1.22 1.22h2.44c.67 0 1.22-.54 1.22-1.22Zm93.17-.89c-.49 0-.89.4-.89.89s.4.89.89.89h1.77c.49 0 .89-.4.89-.89s-.4-.89-.89-.89h-1.77Zm6.01.89c0 .49.4.89.89.89h1.77c.49 0 .89-.4.89-.89s-.4-.89-.89-.89h-1.77c-.5 0-.89.4-.89.89Zm-78.5 0c0-.67-.55-1.22-1.22-1.22h-2.45c-.67 0-1.22.55-1.22 1.22 0 .68.55 1.22 1.22 1.22h2.45c.67 0 1.22-.54 1.22-1.22Zm-6.9 0c0-.67-.55-1.22-1.22-1.22H76.3c-.67 0-1.22.55-1.22 1.22 0 .68.55 1.22 1.22 1.22h2.44c.67 0 1.22-.54 1.22-1.22Zm13.79 0c0-.67-.55-1.22-1.22-1.22h-2.45c-.67 0-1.22.55-1.22 1.22 0 .68.55 1.22 1.22 1.22h2.45c.67 0 1.22-.54 1.22-1.22Zm-20.68 0c0-.67-.55-1.22-1.22-1.22h-2.44c-.67 0-1.22.55-1.22 1.22 0 .68.55 1.22 1.22 1.22h2.44c.67 0 1.22-.54 1.22-1.22ZM200.04 36.01c0 .43.35.78.78.78h1.56c.32 0 .59-.19.71-.47-.35-.36-.69-.73-1.04-1.09h-1.23c-.43 0-.78.35-.78.78Zm20.68 27.57c0 .43.35.78.78.78h1.56c.06 0 .1-.02.16-.03-.26-.51-.51-1.02-.78-1.52h-.93c-.44 0-.79.34-.79.77ZM206.93 42.9c0 .43.35.78.78.78h1.56c.12 0 .23-.03.33-.08-.41-.5-.84-.98-1.25-1.47h-.64c-.43 0-.78.34-.78.77Zm26.73 55.15c0 .63.49 1.13 1.1 1.18-.12-.76-.27-1.51-.4-2.26-.41.19-.7.6-.7 1.08Zm-6.05-20.68c0 .43.35.78.78.78h.89c-.19-.52-.4-1.04-.59-1.56h-.3c-.43 0-.78.35-.78.78Zm-28.93 124.07c0 .81.65 1.46 1.46 1.46h.5c.95-.93 1.89-1.88 2.81-2.84-.13-.04-.25-.08-.39-.08h-2.92c-.81 0-1.46.66-1.46 1.46ZM214.6 50.57h.27c-.29-.41-.58-.83-.88-1.24-.1.13-.17.29-.17.46 0 .44.35.78.78.78Zm-21.45-21.45c0 .43.35.78.78.78h1.56c.23 0 .43-.1.57-.26-.5-.43-.99-.87-1.49-1.29h-.63a.763.763 0 0 0-.79.77ZM158.68 8.44c0 .43.35.78.78.78h1.56c.35 0 .64-.24.73-.56-.82-.32-1.63-.66-2.46-.97-.34.08-.61.38-.61.75Zm-19.1-6.12c-.45-.08-.9-.17-1.36-.24.14.15.34.24.56.24h.8ZM187.03 23h.74c-.48-.35-.98-.7-1.47-1.04-.03.08-.05.17-.05.27 0 .42.35.77.78.77Zm-14.56-7.67c0 .43.35.78.78.78h1.56c.43 0 .78-.35.78-.78 0-.05-.02-.1-.03-.15-.37-.21-.74-.43-1.11-.63h-1.2c-.44 0-.78.35-.78.78Zm54.56 68.93c0 .59.48 1.07 1.07 1.07h2.14c.58 0 1.06-.47 1.07-1.05l-.15-.54c-.18-.32-.52-.54-.91-.54h-2.14c-.6-.01-1.08.47-1.08 1.06Zm6.63 20.68c0 .66.54 1.2 1.2 1.2h.84c-.08-.81-.21-1.6-.31-2.4h-.53c-.66 0-1.2.54-1.2 1.2Zm-21.2 75.83c0 .81.65 1.46 1.46 1.46h2.92c.36 0 .68-.15.94-.36.15-.23.3-.46.44-.69.04-.13.08-.27.08-.41 0-.81-.65-1.46-1.46-1.46h-2.92c-.81 0-1.46.65-1.46 1.46Zm14.31-20.68c0 .66.54 1.2 1.2 1.2h.28c.31-.8.65-1.59.94-2.4h-1.23c-.65-.01-1.19.53-1.19 1.2Zm-14.31 27.57c0 .46.23.86.57 1.13.63-.85 1.23-1.72 1.84-2.59h-.95c-.81 0-1.46.65-1.46 1.46Zm-6.89 6.89c0 .81.65 1.46 1.46 1.46h.13c.84-.96 1.69-1.93 2.5-2.92h-2.63c-.81 0-1.46.65-1.46 1.46Zm21.2-41.36c0 .66.54 1.2 1.2 1.2h2.4c.13 0 .25-.04.37-.07.2-.61.38-1.23.57-1.84-.22-.29-.55-.49-.94-.49h-2.4c-.66 0-1.2.54-1.2 1.2Zm-7.39 20.68c0 .8.65 1.45 1.45 1.45h.87c.53-.96 1.03-1.93 1.53-2.9h-2.39c-.82 0-1.46.65-1.46 1.45Zm14.28-62.03c0 .66.54 1.2 1.2 1.2h1.33c-.04-.8-.09-1.6-.15-2.4h-1.19c-.65-.01-1.19.53-1.19 1.2Zm0 6.89c0 .66.54 1.2 1.2 1.2h1.43c.01-.52.04-1.03.04-1.54 0-.29-.02-.57-.02-.86h-1.45c-.66 0-1.2.54-1.2 1.2Zm0 20.68c0 .43.24.79.59 1.01.14-.72.26-1.44.39-2.16-.56.1-.98.57-.98 1.15Zm0-13.79c0 .66.54 1.2 1.2 1.2H236c.06-.8.14-1.6.18-2.4h-1.32c-.66 0-1.2.54-1.2 1.2Zm0 6.89c0 .66.54 1.2 1.2 1.2h.44c.1-.8.22-1.6.31-2.4h-.75c-.66 0-1.2.54-1.2 1.2Zm-62.55 68.93c0 .81.65 1.46 1.46 1.46h2.92c.81 0 1.46-.65 1.46-1.46 0-.81-.65-1.46-1.46-1.46h-2.92c-.81 0-1.46.66-1.46 1.46Zm-112.45 0c0-.5-.41-.91-.91-.91h-1.82c-.5 0-.91.41-.91.91s.41.91.91.91h1.82c.5 0 .91-.4.91-.91Zm6.89 0c0-.5-.41-.91-.91-.91h-1.82c-.5 0-.91.41-.91.91s.41.91.91.91h1.82c.5 0 .91-.4.91-.91Zm6.89 0c0-.5-.41-.91-.91-.91h-1.81c-.5 0-.91.41-.91.91s.41.91.91.91h1.81a.9.9 0 0 0 .91-.91Zm-20.68 0c0-.5-.41-.91-.91-.91h-1.82c-.5 0-.91.41-.91.91s.41.91.91.91h1.82a.9.9 0 0 0 .91-.91Zm-6.89 0c0-.5-.41-.91-.91-.91h-1.82c-.5 0-.91.41-.91.91s.41.91.91.91h1.82a.9.9 0 0 0 .91-.91Zm34.47 0c0-.5-.41-.91-.91-.91h-1.81c-.5 0-.91.41-.91.91s.41.91.91.91h1.81c.5 0 .91-.4.91-.91Zm40.17.63c.35 0 .63-.28.63-.63s-.28-.63-.63-.63h-1.26c-.35 0-.63.28-.63.63s.28.63.63.63h1.26Zm13.78 0c.35 0 .63-.28.63-.63s-.28-.63-.63-.63h-1.25c-.35 0-.63.28-.63.63s.28.63.63.63h1.25Zm-47.06-.63c0-.5-.41-.91-.91-.91H83.5c-.5 0-.91.41-.91.91s.41.91.91.91h1.82c.5 0 .91-.4.91-.91Zm40.17.63c.35 0 .63-.28.63-.63s-.28-.63-.63-.63h-1.26c-.35 0-.63.28-.63.63s.28.63.63.63h1.26Zm-35.97-8.39c-.48 0-.88.39-.88.88 0 .48.39.88.88.88h1.75c.48 0 .88-.39.88-.88 0-.48-.39-.88-.88-.88h-1.75Zm22.81 7.76c0-.35-.28-.63-.63-.63h-1.25c-.35 0-.63.28-.63.63s.28.63.63.63h1.25c.35 0 .63-.28.63-.63Zm-71.09-7.8c-.5 0-.91.41-.91.91s.41.91.91.91h1.82c.5 0 .91-.41.91-.91s-.41-.91-.91-.91h-1.82Zm27.57 0c-.5 0-.91.41-.91.91s.41.91.91.91h1.81c.5 0 .91-.41.91-.91s-.41-.91-.91-.91h-1.81Zm-6.89 0c-.5 0-.91.41-.91.91s.41.91.91.91h1.82c.5 0 .91-.41.91-.91s-.41-.91-.91-.91h-1.82Zm-13.79 0c-.5 0-.91.41-.91.91s.41.91.91.91h1.82c.5 0 .91-.41.91-.91s-.41-.91-.91-.91h-1.82Zm6.89 0c-.5 0-.91.41-.91.91s.41.91.91.91h1.82c.5 0 .91-.41.91-.91s-.41-.91-.91-.91h-1.82Zm27.6.02c-.49 0-.89.4-.89.89s.4.89.89.89h1.77c.49 0 .89-.4.89-.89s-.4-.89-.89-.89h-1.77Zm-6.92-.02c-.5 0-.91.41-.91.91s.41.91.91.91h1.81c.5 0 .91-.41.91-.91s-.41-.91-.91-.91h-1.81Zm63.58 8.43c.35 0 .63-.28.63-.63s-.28-.63-.63-.63h-1.25c-.35 0-.63.28-.63.63s.28.63.63.63h1.25Zm44.7-.63c0 .81.65 1.46 1.46 1.46h2.92c.81 0 1.46-.65 1.46-1.46 0-.81-.65-1.46-1.46-1.46h-2.92c-.81 0-1.46.66-1.46 1.46Zm6.9 0c0 .81.65 1.46 1.46 1.46h2.92c.81 0 1.46-.65 1.46-1.46 0-.81-.65-1.46-1.46-1.46h-2.92c-.81 0-1.46.66-1.46 1.46Zm-156.56-7.82c-.51 0-.93.42-.93.93s.42.93.93.93h1.86c.51 0 .93-.42.93-.93s-.42-.93-.93-.93h-1.86Zm125.99 1.91c.54 0 .98-.44.98-.98s-.44-.98-.98-.98h-1.97c-.54 0-.98.44-.98.98s.44.98.98.98h1.97Zm16.78 5.91c0 .81.65 1.46 1.46 1.46h2.92c.81 0 1.46-.65 1.46-1.46 0-.81-.65-1.46-1.46-1.46h-2.92c-.81 0-1.46.66-1.46 1.46Zm-105.56 6.9c0-.5-.41-.91-.91-.91h-1.81c-.5 0-.91.41-.91.91s.41.91.91.91h1.81c.51 0 .91-.41.91-.91Zm86.54 0c0 .35.28.63.63.63h1.26c.35 0 .63-.28.63-.63s-.28-.63-.63-.63h-1.26c-.35 0-.63.28-.63.63Zm-13.16-.63c-.35 0-.63.28-.63.63s.28.63.63.63h1.25c.35 0 .63-.28.63-.63s-.28-.63-.63-.63h-1.25Zm-48.46-.22c-.47 0-.85.38-.85.84 0 .47.38.84.85.84h1.69c.47 0 .85-.38.85-.84a.84.84 0 0 0-.85-.84h-1.69Zm55.36.22c-.35 0-.63.28-.63.63s.28.63.63.63h1.26c.35 0 .63-.28.63-.63s-.28-.63-.63-.63h-1.26Zm-66.49.63c0-.5-.41-.91-.91-.91H83.5c-.5 0-.91.41-.91.91s.41.91.91.91h1.82c.5 0 .91-.41.91-.91Zm60.85-6.27c.35 0 .63-.28.63-.63s-.28-.63-.63-.63h-1.25c-.35 0-.63.28-.63.63s.28.63.63.63h1.25Zm-8.15 5.64c-.35 0-.63.28-.63.63s.28.63.63.63h1.25c.35 0 .63-.28.63-.63s-.28-.63-.63-.63h-1.25Zm-27.57 0c-.35 0-.63.28-.63.63s.28.63.63.63h1.25c.35 0 .63-.28.63-.63s-.28-.63-.63-.63h-1.25Zm-6.9-.01c-.35 0-.64.29-.64.64 0 .35.29.64.64.64h1.28c.35 0 .64-.29.64-.64 0-.35-.29-.64-.64-.64h-1.28Zm20.68.01c-.35 0-.63.28-.63.63s.28.63.63.63h1.26c.35 0 .63-.28.63-.63s-.28-.63-.63-.63h-1.26Zm-6.89 0c-.35 0-.63.28-.63.63s.28.63.63.63h1.26c.35 0 .63-.28.63-.63s-.28-.63-.63-.63h-1.26Zm13.79 0c-.35 0-.63.28-.63.63s.28.63.63.63h1.25c.35 0 .63-.28.63-.63s-.28-.63-.63-.63h-1.25Zm-52.7.63c0-.5-.41-.91-.91-.91h-1.81c-.5 0-.91.41-.91.91s.41.91.91.91h1.81c.5 0 .91-.41.91-.91Zm-13.79 0c0-.5-.41-.91-.91-.91h-1.82c-.5 0-.91.41-.91.91s.41.91.91.91h1.82c.5 0 .91-.41.91-.91Zm38.8-7.64a.74.74 0 0 0-.74.75c0 .41.33.75.74.75h1.49a.749.749 0 1 0 0-1.5h-1.49Zm-13.92-.13c-.48 0-.88.39-.88.88 0 .48.39.88.88.88h1.75c.48 0 .88-.39.88-.88 0-.48-.39-.88-.88-.88h-1.75Zm79.32.87c0-.72-.59-1.31-1.31-1.31h-2.62c-.72 0-1.31.59-1.31 1.31 0 .72.59 1.31 1.31 1.31h2.62c.72 0 1.31-.58 1.31-1.31Zm-15.78.63c.35 0 .63-.28.63-.63s-.28-.63-.63-.63h-1.26c-.35 0-.63.28-.63.63s.28.63.63.63h1.26Zm6.92.02c.36 0 .65-.29.65-.65 0-.36-.29-.65-.65-.65h-1.3c-.36 0-.65.29-.65.65 0 .36.29.65.65.65h1.3Zm-63.57-1.52c-.48 0-.88.39-.88.88 0 .48.39.88.88.88h1.75c.48 0 .88-.39.88-.88 0-.48-.39-.88-.88-.88h-1.75Zm-38.66 7.77c0-.5-.41-.91-.91-.91h-1.82c-.5 0-.91.41-.91.91s.41.91.91.91h1.82c.5 0 .91-.41.91-.91Zm-6.9 0c0-.5-.41-.91-.91-.91h-1.82c-.5 0-.91.41-.91.91s.41.91.91.91h1.82c.51 0 .91-.41.91-.91Zm133.13 0c0 .81.65 1.46 1.46 1.46h2.92c.81 0 1.46-.65 1.46-1.46 0-.81-.65-1.46-1.46-1.46h-2.92c-.81 0-1.46.65-1.46 1.46Zm-6.89 0c0 .81.65 1.46 1.46 1.46h2.92c.81 0 1.46-.65 1.46-1.46 0-.81-.65-1.46-1.46-1.46h-2.92c-.81 0-1.46.65-1.46 1.46Zm-140.02-6.9c0-.5-.41-.91-.91-.91h-1.82c-.45 0-.81.33-.88.76.35.35.7.7 1.06 1.05h1.64c.5.01.91-.39.91-.9Zm86.94-42.21a.85.85 0 1 0 0 1.7h1.71a.85.85 0 1 0 0-1.7h-1.71Zm32.4-26.72c0 .81.65 1.46 1.46 1.46h2.92c.81 0 1.46-.65 1.46-1.46 0-.81-.65-1.46-1.46-1.46h-2.92c-.81 0-1.46.66-1.46 1.46Zm-98.62 0c0-.51-.42-.93-.93-.93h-1.86c-.51 0-.93.42-.93.93s.42.93.93.93h1.86c.52 0 .93-.41.93-.93Zm6.01.98a.97.97 0 0 0 0-1.94h-1.94a.97.97 0 0 0 0 1.94h1.94Zm85.72-.98c0 .81.65 1.46 1.46 1.46h2.92c.81 0 1.46-.65 1.46-1.46 0-.81-.65-1.46-1.46-1.46h-2.92c-.81 0-1.46.66-1.46 1.46Zm20.68 0c0 .81.65 1.46 1.46 1.46h2.92c.81 0 1.46-.65 1.46-1.46 0-.81-.65-1.46-1.46-1.46h-2.92c-.81 0-1.46.66-1.46 1.46Zm-6.9 0c0 .81.65 1.46 1.46 1.46h2.92c.81 0 1.46-.65 1.46-1.46 0-.81-.65-1.46-1.46-1.46h-2.92c-.81 0-1.46.66-1.46 1.46Zm-92.19 1.4c.77 0 1.39-.62 1.39-1.39 0-.77-.62-1.39-1.39-1.39h-2.79c-.77 0-1.39.62-1.39 1.39 0 .77.62 1.39 1.39 1.39h2.79Zm13.83.04c.79 0 1.44-.64 1.44-1.44 0-.79-.65-1.44-1.44-1.44h-2.88c-.79 0-1.44.64-1.44 1.44 0 .79.65 1.44 1.44 1.44h2.88Zm6.9 0c.79 0 1.44-.64 1.44-1.44 0-.79-.65-1.44-1.44-1.44h-2.88c-.79 0-1.44.64-1.44 1.44 0 .79.65 1.44 1.44 1.44h2.88Zm85.25-1.44c0 .81.65 1.46 1.46 1.46h2.92c.81 0 1.46-.65 1.46-1.46 0-.81-.65-1.46-1.46-1.46h-2.92c-.81 0-1.46.66-1.46 1.46Zm-99.04 1.44c.79 0 1.44-.64 1.44-1.44 0-.79-.65-1.44-1.44-1.44h-2.88c-.79 0-1.44.64-1.44 1.44 0 .79.65 1.44 1.44 1.44h2.88Zm-30.1-2.53c-.6 0-1.09.49-1.09 1.09 0 .6.49 1.09 1.09 1.09h2.18c.6 0 1.09-.49 1.09-1.09 0-.6-.49-1.09-1.09-1.09h-2.18Zm157.23 1.09c0 .66.54 1.2 1.2 1.2h2.4c.66 0 1.2-.54 1.2-1.2 0-.66-.54-1.2-1.2-1.2h-2.4c-.66 0-1.2.54-1.2 1.2Zm-51.3-5.44a1.451 1.451 0 0 0 0-2.9h-2.9a1.451 1.451 0 0 0 0 2.9h2.9ZM3.72 134.54c.56 0 1.06-.23 1.42-.59.37.36.87.59 1.42.59h4.04c.56 0 1.06-.23 1.42-.59.37.36.87.59 1.42.59h4.04c.56 0 1.06-.23 1.42-.59.37.36.87.59 1.42.59h4.04c.56 0 1.06-.23 1.42-.59.37.36.87.59 1.42.59h4.04c.56 0 1.06-.23 1.42-.59.37.36.87.59 1.42.59h4.04c.59 0 1.1-.26 1.47-.66.36.37.86.61 1.42.61h3.96c1.09 0 1.98-.89 1.98-1.98 0-1.09-.89-1.98-1.98-1.98h-3.96c-.56 0-1.06.24-1.42.61-.37-.4-.89-.66-1.47-.66h-4.04c-.56 0-1.06.23-1.42.59-.37-.36-.87-.59-1.42-.59H27.2c-.56 0-1.06.23-1.42.59-.37-.36-.87-.59-1.42-.59h-4.04c-.56 0-1.06.23-1.42.59-.37-.36-.87-.59-1.42-.59h-4.04c-.56 0-1.06.23-1.42.59-.37-.36-.87-.59-1.42-.59H6.56c-.56 0-1.06.23-1.42.59-.37-.36-.87-.59-1.42-.59H.93c.14 1.36.33 2.7.51 4.04h2.28v.02Zm216.16-2.03c0 .66.54 1.2 1.2 1.2h2.4c.66 0 1.2-.54 1.2-1.2 0-.66-.54-1.2-1.2-1.2h-2.4c-.67 0-1.2.54-1.2 1.2Zm-102.35-8.24a1.35 1.35 0 0 0 0 2.7h2.7a1.35 1.35 0 0 0 0-2.7h-2.7Zm30.03 2.46c.61 0 1.11-.5 1.11-1.11 0-.62-.5-1.11-1.11-1.11h-2.23c-.61 0-1.11.5-1.11 1.11 0 .62.5 1.11 1.11 1.11h2.23Zm-22.83-2.16a1.05 1.05 0 1 0 0 2.1h2.09a1.05 1.05 0 1 0 0-2.1h-2.09Zm74.14 7.94c0 .75.61 1.36 1.36 1.36h2.73c.75 0 1.36-.61 1.36-1.36 0-.75-.61-1.36-1.36-1.36h-2.73c-.75 0-1.36.61-1.36 1.36Zm-13.98 0c0 .81.65 1.46 1.46 1.46h2.92c.81 0 1.46-.65 1.46-1.46 0-.81-.65-1.46-1.46-1.46h-2.92c-.81 0-1.46.66-1.46 1.46Zm6.9 0c0 .81.65 1.46 1.46 1.46h2.92c.81 0 1.46-.65 1.46-1.46 0-.81-.65-1.46-1.46-1.46h-2.92c-.81 0-1.46.66-1.46 1.46Zm21.19 0c0 .66.54 1.2 1.2 1.2h2.4c.66 0 1.2-.54 1.2-1.2 0-.66-.54-1.2-1.2-1.2h-2.4c-.66 0-1.2.54-1.2 1.2Zm-113.34 1.44c.79 0 1.44-.64 1.44-1.44 0-.79-.65-1.44-1.44-1.44h-2.88c-.79 0-1.44.64-1.44 1.44 0 .79.65 1.44 1.44 1.44h2.88Zm127.13-1.44c0 .66.54 1.2 1.2 1.2h2.4c.66 0 1.2-.54 1.2-1.2 0-.66-.54-1.2-1.2-1.2h-2.4c-.66 0-1.2.54-1.2 1.2Zm-168.05 6.9c0-.52-.42-.94-.94-.94H55.9a.939.939 0 1 0 0 1.88h1.88c.52 0 .94-.42.94-.94Zm133.07 0c0 .81.65 1.46 1.46 1.46h2.92c.81 0 1.46-.65 1.46-1.46 0-.81-.65-1.46-1.46-1.46h-2.92c-.81 0-1.46.65-1.46 1.46Zm-20.68 0c0 .81.65 1.46 1.46 1.46h2.92c.81 0 1.46-.65 1.46-1.46 0-.81-.65-1.46-1.46-1.46h-2.92c-.81 0-1.46.65-1.46 1.46Zm-13.79 0c0 .81.65 1.46 1.46 1.46h2.92c.81 0 1.46-.65 1.46-1.46 0-.81-.65-1.46-1.46-1.46h-2.92c-.81 0-1.46.65-1.46 1.46Zm20.68 0c0 .81.65 1.46 1.46 1.46h2.92c.81 0 1.46-.65 1.46-1.46 0-.81-.65-1.46-1.46-1.46h-2.92c-.81 0-1.46.65-1.46 1.46Zm6.89 0c0 .81.65 1.46 1.46 1.46h2.92c.81 0 1.46-.65 1.46-1.46 0-.81-.65-1.46-1.46-1.46h-2.92c-.81 0-1.46.65-1.46 1.46Zm-34.46 0c0 .81.65 1.46 1.46 1.46h2.92c.81 0 1.46-.65 1.46-1.46 0-.81-.65-1.46-1.46-1.46h-2.92c-.81 0-1.46.65-1.46 1.46Zm13.78 0c0 .81.65 1.46 1.46 1.46h2.92c.81 0 1.46-.65 1.46-1.46 0-.81-.65-1.46-1.46-1.46h-2.92c-.81 0-1.46.65-1.46 1.46Zm-20.68 0c0 .81.65 1.46 1.46 1.46h2.92c.81 0 1.46-.65 1.46-1.46 0-.81-.65-1.46-1.46-1.46h-2.92c-.81 0-1.46.65-1.46 1.46Zm-71.46 1.43c.79 0 1.44-.64 1.44-1.44 0-.79-.65-1.44-1.44-1.44h-2.88c-.79 0-1.44.64-1.44 1.44 0 .79.65 1.44 1.44 1.44h2.88Zm6.89 0c.79 0 1.44-.64 1.44-1.44 0-.79-.65-1.44-1.44-1.44h-2.88c-.79 0-1.44.64-1.44 1.44 0 .79.65 1.44 1.44 1.44h2.88Zm58.52-15.22c0 .57.47 1.04 1.04 1.04h2.08a1.04 1.04 0 1 0 0-2.08h-2.08c-.57 0-1.04.47-1.04 1.04Zm-72.52 15.01c.67 0 1.22-.55 1.22-1.22 0-.67-.55-1.22-1.22-1.22h-2.44c-.67 0-1.22.55-1.22 1.22 0 .67.55 1.22 1.22 1.22h2.44Zm41.57-6.68c.79 0 1.44-.64 1.44-1.44 0-.79-.65-1.44-1.44-1.44h-2.88c-.79 0-1.44.64-1.44 1.44 0 .79.65 1.44 1.44 1.44h2.88Zm41.26-.1a1.34 1.34 0 0 0 0-2.68h-2.68a1.34 1.34 0 0 0 0 2.68h2.68Zm-10.31-1.34c0 .57.47 1.04 1.04 1.04h2.08a1.04 1.04 0 1 0 0-2.08h-2.08c-.57.01-1.04.47-1.04 1.04Zm-12.9-1.19c-.66 0-1.19.53-1.19 1.19 0 .66.53 1.19 1.19 1.19h2.38c.66 0 1.19-.53 1.19-1.19 0-.66-.53-1.19-1.19-1.19h-2.38Zm7.05.16a1.04 1.04 0 1 0 0 2.08h2.08a1.04 1.04 0 1 0 0-2.08h-2.08Zm67.05 7.93c0 .81.65 1.46 1.46 1.46h2.92c.81 0 1.46-.65 1.46-1.46 0-.81-.65-1.46-1.46-1.46h-2.92c-.81 0-1.46.65-1.46 1.46Zm-78.36-5.46c.79 0 1.44-.64 1.44-1.44 0-.79-.65-1.44-1.44-1.44h-2.88c-.79 0-1.44.64-1.44 1.44 0 .79.65 1.44 1.44 1.44h2.88Zm-6.9 0c.79 0 1.44-.64 1.44-1.44 0-.79-.65-1.44-1.44-1.44h-2.88c-.79 0-1.44.64-1.44 1.44 0 .79.65 1.44 1.44 1.44h2.88Zm92.54 5.46c0 .7.56 1.27 1.26 1.27h2.53c.7 0 1.26-.57 1.26-1.27 0-.7-.56-1.27-1.26-1.27h-2.53c-.7 0-1.26.57-1.26 1.27Zm7.02 0c0 .66.54 1.2 1.2 1.2h2.4c.66 0 1.2-.54 1.2-1.2 0-.66-.54-1.2-1.2-1.2h-2.4c-.66 0-1.2.53-1.2 1.2Zm13.79 0c0 .66.54 1.2 1.2 1.2h2.4c.66 0 1.2-.54 1.2-1.2 0-.66-.54-1.2-1.2-1.2h-2.4c-.66 0-1.2.53-1.2 1.2ZM3.72 141.43c.56 0 1.06-.23 1.42-.59.37.36.87.59 1.42.59h4.04c.56 0 1.06-.23 1.42-.59.37.36.87.59 1.42.59h4.04c.56 0 1.06-.23 1.42-.59.37.36.87.59 1.42.59h4.04c.56 0 1.06-.23 1.42-.59.37.36.87.59 1.42.59h4.04c.56 0 1.06-.23 1.42-.59.37.36.87.59 1.42.59h4.04c.56 0 1.06-.23 1.42-.59.37.36.87.59 1.42.59H45c.81 0 1.49-.48 1.81-1.16.29.47.79.81 1.39.81h3.33c.92 0 1.67-.75 1.67-1.67 0-.92-.75-1.67-1.67-1.67H48.2c-.6 0-1.1.33-1.39.81a2.008 2.008 0 0 0-1.81-1.16h-4.04c-.56 0-1.06.23-1.42.59-.37-.36-.87-.59-1.42-.59h-4.04c-.56 0-1.06.23-1.42.59-.37-.36-.87-.59-1.42-.59H27.2c-.56 0-1.06.23-1.42.59-.37-.36-.87-.59-1.42-.59h-4.04c-.56 0-1.06.23-1.42.59-.37-.36-.87-.59-1.42-.59h-4.04c-.56 0-1.06.23-1.42.59-.37-.36-.87-.59-1.42-.59H6.56c-.56 0-1.06.23-1.42.59-.37-.36-.87-.59-1.42-.59H1.86c.22 1.35.46 2.7.72 4.04h1.14Zm216.16-2.02c0 .66.54 1.2 1.2 1.2h2.4c.66 0 1.2-.54 1.2-1.2 0-.66-.54-1.2-1.2-1.2h-2.4c-.67 0-1.2.53-1.2 1.2ZM110.56 117.3a1.43 1.43 0 1 0 0 2.86h2.85a1.43 1.43 0 1 0 0-2.86h-2.85Zm-68.51.42c-.56 0-1.01.45-1.01 1.01s.45 1.01 1.01 1.01h2.01c.56 0 1.01-.45 1.01-1.01s-.45-1.01-1.01-1.01h-2.01Zm43.8 2.45c.79 0 1.44-.64 1.44-1.44 0-.79-.65-1.44-1.44-1.44h-2.88c-.79 0-1.44.64-1.44 1.44 0 .79.65 1.44 1.44 1.44h2.88Zm38.88-2.48a1.04 1.04 0 1 0 0 2.08h2.08a1.04 1.04 0 1 0 0-2.08h-2.08Zm-31.98 2.48c.79 0 1.44-.64 1.44-1.44 0-.79-.65-1.44-1.44-1.44h-2.88c-.79 0-1.44.64-1.44 1.44 0 .79.65 1.44 1.44 1.44h2.88Zm-28.08-.51c.51 0 .93-.42.93-.93s-.42-.93-.93-.93h-1.86c-.51 0-.93.42-.93.93s.42.93.93.93h1.86Zm-6.9 0c.51 0 .93-.42.93-.93s-.42-.93-.93-.93h-1.86c-.51 0-.93.42-.93.93s.42.93.93.93h1.86Zm-5.96-.93c0-.51-.42-.93-.93-.93h-1.86c-.51 0-.93.42-.93.93s.42.93.93.93h1.86c.51 0 .93-.42.93-.93Zm47.83 1.44c.79 0 1.44-.64 1.44-1.44 0-.79-.65-1.44-1.44-1.44h-2.88c-.79 0-1.44.64-1.44 1.44 0 .79.65 1.44 1.44 1.44h2.88Zm44.73-1.44c0 .57.47 1.04 1.04 1.04h2.08a1.04 1.04 0 1 0 0-2.08h-2.08c-.57 0-1.04.46-1.04 1.04Zm-12.74-1.04a1.04 1.04 0 1 0 0 2.08h2.08a1.04 1.04 0 1 0 0-2.08h-2.08Zm6.89 0a1.04 1.04 0 1 0 0 2.08h2.08a1.04 1.04 0 1 0 0-2.08h-2.08Zm-31.99 2.48c.79 0 1.44-.64 1.44-1.44 0-.79-.65-1.44-1.44-1.44h-2.88c-.79 0-1.44.64-1.44 1.44 0 .79.65 1.44 1.44 1.44h2.88Zm-34.96-.5a.939.939 0 1 0 0-1.88h-1.88a.939.939 0 1 0 0 1.88h1.88Zm127.62-.94c0 .66.54 1.2 1.2 1.2h2.4c.66 0 1.2-.54 1.2-1.2 0-.66-.54-1.2-1.2-1.2h-2.4c-.66 0-1.2.54-1.2 1.2Zm6.9 0c0 .66.54 1.2 1.2 1.2h2.4c.66 0 1.2-.54 1.2-1.2 0-.66-.54-1.2-1.2-1.2h-2.4c-.66 0-1.2.54-1.2 1.2Zm20.68 0c0 .66.54 1.2 1.2 1.2h2.4c.66 0 1.2-.54 1.2-1.2 0-.66-.54-1.2-1.2-1.2h-2.4c-.66 0-1.2.54-1.2 1.2Zm-13.79 0c0 .66.54 1.2 1.2 1.2h2.4c.66 0 1.2-.54 1.2-1.2 0-.66-.54-1.2-1.2-1.2h-2.4c-.66 0-1.2.54-1.2 1.2Zm6.9 0c0 .66.54 1.2 1.2 1.2h2.4c.66 0 1.2-.54 1.2-1.2 0-.66-.54-1.2-1.2-1.2h-2.4c-.67 0-1.2.54-1.2 1.2ZM.37 120.75h3.34c.56 0 1.06-.23 1.42-.59.37.36.87.59 1.42.59h4.04c.56 0 1.06-.23 1.42-.59.37.36.87.59 1.42.59h4.04c.56 0 1.06-.23 1.42-.59.37.36.87.59 1.42.59h4.04c.56 0 1.06-.23 1.42-.59.37.36.87.59 1.42.59h4.04c.65 0 1.2-.32 1.57-.79.35.4.84.67 1.41.67h3.78c1.05 0 1.89-.85 1.89-1.89 0-1.05-.85-1.89-1.89-1.89h-3.78c-.57 0-1.07.27-1.41.67-.37-.47-.92-.79-1.57-.79h-4.04c-.56 0-1.06.23-1.42.59-.37-.36-.87-.59-1.42-.59h-4.04c-.56 0-1.06.23-1.42.59-.37-.36-.87-.59-1.42-.59h-4.04c-.56 0-1.06.23-1.42.59-.37-.36-.87-.59-1.42-.59H6.55c-.56 0-1.06.23-1.42.59-.37-.36-.87-.59-1.42-.59H.35c-.01.56-.04 1.12-.04 1.68.01.77.05 1.55.06 2.34ZM178 118.73c0 .81.65 1.46 1.46 1.46h2.92c.81 0 1.46-.65 1.46-1.46 0-.81-.65-1.46-1.46-1.46h-2.92c-.81 0-1.46.65-1.46 1.46Zm14.04 0c0 .73.6 1.33 1.33 1.33h2.66a1.33 1.33 0 1 0 0-2.66h-2.66c-.73 0-1.33.59-1.33 1.33Zm-27.83 0c0 .81.65 1.46 1.46 1.46h2.92c.81 0 1.46-.65 1.46-1.46 0-.81-.65-1.46-1.46-1.46h-2.92c-.81 0-1.46.65-1.46 1.46Zm6.9 0c0 .81.65 1.46 1.46 1.46h2.92c.81 0 1.46-.65 1.46-1.46 0-.81-.65-1.46-1.46-1.46h-2.92c-.81 0-1.46.65-1.46 1.46Zm13.78 0c0 .81.65 1.46 1.46 1.46h2.92c.81 0 1.46-.65 1.46-1.46 0-.81-.65-1.46-1.46-1.46h-2.92c-.81 0-1.46.65-1.46 1.46Zm-27.57 0c0 .81.65 1.46 1.46 1.46h2.92c.81 0 1.46-.65 1.46-1.46 0-.81-.65-1.46-1.46-1.46h-2.92c-.81 0-1.46.65-1.46 1.46Zm-105.51 6.89c0-.51-.42-.93-.93-.93h-1.86c-.51 0-.93.42-.93.93s.42.93.93.93h1.86c.51 0 .93-.42.93-.93Zm12.86.93c.51 0 .93-.42.93-.93s-.42-.93-.93-.93h-1.86c-.51 0-.93.42-.93.93s.42.93.93.93h1.86Zm46.44 39.55c-.48 0-.88.39-.88.88 0 .48.39.88.88.88h1.75c.48 0 .88-.39.88-.88 0-.48-.39-.88-.88-.88h-1.75Zm-32.15-39.04c.79 0 1.44-.64 1.44-1.44 0-.79-.65-1.44-1.44-1.44h-2.88c-.79 0-1.44.64-1.44 1.44 0 .79.65 1.44 1.44 1.44h2.88Zm-7.19-.29c.63 0 1.14-.51 1.14-1.15 0-.63-.51-1.15-1.14-1.15h-2.29c-.63 0-1.14.51-1.14 1.15 0 .63.51 1.15 1.14 1.15h2.29Zm-14-.22c.51 0 .93-.42.93-.93s-.42-.93-.93-.93h-1.86c-.51 0-.93.42-.93.93s.42.93.93.93h1.86Zm59.97-8.96a1.14 1.14 0 1 0 0 2.28h2.27a1.14 1.14 0 1 0 0-2.28h-2.27Zm-31.89 9.47c.79 0 1.44-.64 1.44-1.44 0-.79-.65-1.44-1.44-1.44h-2.88c-.79 0-1.44.64-1.44 1.44 0 .79.65 1.44 1.44 1.44h2.88Zm78.36-1.44c0 .81.65 1.46 1.46 1.46h2.92c.81 0 1.46-.65 1.46-1.46 0-.81-.65-1.46-1.46-1.46h-2.92c-.81 0-1.46.65-1.46 1.46Zm-57.68 1.44c.79 0 1.44-.64 1.44-1.44 0-.79-.65-1.44-1.44-1.44h-2.88c-.79 0-1.44.64-1.44 1.44 0 .79.65 1.44 1.44 1.44h2.88Zm6.89 0c.79 0 1.44-.64 1.44-1.44 0-.79-.65-1.44-1.44-1.44h-2.88c-.79 0-1.44.64-1.44 1.44 0 .79.65 1.44 1.44 1.44h2.88Zm-13.78 0c.79 0 1.44-.64 1.44-1.44 0-.79-.65-1.44-1.44-1.44h-2.88c-.79 0-1.44.64-1.44 1.44 0 .79.65 1.44 1.44 1.44h2.88Zm-6.89 0c.79 0 1.44-.64 1.44-1.44 0-.79-.65-1.44-1.44-1.44h-2.88c-.79 0-1.44.64-1.44 1.44 0 .79.65 1.44 1.44 1.44h2.88Zm64.57-1.44c0 .81.65 1.46 1.46 1.46h2.92c.81 0 1.46-.65 1.46-1.46 0-.81-.65-1.46-1.46-1.46h-2.92c-.81 0-1.46.65-1.46 1.46Zm13.79 0c0 .81.65 1.46 1.46 1.46h2.92c.81 0 1.46-.65 1.46-1.46 0-.81-.65-1.46-1.46-1.46h-2.92c-.81 0-1.46.65-1.46 1.46ZM3.72 127.64c.56 0 1.06-.23 1.42-.59.37.36.87.59 1.42.59h4.04c.56 0 1.06-.23 1.42-.59.37.36.87.59 1.42.59h4.04c.56 0 1.06-.23 1.42-.59.37.36.87.59 1.42.59h4.04c.56 0 1.06-.23 1.42-.59.37.36.87.59 1.42.59h4.04c.56 0 1.06-.23 1.42-.59.37.36.87.59 1.42.59h4.04c.98 0 1.76-.71 1.94-1.63.17.64.73 1.11 1.42 1.11h3.01c.83 0 1.5-.67 1.5-1.5s-.67-1.5-1.5-1.5h-3.01c-.69 0-1.25.48-1.42 1.11-.19-.92-.96-1.63-1.94-1.63h-4.04c-.56 0-1.06.23-1.42.59-.37-.36-.87-.59-1.42-.59H27.2c-.56 0-1.06.23-1.42.59-.37-.36-.87-.59-1.42-.59h-4.04c-.56 0-1.06.23-1.42.59-.37-.36-.87-.59-1.42-.59h-4.04c-.56 0-1.06.23-1.42.59-.37-.36-.87-.59-1.42-.59H6.56c-.56 0-1.06.23-1.42.59-.37-.36-.87-.59-1.42-.59H.45c.06 1.36.16 2.7.26 4.04h3.01Zm223.05-2.02c0 .66.54 1.2 1.2 1.2h2.4c.66 0 1.2-.54 1.2-1.2 0-.66-.54-1.2-1.2-1.2h-2.4c-.66 0-1.2.54-1.2 1.2Zm-13.79 0c0 .66.54 1.2 1.2 1.2h2.4c.66 0 1.2-.54 1.2-1.2 0-.66-.54-1.2-1.2-1.2h-2.4c-.66 0-1.2.54-1.2 1.2ZM85.85 140.84c.79 0 1.44-.64 1.44-1.44 0-.79-.65-1.44-1.44-1.44h-2.88c-.79 0-1.44.64-1.44 1.44 0 .79.65 1.44 1.44 1.44h2.88ZM154.62 120c.7 0 1.28-.57 1.28-1.28 0-.7-.57-1.28-1.28-1.28h-2.55c-.7 0-1.28.57-1.28 1.28 0 .7.57 1.28 1.28 1.28h2.55Zm65.26 5.62c0 .66.54 1.2 1.2 1.2h2.4c.66 0 1.2-.54 1.2-1.2 0-.66-.54-1.2-1.2-1.2h-2.4c-.67 0-1.2.54-1.2 1.2Zm-34.99 0c0 .81.65 1.46 1.46 1.46h2.92c.81 0 1.46-.65 1.46-1.46 0-.81-.65-1.46-1.46-1.46h-2.92c-.81 0-1.46.65-1.46 1.46Zm-6.89 0c0 .81.65 1.46 1.46 1.46h2.92c.81 0 1.46-.65 1.46-1.46 0-.81-.65-1.46-1.46-1.46h-2.92c-.81 0-1.46.65-1.46 1.46Zm13.81 0c0 .8.65 1.45 1.45 1.45h2.89a1.451 1.451 0 0 0 0-2.9h-2.89c-.8 0-1.45.65-1.45 1.45Zm14.28 0c0 .66.54 1.2 1.2 1.2h2.4c.66 0 1.2-.54 1.2-1.2 0-.66-.54-1.2-1.2-1.2h-2.4c-.66 0-1.2.54-1.2 1.2Zm-6.96 0c0 .68.55 1.23 1.23 1.23h2.46a1.23 1.23 0 1 0 0-2.46h-2.46c-.68 0-1.23.55-1.23 1.23Zm-67.5-1.04a1.04 1.04 0 1 0 0 2.08h2.08a1.04 1.04 0 1 0 0-2.08h-2.08Zm39.48 35.51c0 .81.65 1.46 1.46 1.46h2.92c.81 0 1.46-.65 1.46-1.46 0-.81-.65-1.46-1.46-1.46h-2.92c-.81-.01-1.46.65-1.46 1.46Zm-6.9 0c0 .81.65 1.46 1.46 1.46h2.92c.81 0 1.46-.65 1.46-1.46 0-.81-.65-1.46-1.46-1.46h-2.92c-.81-.01-1.46.65-1.46 1.46Zm-6.89 0c0 .81.65 1.46 1.46 1.46h2.92c.81 0 1.46-.65 1.46-1.46 0-.81-.65-1.46-1.46-1.46h-2.92c-.81-.01-1.46.65-1.46 1.46Zm20.68 0c0 .81.65 1.46 1.46 1.46h2.92c.81 0 1.46-.65 1.46-1.46 0-.81-.65-1.46-1.46-1.46h-2.92c-.81-.01-1.46.65-1.46 1.46Zm6.89 0c0 .81.65 1.46 1.46 1.46h2.92c.81 0 1.46-.65 1.46-1.46 0-.81-.65-1.46-1.46-1.46h-2.92c-.81-.01-1.46.65-1.46 1.46Zm6.9 0c0 .81.65 1.46 1.46 1.46h2.92c.81 0 1.46-.65 1.46-1.46 0-.81-.65-1.46-1.46-1.46h-2.92c-.81-.01-1.46.65-1.46 1.46Zm-106.5.87c.48 0 .88-.39.88-.88 0-.48-.39-.88-.88-.88h-1.75c-.48 0-.88.39-.88.88 0 .48.39.88.88.88h1.75Zm113.39-.87c0 .81.65 1.46 1.46 1.46h2.92c.81 0 1.46-.65 1.46-1.46 0-.81-.65-1.46-1.46-1.46h-2.92c-.81-.01-1.46.65-1.46 1.46Zm-99.61.87c.48 0 .88-.39.88-.88 0-.48-.39-.88-.88-.88h-1.75c-.48 0-.88.39-.88.88 0 .48.39.88.88.88h1.75Zm-26.69-.87c0-.48-.39-.88-.88-.88h-1.75c-.48 0-.88.39-.88.88 0 .48.39.88.88.88h1.75c.49-.01.88-.4.88-.88Zm6.02.87c.48 0 .88-.39.88-.88 0-.48-.39-.88-.88-.88h-1.75c-.48 0-.88.39-.88.88 0 .48.39.88.88.88h1.75Zm72.03-.87c0 .81.65 1.46 1.46 1.46h2.92c.81 0 1.46-.65 1.46-1.46 0-.81-.65-1.46-1.46-1.46h-2.92c-.81-.01-1.46.65-1.46 1.46Zm-58.25.87c.48 0 .88-.39.88-.88 0-.48-.39-.88-.88-.88h-1.75c-.48 0-.88.39-.88.88 0 .48.39.88.88.88h1.75Zm-15.57-8.68c-.5 0-.91.41-.91.91s.41.91.91.91h1.81c.5 0 .91-.41.91-.91s-.41-.91-.91-.91h-1.81Zm-13.78 0c-.5 0-.91.41-.91.91s.41.91.91.91h1.82c.5 0 .91-.41.91-.91s-.41-.91-.91-.91h-1.82Zm20.68 0c-.5 0-.91.41-.91.91s.41.91.91.91h1.82c.5 0 .91-.41.91-.91s-.41-.91-.91-.91h-1.82Zm9.24-11.44c.79 0 1.44-.64 1.44-1.44 0-.79-.65-1.44-1.44-1.44h-2.88c-.79 0-1.44.64-1.44 1.44 0 .79.65 1.44 1.44 1.44h2.88Zm-2.35 11.44c-.5 0-.91.41-.91.91s.41.91.91.91h1.82c.5 0 .91-.41.91-.91s-.41-.91-.91-.91H90.4Zm6.89 0c-.5 0-.91.41-.91.91s.41.91.91.91h1.82c.5 0 .91-.41.91-.91s-.41-.91-.91-.91h-1.82Zm6.9 0c-.5 0-.91.41-.91.91s.41.91.91.91H106c.5 0 .91-.41.91-.91s-.41-.91-.91-.91h-1.81Zm101.38 7.81c0 .81.65 1.46 1.46 1.46h2.92c.81 0 1.46-.65 1.46-1.46 0-.81-.65-1.46-1.46-1.46h-2.92c-.81-.01-1.46.65-1.46 1.46Zm14.26 0c0 .68.55 1.22 1.22 1.22h2.45c.67 0 1.22-.55 1.22-1.22 0-.67-.55-1.22-1.22-1.22h-2.45c-.67-.01-1.22.54-1.22 1.22Zm-7.3 0c0 .79.64 1.43 1.43 1.43h2.85a1.43 1.43 0 1 0 0-2.86h-2.85c-.79 0-1.43.64-1.43 1.43Zm-201.92 2.02c.56 0 1.06-.23 1.42-.59.37.36.87.59 1.42.59h4.04c.56 0 1.06-.23 1.42-.59.37.36.87.59 1.42.59h4.04c.56 0 1.06-.23 1.42-.59.37.36.87.59 1.42.59h4.04c.56 0 1.06-.23 1.42-.59.37.36.87.59 1.42.59h4.04c.56 0 1.06-.23 1.42-.59.37.36.87.59 1.42.59h4.04c.8 0 1.47-.47 1.8-1.14.3.47.8.8 1.39.8h3.35c.93 0 1.68-.75 1.68-1.68 0-.93-.75-1.68-1.68-1.68H48.2c-.6 0-1.1.33-1.39.8-.33-.67-1-1.14-1.8-1.14h-4.04c-.56 0-1.06.23-1.42.59-.37-.36-.87-.59-1.42-.59h-4.04c-.56 0-1.06.23-1.42.59-.37-.36-.87-.59-1.42-.59h-4.04c-.56 0-1.06.23-1.42.59-.37-.36-.87-.59-1.42-.59h-4.04c-.56 0-1.06.23-1.42.59-.37-.36-.87-.59-1.42-.59h-4.04c-.56 0-1.06.23-1.42.59-.37-.36-.87-.59-1.42-.59H7.17c.49 1.36 1.01 2.7 1.54 4.04h1.9Zm130.28-7.59a1.33 1.33 0 1 0 0-2.66h-2.66a1.33 1.33 0 1 0 0 2.66h2.66Zm-85.27-2.55c-.67 0-1.22.55-1.22 1.22 0 .68.55 1.22 1.22 1.22h2.44c.68 0 1.22-.55 1.22-1.22 0-.67-.55-1.22-1.22-1.22h-2.44Zm115.49 15.01c0 .81.65 1.46 1.46 1.46h2.92c.81 0 1.46-.65 1.46-1.46 0-.81-.65-1.46-1.46-1.46h-2.92c-.81 0-1.46.65-1.46 1.46Zm-6.9 0c0 .81.65 1.46 1.46 1.46h2.92c.81 0 1.46-.65 1.46-1.46 0-.81-.65-1.46-1.46-1.46h-2.92c-.81 0-1.46.65-1.46 1.46Zm13.79 0c0 .81.65 1.46 1.46 1.46h2.92c.81 0 1.46-.65 1.46-1.46 0-.81-.65-1.46-1.46-1.46h-2.92c-.81 0-1.46.65-1.46 1.46Zm20.68 0c0 .81.65 1.46 1.46 1.46h2.92c.81 0 1.46-.65 1.46-1.46 0-.81-.65-1.46-1.46-1.46h-2.92c-.81 0-1.46.65-1.46 1.46Zm-13.79 0c0 .81.65 1.46 1.46 1.46h2.92c.81 0 1.46-.65 1.46-1.46 0-.81-.65-1.46-1.46-1.46h-2.92c-.81 0-1.46.65-1.46 1.46Zm6.9 0c0 .81.65 1.46 1.46 1.46h2.92c.81 0 1.46-.65 1.46-1.46 0-.81-.65-1.46-1.46-1.46h-2.92c-.81 0-1.46.65-1.46 1.46Zm-34.47 0c0 .81.65 1.46 1.46 1.46h2.92c.81 0 1.46-.65 1.46-1.46 0-.81-.65-1.46-1.46-1.46h-2.92c-.81 0-1.46.65-1.46 1.46Zm-51.35-6.02c.48 0 .88-.39.88-.88 0-.48-.39-.88-.88-.88h-1.75c-.48 0-.88.39-.88.88 0 .48.39.88.88.88h1.75Zm19.08 5.3c-.4 0-.73.32-.73.72 0 .4.33.72.73.72h1.45c.4 0 .73-.32.73-.72 0-.4-.33-.72-.73-.72h-1.45Zm-7.05-.16c-.48 0-.88.39-.88.88 0 .48.39.88.88.88h1.75c.48 0 .88-.39.88-.88 0-.48-.39-.88-.88-.88H118Zm15.92.88c0-.35-.28-.63-.63-.63h-1.25c-.35 0-.63.28-.63.63s.28.63.63.63h1.25c.35 0 .63-.28.63-.63Zm6.28.64c.35 0 .64-.29.64-.64 0-.35-.29-.64-.64-.64h-1.28c-.35 0-.64.29-.64.64 0 .35.29.64.64.64h1.28Zm10.23-.64c0 .81.65 1.46 1.46 1.46h2.92c.81 0 1.46-.65 1.46-1.46 0-.81-.65-1.46-1.46-1.46h-2.92c-.81 0-1.46.65-1.46 1.46Zm11.23-53.73c.78 0 1.42-.64 1.42-1.42 0-.78-.64-1.42-1.42-1.42h-2.83c-.78 0-1.42.64-1.42 1.42 0 .78.64 1.42 1.42 1.42h2.83Zm43.91 53.73c0 .81.65 1.46 1.46 1.46h2.92c.81 0 1.46-.65 1.46-1.46 0-.81-.65-1.46-1.46-1.46h-2.92c-.81 0-1.46.65-1.46 1.46Zm-65.12-6.01c.49 0 .89-.4.89-.89s-.4-.89-.89-.89h-1.78c-.49 0-.89.4-.89.89s.4.89.89.89h1.78Zm-9.08-.88c0 .36.29.65.65.65h1.3c.36 0 .65-.29.65-.65 0-.36-.29-.65-.65-.65h-1.3c-.36 0-.65.29-.65.65Zm-18.51.87c.48 0 .88-.39.88-.88 0-.48-.39-.88-.88-.88h-1.75c-.48 0-.88.39-.88.88 0 .48.39.88.88.88h1.75Zm6.9 0c.48 0 .88-.39.88-.88 0-.48-.39-.88-.88-.88H118c-.48 0-.88.39-.88.88 0 .48.39.88.88.88h1.76Zm-56.91-1.76c-.49 0-.89.4-.89.89s.4.89.89.89h1.77c.49 0 .89-.4.89-.89s-.4-.89-.89-.89h-1.77Zm156.74 7.78c0 .74.6 1.34 1.34 1.34h2.68a1.34 1.34 0 0 0 0-2.68h-2.68c-.74 0-1.34.6-1.34 1.34Zm-7.13 0c0 .81.65 1.46 1.46 1.46h2.92c.81 0 1.46-.65 1.46-1.46 0-.81-.65-1.46-1.46-1.46h-2.92c-.81 0-1.46.65-1.46 1.46Zm-156.54-7.81c-.51 0-.92.41-.92.92s.41.92.92.92h1.84c.51 0 .92-.41.92-.92s-.41-.92-.92-.92h-1.84Zm89.08 2.36h2.9a1.451 1.451 0 0 0 0-2.9H145a1.451 1.451 0 0 0 0 2.9Zm-132.96 6.88c.37.36.87.59 1.42.59h4.04c.56 0 1.06-.23 1.42-.59.37.36.87.59 1.42.59h4.04c.56 0 1.06-.23 1.42-.59.37.36.87.59 1.42.59h4.04c.56 0 1.06-.23 1.42-.59.37.36.87.59 1.42.59h4.04c.59 0 1.1-.26 1.47-.66.36.37.86.61 1.42.61h3.96c1.09 0 1.98-.89 1.98-1.98 0-1.09-.89-1.98-1.98-1.98h-3.96c-.56 0-1.06.24-1.42.61-.37-.4-.89-.66-1.47-.66H34.1c-.56 0-1.06.23-1.42.59-.37-.36-.87-.59-1.42-.59h-4.04c-.56 0-1.06.23-1.42.59-.37-.36-.87-.59-1.42-.59h-4.04c-.56 0-1.06.23-1.42.59-.37-.36-.87-.59-1.42-.59h-4.04c-.56 0-1.06.23-1.42.59-.37-.36-.87-.59-1.42-.59h-.73a98.07 98.07 0 0 0 1.7 3.76c.15-.07.32-.16.45-.29Zm57.68-16.13c-.5 0-.91.41-.91.91s.41.91.91.91h1.81c.5 0 .91-.41.91-.91s-.41-.91-.91-.91h-1.81Zm101.39-5.98c0 .81.65 1.46 1.46 1.46h2.92c.81 0 1.46-.65 1.46-1.46 0-.81-.65-1.46-1.46-1.46h-2.92c-.81 0-1.46.65-1.46 1.46Zm-13.79 0c0 .81.65 1.46 1.46 1.46h2.92c.81 0 1.46-.65 1.46-1.46 0-.81-.65-1.46-1.46-1.46h-2.92c-.81 0-1.46.65-1.46 1.46Zm20.68 0c0 .81.65 1.46 1.46 1.46h2.92c.81 0 1.46-.65 1.46-1.46 0-.81-.65-1.46-1.46-1.46h-2.92c-.81 0-1.46.65-1.46 1.46Zm-13.79 0c0 .81.65 1.46 1.46 1.46h2.92c.81 0 1.46-.65 1.46-1.46 0-.81-.65-1.46-1.46-1.46h-2.92c-.81 0-1.46.65-1.46 1.46Zm-85.25 1.44c.79 0 1.44-.64 1.44-1.44 0-.79-.65-1.44-1.44-1.44h-2.88c-.79 0-1.44.64-1.44 1.44 0 .79.65 1.44 1.44 1.44h2.88Zm105.93-1.44c0 .81.65 1.46 1.46 1.46h2.92c.81 0 1.46-.65 1.46-1.46 0-.81-.65-1.46-1.46-1.46h-2.92c-.81 0-1.46.65-1.46 1.46Zm13.79 0c0 .81.65 1.46 1.46 1.46h2.92c.81 0 1.46-.65 1.46-1.46 0-.81-.65-1.46-1.46-1.46h-2.92c-.81 0-1.46.65-1.46 1.46Zm-126.61 1.44c.79 0 1.44-.64 1.44-1.44 0-.79-.65-1.44-1.44-1.44h-2.88c-.79 0-1.44.64-1.44 1.44 0 .79.65 1.44 1.44 1.44h2.88Zm-12.59-1.44c0-.73-.59-1.32-1.32-1.32h-2.64c-.73 0-1.32.59-1.32 1.32 0 .73.59 1.32 1.32 1.32h2.64c.73 0 1.32-.59 1.32-1.32Zm90.95 0c0 .81.65 1.46 1.46 1.46h2.92c.81 0 1.46-.65 1.46-1.46 0-.81-.65-1.46-1.46-1.46h-2.92c-.81 0-1.46.65-1.46 1.46Zm-39.35 5.98c-.5 0-.91.41-.91.91s.41.91.91.91h1.81c.5 0 .91-.41.91-.91s-.41-.91-.91-.91h-1.81Zm32.45-5.98c0 .81.65 1.46 1.46 1.46h2.92c.81 0 1.46-.65 1.46-1.46 0-.81-.65-1.46-1.46-1.46h-2.92c-.81 0-1.46.65-1.46 1.46Zm48.26 0c0 .81.65 1.46 1.46 1.46h2.92c.81 0 1.46-.65 1.46-1.46 0-.81-.65-1.46-1.46-1.46h-2.92c-.81 0-1.46.65-1.46 1.46Zm-78.37-5.46c.79 0 1.44-.64 1.44-1.44 0-.79-.65-1.44-1.44-1.44h-2.88c-.79 0-1.44.64-1.44 1.44 0 .79.65 1.44 1.44 1.44h2.88Zm6.9 0c.79 0 1.44-.64 1.44-1.44 0-.79-.65-1.44-1.44-1.44h-2.88c-.79 0-1.44.64-1.44 1.44 0 .79.65 1.44 1.44 1.44h2.88Zm20.41-.26c.64 0 1.17-.52 1.17-1.17 0-.65-.52-1.17-1.17-1.17h-2.34c-.64 0-1.17.52-1.17 1.17 0 .65.52 1.17 1.17 1.17h2.34Zm-34.2.26c.79 0 1.44-.64 1.44-1.44 0-.79-.65-1.44-1.44-1.44h-2.88c-.79 0-1.44.64-1.44 1.44 0 .79.65 1.44 1.44 1.44h2.88Zm-6.89 0c.79 0 1.44-.64 1.44-1.44 0-.79-.65-1.44-1.44-1.44h-2.88c-.79 0-1.44.64-1.44 1.44 0 .79.65 1.44 1.44 1.44h2.88Zm35.15-1.43c0-.59-.47-1.06-1.06-1.06h-2.12a1.06 1.06 0 0 0 0 2.12h2.12c.58 0 1.06-.48 1.06-1.06Zm85.09 6.89c0 .66.54 1.2 1.2 1.2h2.4c.66 0 1.2-.54 1.2-1.2 0-.66-.54-1.2-1.2-1.2h-2.4c-.67 0-1.2.54-1.2 1.2Zm-6.92 0c0 .67.54 1.21 1.21 1.21h2.42c.67 0 1.21-.54 1.21-1.21 0-.67-.54-1.21-1.21-1.21h-2.42c-.67 0-1.21.54-1.21 1.21Zm13.81 0c0 .66.54 1.2 1.2 1.2h2.4c.66 0 1.2-.54 1.2-1.2 0-.66-.54-1.2-1.2-1.2h-2.4c-.66 0-1.2.54-1.2 1.2ZM5.14 147.73c.37.36.87.59 1.42.59h4.04c.56 0 1.06-.23 1.42-.59.37.36.87.59 1.42.59h4.04c.56 0 1.06-.23 1.42-.59.37.36.87.59 1.42.59h4.04c.56 0 1.06-.23 1.42-.59.37.36.87.59 1.42.59h4.04c.56 0 1.06-.23 1.42-.59.37.36.87.59 1.42.59h4.04c.56 0 1.06-.23 1.42-.59.37.36.87.59 1.42.59H45c.56 0 1.07-.23 1.44-.6.36.37.87.59 1.42.59h4.02a2.01 2.01 0 0 0 0-4.02h-4.02c-.56 0-1.06.23-1.42.59-.37-.37-.87-.6-1.44-.6h-4.04c-.56 0-1.06.23-1.42.59-.37-.36-.87-.59-1.42-.59h-4.04c-.56 0-1.06.23-1.42.59-.37-.36-.87-.59-1.42-.59H27.2c-.56 0-1.06.23-1.42.59-.37-.36-.87-.59-1.42-.59h-4.04c-.56 0-1.06.23-1.42.59-.37-.36-.87-.59-1.42-.59h-4.04c-.56 0-1.06.23-1.42.59-.37-.36-.87-.59-1.42-.59H6.56c-.56 0-1.06.23-1.42.59-.37-.36-.87-.59-1.42-.59H3.2c.3 1.33.59 2.65.93 3.96.39-.08.74-.24 1.01-.51Zm119.24-9.72c-.77 0-1.39.62-1.39 1.39 0 .77.62 1.39 1.39 1.39h2.79c.77 0 1.39-.62 1.39-1.39 0-.77-.62-1.39-1.39-1.39h-2.79Zm81.3 8.29c0 .78.63 1.41 1.41 1.41h2.81c.78 0 1.41-.63 1.41-1.41 0-.78-.63-1.41-1.41-1.41h-2.81c-.78 0-1.41.63-1.41 1.41Zm-140.52 1.43a1.43 1.43 0 1 0 0-2.86h-2.85a1.43 1.43 0 1 0 0 2.86h2.85Zm105.95 5.46c0 .81.65 1.46 1.46 1.46h2.92c.81 0 1.46-.65 1.46-1.46 0-.81-.65-1.46-1.46-1.46h-2.92c-.81 0-1.46.66-1.46 1.46Zm-13.79 0c0 .81.65 1.46 1.46 1.46h2.92c.81 0 1.46-.65 1.46-1.46 0-.81-.65-1.46-1.46-1.46h-2.92c-.81 0-1.46.66-1.46 1.46Zm20.68 0c0 .81.65 1.46 1.46 1.46h2.92c.81 0 1.46-.65 1.46-1.46 0-.81-.65-1.46-1.46-1.46h-2.92c-.81 0-1.46.66-1.46 1.46Zm-13.79 0c0 .81.65 1.46 1.46 1.46h2.92c.81 0 1.46-.65 1.46-1.46 0-.81-.65-1.46-1.46-1.46h-2.92c-.81 0-1.46.66-1.46 1.46Zm27.58 0c0 .81.65 1.46 1.46 1.46h2.92c.81 0 1.46-.65 1.46-1.46 0-.81-.65-1.46-1.46-1.46h-2.92c-.81 0-1.46.66-1.46 1.46Zm-6.9 0c0 .81.65 1.46 1.46 1.46h2.92c.81 0 1.46-.65 1.46-1.46 0-.81-.65-1.46-1.46-1.46h-2.92c-.81 0-1.46.66-1.46 1.46Zm-66.92-.91c-.5 0-.91.41-.91.91s.41.91.91.91h1.82c.5 0 .91-.41.91-.91s-.41-.91-.91-.91h-1.82Zm80.71.91c0 .81.65 1.46 1.46 1.46h2.92c.81 0 1.46-.65 1.46-1.46 0-.81-.65-1.46-1.46-1.46h-2.92c-.81 0-1.46.66-1.46 1.46Zm-67.66 0c0 .45.37.82.82.82h1.65c.45 0 .82-.37.82-.82 0-.45-.37-.82-.82-.82h-1.65c-.45 0-.82.37-.82.82Zm19.41 0c0 .81.65 1.46 1.46 1.46h2.92c.81 0 1.46-.65 1.46-1.46 0-.81-.65-1.46-1.46-1.46h-2.92c-.81 0-1.46.66-1.46 1.46Zm-6.9 0c0 .81.65 1.46 1.46 1.46h2.92c.81 0 1.46-.65 1.46-1.46 0-.81-.65-1.46-1.46-1.46h-2.92c-.81 0-1.46.66-1.46 1.46Zm-18.67-.91c-.5 0-.91.41-.91.91s.41.91.91.91h1.82c.5 0 .91-.41.91-.91s-.41-.91-.91-.91h-1.82Zm80.71.91c0 .81.65 1.46 1.46 1.46h2.92c.81 0 1.46-.65 1.46-1.46 0-.81-.65-1.46-1.46-1.46h-2.92c-.81 0-1.46.66-1.46 1.46Zm-92.15-5.45c.79 0 1.44-.64 1.44-1.44 0-.79-.65-1.44-1.44-1.44h-2.88c-.79 0-1.44.64-1.44 1.44 0 .79.65 1.44 1.44 1.44h2.88Zm-6.89 0c.79 0 1.44-.64 1.44-1.44 0-.79-.65-1.44-1.44-1.44h-2.88c-.79 0-1.44.64-1.44 1.44 0 .79.65 1.44 1.44 1.44h2.88Zm20.68 0c.79 0 1.44-.64 1.44-1.44 0-.79-.65-1.44-1.44-1.44h-2.88c-.79 0-1.44.64-1.44 1.44 0 .79.65 1.44 1.44 1.44h2.88Zm-41.36 0c.79 0 1.44-.64 1.44-1.44 0-.79-.65-1.44-1.44-1.44h-2.88c-.79 0-1.44.64-1.44 1.44 0 .79.65 1.44 1.44 1.44h2.88Zm6.9 0c.79 0 1.44-.64 1.44-1.44 0-.79-.65-1.44-1.44-1.44h-2.88c-.79 0-1.44.64-1.44 1.44 0 .79.65 1.44 1.44 1.44h2.88Zm6.89 0c.79 0 1.44-.64 1.44-1.44 0-.79-.65-1.44-1.44-1.44h-2.88c-.79 0-1.44.64-1.44 1.44 0 .79.65 1.44 1.44 1.44h2.88Zm20.68 0c.79 0 1.44-.64 1.44-1.44 0-.79-.65-1.44-1.44-1.44h-2.88c-.79 0-1.44.64-1.44 1.44 0 .79.65 1.44 1.44 1.44h2.88Zm99.56 5.45c0 .66.54 1.2 1.2 1.2h2.4c.66 0 1.2-.54 1.2-1.2 0-.66-.54-1.2-1.2-1.2h-2.4c-.67 0-1.2.54-1.2 1.2Zm-78.93-5.49c.77 0 1.39-.62 1.39-1.39 0-.77-.62-1.39-1.39-1.39h-2.79c-.77 0-1.39.62-1.39 1.39 0 .77.62 1.39 1.39 1.39h2.79Zm71.84 5.49c0 .72.58 1.3 1.3 1.3h2.6c.72 0 1.3-.58 1.3-1.3 0-.72-.58-1.3-1.3-1.3h-2.6c-.72.01-1.3.59-1.3 1.3ZM5.13 151.75c.33 1.14.68 2.26 1.05 3.38.13.03.25.08.39.08h4.04c.56 0 1.06-.23 1.42-.59.37.36.87.59 1.42.59h4.04c.56 0 1.06-.23 1.42-.59.37.36.87.59 1.42.59h4.04c.56 0 1.06-.23 1.42-.59.37.36.87.59 1.42.59h4.04c.56 0 1.06-.23 1.42-.59.37.36.87.59 1.42.59h4.04c.56 0 1.06-.23 1.42-.59.37.36.87.59 1.42.59h4.04c.56 0 1.07-.23 1.44-.6.36.37.87.59 1.42.59h4.02a2.01 2.01 0 0 0 0-4.02h-4.02c-.56 0-1.06.23-1.42.59-.37-.37-.87-.6-1.44-.6h-4.04c-.56 0-1.06.23-1.42.59-.37-.36-.87-.59-1.42-.59h-4.04c-.56 0-1.06.23-1.42.59-.37-.36-.87-.59-1.42-.59h-4.04c-.56 0-1.06.23-1.42.59-.37-.36-.87-.59-1.42-.59h-4.04c-.56 0-1.06.23-1.42.59-.37-.36-.87-.59-1.42-.59h-4.04c-.56 0-1.06.23-1.42.59-.37-.36-.87-.59-1.42-.59H6.57c-.56 0-1.06.23-1.42.59-.01 0-.02 0-.02-.01Zm130.07-5.45c0-.7-.56-1.27-1.26-1.27h-2.53c-.7 0-1.26.57-1.26 1.27 0 .7.56 1.27 1.26 1.27h2.53c.69 0 1.26-.57 1.26-1.27Z" fill="#000"/></svg>