<svg width="101" height="101" fill="none" xmlns="http://www.w3.org/2000/svg"><path d="M48.584.533h-1.43v1.43h1.43V.533ZM51.44.533h-1.43v1.43h1.43V.533Z" fill="#000"/><path d="M48.584 1.96h-1.43v1.43h1.43V1.96ZM51.44 1.96h-1.43v1.43h1.43V1.96ZM45.728 3.39h-1.43v1.43h1.43V3.39ZM48.584 3.39h-1.43v1.43h1.43V3.39ZM51.44 3.39h-1.43v1.43h1.43V3.39ZM54.297 3.39h-1.43v1.43h1.43V3.39ZM45.728 4.82h-1.43v1.43h1.43V4.82ZM48.584 4.82h-1.43v1.43h1.43V4.82ZM51.44 4.82h-1.43v1.43h1.43V4.82ZM54.297 4.82h-1.43v1.43h1.43V4.82ZM42.872 6.246h-1.43v1.43h1.43v-1.43Z" fill="#000"/><path d="M45.728 6.246h-1.43v1.43h1.43v-1.43ZM48.584 6.246h-1.43v1.43h1.43v-1.43ZM51.44 6.246h-1.43v1.43h1.43v-1.43ZM54.297 6.246h-1.43v1.43h1.43v-1.43ZM57.154 6.246h-1.43v1.43h1.43v-1.43ZM42.872 7.676h-1.43v1.43h1.43v-1.43ZM45.728 7.676h-1.43v1.43h1.43v-1.43ZM48.584 7.676h-1.43v1.43h1.43v-1.43ZM51.44 7.676h-1.43v1.43h1.43v-1.43ZM54.297 7.676h-1.43v1.43h1.43v-1.43ZM57.154 7.676h-1.43v1.43h1.43v-1.43ZM40.011 9.102h-1.43v1.43h1.43v-1.43Z" fill="#000"/><path d="M42.872 9.102h-1.43v1.43h1.43v-1.43ZM45.728 9.102h-1.43v1.43h1.43v-1.43ZM48.584 9.102h-1.43v1.43h1.43v-1.43ZM51.44 9.102h-1.43v1.43h1.43v-1.43ZM54.297 9.102h-1.43v1.43h1.43v-1.43ZM57.154 9.102h-1.43v1.43h1.43v-1.43ZM60.01 9.102h-1.43v1.43h1.43v-1.43ZM40.011 10.533h-1.43v1.43h1.43v-1.43ZM42.872 10.533h-1.43v1.43h1.43v-1.43ZM45.728 10.533h-1.43v1.43h1.43v-1.43ZM48.584 10.533h-1.43v1.43h1.43v-1.43ZM51.44 10.533h-1.43v1.43h1.43v-1.43ZM54.297 10.533h-1.43v1.43h1.43v-1.43ZM57.154 10.533h-1.43v1.43h1.43v-1.43ZM60.01 10.533h-1.43v1.43h1.43v-1.43ZM37.154 11.959h-1.43v1.43h1.43v-1.43Z" fill="#000"/><path d="M40.011 11.959h-1.43v1.43h1.43v-1.43ZM42.872 11.959h-1.43v1.43h1.43v-1.43ZM45.728 11.959h-1.43v1.43h1.43v-1.43ZM48.584 11.959h-1.43v1.43h1.43v-1.43ZM51.44 11.959h-1.43v1.43h1.43v-1.43ZM54.297 11.959h-1.43v1.43h1.43v-1.43ZM57.154 11.959h-1.43v1.43h1.43v-1.43ZM60.01 11.959h-1.43v1.43h1.43v-1.43ZM62.87 11.959h-1.43v1.43h1.43v-1.43ZM37.154 13.389h-1.43v1.43h1.43v-1.43ZM40.011 13.389h-1.43v1.43h1.43v-1.43ZM42.872 13.389h-1.43v1.43h1.43v-1.43ZM45.728 13.389h-1.43v1.43h1.43v-1.43ZM48.584 13.389h-1.43v1.43h1.43v-1.43ZM51.44 13.389h-1.43v1.43h1.43v-1.43ZM54.297 13.389h-1.43v1.43h1.43v-1.43ZM57.154 13.389h-1.43v1.43h1.43v-1.43ZM60.01 13.389h-1.43v1.43h1.43v-1.43ZM62.87 13.389h-1.43v1.43h1.43v-1.43ZM34.298 14.82h-1.43v1.43h1.43v-1.43ZM37.154 14.82h-1.43v1.43h1.43v-1.43ZM40.011 14.82h-1.43v1.43h1.43v-1.43ZM42.872 14.82h-1.43v1.43h1.43v-1.43ZM45.728 14.82h-1.43v1.43h1.43v-1.43ZM48.584 14.82h-1.43v1.43h1.43v-1.43ZM51.44 14.82h-1.43v1.43h1.43v-1.43ZM54.297 14.82h-1.43v1.43h1.43v-1.43ZM57.154 14.82h-1.43v1.43h1.43v-1.43ZM60.01 14.82h-1.43v1.43h1.43v-1.43ZM62.87 14.82h-1.43v1.43h1.43v-1.43ZM65.727 14.82h-1.43v1.43h1.43v-1.43Z" fill="#000"/><path d="M34.298 16.245h-1.43v1.43h1.43v-1.43ZM37.154 16.245h-1.43v1.43h1.43v-1.43ZM40.011 16.245h-1.43v1.43h1.43v-1.43ZM42.872 16.245h-1.43v1.43h1.43v-1.43ZM45.728 16.245h-1.43v1.43h1.43v-1.43ZM48.584 16.245h-1.43v1.43h1.43v-1.43ZM51.44 16.245h-1.43v1.43h1.43v-1.43ZM54.297 16.245h-1.43v1.43h1.43v-1.43ZM57.154 16.245h-1.43v1.43h1.43v-1.43ZM60.01 16.245h-1.43v1.43h1.43v-1.43ZM62.87 16.245h-1.43v1.43h1.43v-1.43ZM65.727 16.245h-1.43v1.43h1.43v-1.43ZM31.441 17.676h-1.43v1.43h1.43v-1.43ZM34.298 17.676h-1.43v1.43h1.43v-1.43ZM37.154 17.676h-1.43v1.43h1.43v-1.43ZM40.011 17.676h-1.43v1.43h1.43v-1.43ZM42.872 17.676h-1.43v1.43h1.43v-1.43ZM45.728 17.676h-1.43v1.43h1.43v-1.43ZM48.584 17.676h-1.43v1.43h1.43v-1.43ZM51.44 17.676h-1.43v1.43h1.43v-1.43ZM54.297 17.676h-1.43v1.43h1.43v-1.43ZM57.154 17.676h-1.43v1.43h1.43v-1.43ZM60.01 17.676h-1.43v1.43h1.43v-1.43ZM62.87 17.676h-1.43v1.43h1.43v-1.43ZM65.727 17.676h-1.43v1.43h1.43v-1.43Z" fill="#000"/><path d="M67.154 17.676h-1.43v1.43h1.43v-1.43ZM31.441 19.102h-1.43v1.43h1.43v-1.43ZM34.298 19.102h-1.43v1.43h1.43v-1.43ZM37.154 19.102h-1.43v1.43h1.43v-1.43ZM40.011 19.102h-1.43v1.43h1.43v-1.43ZM42.872 19.102h-1.43v1.43h1.43v-1.43ZM45.728 19.102h-1.43v1.43h1.43v-1.43ZM48.584 19.102h-1.43v1.43h1.43v-1.43ZM51.44 19.102h-1.43v1.43h1.43v-1.43ZM54.297 19.102h-1.43v1.43h1.43v-1.43ZM57.154 19.102h-1.43v1.43h1.43v-1.43ZM60.01 19.102h-1.43v1.43h1.43v-1.43ZM62.87 19.102h-1.43v1.43h1.43v-1.43Z" fill="#000"/><path d="M65.727 19.102h-1.43v1.43h1.43v-1.43ZM68.583 19.102h-1.43v1.43h1.43v-1.43ZM28.586 20.532h-1.43v1.43h1.43v-1.43ZM31.441 20.532h-1.43v1.43h1.43v-1.43ZM34.298 20.532h-1.43v1.43h1.43v-1.43ZM37.154 20.532h-1.43v1.43h1.43v-1.43ZM40.011 20.532h-1.43v1.43h1.43v-1.43ZM42.872 20.532h-1.43v1.43h1.43v-1.43ZM45.728 20.532h-1.43v1.43h1.43v-1.43ZM48.584 20.532h-1.43v1.43h1.43v-1.43ZM51.44 20.532h-1.43v1.43h1.43v-1.43ZM54.297 20.532h-1.43v1.43h1.43v-1.43ZM57.154 20.532h-1.43v1.43h1.43v-1.43ZM60.01 20.532h-1.43v1.43h1.43v-1.43ZM62.87 20.532h-1.43v1.43h1.43v-1.43ZM65.727 20.532h-1.43v1.43h1.43v-1.43ZM68.583 20.532h-1.43v1.43h1.43v-1.43Z" fill="#000"/><path d="M70.01 20.532h-1.431v1.43h1.43v-1.43ZM28.586 21.958h-1.43v1.43h1.43v-1.43ZM31.441 21.958h-1.43v1.43h1.43v-1.43ZM34.298 21.958h-1.43v1.43h1.43v-1.43ZM37.154 21.958h-1.43v1.43h1.43v-1.43ZM40.011 21.958h-1.43v1.43h1.43v-1.43ZM42.872 21.958h-1.43v1.43h1.43v-1.43ZM45.728 21.958h-1.43v1.43h1.43v-1.43ZM48.584 21.958h-1.43v1.43h1.43v-1.43ZM51.44 21.958h-1.43v1.43h1.43v-1.43ZM54.297 21.958h-1.43v1.43h1.43v-1.43ZM57.154 21.958h-1.43v1.43h1.43v-1.43ZM60.01 21.958h-1.43v1.43h1.43v-1.43ZM62.87 21.958h-1.43v1.43h1.43v-1.43ZM65.727 21.958h-1.43v1.43h1.43v-1.43Z" fill="#000"/><path d="M68.583 21.958h-1.43v1.43h1.43v-1.43ZM71.44 21.958h-1.43v1.43h1.43v-1.43ZM25.728 23.389h-1.43v1.43h1.43v-1.43ZM28.586 23.389h-1.43v1.43h1.43v-1.43ZM31.441 23.389h-1.43v1.43h1.43v-1.43ZM34.298 23.389h-1.43v1.43h1.43v-1.43ZM37.154 23.389h-1.43v1.43h1.43v-1.43ZM40.011 23.389h-1.43v1.43h1.43v-1.43ZM42.872 23.389h-1.43v1.43h1.43v-1.43ZM45.728 23.389h-1.43v1.43h1.43v-1.43ZM48.584 23.389h-1.43v1.43h1.43v-1.43ZM51.44 23.389h-1.43v1.43h1.43v-1.43ZM54.297 23.389h-1.43v1.43h1.43v-1.43ZM57.154 23.389h-1.43v1.43h1.43v-1.43ZM60.01 23.389h-1.43v1.43h1.43v-1.43ZM62.87 23.389h-1.43v1.43h1.43v-1.43ZM65.727 23.389h-1.43v1.43h1.43v-1.43ZM68.583 23.389h-1.43v1.43h1.43v-1.43ZM71.44 23.389h-1.43v1.43h1.43v-1.43ZM72.87 23.389h-1.43v1.43h1.43v-1.43ZM25.728 24.819h-1.43v1.43h1.43v-1.43ZM28.586 24.819h-1.43v1.43h1.43v-1.43ZM31.441 24.819h-1.43v1.43h1.43v-1.43ZM34.298 24.819h-1.43v1.43h1.43v-1.43ZM37.154 24.819h-1.43v1.43h1.43v-1.43ZM40.011 24.819h-1.43v1.43h1.43v-1.43ZM42.872 24.819h-1.43v1.43h1.43v-1.43ZM45.728 24.819h-1.43v1.43h1.43v-1.43ZM48.584 24.819h-1.43v1.43h1.43v-1.43ZM51.44 24.819h-1.43v1.43h1.43v-1.43ZM54.297 24.819h-1.43v1.43h1.43v-1.43ZM57.154 24.819h-1.43v1.43h1.43v-1.43ZM60.01 24.819h-1.43v1.43h1.43v-1.43ZM62.87 24.819h-1.43v1.43h1.43v-1.43ZM65.727 24.819h-1.43v1.43h1.43v-1.43ZM68.583 24.819h-1.43v1.43h1.43v-1.43ZM71.44 24.819h-1.43v1.43h1.43v-1.43ZM74.296 24.819h-1.43v1.43h1.43v-1.43ZM22.869 26.245h-1.43v1.43h1.43v-1.43Z" fill="#000"/><path d="M25.728 26.245h-1.43v1.43h1.43v-1.43ZM28.586 26.245h-1.43v1.43h1.43v-1.43ZM31.441 26.245h-1.43v1.43h1.43v-1.43ZM34.298 26.245h-1.43v1.43h1.43v-1.43ZM37.154 26.245h-1.43v1.43h1.43v-1.43ZM40.011 26.245h-1.43v1.43h1.43v-1.43ZM42.872 26.245h-1.43v1.43h1.43v-1.43ZM45.728 26.245h-1.43v1.43h1.43v-1.43ZM48.584 26.245h-1.43v1.43h1.43v-1.43ZM51.44 26.245h-1.43v1.43h1.43v-1.43ZM54.297 26.245h-1.43v1.43h1.43v-1.43ZM57.154 26.245h-1.43v1.43h1.43v-1.43ZM60.01 26.245h-1.43v1.43h1.43v-1.43ZM62.87 26.245h-1.43v1.43h1.43v-1.43ZM65.727 26.245h-1.43v1.43h1.43v-1.43ZM68.583 26.245h-1.43v1.43h1.43v-1.43ZM71.44 26.245h-1.43v1.43h1.43v-1.43ZM74.296 26.245h-1.43v1.43h1.43v-1.43Z" fill="#000"/><path d="M75.726 26.245h-1.43v1.43h1.43v-1.43ZM22.869 27.675h-1.43v1.43h1.43v-1.43ZM25.728 27.675h-1.43v1.43h1.43v-1.43ZM28.586 27.675h-1.43v1.43h1.43v-1.43ZM31.441 27.675h-1.43v1.43h1.43v-1.43ZM34.298 27.675h-1.43v1.43h1.43v-1.43ZM37.154 27.675h-1.43v1.43h1.43v-1.43ZM40.011 27.675h-1.43v1.43h1.43v-1.43ZM42.872 27.675h-1.43v1.43h1.43v-1.43ZM45.728 27.675h-1.43v1.43h1.43v-1.43ZM48.584 27.675h-1.43v1.43h1.43v-1.43ZM51.44 27.675h-1.43v1.43h1.43v-1.43ZM54.297 27.675h-1.43v1.43h1.43v-1.43ZM57.154 27.675h-1.43v1.43h1.43v-1.43ZM60.01 27.675h-1.43v1.43h1.43v-1.43ZM62.87 27.675h-1.43v1.43h1.43v-1.43ZM65.727 27.675h-1.43v1.43h1.43v-1.43ZM68.583 27.675h-1.43v1.43h1.43v-1.43ZM71.44 27.675h-1.43v1.43h1.43v-1.43ZM74.296 27.675h-1.43v1.43h1.43v-1.43ZM77.153 27.675h-1.43v1.43h1.43v-1.43ZM20.011 29.101h-1.43v1.43h1.43v-1.43Z" fill="#000"/><path d="M22.869 29.101h-1.43v1.43h1.43v-1.43ZM25.728 29.101h-1.43v1.43h1.43v-1.43ZM28.586 29.101h-1.43v1.43h1.43v-1.43ZM31.441 29.101h-1.43v1.43h1.43v-1.43ZM34.298 29.101h-1.43v1.43h1.43v-1.43ZM37.154 29.101h-1.43v1.43h1.43v-1.43ZM40.011 29.101h-1.43v1.43h1.43v-1.43ZM42.872 29.101h-1.43v1.43h1.43v-1.43ZM45.728 29.101h-1.43v1.43h1.43v-1.43ZM48.584 29.101h-1.43v1.43h1.43v-1.43ZM51.44 29.101h-1.43v1.43h1.43v-1.43ZM54.297 29.101h-1.43v1.43h1.43v-1.43ZM57.154 29.101h-1.43v1.43h1.43v-1.43ZM60.01 29.101h-1.43v1.43h1.43v-1.43ZM62.87 29.101h-1.43v1.43h1.43v-1.43ZM65.727 29.101h-1.43v1.43h1.43v-1.43ZM68.583 29.101h-1.43v1.43h1.43v-1.43ZM71.44 29.101h-1.43v1.43h1.43v-1.43ZM74.296 29.101h-1.43v1.43h1.43v-1.43ZM77.153 29.101h-1.43v1.43h1.43v-1.43Z" fill="#000"/><path d="M78.583 29.101h-1.43v1.43h1.43v-1.43ZM20.011 30.532h-1.43v1.43h1.43v-1.43ZM22.869 30.532h-1.43v1.43h1.43v-1.43ZM25.728 30.532h-1.43v1.43h1.43v-1.43ZM28.586 30.532h-1.43v1.43h1.43v-1.43ZM31.441 30.532h-1.43v1.43h1.43v-1.43ZM34.298 30.532h-1.43v1.43h1.43v-1.43ZM37.154 30.532h-1.43v1.43h1.43v-1.43ZM40.011 30.532h-1.43v1.43h1.43v-1.43ZM42.872 30.532h-1.43v1.43h1.43v-1.43ZM45.728 30.532h-1.43v1.43h1.43v-1.43ZM48.584 30.532h-1.43v1.43h1.43v-1.43ZM51.44 30.532h-1.43v1.43h1.43v-1.43ZM54.297 30.532h-1.43v1.43h1.43v-1.43ZM57.154 30.532h-1.43v1.43h1.43v-1.43ZM60.01 30.532h-1.43v1.43h1.43v-1.43ZM62.87 30.532h-1.43v1.43h1.43v-1.43ZM65.727 30.532h-1.43v1.43h1.43v-1.43ZM68.583 30.532h-1.43v1.43h1.43v-1.43ZM71.44 30.532h-1.43v1.43h1.43v-1.43ZM74.296 30.532h-1.43v1.43h1.43v-1.43ZM77.153 30.532h-1.43v1.43h1.43v-1.43ZM80.013 30.532h-1.43v1.43h1.43v-1.43ZM17.156 31.962h-1.43v1.43h1.43v-1.43ZM20.011 31.962h-1.43v1.43h1.43v-1.43ZM22.869 31.962h-1.43v1.43h1.43v-1.43ZM25.728 31.962h-1.43v1.43h1.43v-1.43ZM28.586 31.962h-1.43v1.43h1.43v-1.43ZM31.441 31.962h-1.43v1.43h1.43v-1.43ZM34.298 31.962h-1.43v1.43h1.43v-1.43ZM37.154 31.962h-1.43v1.43h1.43v-1.43ZM40.011 31.962h-1.43v1.43h1.43v-1.43ZM42.872 31.962h-1.43v1.43h1.43v-1.43ZM45.728 31.962h-1.43v1.43h1.43v-1.43ZM48.584 31.962h-1.43v1.43h1.43v-1.43ZM51.44 31.962h-1.43v1.43h1.43v-1.43ZM54.297 31.962h-1.43v1.43h1.43v-1.43ZM57.154 31.962h-1.43v1.43h1.43v-1.43ZM60.01 31.962h-1.43v1.43h1.43v-1.43ZM62.87 31.962h-1.43v1.43h1.43v-1.43ZM65.727 31.962h-1.43v1.43h1.43v-1.43ZM68.583 31.962h-1.43v1.43h1.43v-1.43ZM71.44 31.962h-1.43v1.43h1.43v-1.43ZM74.296 31.962h-1.43v1.43h1.43v-1.43ZM77.153 31.962h-1.43v1.43h1.43v-1.43ZM80.013 31.962h-1.43v1.43h1.43v-1.43Z" fill="#000"/><path d="M81.439 31.962h-1.43v1.43h1.43v-1.43ZM17.156 33.388h-1.43v1.43h1.43v-1.43ZM20.011 33.388h-1.43v1.43h1.43v-1.43ZM22.869 33.388h-1.43v1.43h1.43v-1.43ZM25.728 33.388h-1.43v1.43h1.43v-1.43ZM28.586 33.388h-1.43v1.43h1.43v-1.43ZM31.441 33.388h-1.43v1.43h1.43v-1.43ZM34.298 33.388h-1.43v1.43h1.43v-1.43ZM37.154 33.388h-1.43v1.43h1.43v-1.43ZM40.011 33.388h-1.43v1.43h1.43v-1.43ZM42.872 33.388h-1.43v1.43h1.43v-1.43ZM45.728 33.388h-1.43v1.43h1.43v-1.43ZM48.584 33.388h-1.43v1.43h1.43v-1.43ZM51.44 33.388h-1.43v1.43h1.43v-1.43ZM54.297 33.388h-1.43v1.43h1.43v-1.43ZM57.154 33.388h-1.43v1.43h1.43v-1.43ZM60.01 33.388h-1.43v1.43h1.43v-1.43ZM62.87 33.388h-1.43v1.43h1.43v-1.43ZM65.727 33.388h-1.43v1.43h1.43v-1.43ZM68.583 33.388h-1.43v1.43h1.43v-1.43ZM71.44 33.388h-1.43v1.43h1.43v-1.43ZM74.296 33.388h-1.43v1.43h1.43v-1.43ZM77.153 33.388h-1.43v1.43h1.43v-1.43Z" fill="#000"/><path d="M80.013 33.388h-1.43v1.43h1.43v-1.43ZM82.87 33.388h-1.43v1.43h1.43v-1.43ZM14.299 34.818h-1.43v1.43h1.43v-1.43ZM17.156 34.818h-1.43v1.43h1.43v-1.43ZM20.011 34.818h-1.43v1.43h1.43v-1.43ZM22.869 34.818h-1.43v1.43h1.43v-1.43ZM25.728 34.818h-1.43v1.43h1.43v-1.43ZM28.586 34.818h-1.43v1.43h1.43v-1.43ZM31.441 34.818h-1.43v1.43h1.43v-1.43ZM34.298 34.818h-1.43v1.43h1.43v-1.43ZM37.154 34.818h-1.43v1.43h1.43v-1.43ZM40.011 34.818h-1.43v1.43h1.43v-1.43ZM42.872 34.818h-1.43v1.43h1.43v-1.43ZM45.728 34.818h-1.43v1.43h1.43v-1.43ZM48.584 34.818h-1.43v1.43h1.43v-1.43ZM51.44 34.818h-1.43v1.43h1.43v-1.43ZM54.297 34.818h-1.43v1.43h1.43v-1.43ZM57.154 34.818h-1.43v1.43h1.43v-1.43ZM60.01 34.818h-1.43v1.43h1.43v-1.43ZM62.87 34.818h-1.43v1.43h1.43v-1.43ZM65.727 34.818h-1.43v1.43h1.43v-1.43ZM68.583 34.818h-1.43v1.43h1.43v-1.43ZM71.44 34.818h-1.43v1.43h1.43v-1.43ZM74.296 34.818h-1.43v1.43h1.43v-1.43ZM77.153 34.818h-1.43v1.43h1.43v-1.43ZM80.013 34.818h-1.43v1.43h1.43v-1.43ZM82.87 34.818h-1.43v1.43h1.43v-1.43Z" fill="#000"/><path d="M84.296 34.818h-1.43v1.43h1.43v-1.43ZM14.299 36.245h-1.43v1.43h1.43v-1.43ZM17.156 36.245h-1.43v1.43h1.43v-1.43ZM20.011 36.245h-1.43v1.43h1.43v-1.43ZM22.869 36.245h-1.43v1.43h1.43v-1.43ZM25.728 36.245h-1.43v1.43h1.43v-1.43ZM28.586 36.245h-1.43v1.43h1.43v-1.43ZM31.441 36.245h-1.43v1.43h1.43v-1.43ZM34.298 36.245h-1.43v1.43h1.43v-1.43ZM37.154 36.245h-1.43v1.43h1.43v-1.43ZM40.011 36.245h-1.43v1.43h1.43v-1.43ZM42.872 36.245h-1.43v1.43h1.43v-1.43ZM45.728 36.245h-1.43v1.43h1.43v-1.43ZM48.584 36.245h-1.43v1.43h1.43v-1.43ZM51.44 36.245h-1.43v1.43h1.43v-1.43ZM54.297 36.245h-1.43v1.43h1.43v-1.43ZM57.154 36.245h-1.43v1.43h1.43v-1.43ZM60.01 36.245h-1.43v1.43h1.43v-1.43ZM62.87 36.245h-1.43v1.43h1.43v-1.43ZM65.727 36.245h-1.43v1.43h1.43v-1.43ZM68.583 36.245h-1.43v1.43h1.43v-1.43ZM71.44 36.245h-1.43v1.43h1.43v-1.43ZM74.296 36.245h-1.43v1.43h1.43v-1.43ZM77.153 36.245h-1.43v1.43h1.43v-1.43ZM80.013 36.245h-1.43v1.43h1.43v-1.43Z" fill="#000"/><path d="M81.439 36.245h-1.43v1.43h1.43v-1.43ZM84.296 36.245h-1.43v1.43h1.43v-1.43Z" fill="#000"/><path d="M85.726 36.245h-1.43v1.43h1.43v-1.43ZM11.443 37.675h-1.43v1.43h1.43v-1.43ZM14.299 37.675h-1.43v1.43h1.43v-1.43ZM17.156 37.675h-1.43v1.43h1.43v-1.43ZM20.011 37.675h-1.43v1.43h1.43v-1.43ZM22.869 37.675h-1.43v1.43h1.43v-1.43ZM25.728 37.675h-1.43v1.43h1.43v-1.43ZM28.586 37.675h-1.43v1.43h1.43v-1.43ZM31.441 37.675h-1.43v1.43h1.43v-1.43ZM34.298 37.675h-1.43v1.43h1.43v-1.43ZM37.154 37.675h-1.43v1.43h1.43v-1.43ZM40.011 37.675h-1.43v1.43h1.43v-1.43ZM42.872 37.675h-1.43v1.43h1.43v-1.43ZM45.728 37.675h-1.43v1.43h1.43v-1.43ZM48.584 37.675h-1.43v1.43h1.43v-1.43ZM51.44 37.675h-1.43v1.43h1.43v-1.43ZM54.297 37.675h-1.43v1.43h1.43v-1.43ZM57.154 37.675h-1.43v1.43h1.43v-1.43ZM60.01 37.675h-1.43v1.43h1.43v-1.43ZM62.87 37.675h-1.43v1.43h1.43v-1.43ZM65.727 37.675h-1.43v1.43h1.43v-1.43ZM68.583 37.675h-1.43v1.43h1.43v-1.43ZM71.44 37.675h-1.43v1.43h1.43v-1.43ZM74.296 37.675h-1.43v1.43h1.43v-1.43Z" fill="#000"/><path d="M75.726 37.675h-1.43v1.43h1.43v-1.43ZM78.583 37.675h-1.43v1.43h1.43v-1.43ZM81.439 37.675h-1.43v1.43h1.43v-1.43ZM82.87 37.675h-1.43v1.43h1.43v-1.43ZM85.726 37.675h-1.43v1.43h1.43v-1.43Z" fill="#000"/><path d="M87.152 37.675h-1.43v1.43h1.43v-1.43ZM11.443 39.101h-1.43v1.43h1.43v-1.43ZM14.299 39.101h-1.43v1.43h1.43v-1.43ZM17.156 39.101h-1.43v1.43h1.43v-1.43ZM20.011 39.101h-1.43v1.43h1.43v-1.43ZM22.869 39.101h-1.43v1.43h1.43v-1.43ZM25.728 39.101h-1.43v1.43h1.43v-1.43ZM28.586 39.101h-1.43v1.43h1.43v-1.43ZM31.441 39.101h-1.43v1.43h1.43v-1.43ZM34.298 39.101h-1.43v1.43h1.43v-1.43ZM37.154 39.101h-1.43v1.43h1.43v-1.43ZM40.011 39.101h-1.43v1.43h1.43v-1.43ZM42.872 39.101h-1.43v1.43h1.43v-1.43ZM45.728 39.101h-1.43v1.43h1.43v-1.43ZM48.584 39.101h-1.43v1.43h1.43v-1.43ZM51.44 39.101h-1.43v1.43h1.43v-1.43ZM54.297 39.101h-1.43v1.43h1.43v-1.43ZM57.154 39.101h-1.43v1.43h1.43v-1.43ZM60.01 39.101h-1.43v1.43h1.43v-1.43ZM62.87 39.101h-1.43v1.43h1.43v-1.43ZM65.727 39.101h-1.43v1.43h1.43v-1.43ZM68.583 39.101h-1.43v1.43h1.43v-1.43Z" fill="#000"/><path d="M70.01 39.101h-1.431v1.43h1.43v-1.43ZM72.87 39.101h-1.43v1.43h1.43v-1.43ZM75.726 39.101h-1.43v1.43h1.43v-1.43Z" fill="#000"/><path d="M77.153 39.101h-1.43v1.43h1.43v-1.43ZM80.013 39.101h-1.43v1.43h1.43v-1.43ZM82.87 39.101h-1.43v1.43h1.43v-1.43Z" fill="#000"/><path d="M84.296 39.101h-1.43v1.43h1.43v-1.43ZM87.152 39.101h-1.43v1.43h1.43v-1.43Z" fill="#000"/><path d="M88.582 39.101h-1.43v1.43h1.43v-1.43ZM10.012 40.531h-1.43v1.43h1.43v-1.43ZM12.869 40.531h-1.43v1.43h1.43v-1.43ZM15.73 40.531h-1.431v1.43h1.43v-1.43ZM18.586 40.531h-1.43v1.43h1.43v-1.43ZM21.442 40.531h-1.43v1.43h1.43v-1.43ZM24.299 40.531h-1.43v1.43h1.43v-1.43ZM27.155 40.531h-1.43v1.43h1.43v-1.43ZM30.011 40.531h-1.43v1.43h1.43v-1.43ZM32.873 40.531h-1.43v1.43h1.43v-1.43ZM35.728 40.531h-1.43v1.43h1.43v-1.43ZM38.586 40.531h-1.43v1.43h1.43v-1.43ZM41.44 40.531h-1.43v1.43h1.43v-1.43ZM44.298 40.531h-1.43v1.43h1.43v-1.43ZM47.154 40.531h-1.43v1.43h1.43v-1.43ZM50.01 40.531h-1.43v1.43h1.43v-1.43ZM52.87 40.531h-1.43v1.43h1.43v-1.43ZM55.728 40.531h-1.43v1.43h1.43v-1.43ZM58.583 40.531h-1.43v1.43h1.43v-1.43ZM61.44 40.531h-1.43v1.43h1.43v-1.43ZM64.296 40.531h-1.43v1.43h1.43v-1.43ZM67.154 40.531h-1.43v1.43h1.43v-1.43ZM70.01 40.531h-1.431v1.43h1.43v-1.43Z" fill="#000"/><path d="M71.44 40.531h-1.43v1.43h1.43v-1.43ZM74.296 40.531h-1.43v1.43h1.43v-1.43ZM77.153 40.531h-1.43v1.43h1.43v-1.43Z" fill="#000"/><path d="M78.583 40.531h-1.43v1.43h1.43v-1.43ZM81.439 40.531h-1.43v1.43h1.43v-1.43ZM84.296 40.531h-1.43v1.43h1.43v-1.43Z" fill="#000"/><path d="M85.726 40.531h-1.43v1.43h1.43v-1.43ZM88.582 40.531h-1.43v1.43h1.43v-1.43ZM90.013 40.531h-1.43v1.43h1.43v-1.43ZM8.586 41.962h-1.43v1.43h1.43v-1.43ZM11.443 41.962h-1.43v1.43h1.43v-1.43ZM14.299 41.962h-1.43v1.43h1.43v-1.43ZM17.156 41.962h-1.43v1.43h1.43v-1.43ZM20.011 41.962h-1.43v1.43h1.43v-1.43ZM22.869 41.962h-1.43v1.43h1.43v-1.43ZM25.728 41.962h-1.43v1.43h1.43v-1.43ZM28.586 41.962h-1.43v1.43h1.43v-1.43ZM31.441 41.962h-1.43v1.43h1.43v-1.43ZM34.298 41.962h-1.43v1.43h1.43v-1.43ZM37.154 41.962h-1.43v1.43h1.43v-1.43ZM40.011 41.962h-1.43v1.43h1.43v-1.43ZM42.872 41.962h-1.43v1.43h1.43v-1.43ZM45.728 41.962h-1.43v1.43h1.43v-1.43ZM48.584 41.962h-1.43v1.43h1.43v-1.43ZM51.44 41.962h-1.43v1.43h1.43v-1.43ZM54.297 41.962h-1.43v1.43h1.43v-1.43ZM57.154 41.962h-1.43v1.43h1.43v-1.43ZM60.01 41.962h-1.43v1.43h1.43v-1.43ZM62.87 41.962h-1.43v1.43h1.43v-1.43ZM65.727 41.962h-1.43v1.43h1.43v-1.43ZM68.583 41.962h-1.43v1.43h1.43v-1.43ZM71.44 41.962h-1.43v1.43h1.43v-1.43ZM72.87 41.962h-1.43v1.43h1.43v-1.43ZM75.726 41.962h-1.43v1.43h1.43v-1.43ZM78.583 41.962h-1.43v1.43h1.43v-1.43ZM80.013 41.962h-1.43v1.43h1.43v-1.43ZM82.87 41.962h-1.43v1.43h1.43v-1.43ZM85.726 41.962h-1.43v1.43h1.43v-1.43Z" fill="#000"/><path d="M87.152 41.962h-1.43v1.43h1.43v-1.43ZM90.013 41.962h-1.43v1.43h1.43v-1.43Z" fill="#000"/><path d="M91.439 41.962h-1.43v1.43h1.43v-1.43ZM7.156 43.388h-1.43v1.43h1.43v-1.43ZM10.012 43.388h-1.43v1.43h1.43v-1.43ZM12.869 43.388h-1.43v1.43h1.43v-1.43ZM15.73 43.388h-1.431v1.43h1.43v-1.43ZM18.586 43.388h-1.43v1.43h1.43v-1.43ZM21.442 43.388h-1.43v1.43h1.43v-1.43ZM24.299 43.388h-1.43v1.43h1.43v-1.43ZM27.155 43.388h-1.43v1.43h1.43v-1.43ZM30.011 43.388h-1.43v1.43h1.43v-1.43ZM32.873 43.388h-1.43v1.43h1.43v-1.43ZM35.728 43.388h-1.43v1.43h1.43v-1.43ZM38.586 43.388h-1.43v1.43h1.43v-1.43ZM41.44 43.388h-1.43v1.43h1.43v-1.43ZM44.298 43.388h-1.43v1.43h1.43v-1.43ZM47.154 43.388h-1.43v1.43h1.43v-1.43ZM50.01 43.388h-1.43v1.43h1.43v-1.43ZM52.87 43.388h-1.43v1.43h1.43v-1.43ZM55.728 43.388h-1.43v1.43h1.43v-1.43ZM58.583 43.388h-1.43v1.43h1.43v-1.43ZM61.44 43.388h-1.43v1.43h1.43v-1.43ZM64.296 43.388h-1.43v1.43h1.43v-1.43ZM67.154 43.388h-1.43v1.43h1.43v-1.43ZM70.01 43.388h-1.431v1.43h1.43v-1.43ZM72.87 43.388h-1.43v1.43h1.43v-1.43Z" fill="#000"/><path d="M74.296 43.388h-1.43v1.43h1.43v-1.43ZM77.153 43.388h-1.43v1.43h1.43v-1.43ZM80.013 43.388h-1.43v1.43h1.43v-1.43Z" fill="#000"/><path d="M81.439 43.388h-1.43v1.43h1.43v-1.43ZM84.296 43.388h-1.43v1.43h1.43v-1.43ZM87.152 43.388h-1.43v1.43h1.43v-1.43Z" fill="#000"/><path d="M88.582 43.388h-1.43v1.43h1.43v-1.43ZM91.439 43.388h-1.43v1.43h1.43v-1.43Z" fill="#000"/><path d="M92.868 43.388h-1.43v1.43h1.43v-1.43ZM5.73 44.818H4.3v1.43h1.43v-1.43ZM8.586 44.818h-1.43v1.43h1.43v-1.43ZM11.443 44.818h-1.43v1.43h1.43v-1.43ZM14.299 44.818h-1.43v1.43h1.43v-1.43ZM17.156 44.818h-1.43v1.43h1.43v-1.43ZM20.011 44.818h-1.43v1.43h1.43v-1.43ZM22.869 44.818h-1.43v1.43h1.43v-1.43ZM25.728 44.818h-1.43v1.43h1.43v-1.43ZM28.586 44.818h-1.43v1.43h1.43v-1.43ZM31.441 44.818h-1.43v1.43h1.43v-1.43ZM34.298 44.818h-1.43v1.43h1.43v-1.43ZM37.154 44.818h-1.43v1.43h1.43v-1.43ZM40.011 44.818h-1.43v1.43h1.43v-1.43ZM42.872 44.818h-1.43v1.43h1.43v-1.43ZM45.728 44.818h-1.43v1.43h1.43v-1.43ZM48.584 44.818h-1.43v1.43h1.43v-1.43ZM51.44 44.818h-1.43v1.43h1.43v-1.43ZM54.297 44.818h-1.43v1.43h1.43v-1.43ZM57.154 44.818h-1.43v1.43h1.43v-1.43ZM60.01 44.818h-1.43v1.43h1.43v-1.43ZM62.87 44.818h-1.43v1.43h1.43v-1.43ZM65.727 44.818h-1.43v1.43h1.43v-1.43ZM68.583 44.818h-1.43v1.43h1.43v-1.43ZM71.44 44.818h-1.43v1.43h1.43v-1.43ZM74.296 44.818h-1.43v1.43h1.43v-1.43Z" fill="#000"/><path d="M75.726 44.818h-1.43v1.43h1.43v-1.43ZM78.583 44.818h-1.43v1.43h1.43v-1.43ZM81.439 44.818h-1.43v1.43h1.43v-1.43ZM82.87 44.818h-1.43v1.43h1.43v-1.43ZM85.726 44.818h-1.43v1.43h1.43v-1.43ZM88.582 44.818h-1.43v1.43h1.43v-1.43ZM90.013 44.818h-1.43v1.43h1.43v-1.43ZM92.868 44.818h-1.43v1.43h1.43v-1.43Z" fill="#000"/><path d="M94.295 44.818h-1.43v1.43h1.43v-1.43ZM4.3 46.244H2.87v1.43H4.3v-1.43ZM7.156 46.244h-1.43v1.43h1.43v-1.43ZM10.012 46.244h-1.43v1.43h1.43v-1.43ZM12.869 46.244h-1.43v1.43h1.43v-1.43ZM15.73 46.244h-1.431v1.43h1.43v-1.43ZM18.586 46.244h-1.43v1.43h1.43v-1.43ZM21.442 46.244h-1.43v1.43h1.43v-1.43ZM24.299 46.244h-1.43v1.43h1.43v-1.43ZM27.155 46.244h-1.43v1.43h1.43v-1.43ZM30.011 46.244h-1.43v1.43h1.43v-1.43ZM32.873 46.244h-1.43v1.43h1.43v-1.43ZM35.728 46.244h-1.43v1.43h1.43v-1.43ZM38.586 46.244h-1.43v1.43h1.43v-1.43ZM41.44 46.244h-1.43v1.43h1.43v-1.43ZM44.298 46.244h-1.43v1.43h1.43v-1.43ZM47.154 46.244h-1.43v1.43h1.43v-1.43ZM50.01 46.244h-1.43v1.43h1.43v-1.43ZM52.87 46.244h-1.43v1.43h1.43v-1.43ZM55.728 46.244h-1.43v1.43h1.43v-1.43ZM58.583 46.244h-1.43v1.43h1.43v-1.43ZM61.44 46.244h-1.43v1.43h1.43v-1.43ZM64.296 46.244h-1.43v1.43h1.43v-1.43ZM67.154 46.244h-1.43v1.43h1.43v-1.43Z" fill="#000"/><path d="M68.583 46.244h-1.43v1.43h1.43v-1.43Z" fill="#000"/><path d="M70.01 46.244h-1.431v1.43h1.43v-1.43Z" fill="#000"/><path d="M71.44 46.244h-1.43v1.43h1.43v-1.43ZM72.87 46.244h-1.43v1.43h1.43v-1.43ZM75.726 46.244h-1.43v1.43h1.43v-1.43Z" fill="#000"/><path d="M77.153 46.244h-1.43v1.43h1.43v-1.43ZM80.013 46.244h-1.43v1.43h1.43v-1.43ZM82.87 46.244h-1.43v1.43h1.43v-1.43Z" fill="#000"/><path d="M84.296 46.244h-1.43v1.43h1.43v-1.43ZM87.152 46.244h-1.43v1.43h1.43v-1.43ZM90.013 46.244h-1.43v1.43h1.43v-1.43Z" fill="#000"/><path d="M91.439 46.244h-1.43v1.43h1.43v-1.43ZM94.295 46.244h-1.43v1.43h1.43v-1.43ZM95.726 46.244h-1.43v1.43h1.43v-1.43Z" fill="#000"/><path d="M97.151 46.244h-1.43v1.43h1.43v-1.43ZM2.869 47.674h-1.43v1.43h1.43v-1.43ZM5.73 47.674H4.3v1.43h1.43v-1.43ZM8.586 47.674h-1.43v1.43h1.43v-1.43ZM11.443 47.674h-1.43v1.43h1.43v-1.43ZM14.299 47.674h-1.43v1.43h1.43v-1.43ZM17.156 47.674h-1.43v1.43h1.43v-1.43ZM20.011 47.674h-1.43v1.43h1.43v-1.43ZM22.869 47.674h-1.43v1.43h1.43v-1.43ZM25.728 47.674h-1.43v1.43h1.43v-1.43ZM28.586 47.674h-1.43v1.43h1.43v-1.43ZM31.441 47.674h-1.43v1.43h1.43v-1.43ZM34.298 47.674h-1.43v1.43h1.43v-1.43ZM37.154 47.674h-1.43v1.43h1.43v-1.43ZM40.011 47.674h-1.43v1.43h1.43v-1.43ZM42.872 47.674h-1.43v1.43h1.43v-1.43ZM45.728 47.674h-1.43v1.43h1.43v-1.43ZM48.584 47.674h-1.43v1.43h1.43v-1.43ZM51.44 47.674h-1.43v1.43h1.43v-1.43ZM54.297 47.674h-1.43v1.43h1.43v-1.43ZM57.154 47.674h-1.43v1.43h1.43v-1.43ZM60.01 47.674h-1.43v1.43h1.43v-1.43ZM62.87 47.674h-1.43v1.43h1.43v-1.43ZM65.727 47.674h-1.43v1.43h1.43v-1.43ZM68.583 47.674h-1.43v1.43h1.43v-1.43ZM71.44 47.674h-1.43v1.43h1.43v-1.43ZM74.296 47.674h-1.43v1.43h1.43v-1.43ZM77.153 47.674h-1.43v1.43h1.43v-1.43Z" fill="#000"/><path d="M78.583 47.674h-1.43v1.43h1.43v-1.43ZM80.013 47.674h-1.43v1.43h1.43v-1.43Z" fill="#000"/><path d="M81.439 47.674h-1.43v1.43h1.43v-1.43ZM84.296 47.674h-1.43v1.43h1.43v-1.43Z" fill="#000"/><path d="M85.726 47.674h-1.43v1.43h1.43v-1.43Z" fill="#000"/><path d="M87.152 47.674h-1.43v1.43h1.43v-1.43Z" fill="#000"/><path d="M88.582 47.674h-1.43v1.43h1.43v-1.43ZM91.439 47.674h-1.43v1.43h1.43v-1.43Z" fill="#000"/><path d="M92.868 47.674h-1.43v1.43h1.43v-1.43ZM95.726 47.674h-1.43v1.43h1.43v-1.43ZM98.581 47.674h-1.43v1.43h1.43v-1.43ZM4.3 49.1H2.87v1.43H4.3V49.1ZM7.156 49.1h-1.43v1.43h1.43V49.1ZM10.012 49.1h-1.43v1.43h1.43V49.1ZM12.869 49.1h-1.43v1.43h1.43V49.1ZM15.73 49.1h-1.431v1.43h1.43V49.1ZM18.586 49.1h-1.43v1.43h1.43V49.1ZM21.442 49.1h-1.43v1.43h1.43V49.1ZM24.299 49.1h-1.43v1.43h1.43V49.1ZM27.155 49.1h-1.43v1.43h1.43V49.1ZM30.011 49.1h-1.43v1.43h1.43V49.1ZM32.873 49.1h-1.43v1.43h1.43V49.1ZM35.728 49.1h-1.43v1.43h1.43V49.1ZM38.586 49.1h-1.43v1.43h1.43V49.1ZM41.44 49.1h-1.43v1.43h1.43V49.1ZM44.298 49.1h-1.43v1.43h1.43V49.1ZM47.154 49.1h-1.43v1.43h1.43V49.1ZM52.87 49.1h-1.43v1.43h1.43V49.1Z" fill="#000"/><path d="M54.297 49.1h-1.43v1.43h1.43V49.1ZM55.728 49.1h-1.43v1.43h1.43V49.1Z" fill="#000"/><path d="M57.154 49.1h-1.43v1.43h1.43V49.1Z" fill="#000"/><path d="M58.583 49.1h-1.43v1.43h1.43V49.1Z" fill="#000"/><path d="M60.01 49.1h-1.43v1.43h1.43V49.1ZM61.44 49.1h-1.43v1.43h1.43V49.1ZM62.87 49.1h-1.43v1.43h1.43V49.1Z" fill="#000"/><path d="M64.296 49.1h-1.43v1.43h1.43V49.1ZM65.727 49.1h-1.43v1.43h1.43V49.1Z" fill="#000"/><path d="M67.154 49.1h-1.43v1.43h1.43V49.1Z" fill="#000"/><path d="M68.583 49.1h-1.43v1.43h1.43V49.1Z" fill="#000"/><path d="M70.01 49.1h-1.431v1.43h1.43V49.1Z" fill="#000"/><path d="M71.44 49.1h-1.43v1.43h1.43V49.1ZM72.87 49.1h-1.43v1.43h1.43V49.1Z" fill="#000"/><path d="M74.296 49.1h-1.43v1.43h1.43V49.1Z" fill="#000"/><path d="M75.726 49.1h-1.43v1.43h1.43V49.1ZM78.583 49.1h-1.43v1.43h1.43V49.1ZM81.439 49.1h-1.43v1.43h1.43V49.1ZM82.87 49.1h-1.43v1.43h1.43V49.1ZM85.726 49.1h-1.43v1.43h1.43V49.1ZM88.582 49.1h-1.43v1.43h1.43V49.1ZM90.013 49.1h-1.43v1.43h1.43V49.1ZM92.868 49.1h-1.43v1.43h1.43V49.1Z" fill="#000"/><path d="M94.295 49.1h-1.43v1.43h1.43V49.1ZM95.726 49.1h-1.43v1.43h1.43V49.1Z" fill="#000"/><path d="M97.151 49.1h-1.43v1.43h1.43V49.1ZM100.013 49.1h-1.43v1.43h1.43V49.1ZM1.443 50.53H.013v1.431h1.43v-1.43ZM5.73 50.53H4.3v1.431h1.43v-1.43ZM8.586 50.53h-1.43v1.431h1.43v-1.43ZM11.443 50.53h-1.43v1.431h1.43v-1.43ZM14.299 50.53h-1.43v1.431h1.43v-1.43ZM17.156 50.53h-1.43v1.431h1.43v-1.43ZM20.011 50.53h-1.43v1.431h1.43v-1.43ZM22.869 50.53h-1.43v1.431h1.43v-1.43ZM25.728 50.53h-1.43v1.431h1.43v-1.43ZM28.586 50.53h-1.43v1.431h1.43v-1.43ZM31.441 50.53h-1.43v1.431h1.43v-1.43ZM34.298 50.53h-1.43v1.431h1.43v-1.43ZM37.154 50.53h-1.43v1.431h1.43v-1.43ZM40.011 50.53h-1.43v1.431h1.43v-1.43ZM42.872 50.53h-1.43v1.431h1.43v-1.43ZM45.728 50.53h-1.43v1.431h1.43v-1.43ZM48.584 50.53h-1.43v1.431h1.43v-1.43ZM54.297 50.53h-1.43v1.431h1.43v-1.43ZM57.154 50.53h-1.43v1.431h1.43v-1.43ZM60.01 50.53h-1.43v1.431h1.43v-1.43ZM62.87 50.53h-1.43v1.431h1.43v-1.43ZM65.727 50.53h-1.43v1.431h1.43v-1.43ZM68.583 50.53h-1.43v1.431h1.43v-1.43ZM71.44 50.53h-1.43v1.431h1.43v-1.43ZM74.296 50.53h-1.43v1.431h1.43v-1.43ZM77.153 50.53h-1.43v1.431h1.43v-1.43Z" fill="#000"/><path d="M78.583 50.53h-1.43v1.431h1.43v-1.43ZM80.013 50.53h-1.43v1.431h1.43v-1.43ZM82.87 50.53h-1.43v1.431h1.43v-1.43Z" fill="#000"/><path d="M84.296 50.53h-1.43v1.431h1.43v-1.43Z" fill="#000"/><path d="M85.726 50.53h-1.43v1.431h1.43v-1.43Z" fill="#000"/><path d="M87.152 50.53h-1.43v1.431h1.43v-1.43ZM90.013 50.53h-1.43v1.431h1.43v-1.43Z" fill="#000"/><path d="M91.439 50.53h-1.43v1.431h1.43v-1.43ZM94.295 50.53h-1.43v1.431h1.43v-1.43ZM97.151 50.53h-1.43v1.431h1.43v-1.43ZM98.581 50.53h-1.43v1.431h1.43v-1.43ZM2.869 51.961h-1.43v1.43h1.43v-1.43ZM7.156 51.961h-1.43v1.43h1.43v-1.43ZM10.012 51.961h-1.43v1.43h1.43v-1.43ZM12.869 51.961h-1.43v1.43h1.43v-1.43ZM15.73 51.961h-1.431v1.43h1.43v-1.43ZM18.586 51.961h-1.43v1.43h1.43v-1.43ZM21.442 51.961h-1.43v1.43h1.43v-1.43ZM24.299 51.961h-1.43v1.43h1.43v-1.43ZM27.155 51.961h-1.43v1.43h1.43v-1.43ZM30.011 51.961h-1.43v1.43h1.43v-1.43ZM32.873 51.961h-1.43v1.43h1.43v-1.43ZM35.728 51.961h-1.43v1.43h1.43v-1.43ZM38.586 51.961h-1.43v1.43h1.43v-1.43ZM41.44 51.961h-1.43v1.43h1.43v-1.43ZM44.298 51.961h-1.43v1.43h1.43v-1.43ZM51.44 51.961h-1.43v1.43h1.43v-1.43ZM52.87 51.961h-1.43v1.43h1.43v-1.43Z" fill="#000"/><path d="M54.297 51.961h-1.43v1.43h1.43v-1.43ZM55.728 51.961h-1.43v1.43h1.43v-1.43Z" fill="#000"/><path d="M57.154 51.961h-1.43v1.43h1.43v-1.43Z" fill="#000"/><path d="M58.583 51.961h-1.43v1.43h1.43v-1.43Z" fill="#000"/><path d="M60.01 51.961h-1.43v1.43h1.43v-1.43ZM61.44 51.961h-1.43v1.43h1.43v-1.43ZM62.87 51.961h-1.43v1.43h1.43v-1.43Z" fill="#000"/><path d="M64.296 51.961h-1.43v1.43h1.43v-1.43ZM65.727 51.961h-1.43v1.43h1.43v-1.43Z" fill="#000"/><path d="M67.154 51.961h-1.43v1.43h1.43v-1.43Z" fill="#000"/><path d="M68.583 51.961h-1.43v1.43h1.43v-1.43Z" fill="#000"/><path d="M70.01 51.961h-1.431v1.43h1.43v-1.43Z" fill="#000"/><path d="M71.44 51.961h-1.43v1.43h1.43v-1.43ZM72.87 51.961h-1.43v1.43h1.43v-1.43Z" fill="#000"/><path d="M74.296 51.961h-1.43v1.43h1.43v-1.43Z" fill="#000"/><path d="M75.726 51.961h-1.43v1.43h1.43v-1.43ZM78.583 51.961h-1.43v1.43h1.43v-1.43ZM81.439 51.961h-1.43v1.43h1.43v-1.43ZM84.296 51.961h-1.43v1.43h1.43v-1.43ZM87.152 51.961h-1.43v1.43h1.43v-1.43Z" fill="#000"/><path d="M88.582 51.961h-1.43v1.43h1.43v-1.43ZM91.439 51.961h-1.43v1.43h1.43v-1.43Z" fill="#000"/><path d="M92.868 51.961h-1.43v1.43h1.43v-1.43Z" fill="#000"/><path d="M94.295 51.961h-1.43v1.43h1.43v-1.43ZM95.726 51.961h-1.43v1.43h1.43v-1.43ZM98.581 51.961h-1.43v1.43h1.43v-1.43ZM4.3 53.387H2.87v1.43H4.3v-1.43ZM8.586 53.387h-1.43v1.43h1.43v-1.43ZM11.443 53.387h-1.43v1.43h1.43v-1.43ZM14.299 53.387h-1.43v1.43h1.43v-1.43ZM17.156 53.387h-1.43v1.43h1.43v-1.43ZM20.011 53.387h-1.43v1.43h1.43v-1.43ZM22.869 53.387h-1.43v1.43h1.43v-1.43ZM25.728 53.387h-1.43v1.43h1.43v-1.43ZM28.586 53.387h-1.43v1.43h1.43v-1.43ZM31.441 53.387h-1.43v1.43h1.43v-1.43ZM34.298 53.387h-1.43v1.43h1.43v-1.43ZM37.154 53.387h-1.43v1.43h1.43v-1.43ZM40.011 53.387h-1.43v1.43h1.43v-1.43ZM42.872 53.387h-1.43v1.43h1.43v-1.43ZM45.728 53.387h-1.43v1.43h1.43v-1.43ZM48.584 53.387h-1.43v1.43h1.43v-1.43Z" fill="#000"/><path d="M50.01 53.387h-1.43v1.43h1.43v-1.43ZM51.44 53.387h-1.43v1.43h1.43v-1.43ZM54.297 53.387h-1.43v1.43h1.43v-1.43ZM57.154 53.387h-1.43v1.43h1.43v-1.43ZM60.01 53.387h-1.43v1.43h1.43v-1.43ZM62.87 53.387h-1.43v1.43h1.43v-1.43ZM65.727 53.387h-1.43v1.43h1.43v-1.43ZM68.583 53.387h-1.43v1.43h1.43v-1.43ZM71.44 53.387h-1.43v1.43h1.43v-1.43ZM74.296 53.387h-1.43v1.43h1.43v-1.43ZM77.153 53.387h-1.43v1.43h1.43v-1.43Z" fill="#000"/><path d="M78.583 53.387h-1.43v1.43h1.43v-1.43ZM80.013 53.387h-1.43v1.43h1.43v-1.43Z" fill="#000"/><path d="M81.439 53.387h-1.43v1.43h1.43v-1.43ZM82.87 53.387h-1.43v1.43h1.43v-1.43Z" fill="#000"/><path d="M84.296 53.387h-1.43v1.43h1.43v-1.43Z" fill="#000"/><path d="M85.726 53.387h-1.43v1.43h1.43v-1.43ZM88.582 53.387h-1.43v1.43h1.43v-1.43ZM90.013 53.387h-1.43v1.43h1.43v-1.43ZM92.868 53.387h-1.43v1.43h1.43v-1.43ZM95.726 53.387h-1.43v1.43h1.43v-1.43Z" fill="#000"/><path d="M97.151 53.387h-1.43v1.43h1.43v-1.43ZM5.73 54.818H4.3v1.43h1.43v-1.43ZM10.012 54.818h-1.43v1.43h1.43v-1.43ZM12.869 54.818h-1.43v1.43h1.43v-1.43ZM15.73 54.818h-1.431v1.43h1.43v-1.43ZM18.586 54.818h-1.43v1.43h1.43v-1.43ZM21.442 54.818h-1.43v1.43h1.43v-1.43ZM24.299 54.818h-1.43v1.43h1.43v-1.43ZM27.155 54.818h-1.43v1.43h1.43v-1.43ZM30.011 54.818h-1.43v1.43h1.43v-1.43ZM32.873 54.818h-1.43v1.43h1.43v-1.43ZM35.728 54.818h-1.43v1.43h1.43v-1.43ZM38.586 54.818h-1.43v1.43h1.43v-1.43ZM50.01 54.818h-1.43v1.43h1.43v-1.43ZM51.44 54.818h-1.43v1.43h1.43v-1.43ZM52.87 54.818h-1.43v1.43h1.43v-1.43Z" fill="#000"/><path d="M54.297 54.818h-1.43v1.43h1.43v-1.43ZM55.728 54.818h-1.43v1.43h1.43v-1.43Z" fill="#000"/><path d="M57.154 54.818h-1.43v1.43h1.43v-1.43Z" fill="#000"/><path d="M58.583 54.818h-1.43v1.43h1.43v-1.43Z" fill="#000"/><path d="M60.01 54.818h-1.43v1.43h1.43v-1.43ZM61.44 54.818h-1.43v1.43h1.43v-1.43ZM62.87 54.818h-1.43v1.43h1.43v-1.43Z" fill="#000"/><path d="M64.296 54.818h-1.43v1.43h1.43v-1.43ZM65.727 54.818h-1.43v1.43h1.43v-1.43Z" fill="#000"/><path d="M67.154 54.818h-1.43v1.43h1.43v-1.43Z" fill="#000"/><path d="M68.583 54.818h-1.43v1.43h1.43v-1.43Z" fill="#000"/><path d="M70.01 54.818h-1.431v1.43h1.43v-1.43Z" fill="#000"/><path d="M71.44 54.818h-1.43v1.43h1.43v-1.43ZM72.87 54.818h-1.43v1.43h1.43v-1.43Z" fill="#000"/><path d="M74.296 54.818h-1.43v1.43h1.43v-1.43Z" fill="#000"/><path d="M75.726 54.818h-1.43v1.43h1.43v-1.43ZM78.583 54.818h-1.43v1.43h1.43v-1.43ZM81.439 54.818h-1.43v1.43h1.43v-1.43ZM84.296 54.818h-1.43v1.43h1.43v-1.43ZM87.152 54.818h-1.43v1.43h1.43v-1.43ZM90.013 54.818h-1.43v1.43h1.43v-1.43Z" fill="#000"/><path d="M91.439 54.818h-1.43v1.43h1.43v-1.43Z" fill="#000"/><path d="M92.868 54.818h-1.43v1.43h1.43v-1.43Z" fill="#000"/><path d="M94.295 54.818h-1.43v1.43h1.43v-1.43ZM7.156 56.244h-1.43v1.43h1.43v-1.43ZM11.443 56.244h-1.43v1.43h1.43v-1.43ZM14.299 56.244h-1.43v1.43h1.43v-1.43ZM17.156 56.244h-1.43v1.43h1.43v-1.43ZM20.011 56.244h-1.43v1.43h1.43v-1.43ZM25.728 56.244h-1.43v1.43h1.43v-1.43ZM28.586 56.244h-1.43v1.43h1.43v-1.43ZM31.441 56.244h-1.43v1.43h1.43v-1.43ZM34.298 56.244h-1.43v1.43h1.43v-1.43ZM37.154 56.244h-1.43v1.43h1.43v-1.43ZM40.011 56.244h-1.43v1.43h1.43v-1.43ZM42.872 56.244h-1.43v1.43h1.43v-1.43ZM45.728 56.244h-1.43v1.43h1.43v-1.43ZM48.584 56.244h-1.43v1.43h1.43v-1.43ZM51.44 56.244h-1.43v1.43h1.43v-1.43ZM54.297 56.244h-1.43v1.43h1.43v-1.43ZM57.154 56.244h-1.43v1.43h1.43v-1.43ZM60.01 56.244h-1.43v1.43h1.43v-1.43ZM62.87 56.244h-1.43v1.43h1.43v-1.43ZM65.727 56.244h-1.43v1.43h1.43v-1.43ZM68.583 56.244h-1.43v1.43h1.43v-1.43ZM71.44 56.244h-1.43v1.43h1.43v-1.43ZM74.296 56.244h-1.43v1.43h1.43v-1.43ZM77.153 56.244h-1.43v1.43h1.43v-1.43Z" fill="#000"/><path d="M78.583 56.244h-1.43v1.43h1.43v-1.43ZM80.013 56.244h-1.43v1.43h1.43v-1.43Z" fill="#000"/><path d="M81.439 56.244h-1.43v1.43h1.43v-1.43ZM82.87 56.244h-1.43v1.43h1.43v-1.43Z" fill="#000"/><path d="M84.296 56.244h-1.43v1.43h1.43v-1.43Z" fill="#000"/><path d="M85.726 56.244h-1.43v1.43h1.43v-1.43Z" fill="#000"/><path d="M87.152 56.244h-1.43v1.43h1.43v-1.43Z" fill="#000"/><path d="M88.582 56.244h-1.43v1.43h1.43v-1.43ZM91.439 56.244h-1.43v1.43h1.43v-1.43ZM94.295 56.244h-1.43v1.43h1.43v-1.43ZM8.586 57.674h-1.43v1.43h1.43v-1.43ZM12.869 57.674h-1.43v1.43h1.43v-1.43ZM21.442 57.674h-1.43v1.43h1.43v-1.43ZM24.299 57.674h-1.43v1.43h1.43v-1.43ZM30.011 57.674h-1.43v1.43h1.43v-1.43ZM32.873 57.674h-1.43v1.43h1.43v-1.43ZM50.01 57.674h-1.43v1.43h1.43v-1.43ZM51.44 57.674h-1.43v1.43h1.43v-1.43ZM52.87 57.674h-1.43v1.43h1.43v-1.43Z" fill="#000"/><path d="M54.297 57.674h-1.43v1.43h1.43v-1.43ZM55.728 57.674h-1.43v1.43h1.43v-1.43Z" fill="#000"/><path d="M57.154 57.674h-1.43v1.43h1.43v-1.43Z" fill="#000"/><path d="M58.583 57.674h-1.43v1.43h1.43v-1.43Z" fill="#000"/><path d="M60.01 57.674h-1.43v1.43h1.43v-1.43ZM61.44 57.674h-1.43v1.43h1.43v-1.43ZM62.87 57.674h-1.43v1.43h1.43v-1.43Z" fill="#000"/><path d="M64.296 57.674h-1.43v1.43h1.43v-1.43ZM65.727 57.674h-1.43v1.43h1.43v-1.43Z" fill="#000"/><path d="M67.154 57.674h-1.43v1.43h1.43v-1.43Z" fill="#000"/><path d="M68.583 57.674h-1.43v1.43h1.43v-1.43Z" fill="#000"/><path d="M70.01 57.674h-1.431v1.43h1.43v-1.43Z" fill="#000"/><path d="M71.44 57.674h-1.43v1.43h1.43v-1.43ZM72.87 57.674h-1.43v1.43h1.43v-1.43Z" fill="#000"/><path d="M74.296 57.674h-1.43v1.43h1.43v-1.43Z" fill="#000"/><path d="M75.726 57.674h-1.43v1.43h1.43v-1.43ZM78.583 57.674h-1.43v1.43h1.43v-1.43ZM81.439 57.674h-1.43v1.43h1.43v-1.43ZM84.296 57.674h-1.43v1.43h1.43v-1.43ZM87.152 57.674h-1.43v1.43h1.43v-1.43Z" fill="#000"/><path d="M88.582 57.674h-1.43v1.43h1.43v-1.43ZM90.013 57.674h-1.43v1.43h1.43v-1.43Z" fill="#000"/><path d="M91.439 57.674h-1.43v1.43h1.43v-1.43Z" fill="#000"/><path d="M92.868 57.674h-1.43v1.43h1.43v-1.43ZM10.012 59.1h-1.43v1.43h1.43V59.1ZM14.299 59.1h-1.43v1.43h1.43V59.1ZM17.156 59.1h-1.43v1.43h1.43V59.1ZM20.011 59.1h-1.43v1.43h1.43V59.1ZM25.728 59.1h-1.43v1.43h1.43V59.1ZM28.586 59.1h-1.43v1.43h1.43V59.1ZM34.298 59.1h-1.43v1.43h1.43V59.1ZM37.154 59.1h-1.43v1.43h1.43V59.1ZM40.011 59.1h-1.43v1.43h1.43V59.1ZM42.872 59.1h-1.43v1.43h1.43V59.1ZM45.728 59.1h-1.43v1.43h1.43V59.1ZM50.01 59.1h-1.43v1.43h1.43V59.1ZM52.87 59.1h-1.43v1.43h1.43V59.1ZM55.728 59.1h-1.43v1.43h1.43V59.1ZM58.583 59.1h-1.43v1.43h1.43V59.1ZM61.44 59.1h-1.43v1.43h1.43V59.1ZM64.296 59.1h-1.43v1.43h1.43V59.1ZM67.154 59.1h-1.43v1.43h1.43V59.1ZM70.01 59.1h-1.431v1.43h1.43V59.1ZM72.87 59.1h-1.43v1.43h1.43V59.1ZM75.726 59.1h-1.43v1.43h1.43V59.1Z" fill="#000"/><path d="M77.153 59.1h-1.43v1.43h1.43V59.1Z" fill="#000"/><path d="M78.583 59.1h-1.43v1.43h1.43V59.1ZM80.013 59.1h-1.43v1.43h1.43V59.1Z" fill="#000"/><path d="M81.439 59.1h-1.43v1.43h1.43V59.1ZM82.87 59.1h-1.43v1.43h1.43V59.1Z" fill="#000"/><path d="M84.296 59.1h-1.43v1.43h1.43V59.1Z" fill="#000"/><path d="M85.726 59.1h-1.43v1.43h1.43V59.1ZM88.582 59.1h-1.43v1.43h1.43V59.1ZM91.439 59.1h-1.43v1.43h1.43V59.1ZM11.443 60.53h-1.43v1.43h1.43v-1.43ZM21.442 60.53h-1.43v1.43h1.43v-1.43ZM24.299 60.53h-1.43v1.43h1.43v-1.43ZM30.011 60.53h-1.43v1.43h1.43v-1.43ZM32.873 60.53h-1.43v1.43h1.43v-1.43ZM47.154 60.53h-1.43v1.43h1.43v-1.43ZM50.01 60.53h-1.43v1.43h1.43v-1.43ZM51.44 60.53h-1.43v1.43h1.43v-1.43ZM52.87 60.53h-1.43v1.43h1.43v-1.43Z" fill="#000"/><path d="M54.297 60.53h-1.43v1.43h1.43v-1.43ZM55.728 60.53h-1.43v1.43h1.43v-1.43Z" fill="#000"/><path d="M57.154 60.53h-1.43v1.43h1.43v-1.43Z" fill="#000"/><path d="M58.583 60.53h-1.43v1.43h1.43v-1.43Z" fill="#000"/><path d="M60.01 60.53h-1.43v1.43h1.43v-1.43ZM61.44 60.53h-1.43v1.43h1.43v-1.43ZM62.87 60.53h-1.43v1.43h1.43v-1.43Z" fill="#000"/><path d="M64.296 60.53h-1.43v1.43h1.43v-1.43ZM65.727 60.53h-1.43v1.43h1.43v-1.43Z" fill="#000"/><path d="M67.154 60.53h-1.43v1.43h1.43v-1.43Z" fill="#000"/><path d="M68.583 60.53h-1.43v1.43h1.43v-1.43Z" fill="#000"/><path d="M70.01 60.53h-1.431v1.43h1.43v-1.43Z" fill="#000"/><path d="M71.44 60.53h-1.43v1.43h1.43v-1.43ZM72.87 60.53h-1.43v1.43h1.43v-1.43Z" fill="#000"/><path d="M74.296 60.53h-1.43v1.43h1.43v-1.43ZM77.153 60.53h-1.43v1.43h1.43v-1.43ZM80.013 60.53h-1.43v1.43h1.43v-1.43ZM82.87 60.53h-1.43v1.43h1.43v-1.43ZM85.726 60.53h-1.43v1.43h1.43v-1.43Z" fill="#000"/><path d="M87.152 60.53h-1.43v1.43h1.43v-1.43Z" fill="#000"/><path d="M88.582 60.53h-1.43v1.43h1.43v-1.43ZM90.013 60.53h-1.43v1.43h1.43v-1.43ZM12.869 61.96h-1.43v1.431h1.43v-1.43ZM15.73 61.96h-1.431v1.431h1.43v-1.43ZM18.586 61.96h-1.43v1.431h1.43v-1.43ZM25.728 61.96h-1.43v1.431h1.43v-1.43ZM28.586 61.96h-1.43v1.431h1.43v-1.43ZM34.298 61.96h-1.43v1.431h1.43v-1.43ZM37.154 61.96h-1.43v1.431h1.43v-1.43ZM40.011 61.96h-1.43v1.431h1.43v-1.43ZM42.872 61.96h-1.43v1.431h1.43v-1.43ZM50.01 61.96h-1.43v1.431h1.43v-1.43ZM52.87 61.96h-1.43v1.431h1.43v-1.43ZM55.728 61.96h-1.43v1.431h1.43v-1.43ZM58.583 61.96h-1.43v1.431h1.43v-1.43ZM61.44 61.96h-1.43v1.431h1.43v-1.43ZM64.296 61.96h-1.43v1.431h1.43v-1.43ZM67.154 61.96h-1.43v1.431h1.43v-1.43ZM70.01 61.96h-1.431v1.431h1.43v-1.43ZM72.87 61.96h-1.43v1.431h1.43v-1.43Z" fill="#000"/><path d="M74.296 61.96h-1.43v1.431h1.43v-1.43Z" fill="#000"/><path d="M75.726 61.96h-1.43v1.431h1.43v-1.43Z" fill="#000"/><path d="M77.153 61.96h-1.43v1.431h1.43v-1.43Z" fill="#000"/><path d="M78.583 61.96h-1.43v1.431h1.43v-1.43ZM80.013 61.96h-1.43v1.431h1.43v-1.43Z" fill="#000"/><path d="M81.439 61.96h-1.43v1.431h1.43v-1.43ZM82.87 61.96h-1.43v1.431h1.43v-1.43Z" fill="#000"/><path d="M84.296 61.96h-1.43v1.431h1.43v-1.43ZM87.152 61.96h-1.43v1.431h1.43v-1.43ZM20.011 63.387h-1.43v1.43h1.43v-1.43ZM22.869 63.387h-1.43v1.43h1.43v-1.43ZM30.011 63.387h-1.43v1.43h1.43v-1.43ZM32.873 63.387h-1.43v1.43h1.43v-1.43ZM44.298 63.387h-1.43v1.43h1.43v-1.43ZM47.154 63.387h-1.43v1.43h1.43v-1.43ZM50.01 63.387h-1.43v1.43h1.43v-1.43ZM51.44 63.387h-1.43v1.43h1.43v-1.43ZM52.87 63.387h-1.43v1.43h1.43v-1.43Z" fill="#000"/><path d="M54.297 63.387h-1.43v1.43h1.43v-1.43ZM55.728 63.387h-1.43v1.43h1.43v-1.43Z" fill="#000"/><path d="M57.154 63.387h-1.43v1.43h1.43v-1.43Z" fill="#000"/><path d="M58.583 63.387h-1.43v1.43h1.43v-1.43Z" fill="#000"/><path d="M60.01 63.387h-1.43v1.43h1.43v-1.43ZM61.44 63.387h-1.43v1.43h1.43v-1.43ZM62.87 63.387h-1.43v1.43h1.43v-1.43Z" fill="#000"/><path d="M64.296 63.387h-1.43v1.43h1.43v-1.43ZM65.727 63.387h-1.43v1.43h1.43v-1.43Z" fill="#000"/><path d="M67.154 63.387h-1.43v1.43h1.43v-1.43Z" fill="#000"/><path d="M68.583 63.387h-1.43v1.43h1.43v-1.43Z" fill="#000"/><path d="M70.01 63.387h-1.431v1.43h1.43v-1.43Z" fill="#000"/><path d="M71.44 63.387h-1.43v1.43h1.43v-1.43ZM74.296 63.387h-1.43v1.43h1.43v-1.43ZM77.153 63.387h-1.43v1.43h1.43v-1.43ZM80.013 63.387h-1.43v1.43h1.43v-1.43ZM82.87 63.387h-1.43v1.43h1.43v-1.43Z" fill="#000"/><path d="M84.296 63.387h-1.43v1.43h1.43v-1.43Z" fill="#000"/><path d="M85.726 63.387h-1.43v1.43h1.43v-1.43Z" fill="#000"/><path d="M87.152 63.387h-1.43v1.43h1.43v-1.43ZM15.73 64.817h-1.431v1.43h1.43v-1.43ZM18.586 64.817h-1.43v1.43h1.43v-1.43ZM24.299 64.817h-1.43v1.43h1.43v-1.43ZM27.155 64.817h-1.43v1.43h1.43v-1.43ZM34.298 64.817h-1.43v1.43h1.43v-1.43ZM37.154 64.817h-1.43v1.43h1.43v-1.43ZM40.011 64.817h-1.43v1.43h1.43v-1.43ZM50.01 64.817h-1.43v1.43h1.43v-1.43ZM52.87 64.817h-1.43v1.43h1.43v-1.43ZM55.728 64.817h-1.43v1.43h1.43v-1.43ZM58.583 64.817h-1.43v1.43h1.43v-1.43ZM61.44 64.817h-1.43v1.43h1.43v-1.43ZM64.296 64.817h-1.43v1.43h1.43v-1.43ZM67.154 64.817h-1.43v1.43h1.43v-1.43ZM70.01 64.817h-1.431v1.43h1.43v-1.43Z" fill="#000"/><path d="M71.44 64.817h-1.43v1.43h1.43v-1.43ZM72.87 64.817h-1.43v1.43h1.43v-1.43Z" fill="#000"/><path d="M74.296 64.817h-1.43v1.43h1.43v-1.43Z" fill="#000"/><path d="M75.726 64.817h-1.43v1.43h1.43v-1.43Z" fill="#000"/><path d="M77.153 64.817h-1.43v1.43h1.43v-1.43Z" fill="#000"/><path d="M78.583 64.817h-1.43v1.43h1.43v-1.43ZM80.013 64.817h-1.43v1.43h1.43v-1.43Z" fill="#000"/><path d="M81.439 64.817h-1.43v1.43h1.43v-1.43ZM84.296 64.817h-1.43v1.43h1.43v-1.43ZM20.011 66.243h-1.43v1.43h1.43v-1.43ZM28.586 66.243h-1.43v1.43h1.43v-1.43ZM31.441 66.243h-1.43v1.43h1.43v-1.43ZM41.44 66.243h-1.43v1.43h1.43v-1.43ZM44.298 66.243h-1.43v1.43h1.43v-1.43ZM47.154 66.243h-1.43v1.43h1.43v-1.43ZM50.01 66.243h-1.43v1.43h1.43v-1.43ZM51.44 66.243h-1.43v1.43h1.43v-1.43ZM52.87 66.243h-1.43v1.43h1.43v-1.43Z" fill="#000"/><path d="M54.297 66.243h-1.43v1.43h1.43v-1.43ZM55.728 66.243h-1.43v1.43h1.43v-1.43Z" fill="#000"/><path d="M57.154 66.243h-1.43v1.43h1.43v-1.43Z" fill="#000"/><path d="M58.583 66.243h-1.43v1.43h1.43v-1.43Z" fill="#000"/><path d="M60.01 66.243h-1.43v1.43h1.43v-1.43ZM61.44 66.243h-1.43v1.43h1.43v-1.43ZM62.87 66.243h-1.43v1.43h1.43v-1.43Z" fill="#000"/><path d="M64.296 66.243h-1.43v1.43h1.43v-1.43ZM65.727 66.243h-1.43v1.43h1.43v-1.43Z" fill="#000"/><path d="M67.154 66.243h-1.43v1.43h1.43v-1.43Z" fill="#000"/><path d="M68.583 66.243h-1.43v1.43h1.43v-1.43ZM71.44 66.243h-1.43v1.43h1.43v-1.43ZM74.296 66.243h-1.43v1.43h1.43v-1.43ZM77.153 66.243h-1.43v1.43h1.43v-1.43ZM80.013 66.243h-1.43v1.43h1.43v-1.43Z" fill="#000"/><path d="M81.439 66.243h-1.43v1.43h1.43v-1.43ZM82.87 66.243h-1.43v1.43h1.43v-1.43Z" fill="#000"/><path d="M84.296 66.243h-1.43v1.43h1.43v-1.43ZM21.442 67.674h-1.43v1.43h1.43v-1.43ZM24.299 67.674h-1.43v1.43h1.43v-1.43ZM32.873 67.674h-1.43v1.43h1.43v-1.43ZM35.728 67.674h-1.43v1.43h1.43v-1.43ZM38.586 67.674h-1.43v1.43h1.43v-1.43ZM50.01 67.674h-1.43v1.43h1.43v-1.43ZM52.87 67.674h-1.43v1.43h1.43v-1.43ZM55.728 67.674h-1.43v1.43h1.43v-1.43ZM58.583 67.674h-1.43v1.43h1.43v-1.43ZM61.44 67.674h-1.43v1.43h1.43v-1.43ZM64.296 67.674h-1.43v1.43h1.43v-1.43ZM67.154 67.674h-1.43v1.43h1.43v-1.43Z" fill="#000"/><path d="M68.583 67.674h-1.43v1.43h1.43v-1.43Z" fill="#000"/><path d="M70.01 67.674h-1.431v1.43h1.43v-1.43Z" fill="#000"/><path d="M71.44 67.674h-1.43v1.43h1.43v-1.43ZM72.87 67.674h-1.43v1.43h1.43v-1.43Z" fill="#000"/><path d="M74.296 67.674h-1.43v1.43h1.43v-1.43Z" fill="#000"/><path d="M75.726 67.674h-1.43v1.43h1.43v-1.43Z" fill="#000"/><path d="M77.153 67.674h-1.43v1.43h1.43v-1.43Z" fill="#000"/><path d="M78.583 67.674h-1.43v1.43h1.43v-1.43ZM81.439 67.674h-1.43v1.43h1.43v-1.43ZM25.728 69.1h-1.43v1.43h1.43V69.1ZM28.586 69.1h-1.43v1.43h1.43V69.1ZM40.011 69.1h-1.43v1.43h1.43V69.1ZM42.872 69.1h-1.43v1.43h1.43V69.1ZM45.728 69.1h-1.43v1.43h1.43V69.1ZM50.01 69.1h-1.43v1.43h1.43V69.1ZM51.44 69.1h-1.43v1.43h1.43V69.1ZM52.87 69.1h-1.43v1.43h1.43V69.1Z" fill="#000"/><path d="M54.297 69.1h-1.43v1.43h1.43V69.1ZM55.728 69.1h-1.43v1.43h1.43V69.1Z" fill="#000"/><path d="M57.154 69.1h-1.43v1.43h1.43V69.1Z" fill="#000"/><path d="M58.583 69.1h-1.43v1.43h1.43V69.1Z" fill="#000"/><path d="M60.01 69.1h-1.43v1.43h1.43V69.1ZM61.44 69.1h-1.43v1.43h1.43V69.1ZM62.87 69.1h-1.43v1.43h1.43V69.1Z" fill="#000"/><path d="M64.296 69.1h-1.43v1.43h1.43V69.1ZM65.727 69.1h-1.43v1.43h1.43V69.1ZM68.583 69.1h-1.43v1.43h1.43V69.1ZM71.44 69.1h-1.43v1.43h1.43V69.1ZM74.296 69.1h-1.43v1.43h1.43V69.1ZM77.153 69.1h-1.43v1.43h1.43V69.1Z" fill="#000"/><path d="M78.583 69.1h-1.43v1.43h1.43V69.1ZM80.013 69.1h-1.43v1.43h1.43V69.1Z" fill="#000"/><path d="M81.439 69.1h-1.43v1.43h1.43V69.1ZM21.442 70.53h-1.43v1.43h1.43v-1.43ZM30.011 70.53h-1.43v1.43h1.43v-1.43ZM32.873 70.53h-1.43v1.43h1.43v-1.43ZM35.728 70.53h-1.43v1.43h1.43v-1.43ZM47.154 70.53h-1.43v1.43h1.43v-1.43ZM50.01 70.53h-1.43v1.43h1.43v-1.43ZM51.44 70.53h-1.43v1.43h1.43v-1.43ZM54.297 70.53h-1.43v1.43h1.43v-1.43ZM57.154 70.53h-1.43v1.43h1.43v-1.43ZM60.01 70.53h-1.43v1.43h1.43v-1.43ZM62.87 70.53h-1.43v1.43h1.43v-1.43ZM65.727 70.53h-1.43v1.43h1.43v-1.43Z" fill="#000"/><path d="M67.154 70.53h-1.43v1.43h1.43v-1.43Z" fill="#000"/><path d="M68.583 70.53h-1.43v1.43h1.43v-1.43Z" fill="#000"/><path d="M70.01 70.53h-1.431v1.43h1.43v-1.43Z" fill="#000"/><path d="M71.44 70.53h-1.43v1.43h1.43v-1.43ZM72.87 70.53h-1.43v1.43h1.43v-1.43Z" fill="#000"/><path d="M74.296 70.53h-1.43v1.43h1.43v-1.43Z" fill="#000"/><path d="M75.726 70.53h-1.43v1.43h1.43v-1.43ZM78.583 70.53h-1.43v1.43h1.43v-1.43ZM24.299 71.96h-1.43v1.43h1.43v-1.43ZM27.155 71.96h-1.43v1.43h1.43v-1.43ZM37.154 71.96h-1.43v1.43h1.43v-1.43ZM40.011 71.96h-1.43v1.43h1.43v-1.43ZM42.872 71.96h-1.43v1.43h1.43v-1.43ZM50.01 71.96h-1.43v1.43h1.43v-1.43ZM51.44 71.96h-1.43v1.43h1.43v-1.43ZM52.87 71.96h-1.43v1.43h1.43v-1.43Z" fill="#000"/><path d="M54.297 71.96h-1.43v1.43h1.43v-1.43ZM55.728 71.96h-1.43v1.43h1.43v-1.43Z" fill="#000"/><path d="M57.154 71.96h-1.43v1.43h1.43v-1.43Z" fill="#000"/><path d="M58.583 71.96h-1.43v1.43h1.43v-1.43Z" fill="#000"/><path d="M60.01 71.96h-1.43v1.43h1.43v-1.43ZM61.44 71.96h-1.43v1.43h1.43v-1.43ZM62.87 71.96h-1.43v1.43h1.43v-1.43Z" fill="#000"/><path d="M64.296 71.96h-1.43v1.43h1.43v-1.43ZM65.727 71.96h-1.43v1.43h1.43v-1.43ZM68.583 71.96h-1.43v1.43h1.43v-1.43ZM71.44 71.96h-1.43v1.43h1.43v-1.43ZM74.296 71.96h-1.43v1.43h1.43v-1.43Z" fill="#000"/><path d="M75.726 71.96h-1.43v1.43h1.43v-1.43Z" fill="#000"/><path d="M77.153 71.96h-1.43v1.43h1.43v-1.43Z" fill="#000"/><path d="M78.583 71.96h-1.43v1.43h1.43v-1.43ZM28.586 73.386h-1.43v1.43h1.43v-1.43ZM31.441 73.386h-1.43v1.43h1.43v-1.43ZM34.298 73.386h-1.43v1.43h1.43v-1.43ZM44.298 73.386h-1.43v1.43h1.43v-1.43ZM47.154 73.386h-1.43v1.43h1.43v-1.43ZM50.01 73.386h-1.43v1.43h1.43v-1.43ZM51.44 73.386h-1.43v1.43h1.43v-1.43ZM54.297 73.386h-1.43v1.43h1.43v-1.43ZM57.154 73.386h-1.43v1.43h1.43v-1.43ZM60.01 73.386h-1.43v1.43h1.43v-1.43ZM62.87 73.386h-1.43v1.43h1.43v-1.43ZM65.727 73.386h-1.43v1.43h1.43v-1.43Z" fill="#000"/><path d="M67.154 73.386h-1.43v1.43h1.43v-1.43Z" fill="#000"/><path d="M68.583 73.386h-1.43v1.43h1.43v-1.43Z" fill="#000"/><path d="M70.01 73.386h-1.431v1.43h1.43v-1.43Z" fill="#000"/><path d="M71.44 73.386h-1.43v1.43h1.43v-1.43ZM72.87 73.386h-1.43v1.43h1.43v-1.43ZM75.726 73.386h-1.43v1.43h1.43v-1.43ZM25.728 74.817h-1.43v1.43h1.43v-1.43ZM35.728 74.817h-1.43v1.43h1.43v-1.43ZM38.586 74.817h-1.43v1.43h1.43v-1.43ZM41.44 74.817h-1.43v1.43h1.43v-1.43ZM50.01 74.817h-1.43v1.43h1.43v-1.43ZM51.44 74.817h-1.43v1.43h1.43v-1.43ZM52.87 74.817h-1.43v1.43h1.43v-1.43Z" fill="#000"/><path d="M54.297 74.817h-1.43v1.43h1.43v-1.43ZM55.728 74.817h-1.43v1.43h1.43v-1.43Z" fill="#000"/><path d="M57.154 74.817h-1.43v1.43h1.43v-1.43Z" fill="#000"/><path d="M58.583 74.817h-1.43v1.43h1.43v-1.43Z" fill="#000"/><path d="M60.01 74.817h-1.43v1.43h1.43v-1.43ZM61.44 74.817h-1.43v1.43h1.43v-1.43ZM62.87 74.817h-1.43v1.43h1.43v-1.43Z" fill="#000"/><path d="M64.296 74.817h-1.43v1.43h1.43v-1.43ZM65.727 74.817h-1.43v1.43h1.43v-1.43ZM68.583 74.817h-1.43v1.43h1.43v-1.43ZM71.44 74.817h-1.43v1.43h1.43v-1.43ZM72.87 74.817h-1.43v1.43h1.43v-1.43Z" fill="#000"/><path d="M74.296 74.817h-1.43v1.43h1.43v-1.43Z" fill="#000"/><path d="M75.726 74.817h-1.43v1.43h1.43v-1.43ZM28.586 76.243h-1.43v1.43h1.43v-1.43ZM31.441 76.243h-1.43v1.43h1.43v-1.43ZM42.872 76.243h-1.43v1.43h1.43v-1.43ZM45.728 76.243h-1.43v1.43h1.43v-1.43ZM50.01 76.243h-1.43v1.43h1.43v-1.43ZM51.44 76.243h-1.43v1.43h1.43v-1.43ZM54.297 76.243h-1.43v1.43h1.43v-1.43ZM57.154 76.243h-1.43v1.43h1.43v-1.43ZM60.01 76.243h-1.43v1.43h1.43v-1.43ZM62.87 76.243h-1.43v1.43h1.43v-1.43ZM65.727 76.243h-1.43v1.43h1.43v-1.43Z" fill="#000"/><path d="M67.154 76.243h-1.43v1.43h1.43v-1.43Z" fill="#000"/><path d="M68.583 76.243h-1.43v1.43h1.43v-1.43Z" fill="#000"/><path d="M70.01 76.243h-1.431v1.43h1.43v-1.43ZM72.87 76.243h-1.43v1.43h1.43v-1.43ZM32.873 77.673h-1.43v1.43h1.43v-1.43ZM35.728 77.673h-1.43v1.43h1.43v-1.43ZM38.586 77.673h-1.43v1.43h1.43v-1.43ZM47.154 77.673h-1.43v1.43h1.43v-1.43ZM50.01 77.673h-1.43v1.43h1.43v-1.43ZM51.44 77.673h-1.43v1.43h1.43v-1.43ZM52.87 77.673h-1.43v1.43h1.43v-1.43Z" fill="#000"/><path d="M54.297 77.673h-1.43v1.43h1.43v-1.43ZM55.728 77.673h-1.43v1.43h1.43v-1.43Z" fill="#000"/><path d="M57.154 77.673h-1.43v1.43h1.43v-1.43Z" fill="#000"/><path d="M58.583 77.673h-1.43v1.43h1.43v-1.43Z" fill="#000"/><path d="M60.01 77.673h-1.43v1.43h1.43v-1.43ZM61.44 77.673h-1.43v1.43h1.43v-1.43ZM62.87 77.673h-1.43v1.43h1.43v-1.43Z" fill="#000"/><path d="M64.296 77.673h-1.43v1.43h1.43v-1.43ZM65.727 77.673h-1.43v1.43h1.43v-1.43ZM68.583 77.673h-1.43v1.43h1.43v-1.43Z" fill="#000"/><path d="M70.01 77.673h-1.431v1.43h1.43v-1.43Z" fill="#000"/><path d="M71.44 77.673h-1.43v1.43h1.43v-1.43ZM72.87 77.673h-1.43v1.43h1.43v-1.43ZM40.011 79.103h-1.43v1.43h1.43v-1.43ZM42.872 79.103h-1.43v1.43h1.43v-1.43ZM50.01 79.103h-1.43v1.43h1.43v-1.43ZM51.44 79.103h-1.43v1.43h1.43v-1.43ZM54.297 79.103h-1.43v1.43h1.43v-1.43ZM57.154 79.103h-1.43v1.43h1.43v-1.43ZM60.01 79.103h-1.43v1.43h1.43v-1.43ZM62.87 79.103h-1.43v1.43h1.43v-1.43ZM65.727 79.103h-1.43v1.43h1.43v-1.43Z" fill="#000"/><path d="M67.154 79.103h-1.43v1.43h1.43v-1.43Z" fill="#000"/><path d="M68.583 79.103h-1.43v1.43h1.43v-1.43ZM71.44 79.103h-1.43v1.43h1.43v-1.43ZM32.873 80.53h-1.43v1.43h1.43v-1.43ZM35.728 80.53h-1.43v1.43h1.43v-1.43ZM44.298 80.53h-1.43v1.43h1.43v-1.43ZM47.154 80.53h-1.43v1.43h1.43v-1.43ZM50.01 80.53h-1.43v1.43h1.43v-1.43ZM51.44 80.53h-1.43v1.43h1.43v-1.43ZM52.87 80.53h-1.43v1.43h1.43v-1.43Z" fill="#000"/><path d="M54.297 80.53h-1.43v1.43h1.43v-1.43ZM55.728 80.53h-1.43v1.43h1.43v-1.43Z" fill="#000"/><path d="M57.154 80.53h-1.43v1.43h1.43v-1.43Z" fill="#000"/><path d="M58.583 80.53h-1.43v1.43h1.43v-1.43Z" fill="#000"/><path d="M60.01 80.53h-1.43v1.43h1.43v-1.43ZM61.44 80.53h-1.43v1.43h1.43v-1.43ZM62.87 80.53h-1.43v1.43h1.43v-1.43Z" fill="#000"/><path d="M64.296 80.53h-1.43v1.43h1.43v-1.43ZM65.727 80.53h-1.43v1.43h1.43v-1.43ZM68.583 80.53h-1.43v1.43h1.43v-1.43Z" fill="#000"/><path d="M70.01 80.53h-1.431v1.43h1.43v-1.43ZM37.154 81.96h-1.43v1.43h1.43v-1.43ZM40.011 81.96h-1.43v1.43h1.43v-1.43ZM50.01 81.96h-1.43v1.43h1.43v-1.43ZM51.44 81.96h-1.43v1.43h1.43v-1.43ZM52.87 81.96h-1.43v1.43h1.43v-1.43ZM55.728 81.96h-1.43v1.43h1.43v-1.43ZM58.583 81.96h-1.43v1.43h1.43v-1.43ZM61.44 81.96h-1.43v1.43h1.43v-1.43ZM64.296 81.96h-1.43v1.43h1.43v-1.43ZM65.727 81.96h-1.43v1.43h1.43v-1.43Z" fill="#000"/><path d="M67.154 81.96h-1.43v1.43h1.43v-1.43Z" fill="#000"/><path d="M68.583 81.96h-1.43v1.43h1.43v-1.43ZM41.44 83.386h-1.43v1.43h1.43v-1.43ZM44.298 83.386h-1.43v1.43h1.43v-1.43ZM47.154 83.386h-1.43v1.43h1.43v-1.43ZM50.01 83.386h-1.43v1.43h1.43v-1.43ZM51.44 83.386h-1.43v1.43h1.43v-1.43ZM52.87 83.386h-1.43v1.43h1.43v-1.43Z" fill="#000"/><path d="M54.297 83.386h-1.43v1.43h1.43v-1.43ZM55.728 83.386h-1.43v1.43h1.43v-1.43Z" fill="#000"/><path d="M57.154 83.386h-1.43v1.43h1.43v-1.43Z" fill="#000"/><path d="M58.583 83.386h-1.43v1.43h1.43v-1.43Z" fill="#000"/><path d="M60.01 83.386h-1.43v1.43h1.43v-1.43ZM61.44 83.386h-1.43v1.43h1.43v-1.43ZM62.87 83.386h-1.43v1.43h1.43v-1.43Z" fill="#000"/><path d="M64.296 83.386h-1.43v1.43h1.43v-1.43ZM67.154 83.386h-1.43v1.43h1.43v-1.43ZM37.154 84.816h-1.43v1.43h1.43v-1.43ZM50.01 84.816h-1.43v1.43h1.43v-1.43ZM51.44 84.816h-1.43v1.43h1.43v-1.43ZM52.87 84.816h-1.43v1.43h1.43v-1.43ZM55.728 84.816h-1.43v1.43h1.43v-1.43ZM58.583 84.816h-1.43v1.43h1.43v-1.43ZM61.44 84.816h-1.43v1.43h1.43v-1.43ZM64.296 84.816h-1.43v1.43h1.43v-1.43ZM65.727 84.816h-1.43v1.43h1.43v-1.43ZM38.586 86.242h-1.43v1.43h1.43v-1.43ZM41.44 86.242h-1.43v1.43h1.43v-1.43ZM44.298 86.242h-1.43v1.43h1.43v-1.43ZM47.154 86.243h-1.43v1.43h1.43v-1.43Z" fill="#000"/><path d="M50.01 86.243h-1.43v1.43h1.43v-1.43ZM51.44 86.243h-1.43v1.43h1.43v-1.43ZM52.87 86.242h-1.43v1.43h1.43v-1.43Z" fill="#000"/><path d="M54.297 86.243h-1.43v1.43h1.43v-1.43ZM55.728 86.242h-1.43v1.43h1.43v-1.43Z" fill="#000"/><path d="M57.154 86.243h-1.43v1.43h1.43v-1.43Z" fill="#000"/><path d="M58.583 86.242h-1.43v1.43h1.43v-1.43Z" fill="#000"/><path d="M60.01 86.243h-1.43v1.43h1.43v-1.43ZM61.44 86.242h-1.43v1.43h1.43v-1.43ZM62.87 86.243h-1.43v1.43h1.43v-1.43Z" fill="#000"/><path d="M64.296 86.242h-1.43v1.43h1.43v-1.43ZM50.01 87.673h-1.43v1.43h1.43v-1.43ZM51.44 87.673h-1.43v1.43h1.43v-1.43ZM52.87 87.673h-1.43v1.43h1.43v-1.43Z" fill="#000"/><path d="M54.297 87.673h-1.43v1.43h1.43v-1.43ZM57.154 87.673h-1.43v1.43h1.43v-1.43ZM60.01 87.673h-1.43v1.43h1.43v-1.43ZM62.87 87.673h-1.43v1.43h1.43v-1.43ZM41.44 89.103h-1.43v1.43h1.43v-1.43ZM44.298 89.103h-1.43v1.43h1.43v-1.43ZM47.154 89.103h-1.43v1.43h1.43v-1.43ZM50.01 89.103h-1.43v1.43h1.43v-1.43ZM51.44 89.103h-1.43v1.43h1.43v-1.43Z" fill="#000"/><path d="M52.87 89.103h-1.43v1.43h1.43v-1.43Z" fill="#000"/><path d="M54.297 89.103h-1.43v1.43h1.43v-1.43ZM55.728 89.103h-1.43v1.43h1.43v-1.43Z" fill="#000"/><path d="M57.154 89.103h-1.43v1.43h1.43v-1.43Z" fill="#000"/><path d="M58.583 89.103h-1.43v1.43h1.43v-1.43Z" fill="#000"/><path d="M60.01 89.103h-1.43v1.43h1.43v-1.43ZM61.44 89.103h-1.43v1.43h1.43v-1.43ZM50.01 90.53h-1.43v1.43h1.43v-1.43ZM51.44 90.53h-1.43v1.43h1.43v-1.43ZM52.87 90.53h-1.43v1.43h1.43v-1.43Z" fill="#000"/><path d="M54.297 90.53h-1.43v1.43h1.43v-1.43ZM57.154 90.53h-1.43v1.43h1.43v-1.43ZM60.01 90.53h-1.43v1.43h1.43v-1.43ZM44.298 91.96h-1.43v1.43h1.43v-1.43ZM47.154 91.96h-1.43v1.43h1.43v-1.43ZM50.01 91.96h-1.43v1.43h1.43v-1.43ZM51.44 91.96h-1.43v1.43h1.43v-1.43Z" fill="#000"/><path d="M52.87 91.96h-1.43v1.43h1.43v-1.43Z" fill="#000"/><path d="M54.297 91.96h-1.43v1.43h1.43v-1.43ZM55.728 91.96h-1.43v1.43h1.43v-1.43Z" fill="#000"/><path d="M57.154 91.96h-1.43v1.43h1.43v-1.43Z" fill="#000"/><path d="M58.583 91.96h-1.43v1.43h1.43v-1.43ZM50.01 93.386h-1.43v1.43h1.43v-1.43ZM51.44 93.386h-1.43v1.43h1.43v-1.43ZM52.87 93.386h-1.43v1.43h1.43v-1.43Z" fill="#000"/><path d="M54.297 93.386h-1.43v1.43h1.43v-1.43ZM57.154 93.386h-1.43v1.43h1.43v-1.43ZM47.154 94.816h-1.43v1.43h1.43v-1.43ZM50.01 94.816h-1.43v1.43h1.43v-1.43ZM51.44 94.816h-1.43v1.43h1.43v-1.43ZM52.87 94.816h-1.43v1.43h1.43v-1.43Z" fill="#000"/><path d="M54.297 94.816h-1.43v1.43h1.43v-1.43ZM55.728 94.816h-1.43v1.43h1.43v-1.43ZM50.01 96.242h-1.43v1.43h1.43v-1.43ZM51.44 96.242h-1.43v1.43h1.43v-1.43Z" fill="#000"/><path d="M52.87 96.242h-1.43v1.43h1.43v-1.43Z" fill="#000"/><path d="M54.297 96.242h-1.43v1.43h1.43v-1.43ZM50.01 97.672h-1.43v1.43h1.43v-1.43ZM51.44 97.672h-1.43v1.43h1.43v-1.43Z" fill="#000"/><path d="M52.87 97.672h-1.43v1.43h1.43v-1.43ZM50.01 99.103h-1.43v1.43h1.43v-1.43ZM51.44 99.103h-1.43v1.43h1.43v-1.43Z" fill="#000"/></svg>