<svg xmlns="http://www.w3.org/2000/svg" fill="none" viewBox="0 0 210 210">
  <path fill="#000" d="M121.82 4.84a.92.92 0 1 0 0-1.84.92.92 0 0 0 0 1.84ZM72.88 8.37a1.39 1.39 0 1 0 0-2.78 1.39 1.39 0 0 0 0 2.78ZM79 8.37a1.39 1.39 0 1 0 0-2.78 1.39 1.39 0 0 0 0 2.78ZM85.12 8.36a1.38 1.38 0 1 0 0-2.76 1.38 1.38 0 0 0 0 2.76ZM91.23 8.35a1.37 1.37 0 1 0 0-2.74 1.37 1.37 0 0 0 0 2.74ZM97.35 8.34a1.36 1.36 0 1 0 0-2.72 1.36 1.36 0 0 0 0 2.72ZM103.47 8.05a1.07 1.07 0 1 0 0-2.14 1.07 1.07 0 0 0 0 2.14ZM130.99 7.96a.98.98 0 1 0 0-1.96.98.98 0 0 0 0 1.96ZM137.11 7.95a.97.97 0 1 0 0-1.94.97.97 0 0 0 0 1.94ZM66.76 11.46a1.42 1.42 0 1 0 0-2.84 1.42 1.42 0 0 0 0 2.84ZM72.88 11.44a1.4 1.4 0 1 0 0-2.8 1.4 1.4 0 0 0 0 2.8ZM75.94 11.44a1.4 1.4 0 1 0 0-2.8 1.4 1.4 0 0 0 0 2.8ZM79 11.43a1.39 1.39 0 1 0 0-2.78 1.39 1.39 0 0 0 0 2.78ZM82.06 11.42a1.38 1.38 0 1 0 0-2.76 1.38 1.38 0 0 0 0 2.76ZM85.12 11.42a1.38 1.38 0 1 0 0-2.76 1.38 1.38 0 0 0 0 2.76ZM88.17 11.41a1.37 1.37 0 1 0 0-2.74 1.37 1.37 0 0 0 0 2.74ZM91.23 11.41a1.37 1.37 0 1 0 0-2.74 1.37 1.37 0 0 0 0 2.74ZM94.29 11.4a1.36 1.36 0 1 0 0-2.72 1.36 1.36 0 0 0 0 2.72ZM100.41 11.39a1.35 1.35 0 1 0 0-2.7 1.35 1.35 0 0 0 0 2.7ZM106.53 11.37a1.33 1.33 0 1 0 0-2.66 1.33 1.33 0 0 0 0 2.66ZM112.64 11.35a1.31 1.31 0 1 0 0-2.62 1.31 1.31 0 0 0 0 2.62ZM118.76 11.19a1.15 1.15 0 1 0 0-2.3 1.15 1.15 0 0 0 0 2.3ZM134.05 10.75a.71.71 0 1 0 0-1.42.71.71 0 0 0 0 1.42ZM143.23 11.12a1.08 1.08 0 1 0 0-2.16 1.08 1.08 0 0 0 0 2.16ZM57.59 14.55a1.45 1.45 0 1 0 0-2.9 1.45 1.45 0 0 0 0 2.9ZM60.65 14.53a1.43 1.43 0 1 0 0-2.86 1.43 1.43 0 0 0 0 2.86ZM63.71 14.53a1.43 1.43 0 1 0 0-2.86 1.43 1.43 0 0 0 0 2.86ZM66.76 14.52a1.42 1.42 0 1 0 0-2.84 1.42 1.42 0 0 0 0 2.84ZM69.82 14.51a1.41 1.41 0 1 0 0-2.82 1.41 1.41 0 0 0 0 2.82ZM75.94 14.5a1.4 1.4 0 1 0 0-2.8 1.4 1.4 0 0 0 0 2.8ZM82.06 14.49a1.39 1.39 0 1 0 0-2.78 1.39 1.39 0 0 0 0 2.78ZM88.17 14.47a1.37 1.37 0 1 0 0-2.74 1.37 1.37 0 0 0 0 2.74ZM94.29 14.46a1.36 1.36 0 1 0 0-2.72 1.36 1.36 0 0 0 0 2.72ZM97.35 14.45a1.35 1.35 0 1 0 0-2.7 1.35 1.35 0 0 0 0 2.7ZM103.47 14.44a1.34 1.34 0 1 0 0-2.68 1.34 1.34 0 0 0 0 2.68ZM109.58 14.41a1.31 1.31 0 1 0 0-2.62 1.31 1.31 0 0 0 0 2.62ZM115.7 14.4a1.3 1.3 0 1 0 0-2.6 1.3 1.3 0 0 0 0 2.6ZM121.82 14.38a1.28 1.28 0 1 0 0-2.56 1.28 1.28 0 0 0 0 2.56ZM124.88 14.38a1.28 1.28 0 1 0 0-2.56 1.28 1.28 0 0 0 0 2.56ZM137.11 13.81a.71.71 0 1 0 0-1.42.71.71 0 0 0 0 1.42ZM54.53 17.62a1.46 1.46 0 1 0 0-2.92 1.46 1.46 0 0 0 0 2.92ZM60.65 17.59a1.43 1.43 0 1 0 0-2.86 1.43 1.43 0 0 0 0 2.86ZM66.76 17.58a1.42 1.42 0 1 0 0-2.84 1.42 1.42 0 0 0 0 2.84ZM72.88 17.56a1.4 1.4 0 1 0 0-2.8 1.4 1.4 0 0 0 0 2.8ZM75.94 17.56a1.4 1.4 0 1 0 0-2.8 1.4 1.4 0 0 0 0 2.8ZM79 17.55a1.39 1.39 0 1 0 0-2.78 1.39 1.39 0 0 0 0 2.78ZM82.06 17.55a1.39 1.39 0 1 0 0-2.78 1.39 1.39 0 0 0 0 2.78ZM85.12 17.54a1.38 1.38 0 1 0 0-2.76 1.38 1.38 0 0 0 0 2.76ZM88.17 17.53a1.37 1.37 0 1 0 0-2.74 1.37 1.37 0 0 0 0 2.74ZM91.23 17.53a1.37 1.37 0 1 0 0-2.74 1.37 1.37 0 0 0 0 2.74ZM97.35 17.51a1.35 1.35 0 1 0 0-2.7 1.35 1.35 0 0 0 0 2.7ZM100.41 17.51a1.35 1.35 0 1 0 0-2.7 1.35 1.35 0 0 0 0 2.7ZM106.53 17.49a1.33 1.33 0 1 0 0-2.66 1.33 1.33 0 0 0 0 2.66ZM112.64 17.47a1.31 1.31 0 1 0 0-2.62 1.31 1.31 0 0 0 0 2.62ZM118.76 17.45a1.29 1.29 0 1 0 0-2.58 1.29 1.29 0 0 0 0 2.58ZM124.88 17.44a1.28 1.28 0 1 0 0-2.56 1.28 1.28 0 0 0 0 2.56ZM127.94 17.43a1.27 1.27 0 1 0 0-2.54 1.27 1.27 0 0 0 0 2.54ZM140.17 16.87a.71.71 0 1 0 0-1.42.71.71 0 0 0 0 1.42ZM146.29 16.87a.71.71 0 1 0 0-1.42.71.71 0 0 0 0 1.42ZM152.4 16.87a.71.71 0 1 0 0-1.42.71.71 0 0 0 0 1.42ZM48.41 20.69a1.47 1.47 0 1 0 0-2.94 1.47 1.47 0 0 0 0 2.94ZM54.53 20.67a1.45 1.45 0 1 0 0-2.9 1.45 1.45 0 0 0 0 2.9ZM57.59 20.67a1.45 1.45 0 1 0 0-2.9 1.45 1.45 0 0 0 0 2.9ZM60.65 20.66a1.44 1.44 0 1 0 0-2.88 1.44 1.44 0 0 0 0 2.88ZM63.71 20.65a1.43 1.43 0 1 0 0-2.86 1.43 1.43 0 0 0 0 2.86ZM66.76 20.64a1.42 1.42 0 1 0 0-2.84 1.42 1.42 0 0 0 0 2.84ZM69.82 20.63a1.41 1.41 0 1 0 0-2.82 1.41 1.41 0 0 0 0 2.82ZM75.94 20.62a1.4 1.4 0 1 0 0-2.8 1.4 1.4 0 0 0 0 2.8ZM82.06 20.61a1.39 1.39 0 1 0 0-2.78 1.39 1.39 0 0 0 0 2.78ZM88.17 20.59a1.37 1.37 0 1 0 0-2.74 1.37 1.37 0 0 0 0 2.74ZM94.29 20.58a1.36 1.36 0 1 0 0-2.72 1.36 1.36 0 0 0 0 2.72ZM100.41 20.56a1.34 1.34 0 1 0 0-2.68 1.34 1.34 0 0 0 0 2.68ZM103.47 20.56a1.34 1.34 0 1 0 0-2.68 1.34 1.34 0 0 0 0 2.68ZM109.58 20.53a1.31 1.31 0 1 0 0-2.62 1.31 1.31 0 0 0 0 2.62ZM115.7 20.52a1.3 1.3 0 1 0 0-2.6 1.3 1.3 0 0 0 0 2.6ZM121.82 20.51a1.29 1.29 0 1 0 0-2.58 1.29 1.29 0 0 0 0 2.58ZM127.94 20.49a1.27 1.27 0 1 0 0-2.54 1.27 1.27 0 0 0 0 2.54ZM130.99 20.48a1.26 1.26 0 1 0 0-2.52 1.26 1.26 0 0 0 0 2.52ZM155.46 19.93a.71.71 0 1 0 0-1.42.71.71 0 0 0 0 1.42ZM45.35 23.76a1.48 1.48 0 1 0 0-2.96 1.48 1.48 0 0 0 0 2.96Z"/>
  <path fill="#000" d="M48.41 23.75a1.47 1.47 0 1 0 0-2.94 1.47 1.47 0 0 0 0 2.94Z"/>
  <path fill="#000" d="M51.47 23.74a1.46 1.46 0 1 0 0-2.92 1.46 1.46 0 0 0 0 2.92ZM57.59 23.73a1.45 1.45 0 1 0 0-2.9 1.45 1.45 0 0 0 0 2.9ZM63.71 23.71a1.43 1.43 0 1 0 0-2.86 1.43 1.43 0 0 0 0 2.86ZM69.82 23.7a1.42 1.42 0 1 0 0-2.84 1.42 1.42 0 0 0 0 2.84ZM72.88 23.69a1.41 1.41 0 1 0 0-2.82 1.41 1.41 0 0 0 0 2.82ZM75.94 23.68a1.4 1.4 0 1 0 0-2.8 1.4 1.4 0 0 0 0 2.8ZM79 23.67a1.39 1.39 0 1 0 0-2.78 1.39 1.39 0 0 0 0 2.78ZM82.06 23.66a1.38 1.38 0 1 0 0-2.76 1.38 1.38 0 0 0 0 2.76ZM85.12 23.66a1.38 1.38 0 1 0 0-2.76 1.38 1.38 0 0 0 0 2.76ZM88.17 23.65a1.37 1.37 0 1 0 0-2.74 1.37 1.37 0 0 0 0 2.74ZM91.23 23.65a1.37 1.37 0 1 0 0-2.74 1.37 1.37 0 0 0 0 2.74ZM97.35 23.63a1.35 1.35 0 1 0 0-2.7 1.35 1.35 0 0 0 0 2.7ZM103.47 23.62a1.34 1.34 0 1 0 0-2.68 1.34 1.34 0 0 0 0 2.68ZM106.53 23.61a1.33 1.33 0 1 0 0-2.66 1.33 1.33 0 0 0 0 2.66ZM112.64 23.59a1.31 1.31 0 1 0 0-2.62 1.31 1.31 0 0 0 0 2.62ZM118.76 23.57a1.29 1.29 0 1 0 0-2.58 1.29 1.29 0 0 0 0 2.58ZM124.88 23.55a1.27 1.27 0 1 0 0-2.54 1.27 1.27 0 0 0 0 2.54ZM130.99 23.54a1.26 1.26 0 1 0 0-2.52 1.26 1.26 0 0 0 0 2.52ZM137.11 22.99a.71.71 0 1 0 0-1.42.71.71 0 0 0 0 1.42ZM143.23 22.99a.71.71 0 1 0 0-1.42.71.71 0 0 0 0 1.42ZM149.35 22.99a.71.71 0 1 0 0-1.42.71.71 0 0 0 0 1.42ZM158.52 22.99a.71.71 0 1 0 0-1.42.71.71 0 0 0 0 1.42ZM39.24 26.8a1.47 1.47 0 1 0 0-2.94 1.47 1.47 0 0 0 0 2.94Z"/>
  <path fill="#000" d="M42.3 26.81a1.48 1.48 0 1 0 0-2.96 1.48 1.48 0 0 0 0 2.96ZM48.41 26.8a1.47 1.47 0 1 0 0-2.94 1.47 1.47 0 0 0 0 2.94Z"/>
  <path fill="#000" d="M51.47 26.79a1.46 1.46 0 1 0 0-2.92 1.46 1.46 0 0 0 0 2.92ZM54.53 26.78a1.45 1.45 0 1 0 0-2.9 1.45 1.45 0 0 0 0 2.9ZM57.59 26.78a1.45 1.45 0 1 0 0-2.9 1.45 1.45 0 0 0 0 2.9ZM60.65 26.77a1.44 1.44 0 1 0 0-2.88 1.44 1.44 0 0 0 0 2.88ZM63.71 26.76a1.43 1.43 0 1 0 0-2.86 1.43 1.43 0 0 0 0 2.86ZM66.76 26.75a1.42 1.42 0 1 0 0-2.84 1.42 1.42 0 0 0 0 2.84ZM72.88 26.74a1.41 1.41 0 1 0 0-2.82 1.41 1.41 0 0 0 0 2.82ZM79 26.72a1.39 1.39 0 1 0 0-2.78 1.39 1.39 0 0 0 0 2.78ZM85.12 26.71a1.38 1.38 0 1 0 0-2.76 1.38 1.38 0 0 0 0 2.76ZM91.23 26.7a1.37 1.37 0 1 0 0-2.74 1.37 1.37 0 0 0 0 2.74ZM94.29 26.69a1.36 1.36 0 1 0 0-2.72 1.36 1.36 0 0 0 0 2.72ZM100.41 26.67a1.34 1.34 0 1 0 0-2.68 1.34 1.34 0 0 0 0 2.68ZM106.53 26.66a1.33 1.33 0 1 0 0-2.66 1.33 1.33 0 0 0 0 2.66ZM109.58 26.64a1.31 1.31 0 1 0 0-2.62 1.31 1.31 0 0 0 0 2.62ZM115.7 26.63a1.3 1.3 0 1 0 0-2.6 1.3 1.3 0 0 0 0 2.6ZM121.82 26.62a1.29 1.29 0 1 0 0-2.58 1.29 1.29 0 0 0 0 2.58ZM127.94 26.6a1.27 1.27 0 1 0 0-2.54 1.27 1.27 0 0 0 0 2.54ZM134.05 26.04a.71.71 0 1 0 0-1.42.71.71 0 0 0 0 1.42ZM152.4 26.04a.71.71 0 1 0 0-1.42.71.71 0 0 0 0 1.42ZM36.18 29.88a1.49 1.49 0 1 0 0-2.98 1.49 1.49 0 0 0 0 2.98ZM42.3 29.87a1.48 1.48 0 1 0 0-2.96 1.48 1.48 0 0 0 0 2.96Z"/>
  <path fill="#000" d="M45.35 29.86a1.47 1.47 0 1 0 0-2.94 1.47 1.47 0 0 0 0 2.94ZM51.47 29.85a1.46 1.46 0 1 0 0-2.92 1.46 1.46 0 0 0 0 2.92ZM57.59 29.84a1.45 1.45 0 1 0 0-2.9 1.45 1.45 0 0 0 0 2.9ZM63.71 29.82a1.43 1.43 0 1 0 0-2.86 1.43 1.43 0 0 0 0 2.86ZM69.82 29.81a1.42 1.42 0 1 0 0-2.84 1.42 1.42 0 0 0 0 2.84ZM72.88 29.8a1.41 1.41 0 1 0 0-2.82 1.41 1.41 0 0 0 0 2.82ZM75.94 29.79a1.4 1.4 0 1 0 0-2.8 1.4 1.4 0 0 0 0 2.8ZM79 29.78A1.39 1.39 0 1 0 79 27a1.39 1.39 0 0 0 0 2.78ZM82.06 29.77a1.38 1.38 0 1 0 0-2.76 1.38 1.38 0 0 0 0 2.76ZM85.12 29.77a1.38 1.38 0 1 0 0-2.76 1.38 1.38 0 0 0 0 2.76ZM88.17 29.76a1.37 1.37 0 1 0 0-2.74 1.37 1.37 0 0 0 0 2.74ZM94.29 29.75a1.36 1.36 0 1 0 0-2.72 1.36 1.36 0 0 0 0 2.72ZM97.35 29.74a1.35 1.35 0 1 0 0-2.7 1.35 1.35 0 0 0 0 2.7ZM103.47 29.72a1.33 1.33 0 1 0 0-2.66 1.33 1.33 0 0 0 0 2.66ZM109.58 29.7a1.31 1.31 0 1 0 0-2.62 1.31 1.31 0 0 0 0 2.62ZM112.64 29.7a1.31 1.31 0 1 0 0-2.62 1.31 1.31 0 0 0 0 2.62ZM118.76 29.68a1.29 1.29 0 1 0 0-2.58 1.29 1.29 0 0 0 0 2.58ZM124.88 29.67a1.28 1.28 0 1 0 0-2.56 1.28 1.28 0 0 0 0 2.56ZM130.99 29.24a.85.85 0 1 0 0-1.7.85.85 0 0 0 0 1.7ZM137.11 29.1a.71.71 0 1 0 0-1.42.71.71 0 0 0 0 1.42ZM143.23 29.1a.71.71 0 1 0 0-1.42.71.71 0 0 0 0 1.42ZM155.46 29.1a.71.71 0 1 0 0-1.42.71.71 0 0 0 0 1.42ZM33.12 32.95a1.5 1.5 0 1 0 0-3 1.5 1.5 0 0 0 0 3Z"/>
  <path fill="#000" d="M36.18 32.94a1.49 1.49 0 1 0 0-2.98 1.49 1.49 0 0 0 0 2.98Z"/>
  <path fill="#000" d="M39.24 32.93a1.48 1.48 0 1 0 0-2.96 1.48 1.48 0 0 0 0 2.96ZM45.35 32.93a1.48 1.48 0 1 0 0-2.96 1.48 1.48 0 0 0 0 2.96Z"/>
  <path fill="#000" d="M48.41 32.92a1.47 1.47 0 1 0 0-2.94 1.47 1.47 0 0 0 0 2.94Z"/>
  <path fill="#000" d="M51.47 32.91a1.46 1.46 0 1 0 0-2.92 1.46 1.46 0 0 0 0 2.92ZM54.53 32.9a1.45 1.45 0 1 0 0-2.9 1.45 1.45 0 0 0 0 2.9ZM57.59 32.89a1.44 1.44 0 1 0 0-2.88 1.44 1.44 0 0 0 0 2.88ZM60.65 32.89a1.44 1.44 0 1 0 0-2.88 1.44 1.44 0 0 0 0 2.88ZM63.71 32.88a1.43 1.43 0 1 0 0-2.86 1.43 1.43 0 0 0 0 2.86ZM66.76 32.87a1.42 1.42 0 1 0 0-2.84 1.42 1.42 0 0 0 0 2.84ZM72.88 32.86a1.41 1.41 0 1 0 0-2.82 1.41 1.41 0 0 0 0 2.82ZM79 32.84a1.39 1.39 0 1 0 0-2.78 1.39 1.39 0 0 0 0 2.78ZM85.12 32.81a1.36 1.36 0 1 0 0-2.72 1.36 1.36 0 0 0 0 2.72ZM91.23 32.65a1.2 1.2 0 1 0 0-2.4 1.2 1.2 0 0 0 0 2.4ZM97.35 32.48a1.03 1.03 0 1 0 0-2.06 1.03 1.03 0 0 0 0 2.06ZM103.47 32.48a1.03 1.03 0 1 0 0-2.06 1.03 1.03 0 0 0 0 2.06ZM112.64 32.39a.94.94 0 1 0 0-1.88.94.94 0 0 0 0 1.88ZM118.76 32.37a.92.92 0 1 0 0-1.84.92.92 0 0 0 0 1.84ZM124.88 32.16a.71.71 0 1 0 0-1.42.71.71 0 0 0 0 1.42ZM30.06 36.02a1.51 1.51 0 1 0 0-3.02 1.51 1.51 0 0 0 0 3.02ZM36.18 36a1.49 1.49 0 1 0 0-2.98 1.49 1.49 0 0 0 0 2.98Z"/>
  <path fill="#000" d="M39.24 35.99a1.48 1.48 0 1 0 0-2.96 1.48 1.48 0 0 0 0 2.96Z"/>
  <path fill="#000" d="M42.3 35.99a1.48 1.48 0 1 0 0-2.96 1.48 1.48 0 0 0 0 2.96ZM48.41 35.94a1.43 1.43 0 1 0 0-2.86 1.43 1.43 0 0 0 0 2.86ZM27 39.09a1.52 1.52 0 1 0 0-3.04 1.52 1.52 0 0 0 0 3.04Z"/>
  <path fill="#000" d="M30.06 39.08a1.51 1.51 0 1 0 0-3.02 1.51 1.51 0 0 0 0 3.02Z"/>
  <path fill="#000" d="M33.12 39.07a1.5 1.5 0 1 0 0-3 1.5 1.5 0 0 0 0 3ZM45.35 38.28a.71.71 0 1 0 0-1.42.71.71 0 0 0 0 1.42ZM51.47 38.28a.71.71 0 1 0 0-1.42.71.71 0 0 0 0 1.42ZM23.94 41.91a1.28 1.28 0 1 0 0-2.56 1.28 1.28 0 0 0 0 2.56ZM36.18 41.34a.71.71 0 1 0 0-1.42.71.71 0 0 0 0 1.42ZM54.53 41.34a.71.71 0 1 0 0-1.42.71.71 0 0 0 0 1.42ZM60.65 41.34a.71.71 0 1 0 0-1.42.71.71 0 0 0 0 1.42ZM27 44.4a.71.71 0 1 0 0-1.42.71.71 0 0 0 0 1.42ZM39.24 44.4a.71.71 0 1 0 0-1.42.71.71 0 0 0 0 1.42ZM45.35 44.4a.71.71 0 1 0 0-1.42.71.71 0 0 0 0 1.42ZM63.71 44.4a.71.71 0 1 0 0-1.42.71.71 0 0 0 0 1.42ZM69.82 44.4a.71.71 0 1 0 0-1.42.71.71 0 0 0 0 1.42ZM30.06 47.45a.71.71 0 1 0 0-1.42.71.71 0 0 0 0 1.42ZM48.41 47.45a.71.71 0 1 0 0-1.42.71.71 0 0 0 0 1.42ZM54.53 47.45a.71.71 0 1 0 0-1.42.71.71 0 0 0 0 1.42ZM72.88 47.45a.71.71 0 1 0 0-1.42.71.71 0 0 0 0 1.42ZM79 47.45a.71.71 0 1 0 0-1.42.71.71 0 0 0 0 1.42ZM20.89 50.51a.71.71 0 1 0 0-1.42.71.71 0 0 0 0 1.42ZM33.12 50.51a.71.71 0 1 0 0-1.42.71.71 0 0 0 0 1.42ZM39.24 50.51a.71.71 0 1 0 0-1.42.71.71 0 0 0 0 1.42ZM57.59 50.51a.71.71 0 1 0 0-1.42.71.71 0 0 0 0 1.42ZM63.71 50.51a.71.71 0 1 0 0-1.42.71.71 0 0 0 0 1.42ZM82.06 50.51a.71.71 0 1 0 0-1.42.71.71 0 0 0 0 1.42ZM88.17 50.51a.71.71 0 1 0 0-1.42.71.71 0 0 0 0 1.42ZM94.29 50.51a.71.71 0 1 0 0-1.42.71.71 0 0 0 0 1.42ZM146.29 51.3a1.5 1.5 0 1 0 0-3 1.5 1.5 0 0 0 0 3Z"/>
  <path fill="#000" d="M149.35 51.29a1.49 1.49 0 1 0 0-2.98 1.49 1.49 0 0 0 0 2.98Z"/>
  <path fill="#000" d="M152.4 51.28a1.48 1.48 0 1 0 0-2.96 1.48 1.48 0 0 0 0 2.96Z"/>
  <path fill="#000" d="M155.46 51.27a1.47 1.47 0 1 0 0-2.94 1.47 1.47 0 0 0 0 2.94Z"/>
  <path fill="#000" d="M158.52 51.26a1.46 1.46 0 1 0 0-2.92 1.46 1.46 0 0 0 0 2.92ZM161.58 51.25a1.45 1.45 0 1 0 0-2.9 1.45 1.45 0 0 0 0 2.9ZM167.7 50.47a.67.67 0 1 0 0-1.34.67.67 0 0 0 0 1.34ZM23.94 53.57a.71.71 0 1 0 0-1.42.71.71 0 0 0 0 1.42ZM42.3 53.57a.71.71 0 1 0 0-1.42.71.71 0 0 0 0 1.42ZM48.41 53.57a.71.71 0 1 0 0-1.42.71.71 0 0 0 0 1.42ZM66.76 53.57a.71.71 0 1 0 0-1.42.71.71 0 0 0 0 1.42ZM72.88 53.57a.71.71 0 1 0 0-1.42.71.71 0 0 0 0 1.42ZM97.35 53.57a.71.71 0 1 0 0-1.42.71.71 0 0 0 0 1.42ZM103.47 53.57a.71.71 0 1 0 0-1.42.71.71 0 0 0 0 1.42ZM109.58 53.57a.71.71 0 1 0 0-1.42.71.71 0 0 0 0 1.42ZM143.23 54.37a1.51 1.51 0 1 0 0-3.02 1.51 1.51 0 0 0 0 3.02ZM149.35 54.35a1.49 1.49 0 1 0 0-2.98 1.49 1.49 0 0 0 0 2.98ZM155.46 54.33a1.47 1.47 0 1 0 0-2.94 1.47 1.47 0 0 0 0 2.94ZM161.58 54.31a1.45 1.45 0 1 0 0-2.9 1.45 1.45 0 0 0 0 2.9ZM164.64 54.3a1.44 1.44 0 1 0 0-2.88 1.44 1.44 0 0 0 0 2.88ZM170.75 54.27a1.41 1.41 0 1 0 0-2.82 1.41 1.41 0 0 0 0 2.82ZM176.87 54.24a1.38 1.38 0 1 0 0-2.76 1.38 1.38 0 0 0 0 2.76ZM182.99 53.44a.58.58 0 1 0 0-1.16.58.58 0 0 0 0 1.16ZM27 56.63a.71.71 0 1 0 0-1.42.71.71 0 0 0 0 1.42ZM33.12 56.63a.71.71 0 1 0 0-1.42.71.71 0 0 0 0 1.42ZM51.47 56.63a.71.71 0 1 0 0-1.42.71.71 0 0 0 0 1.42ZM57.59 56.63a.71.71 0 1 0 0-1.42.71.71 0 0 0 0 1.42ZM75.94 56.63a.71.71 0 1 0 0-1.42.71.71 0 0 0 0 1.42ZM82.06 56.63a.71.71 0 1 0 0-1.42.71.71 0 0 0 0 1.42ZM88.17 56.63a.71.71 0 1 0 0-1.42.71.71 0 0 0 0 1.42ZM112.64 56.63a.71.71 0 1 0 0-1.42.71.71 0 0 0 0 1.42ZM118.76 56.63a.71.71 0 1 0 0-1.42.71.71 0 0 0 0 1.42ZM140.17 57.46a1.54 1.54 0 1 0 0-3.08 1.54 1.54 0 0 0 0 3.08Z"/>
  <path fill="#000" d="M143.23 57.43a1.51 1.51 0 1 0 0-3.02 1.51 1.51 0 0 0 0 3.02Z"/>
  <path fill="#000" d="M146.29 57.42a1.5 1.5 0 1 0 0-3 1.5 1.5 0 0 0 0 3Z"/>
  <path fill="#000" d="M149.35 57.41a1.49 1.49 0 1 0 0-2.98 1.49 1.49 0 0 0 0 2.98Z"/>
  <path fill="#000" d="M152.4 57.4a1.48 1.48 0 1 0 0-2.96 1.48 1.48 0 0 0 0 2.96Z"/>
  <path fill="#000" d="M155.46 57.39a1.47 1.47 0 1 0 0-2.94 1.47 1.47 0 0 0 0 2.94Z"/>
  <path fill="#000" d="M158.52 57.38a1.46 1.46 0 1 0 0-2.92 1.46 1.46 0 0 0 0 2.92ZM164.64 57.36a1.44 1.44 0 1 0 0-2.88 1.44 1.44 0 0 0 0 2.88ZM167.7 57.35a1.43 1.43 0 1 0 0-2.86 1.43 1.43 0 0 0 0 2.86ZM170.75 57.33a1.41 1.41 0 1 0 0-2.82 1.41 1.41 0 0 0 0 2.82ZM173.81 57.32a1.4 1.4 0 1 0 0-2.8 1.4 1.4 0 0 0 0 2.8ZM176.87 57.3a1.38 1.38 0 1 0 0-2.76 1.38 1.38 0 0 0 0 2.76ZM179.93 57.29a1.37 1.37 0 1 0 0-2.74 1.37 1.37 0 0 0 0 2.74ZM186.05 57.27a1.35 1.35 0 1 0 0-2.7 1.35 1.35 0 0 0 0 2.7ZM192.16 57.25a1.33 1.33 0 1 0 0-2.66 1.33 1.33 0 0 0 0 2.66ZM36.18 59.69a.71.71 0 1 0 0-1.42.71.71 0 0 0 0 1.42ZM42.3 59.69a.71.71 0 1 0 0-1.42.71.71 0 0 0 0 1.42ZM60.65 59.69a.71.71 0 1 0 0-1.42.71.71 0 0 0 0 1.42ZM66.76 59.69a.71.71 0 1 0 0-1.42.71.71 0 0 0 0 1.42ZM91.23 59.69a.71.71 0 1 0 0-1.42.71.71 0 0 0 0 1.42ZM97.35 59.69a.71.71 0 1 0 0-1.42.71.71 0 0 0 0 1.42ZM103.47 59.69a.71.71 0 1 0 0-1.42.71.71 0 0 0 0 1.42ZM121.82 59.69a.71.71 0 1 0 0-1.42.71.71 0 0 0 0 1.42ZM127.94 59.69a.71.71 0 1 0 0-1.42.71.71 0 0 0 0 1.42ZM134.05 59.69a.71.71 0 1 0 0-1.42.71.71 0 0 0 0 1.42ZM140.17 60.52a1.54 1.54 0 1 0 0-3.08 1.54 1.54 0 0 0 0 3.08ZM146.29 60.48a1.5 1.5 0 1 0 0-3 1.5 1.5 0 0 0 0 3ZM152.4 60.46a1.48 1.48 0 1 0 0-2.96 1.48 1.48 0 0 0 0 2.96ZM158.52 60.44a1.46 1.46 0 1 0 0-2.92 1.46 1.46 0 0 0 0 2.92ZM161.58 60.43a1.45 1.45 0 1 0 0-2.9 1.45 1.45 0 0 0 0 2.9ZM167.7 60.41a1.43 1.43 0 1 0 0-2.86 1.43 1.43 0 0 0 0 2.86ZM173.81 60.38a1.4 1.4 0 1 0 0-2.8 1.4 1.4 0 0 0 0 2.8ZM179.93 60.35a1.37 1.37 0 1 0 0-2.74 1.37 1.37 0 0 0 0 2.74ZM182.99 60.35a1.37 1.37 0 1 0 0-2.74 1.37 1.37 0 0 0 0 2.74ZM189.11 60.32a1.34 1.34 0 1 0 0-2.68 1.34 1.34 0 0 0 0 2.68ZM195.22 60.29a1.31 1.31 0 1 0 0-2.62 1.31 1.31 0 0 0 0 2.62ZM27 62.75a.71.71 0 1 0 0-1.42.71.71 0 0 0 0 1.42ZM45.35 62.75a.71.71 0 1 0 0-1.42.71.71 0 0 0 0 1.42ZM51.47 62.75a.71.71 0 1 0 0-1.42.71.71 0 0 0 0 1.42ZM69.82 62.75a.71.71 0 1 0 0-1.42.71.71 0 0 0 0 1.42ZM75.94 62.75a.71.71 0 1 0 0-1.42.71.71 0 0 0 0 1.42ZM82.06 62.75a.71.71 0 1 0 0-1.42.71.71 0 0 0 0 1.42ZM106.53 62.75a.71.71 0 1 0 0-1.42.71.71 0 0 0 0 1.42ZM112.64 62.75a.71.71 0 1 0 0-1.42.71.71 0 0 0 0 1.42ZM140.17 63.56a1.52 1.52 0 1 0 0-3.04 1.52 1.52 0 0 0 0 3.04Z"/>
  <path fill="#000" d="M143.23 63.55a1.51 1.51 0 1 0 0-3.02 1.51 1.51 0 0 0 0 3.02Z"/>
  <path fill="#000" d="M146.29 63.54a1.5 1.5 0 1 0 0-3 1.5 1.5 0 0 0 0 3Z"/>
  <path fill="#000" d="M149.35 63.53a1.49 1.49 0 1 0 0-2.98 1.49 1.49 0 0 0 0 2.98Z"/>
  <path fill="#000" d="M152.4 63.52a1.48 1.48 0 1 0 0-2.96 1.48 1.48 0 0 0 0 2.96Z"/>
  <path fill="#000" d="M155.46 63.51a1.47 1.47 0 1 0 0-2.94 1.47 1.47 0 0 0 0 2.94ZM161.58 63.49a1.45 1.45 0 1 0 0-2.9 1.45 1.45 0 0 0 0 2.9ZM164.64 63.48a1.44 1.44 0 1 0 0-2.88 1.44 1.44 0 0 0 0 2.88ZM167.7 63.46a1.42 1.42 0 1 0 0-2.84 1.42 1.42 0 0 0 0 2.84ZM170.75 63.44a1.4 1.4 0 1 0 0-2.8 1.4 1.4 0 0 0 0 2.8ZM173.81 63.44a1.4 1.4 0 1 0 0-2.8 1.4 1.4 0 0 0 0 2.8ZM176.87 63.42a1.38 1.38 0 1 0 0-2.76 1.38 1.38 0 0 0 0 2.76ZM182.99 63.41a1.37 1.37 0 1 0 0-2.74 1.37 1.37 0 0 0 0 2.74ZM186.05 63.39a1.35 1.35 0 1 0 0-2.7 1.35 1.35 0 0 0 0 2.7ZM192.16 63.37a1.33 1.33 0 1 0 0-2.66 1.33 1.33 0 0 0 0 2.66ZM198.28 63.34a1.3 1.3 0 1 0 0-2.6 1.3 1.3 0 0 0 0 2.6ZM33.12 65.81a.71.71 0 1 0 0-1.42.71.71 0 0 0 0 1.42ZM39.24 65.81a.71.71 0 1 0 0-1.42.71.71 0 0 0 0 1.42ZM54.53 65.81a.71.71 0 1 0 0-1.42.71.71 0 0 0 0 1.42ZM60.65 65.81a.71.71 0 1 0 0-1.42.71.71 0 0 0 0 1.42ZM85.12 65.81a.71.71 0 1 0 0-1.42.71.71 0 0 0 0 1.42ZM91.23 65.81a.71.71 0 1 0 0-1.42.71.71 0 0 0 0 1.42ZM97.35 65.81a.71.71 0 1 0 0-1.42.71.71 0 0 0 0 1.42ZM115.7 65.81a.71.71 0 1 0 0-1.42.71.71 0 0 0 0 1.42ZM121.82 65.81a.71.71 0 1 0 0-1.42.71.71 0 0 0 0 1.42ZM127.94 65.81a.71.71 0 1 0 0-1.42.71.71 0 0 0 0 1.42ZM134.05 65.81a.71.71 0 1 0 0-1.42.71.71 0 0 0 0 1.42ZM140.17 66.62a1.52 1.52 0 1 0 0-3.04 1.52 1.52 0 0 0 0 3.04ZM146.29 66.6a1.5 1.5 0 1 0 0-3 1.5 1.5 0 0 0 0 3ZM152.4 66.58a1.48 1.48 0 1 0 0-2.96 1.48 1.48 0 0 0 0 2.96Z"/>
  <path fill="#000" d="M155.46 66.57a1.47 1.47 0 1 0 0-2.94 1.47 1.47 0 0 0 0 2.94Z"/>
  <path fill="#000" d="M158.52 66.56a1.46 1.46 0 1 0 0-2.92 1.46 1.46 0 0 0 0 2.92ZM164.64 66.54a1.44 1.44 0 1 0 0-2.88 1.44 1.44 0 0 0 0 2.88ZM170.75 66.5a1.4 1.4 0 1 0 0-2.8 1.4 1.4 0 0 0 0 2.8ZM176.87 66.49a1.39 1.39 0 1 0 0-2.78 1.39 1.39 0 0 0 0 2.78ZM179.93 66.47a1.37 1.37 0 1 0 0-2.74 1.37 1.37 0 0 0 0 2.74ZM186.05 66.45a1.35 1.35 0 1 0 0-2.7 1.35 1.35 0 0 0 0 2.7ZM189.11 66.44a1.34 1.34 0 1 0 0-2.68 1.34 1.34 0 0 0 0 2.68ZM195.22 66.41a1.31 1.31 0 1 0 0-2.62 1.31 1.31 0 0 0 0 2.62ZM42.3 68.86a.71.71 0 1 0 0-1.42.71.71 0 0 0 0 1.42ZM48.41 68.86a.71.71 0 1 0 0-1.42.71.71 0 0 0 0 1.42ZM63.71 68.86a.71.71 0 1 0 0-1.42.71.71 0 0 0 0 1.42ZM69.82 68.86a.71.71 0 1 0 0-1.42.71.71 0 0 0 0 1.42ZM75.94 68.86a.71.71 0 1 0 0-1.42.71.71 0 0 0 0 1.42ZM100.41 68.86a.71.71 0 1 0 0-1.42.71.71 0 0 0 0 1.42ZM106.53 68.86a.71.71 0 1 0 0-1.42.71.71 0 0 0 0 1.42ZM140.17 69.67a1.52 1.52 0 1 0 0-3.04 1.52 1.52 0 0 0 0 3.04Z"/>
  <path fill="#000" d="M143.23 69.66a1.51 1.51 0 1 0 0-3.02 1.51 1.51 0 0 0 0 3.02Z"/>
  <path fill="#000" d="M146.29 69.65a1.5 1.5 0 1 0 0-3 1.5 1.5 0 0 0 0 3Z"/>
  <path fill="#000" d="M149.35 69.64a1.49 1.49 0 1 0 0-2.98 1.49 1.49 0 0 0 0 2.98ZM155.46 69.62a1.47 1.47 0 1 0 0-2.94 1.47 1.47 0 0 0 0 2.94Z"/>
  <path fill="#000" d="M158.52 69.61a1.46 1.46 0 1 0 0-2.92 1.46 1.46 0 0 0 0 2.92ZM161.58 69.6a1.45 1.45 0 1 0 0-2.9 1.45 1.45 0 0 0 0 2.9ZM164.64 69.58a1.43 1.43 0 1 0 0-2.86 1.43 1.43 0 0 0 0 2.86ZM167.7 69.57a1.42 1.42 0 1 0 0-2.84 1.42 1.42 0 0 0 0 2.84ZM170.75 69.55a1.4 1.4 0 1 0 0-2.8 1.4 1.4 0 0 0 0 2.8ZM173.81 69.55a1.4 1.4 0 1 0 0-2.8 1.4 1.4 0 0 0 0 2.8ZM179.93 69.52a1.37 1.37 0 1 0 0-2.74 1.37 1.37 0 0 0 0 2.74ZM182.99 69.52a1.37 1.37 0 1 0 0-2.74 1.37 1.37 0 0 0 0 2.74ZM189.11 69.49a1.34 1.34 0 1 0 0-2.68 1.34 1.34 0 0 0 0 2.68ZM192.16 69.48a1.33 1.33 0 1 0 0-2.66 1.33 1.33 0 0 0 0 2.66ZM198.28 69.45a1.3 1.3 0 1 0 0-2.6 1.3 1.3 0 0 0 0 2.6ZM51.47 71.92a.71.71 0 1 0 0-1.42.71.71 0 0 0 0 1.42ZM57.59 71.92a.71.71 0 1 0 0-1.42.71.71 0 0 0 0 1.42ZM79 71.92a.71.71 0 1 0 0-1.42.71.71 0 0 0 0 1.42ZM85.12 71.92a.71.71 0 1 0 0-1.42.71.71 0 0 0 0 1.42ZM91.23 71.92a.71.71 0 1 0 0-1.42.71.71 0 0 0 0 1.42ZM109.58 71.92a.71.71 0 1 0 0-1.42.71.71 0 0 0 0 1.42ZM115.7 71.92a.71.71 0 1 0 0-1.42.71.71 0 0 0 0 1.42ZM121.82 71.92a.71.71 0 1 0 0-1.42.71.71 0 0 0 0 1.42ZM127.94 71.92a.71.71 0 1 0 0-1.42.71.71 0 0 0 0 1.42ZM134.05 71.92a.71.71 0 1 0 0-1.42.71.71 0 0 0 0 1.42ZM140.17 72.73a1.52 1.52 0 1 0 0-3.04 1.52 1.52 0 0 0 0 3.04ZM146.29 72.71a1.5 1.5 0 1 0 0-3 1.5 1.5 0 0 0 0 3Z"/>
  <path fill="#000" d="M149.35 72.7a1.49 1.49 0 1 0 0-2.98 1.49 1.49 0 0 0 0 2.98Z"/>
  <path fill="#000" d="M152.4 72.69a1.48 1.48 0 1 0 0-2.96 1.48 1.48 0 0 0 0 2.96ZM158.52 72.67a1.46 1.46 0 1 0 0-2.92 1.46 1.46 0 0 0 0 2.92ZM164.64 72.64a1.43 1.43 0 1 0 0-2.86 1.43 1.43 0 0 0 0 2.86ZM170.75 72.62a1.41 1.41 0 1 0 0-2.82 1.41 1.41 0 0 0 0 2.82ZM176.87 72.59a1.38 1.38 0 1 0 0-2.76 1.38 1.38 0 0 0 0 2.76ZM182.99 72.58a1.37 1.37 0 1 0 0-2.74 1.37 1.37 0 0 0 0 2.74ZM186.05 72.56a1.35 1.35 0 1 0 0-2.7 1.35 1.35 0 0 0 0 2.7ZM192.16 72.54a1.33 1.33 0 1 0 0-2.66 1.33 1.33 0 0 0 0 2.66ZM195.22 72.52a1.31 1.31 0 1 0 0-2.62 1.31 1.31 0 0 0 0 2.62ZM201.34 72.5a1.29 1.29 0 1 0 0-2.58 1.29 1.29 0 0 0 0 2.58ZM60.65 74.98a.71.71 0 1 0 0-1.42.71.71 0 0 0 0 1.42ZM66.76 74.98a.71.71 0 1 0 0-1.42.71.71 0 0 0 0 1.42ZM72.88 74.98a.71.71 0 1 0 0-1.42.71.71 0 0 0 0 1.42ZM94.29 74.98a.71.71 0 1 0 0-1.42.71.71 0 0 0 0 1.42ZM100.41 74.98a.71.71 0 1 0 0-1.42.71.71 0 0 0 0 1.42ZM140.17 74.98a.71.71 0 1 0 0-1.42.71.71 0 0 0 0 1.42ZM143.23 75.78a1.51 1.51 0 1 0 0-3.02 1.51 1.51 0 0 0 0 3.02ZM149.35 75.76a1.49 1.49 0 1 0 0-2.98 1.49 1.49 0 0 0 0 2.98Z"/>
  <path fill="#000" d="M152.4 75.75a1.48 1.48 0 1 0 0-2.96 1.48 1.48 0 0 0 0 2.96Z"/>
  <path fill="#000" d="M155.46 75.74a1.47 1.47 0 1 0 0-2.94 1.47 1.47 0 0 0 0 2.94Z"/>
  <path fill="#000" d="M158.52 75.73a1.46 1.46 0 1 0 0-2.92 1.46 1.46 0 0 0 0 2.92ZM161.58 75.71a1.44 1.44 0 1 0 0-2.88 1.44 1.44 0 0 0 0 2.88ZM164.64 75.7a1.43 1.43 0 1 0 0-2.86 1.43 1.43 0 0 0 0 2.86ZM167.7 75.69a1.42 1.42 0 1 0 0-2.84 1.42 1.42 0 0 0 0 2.84ZM170.75 75.68a1.41 1.41 0 1 0 0-2.82 1.41 1.41 0 0 0 0 2.82ZM173.81 75.67a1.4 1.4 0 1 0 0-2.8 1.4 1.4 0 0 0 0 2.8ZM176.87 75.65a1.38 1.38 0 1 0 0-2.76 1.38 1.38 0 0 0 0 2.76ZM179.93 75.64a1.37 1.37 0 1 0 0-2.74 1.37 1.37 0 0 0 0 2.74ZM186.05 75.63a1.36 1.36 0 1 0 0-2.72 1.36 1.36 0 0 0 0 2.72ZM189.11 75.61a1.34 1.34 0 1 0 0-2.68 1.34 1.34 0 0 0 0 2.68ZM195.22 75.58a1.31 1.31 0 1 0 0-2.62 1.31 1.31 0 0 0 0 2.62ZM198.28 75.57a1.3 1.3 0 1 0 0-2.6 1.3 1.3 0 0 0 0 2.6ZM75.94 78.04a.71.71 0 1 0 0-1.42.71.71 0 0 0 0 1.42ZM82.06 78.04a.71.71 0 1 0 0-1.42.71.71 0 0 0 0 1.42ZM88.17 78.04a.71.71 0 1 0 0-1.42.71.71 0 0 0 0 1.42ZM103.47 78.04a.71.71 0 1 0 0-1.42.71.71 0 0 0 0 1.42ZM109.58 78.04a.71.71 0 1 0 0-1.42.71.71 0 0 0 0 1.42ZM115.7 78.04a.71.71 0 1 0 0-1.42.71.71 0 0 0 0 1.42ZM121.82 78.04a.71.71 0 1 0 0-1.42.71.71 0 0 0 0 1.42ZM127.94 78.04a.71.71 0 1 0 0-1.42.71.71 0 0 0 0 1.42ZM134.05 78.04a.71.71 0 1 0 0-1.42.71.71 0 0 0 0 1.42ZM143.23 78.84a1.51 1.51 0 1 0 0-3.02 1.51 1.51 0 0 0 0 3.02Z"/>
  <path fill="#000" d="M146.29 78.83a1.5 1.5 0 1 0 0-3 1.5 1.5 0 0 0 0 3ZM152.4 78.81a1.48 1.48 0 1 0 0-2.96 1.48 1.48 0 0 0 0 2.96ZM158.52 78.78a1.45 1.45 0 1 0 0-2.9 1.45 1.45 0 0 0 0 2.9ZM164.64 78.76a1.43 1.43 0 1 0 0-2.86 1.43 1.43 0 0 0 0 2.86ZM170.75 78.74a1.41 1.41 0 1 0 0-2.82 1.41 1.41 0 0 0 0 2.82ZM176.87 78.71a1.38 1.38 0 1 0 0-2.76 1.38 1.38 0 0 0 0 2.76ZM182.99 78.69a1.36 1.36 0 1 0 0-2.72 1.36 1.36 0 0 0 0 2.72ZM189.11 78.67a1.34 1.34 0 1 0 0-2.68 1.34 1.34 0 0 0 0 2.68ZM192.16 78.64a1.31 1.31 0 1 0 0-2.62 1.31 1.31 0 0 0 0 2.62ZM198.28 78.63a1.3 1.3 0 1 0 0-2.6 1.3 1.3 0 0 0 0 2.6ZM201.34 78.62a1.29 1.29 0 1 0 0-2.58 1.29 1.29 0 0 0 0 2.58ZM91.23 81.1a.71.71 0 1 0 0-1.42.71.71 0 0 0 0 1.42ZM97.35 81.1a.71.71 0 1 0 0-1.42.71.71 0 0 0 0 1.42ZM137.11 81.1a.71.71 0 1 0 0-1.42.71.71 0 0 0 0 1.42ZM146.29 81.82a1.43 1.43 0 1 0 0-2.86 1.43 1.43 0 0 0 0 2.86ZM149.35 81.87a1.48 1.48 0 1 0 0-2.96 1.48 1.48 0 0 0 0 2.96Z"/>
  <path fill="#000" d="M152.4 81.87a1.48 1.48 0 1 0 0-2.96 1.48 1.48 0 0 0 0 2.96Z"/>
  <path fill="#000" d="M155.46 81.86a1.47 1.47 0 1 0 0-2.94 1.47 1.47 0 0 0 0 2.94ZM158.52 81.84a1.45 1.45 0 1 0 0-2.9 1.45 1.45 0 0 0 0 2.9ZM161.58 81.84a1.45 1.45 0 1 0 0-2.9 1.45 1.45 0 0 0 0 2.9ZM164.64 81.82a1.43 1.43 0 1 0 0-2.86 1.43 1.43 0 0 0 0 2.86ZM167.7 81.81a1.42 1.42 0 1 0 0-2.84 1.42 1.42 0 0 0 0 2.84ZM170.75 81.8a1.41 1.41 0 1 0 0-2.82 1.41 1.41 0 0 0 0 2.82ZM173.81 81.79a1.4 1.4 0 1 0 0-2.8 1.4 1.4 0 0 0 0 2.8ZM176.87 81.77a1.38 1.38 0 1 0 0-2.76 1.38 1.38 0 0 0 0 2.76ZM179.93 81.76a1.37 1.37 0 1 0 0-2.74 1.37 1.37 0 0 0 0 2.74ZM182.99 81.75a1.36 1.36 0 1 0 0-2.72 1.36 1.36 0 0 0 0 2.72ZM186.05 81.75a1.36 1.36 0 1 0 0-2.72 1.36 1.36 0 0 0 0 2.72ZM192.16 81.7a1.31 1.31 0 1 0 0-2.62 1.31 1.31 0 0 0 0 2.62ZM195.22 81.7a1.31 1.31 0 1 0 0-2.62 1.31 1.31 0 0 0 0 2.62ZM201.34 81.67a1.28 1.28 0 1 0 0-2.56 1.28 1.28 0 0 0 0 2.56ZM85.12 84.16a.71.71 0 1 0 0-1.42.71.71 0 0 0 0 1.42ZM100.41 84.16a.71.71 0 1 0 0-1.42.71.71 0 0 0 0 1.42ZM106.53 84.16a.71.71 0 1 0 0-1.42.71.71 0 0 0 0 1.42ZM112.64 84.16a.71.71 0 1 0 0-1.42.71.71 0 0 0 0 1.42ZM118.76 84.16a.71.71 0 1 0 0-1.42.71.71 0 0 0 0 1.42ZM124.88 84.16a.71.71 0 1 0 0-1.42.71.71 0 0 0 0 1.42ZM130.99 84.16a.71.71 0 1 0 0-1.42.71.71 0 0 0 0 1.42ZM140.17 84.16a.71.71 0 1 0 0-1.42.71.71 0 0 0 0 1.42ZM152.4 84.91a1.46 1.46 0 1 0 0-2.92 1.46 1.46 0 0 0 0 2.92ZM158.52 84.9a1.45 1.45 0 1 0 0-2.9 1.45 1.45 0 0 0 0 2.9ZM164.64 84.88a1.43 1.43 0 1 0 0-2.86 1.43 1.43 0 0 0 0 2.86ZM170.75 84.86a1.41 1.41 0 1 0 0-2.82 1.41 1.41 0 0 0 0 2.82ZM176.87 84.83a1.38 1.38 0 1 0 0-2.76 1.38 1.38 0 0 0 0 2.76ZM182.99 84.81a1.36 1.36 0 1 0 0-2.72 1.36 1.36 0 0 0 0 2.72ZM189.11 84.79a1.34 1.34 0 1 0 0-2.68 1.34 1.34 0 0 0 0 2.68ZM195.22 84.76a1.31 1.31 0 1 0 0-2.62 1.31 1.31 0 0 0 0 2.62ZM198.28 84.75a1.3 1.3 0 1 0 0-2.6 1.3 1.3 0 0 0 0 2.6ZM204.4 84.72a1.27 1.27 0 1 0 0-2.54 1.27 1.27 0 0 0 0 2.54ZM5.59 88.02a1.52 1.52 0 1 0 0-3.04 1.52 1.52 0 0 0 0 3.04Z"/>
  <path fill="#000" d="M8.65 88.02a1.52 1.52 0 1 0 0-3.04 1.52 1.52 0 0 0 0 3.04Z"/>
  <path fill="#000" d="M11.71 88.01a1.51 1.51 0 1 0 0-3.02 1.51 1.51 0 0 0 0 3.02Z"/>
  <path fill="#000" d="M14.77 88.01a1.51 1.51 0 1 0 0-3.02 1.51 1.51 0 0 0 0 3.02Z"/>
  <path fill="#000" d="M17.83 88a1.5 1.5 0 1 0 0-3 1.5 1.5 0 0 0 0 3Z"/>
  <path fill="#000" d="M20.89 87.99a1.49 1.49 0 1 0 0-2.98 1.49 1.49 0 0 0 0 2.98Z"/>
  <path fill="#000" d="M23.94 87.98a1.48 1.48 0 1 0 0-2.96 1.48 1.48 0 0 0 0 2.96Z"/>
  <path fill="#000" d="M27 87.98a1.48 1.48 0 1 0 0-2.96 1.48 1.48 0 0 0 0 2.96Z"/>
  <path fill="#000" d="M30.06 87.98a1.48 1.48 0 1 0 0-2.96 1.48 1.48 0 0 0 0 2.96Z"/>
  <path fill="#000" d="M33.12 87.98a1.48 1.48 0 1 0 0-2.96 1.48 1.48 0 0 0 0 2.96Z"/>
  <path fill="#000" d="M36.18 87.97a1.47 1.47 0 1 0 0-2.94 1.47 1.47 0 0 0 0 2.94Z"/>
  <path fill="#000" d="M39.24 87.96a1.46 1.46 0 1 0 0-2.92 1.46 1.46 0 0 0 0 2.92ZM42.3 87.95a1.45 1.45 0 1 0 0-2.9 1.45 1.45 0 0 0 0 2.9ZM45.35 87.95a1.45 1.45 0 1 0 0-2.9 1.45 1.45 0 0 0 0 2.9ZM48.41 87.94a1.44 1.44 0 1 0 0-2.88 1.44 1.44 0 0 0 0 2.88ZM54.53 87.07a.57.57 0 1 0 0-1.14.57.57 0 0 0 0 1.14ZM134.05 87.21a.71.71 0 1 0 0-1.42.71.71 0 0 0 0 1.42ZM143.23 87.21a.71.71 0 1 0 0-1.42.71.71 0 0 0 0 1.42ZM149.35 87.21a.71.71 0 1 0 0-1.42.71.71 0 0 0 0 1.42ZM155.46 87.21a.71.71 0 1 0 0-1.42.71.71 0 0 0 0 1.42ZM161.58 87.92a1.42 1.42 0 1 0 0-2.84 1.42 1.42 0 0 0 0 2.84ZM164.64 87.93a1.43 1.43 0 1 0 0-2.86 1.43 1.43 0 0 0 0 2.86ZM167.7 87.92a1.42 1.42 0 1 0 0-2.84 1.42 1.42 0 0 0 0 2.84ZM170.75 87.9a1.4 1.4 0 1 0 0-2.8 1.4 1.4 0 0 0 0 2.8ZM173.81 87.89a1.39 1.39 0 1 0 0-2.78 1.39 1.39 0 0 0 0 2.78ZM176.87 87.88a1.38 1.38 0 1 0 0-2.76 1.38 1.38 0 0 0 0 2.76ZM179.93 87.87a1.37 1.37 0 1 0 0-2.74 1.37 1.37 0 0 0 0 2.74ZM182.99 87.87a1.37 1.37 0 1 0 0-2.74 1.37 1.37 0 0 0 0 2.74ZM186.05 87.86a1.36 1.36 0 1 0 0-2.72 1.36 1.36 0 0 0 0 2.72ZM192.16 87.81a1.31 1.31 0 1 0 0-2.62 1.31 1.31 0 0 0 0 2.62ZM198.28 87.8a1.3 1.3 0 1 0 0-2.6 1.3 1.3 0 0 0 0 2.6ZM204.4 87.77a1.27 1.27 0 1 0 0-2.54 1.27 1.27 0 0 0 0 2.54ZM5.59 91.08a1.52 1.52 0 1 0 0-3.04 1.52 1.52 0 0 0 0 3.04ZM11.71 91.07a1.51 1.51 0 1 0 0-3.02 1.51 1.51 0 0 0 0 3.02ZM17.83 91.06a1.5 1.5 0 1 0 0-3 1.5 1.5 0 0 0 0 3ZM23.94 91.04a1.48 1.48 0 1 0 0-2.96 1.48 1.48 0 0 0 0 2.96ZM30.06 91.04a1.48 1.48 0 1 0 0-2.96 1.48 1.48 0 0 0 0 2.96ZM36.18 91.03a1.47 1.47 0 1 0 0-2.94 1.47 1.47 0 0 0 0 2.94ZM42.3 91.01a1.45 1.45 0 1 0 0-2.9 1.45 1.45 0 0 0 0 2.9ZM48.41 91a1.44 1.44 0 1 0 0-2.88 1.44 1.44 0 0 0 0 2.88ZM51.47 91a1.44 1.44 0 1 0 0-2.88 1.44 1.44 0 0 0 0 2.88ZM57.59 90.98a1.42 1.42 0 1 0 0-2.84 1.42 1.42 0 0 0 0 2.84ZM63.71 90.96a1.4 1.4 0 1 0 0-2.8 1.4 1.4 0 0 0 0 2.8ZM69.82 90.95a1.39 1.39 0 1 0 0-2.78 1.39 1.39 0 0 0 0 2.78ZM112.64 90.27a.71.71 0 1 0 0-1.42.71.71 0 0 0 0 1.42ZM118.76 90.27a.71.71 0 1 0 0-1.42.71.71 0 0 0 0 1.42ZM124.88 90.27a.71.71 0 1 0 0-1.42.71.71 0 0 0 0 1.42ZM137.11 90.27a.71.71 0 1 0 0-1.42.71.71 0 0 0 0 1.42ZM170.75 90.96a1.4 1.4 0 1 0 0-2.8 1.4 1.4 0 0 0 0 2.8ZM176.87 90.94a1.38 1.38 0 1 0 0-2.76 1.38 1.38 0 0 0 0 2.76ZM182.99 90.93a1.37 1.37 0 1 0 0-2.74 1.37 1.37 0 0 0 0 2.74ZM189.11 90.9a1.34 1.34 0 1 0 0-2.68 1.34 1.34 0 0 0 0 2.68ZM195.22 90.87a1.31 1.31 0 1 0 0-2.62 1.31 1.31 0 0 0 0 2.62ZM201.34 90.84a1.28 1.28 0 1 0 0-2.56 1.28 1.28 0 0 0 0 2.56ZM2.54 94.03a1.41 1.41 0 1 0 0-2.82 1.41 1.41 0 0 0 0 2.82Z"/>
  <path fill="#000" d="M5.59 94.14a1.52 1.52 0 1 0 0-3.04 1.52 1.52 0 0 0 0 3.04Z"/>
  <path fill="#000" d="M8.65 94.14a1.52 1.52 0 1 0 0-3.04 1.52 1.52 0 0 0 0 3.04Z"/>
  <path fill="#000" d="M11.71 94.13a1.51 1.51 0 1 0 0-3.02 1.51 1.51 0 0 0 0 3.02Z"/>
  <path fill="#000" d="M14.77 94.13a1.51 1.51 0 1 0 0-3.02 1.51 1.51 0 0 0 0 3.02Z"/>
  <path fill="#000" d="M17.83 94.12a1.5 1.5 0 1 0 0-3 1.5 1.5 0 0 0 0 3Z"/>
  <path fill="#000" d="M20.89 94.11a1.49 1.49 0 1 0 0-2.98 1.49 1.49 0 0 0 0 2.98Z"/>
  <path fill="#000" d="M23.94 94.1a1.48 1.48 0 1 0 0-2.96 1.48 1.48 0 0 0 0 2.96Z"/>
  <path fill="#000" d="M27 94.1a1.48 1.48 0 1 0 0-2.96 1.48 1.48 0 0 0 0 2.96Z"/>
  <path fill="#000" d="M30.06 94.1a1.48 1.48 0 1 0 0-2.96 1.48 1.48 0 0 0 0 2.96Z"/>
  <path fill="#000" d="M33.12 94.1a1.48 1.48 0 1 0 0-2.96 1.48 1.48 0 0 0 0 2.96Z"/>
  <path fill="#000" d="M36.18 94.09a1.47 1.47 0 1 0 0-2.94 1.47 1.47 0 0 0 0 2.94Z"/>
  <path fill="#000" d="M39.24 94.08a1.46 1.46 0 1 0 0-2.92 1.46 1.46 0 0 0 0 2.92ZM42.3 94.07a1.45 1.45 0 1 0 0-2.9 1.45 1.45 0 0 0 0 2.9ZM45.35 94.07a1.45 1.45 0 1 0 0-2.9 1.45 1.45 0 0 0 0 2.9ZM51.47 94.05a1.43 1.43 0 1 0 0-2.86 1.43 1.43 0 0 0 0 2.86ZM54.53 94.05a1.43 1.43 0 1 0 0-2.86 1.43 1.43 0 0 0 0 2.86ZM57.59 94.04a1.42 1.42 0 1 0 0-2.84 1.42 1.42 0 0 0 0 2.84ZM60.65 94.03a1.41 1.41 0 1 0 0-2.82 1.41 1.41 0 0 0 0 2.82ZM63.71 94.02a1.4 1.4 0 1 0 0-2.8 1.4 1.4 0 0 0 0 2.8ZM66.76 94.02a1.4 1.4 0 1 0 0-2.8 1.4 1.4 0 0 0 0 2.8ZM72.88 94a1.38 1.38 0 1 0 0-2.76 1.38 1.38 0 0 0 0 2.76ZM75.94 94a1.38 1.38 0 1 0 0-2.76 1.38 1.38 0 0 0 0 2.76ZM82.06 93.99a1.37 1.37 0 1 0 0-2.74 1.37 1.37 0 0 0 0 2.74ZM88.17 93.98a1.36 1.36 0 1 0 0-2.72 1.36 1.36 0 0 0 0 2.72ZM94.29 93.33a.71.71 0 1 0 0-1.42.71.71 0 0 0 0 1.42ZM130.99 93.33a.71.71 0 1 0 0-1.42.71.71 0 0 0 0 1.42ZM140.17 93.33a.71.71 0 1 0 0-1.42.71.71 0 0 0 0 1.42ZM146.29 93.33a.71.71 0 1 0 0-1.42.71.71 0 0 0 0 1.42ZM152.4 93.33a.71.71 0 1 0 0-1.42.71.71 0 0 0 0 1.42ZM158.52 93.33a.71.71 0 1 0 0-1.42.71.71 0 0 0 0 1.42ZM164.64 93.33a.71.71 0 1 0 0-1.42.71.71 0 0 0 0 1.42ZM170.75 93.33a.71.71 0 1 0 0-1.42.71.71 0 0 0 0 1.42ZM176.87 93.9a1.28 1.28 0 1 0 0-2.56 1.28 1.28 0 0 0 0 2.56ZM179.93 93.99a1.37 1.37 0 1 0 0-2.74 1.37 1.37 0 0 0 0 2.74ZM182.99 93.99a1.37 1.37 0 1 0 0-2.74 1.37 1.37 0 0 0 0 2.74ZM186.05 93.97a1.35 1.35 0 1 0 0-2.7 1.35 1.35 0 0 0 0 2.7ZM192.16 93.93a1.31 1.31 0 1 0 0-2.62 1.31 1.31 0 0 0 0 2.62ZM198.28 93.92a1.3 1.3 0 1 0 0-2.6 1.3 1.3 0 0 0 0 2.6ZM204.4 93.89a1.27 1.27 0 1 0 0-2.54 1.27 1.27 0 0 0 0 2.54ZM2.54 97.22a1.54 1.54 0 1 0 0-3.08 1.54 1.54 0 0 0 0 3.08ZM8.65 97.19a1.51 1.51 0 1 0 0-3.02 1.51 1.51 0 0 0 0 3.02ZM14.77 97.19a1.51 1.51 0 1 0 0-3.02 1.51 1.51 0 0 0 0 3.02ZM20.89 97.17a1.49 1.49 0 1 0 0-2.98 1.49 1.49 0 0 0 0 2.98ZM27 97.16a1.48 1.48 0 1 0 0-2.96 1.48 1.48 0 0 0 0 2.96ZM33.12 97.16a1.48 1.48 0 1 0 0-2.96 1.48 1.48 0 0 0 0 2.96ZM39.24 97.14a1.46 1.46 0 1 0 0-2.92 1.46 1.46 0 0 0 0 2.92ZM45.35 97.13a1.45 1.45 0 1 0 0-2.9 1.45 1.45 0 0 0 0 2.9ZM48.41 97.12a1.44 1.44 0 1 0 0-2.88 1.44 1.44 0 0 0 0 2.88ZM54.53 97.11a1.43 1.43 0 1 0 0-2.86 1.43 1.43 0 0 0 0 2.86ZM60.65 97.09a1.41 1.41 0 1 0 0-2.82 1.41 1.41 0 0 0 0 2.82ZM66.76 97.08a1.4 1.4 0 1 0 0-2.8 1.4 1.4 0 0 0 0 2.8ZM69.82 97.07a1.39 1.39 0 1 0 0-2.78 1.39 1.39 0 0 0 0 2.78ZM75.94 97.06a1.38 1.38 0 1 0 0-2.76 1.38 1.38 0 0 0 0 2.76ZM79 97.05a1.37 1.37 0 1 0 0-2.74 1.37 1.37 0 0 0 0 2.74ZM82.06 97.05a1.37 1.37 0 1 0 0-2.74 1.37 1.37 0 0 0 0 2.74ZM85.12 97.05a1.37 1.37 0 1 0 0-2.74 1.37 1.37 0 0 0 0 2.74ZM88.17 97.04a1.36 1.36 0 1 0 0-2.72 1.36 1.36 0 0 0 0 2.72ZM91.23 97.04a1.36 1.36 0 1 0 0-2.72 1.36 1.36 0 0 0 0 2.72ZM97.35 97.02a1.34 1.34 0 1 0 0-2.68 1.34 1.34 0 0 0 0 2.68ZM103.47 96.99a1.31 1.31 0 1 0 0-2.62 1.31 1.31 0 0 0 0 2.62ZM109.58 96.9a1.22 1.22 0 1 0 0-2.44 1.22 1.22 0 0 0 0 2.44ZM186.05 97.03a1.35 1.35 0 1 0 0-2.7 1.35 1.35 0 0 0 0 2.7ZM189.11 97.02a1.34 1.34 0 1 0 0-2.68 1.34 1.34 0 0 0 0 2.68ZM195.22 96.99a1.31 1.31 0 1 0 0-2.62 1.31 1.31 0 0 0 0 2.62ZM201.34 96.96a1.28 1.28 0 1 0 0-2.56 1.28 1.28 0 0 0 0 2.56Z"/>
  <path fill="#000" d="M2.54 100.28a1.54 1.54 0 1 0 0-3.08 1.54 1.54 0 0 0 0 3.08Z"/>
  <path fill="#000" d="M5.59 100.26a1.52 1.52 0 1 0 0-3.04 1.52 1.52 0 0 0 0 3.04Z"/>
  <path fill="#000" d="M8.65 100.25a1.51 1.51 0 1 0 0-3.02 1.51 1.51 0 0 0 0 3.02Z"/>
  <path fill="#000" d="M11.71 100.25a1.51 1.51 0 1 0 0-3.02 1.51 1.51 0 0 0 0 3.02Z"/>
  <path fill="#000" d="M14.77 100.24a1.5 1.5 0 1 0 0-3 1.5 1.5 0 0 0 0 3Z"/>
  <path fill="#000" d="M17.83 100.24a1.5 1.5 0 1 0 0-3 1.5 1.5 0 0 0 0 3Z"/>
  <path fill="#000" d="M20.89 100.23a1.49 1.49 0 1 0 0-2.98 1.49 1.49 0 0 0 0 2.98Z"/>
  <path fill="#000" d="M23.94 100.22a1.48 1.48 0 1 0 0-2.96 1.48 1.48 0 0 0 0 2.96Z"/>
  <path fill="#000" d="M27 100.22a1.48 1.48 0 1 0 0-2.96 1.48 1.48 0 0 0 0 2.96Z"/>
  <path fill="#000" d="M30.06 100.22a1.48 1.48 0 1 0 0-2.96 1.48 1.48 0 0 0 0 2.96Z"/>
  <path fill="#000" d="M33.12 100.22a1.48 1.48 0 1 0 0-2.96 1.48 1.48 0 0 0 0 2.96Z"/>
  <path fill="#000" d="M36.18 100.21a1.47 1.47 0 1 0 0-2.94 1.47 1.47 0 0 0 0 2.94Z"/>
  <path fill="#000" d="M39.24 100.2a1.46 1.46 0 1 0 0-2.92 1.46 1.46 0 0 0 0 2.92ZM42.3 100.2a1.46 1.46 0 1 0 0-2.92 1.46 1.46 0 0 0 0 2.92ZM48.41 100.18a1.44 1.44 0 1 0 0-2.88 1.44 1.44 0 0 0 0 2.88ZM51.47 100.17a1.43 1.43 0 1 0 0-2.86 1.43 1.43 0 0 0 0 2.86ZM54.53 100.17a1.43 1.43 0 1 0 0-2.86 1.43 1.43 0 0 0 0 2.86ZM57.59 100.16a1.42 1.42 0 1 0 0-2.84 1.42 1.42 0 0 0 0 2.84ZM60.65 100.15a1.41 1.41 0 1 0 0-2.82 1.41 1.41 0 0 0 0 2.82ZM63.71 100.15a1.41 1.41 0 1 0 0-2.82 1.41 1.41 0 0 0 0 2.82ZM69.82 100.13a1.39 1.39 0 1 0 0-2.78 1.39 1.39 0 0 0 0 2.78ZM72.88 100.12a1.38 1.38 0 1 0 0-2.76 1.38 1.38 0 0 0 0 2.76ZM79 100.11a1.37 1.37 0 1 0 0-2.74 1.37 1.37 0 0 0 0 2.74ZM85.12 100.11a1.37 1.37 0 1 0 0-2.74 1.37 1.37 0 0 0 0 2.74ZM91.23 100.09a1.35 1.35 0 1 0 0-2.7 1.35 1.35 0 0 0 0 2.7ZM94.29 100.08a1.34 1.34 0 1 0 0-2.68 1.34 1.34 0 0 0 0 2.68ZM100.41 100.07a1.33 1.33 0 1 0 0-2.66 1.33 1.33 0 0 0 0 2.66ZM106.53 100.05a1.31 1.31 0 1 0 0-2.62 1.31 1.31 0 0 0 0 2.62ZM112.64 100.04a1.3 1.3 0 1 0 0-2.6 1.3 1.3 0 0 0 0 2.6ZM118.76 100.02a1.28 1.28 0 1 0 0-2.56 1.28 1.28 0 0 0 0 2.56ZM149.35 99.45a.71.71 0 1 0 0-1.42.71.71 0 0 0 0 1.42ZM155.46 99.45a.71.71 0 1 0 0-1.42.71.71 0 0 0 0 1.42ZM161.58 99.45a.71.71 0 1 0 0-1.42.71.71 0 0 0 0 1.42ZM167.7 99.45a.71.71 0 1 0 0-1.42.71.71 0 0 0 0 1.42ZM173.81 99.45a.71.71 0 1 0 0-1.42.71.71 0 0 0 0 1.42ZM179.93 99.45a.71.71 0 1 0 0-1.42.71.71 0 0 0 0 1.42ZM192.16 100.07a1.33 1.33 0 1 0 0-2.66 1.33 1.33 0 0 0 0 2.66ZM198.28 100.04a1.3 1.3 0 1 0 0-2.6 1.3 1.3 0 0 0 0 2.6ZM204.4 100.01a1.27 1.27 0 1 0 0-2.54 1.27 1.27 0 0 0 0 2.54ZM2.54 103.34a1.54 1.54 0 1 0 0-3.08 1.54 1.54 0 0 0 0 3.08ZM8.65 103.31a1.51 1.51 0 1 0 0-3.02 1.51 1.51 0 0 0 0 3.02ZM14.77 103.3a1.5 1.5 0 1 0 0-3 1.5 1.5 0 0 0 0 3ZM20.89 103.29a1.49 1.49 0 1 0 0-2.98 1.49 1.49 0 0 0 0 2.98ZM27 103.28a1.48 1.48 0 1 0 0-2.96 1.48 1.48 0 0 0 0 2.96ZM33.12 103.28a1.48 1.48 0 1 0 0-2.96 1.48 1.48 0 0 0 0 2.96ZM39.24 103.27a1.47 1.47 0 1 0 0-2.94 1.47 1.47 0 0 0 0 2.94Z"/>
  <path fill="#000" d="M42.3 103.26a1.46 1.46 0 1 0 0-2.92 1.46 1.46 0 0 0 0 2.92ZM45.35 103.25a1.45 1.45 0 1 0 0-2.9 1.45 1.45 0 0 0 0 2.9ZM51.47 103.23a1.43 1.43 0 1 0 0-2.86 1.43 1.43 0 0 0 0 2.86ZM57.59 103.22a1.42 1.42 0 1 0 0-2.84 1.42 1.42 0 0 0 0 2.84ZM63.71 103.21a1.41 1.41 0 1 0 0-2.82 1.41 1.41 0 0 0 0 2.82ZM66.76 103.2a1.4 1.4 0 1 0 0-2.8 1.4 1.4 0 0 0 0 2.8ZM72.88 103.18a1.38 1.38 0 1 0 0-2.76 1.38 1.38 0 0 0 0 2.76ZM75.94 103.18a1.38 1.38 0 1 0 0-2.76 1.38 1.38 0 0 0 0 2.76ZM79 103.17a1.37 1.37 0 1 0 0-2.74 1.37 1.37 0 0 0 0 2.74ZM82.06 103.17a1.37 1.37 0 1 0 0-2.74 1.37 1.37 0 0 0 0 2.74ZM85.12 103.17a1.37 1.37 0 1 0 0-2.74 1.37 1.37 0 0 0 0 2.74ZM88.17 103.16a1.36 1.36 0 1 0 0-2.72 1.36 1.36 0 0 0 0 2.72ZM94.29 103.14a1.34 1.34 0 1 0 0-2.68 1.34 1.34 0 0 0 0 2.68ZM97.35 103.14a1.34 1.34 0 1 0 0-2.68 1.34 1.34 0 0 0 0 2.68ZM103.47 103.13a1.33 1.33 0 1 0 .001-2.659 1.33 1.33 0 0 0-.001 2.659ZM109.58 103.11a1.31 1.31 0 1 0 0-2.62 1.31 1.31 0 0 0 0 2.62ZM115.7 103.09a1.29 1.29 0 1 0-.001-2.581 1.29 1.29 0 0 0 .001 2.581ZM121.82 103.08a1.28 1.28 0 1 0 0-2.56 1.28 1.28 0 0 0 0 2.56ZM127.94 102.51a.71.71 0 1 0 0-1.42.71.71 0 0 0 0 1.42ZM134.05 102.51a.71.71 0 1 0 0-1.42.71.71 0 0 0 0 1.42ZM140.17 102.51a.71.71 0 1 0 0-1.42.71.71 0 0 0 0 1.42ZM182.99 102.51a.71.71 0 1 0 0-1.42.71.71 0 0 0 0 1.42ZM189.11 102.51a.71.71 0 1 0 0-1.42.71.71 0 0 0 0 1.42ZM195.22 103.11a1.31 1.31 0 1 0 0-2.62 1.31 1.31 0 0 0 0 2.62ZM201.34 103.09a1.29 1.29 0 1 0 0-2.58 1.29 1.29 0 0 0 0 2.58ZM207.46 102.87a1.07 1.07 0 1 0 0-2.14 1.07 1.07 0 0 0 0 2.14ZM2.54 106.4a1.54 1.54 0 1 0 0-3.08 1.54 1.54 0 0 0 0 3.08Z"/>
  <path fill="#000" d="M5.59 106.4a1.54 1.54 0 1 0 0-3.08 1.54 1.54 0 0 0 0 3.08Z"/>
  <path fill="#000" d="M8.65 106.37a1.51 1.51 0 1 0 0-3.02 1.51 1.51 0 0 0 0 3.02Z"/>
  <path fill="#000" d="M11.71 106.37a1.51 1.51 0 1 0 0-3.02 1.51 1.51 0 0 0 0 3.02Z"/>
  <path fill="#000" d="M14.77 106.36a1.5 1.5 0 1 0 0-3 1.5 1.5 0 0 0 0 3Z"/>
  <path fill="#000" d="M17.83 106.36a1.5 1.5 0 1 0 0-3 1.5 1.5 0 0 0 0 3Z"/>
  <path fill="#000" d="M20.89 106.35a1.49 1.49 0 1 0 0-2.98 1.49 1.49 0 0 0 0 2.98Z"/>
  <path fill="#000" d="M23.94 106.34a1.48 1.48 0 1 0 0-2.96 1.48 1.48 0 0 0 0 2.96Z"/>
  <path fill="#000" d="M27 106.34a1.48 1.48 0 1 0 0-2.96 1.48 1.48 0 0 0 0 2.96Z"/>
  <path fill="#000" d="M30.06 106.34a1.48 1.48 0 1 0 0-2.96 1.48 1.48 0 0 0 0 2.96Z"/>
  <path fill="#000" d="M33.12 106.34a1.48 1.48 0 1 0 0-2.96 1.48 1.48 0 0 0 0 2.96Z"/>
  <path fill="#000" d="M36.18 106.33a1.47 1.47 0 1 0 0-2.94 1.47 1.47 0 0 0 0 2.94ZM42.3 106.32a1.46 1.46 0 1 0 0-2.92 1.46 1.46 0 0 0 0 2.92ZM45.35 106.3a1.44 1.44 0 1 0 0-2.88 1.44 1.44 0 0 0 0 2.88ZM48.41 106.29a1.43 1.43 0 1 0 0-2.86 1.43 1.43 0 0 0 0 2.86ZM51.47 106.29a1.43 1.43 0 1 0 0-2.86 1.43 1.43 0 0 0 0 2.86ZM54.53 106.28a1.42 1.42 0 1 0 0-2.84 1.42 1.42 0 0 0 0 2.84ZM57.59 106.28a1.42 1.42 0 1 0 0-2.84 1.42 1.42 0 0 0 0 2.84ZM60.65 106.27a1.41 1.41 0 1 0 0-2.82 1.41 1.41 0 0 0 0 2.82ZM66.76 106.26a1.4 1.4 0 1 0 0-2.8 1.4 1.4 0 0 0 0 2.8ZM69.82 106.25a1.39 1.39 0 1 0 0-2.78 1.39 1.39 0 0 0 0 2.78ZM75.94 106.24a1.38 1.38 0 1 0 0-2.76 1.38 1.38 0 0 0 0 2.76ZM82.06 106.23a1.37 1.37 0 1 0 0-2.74 1.37 1.37 0 0 0 0 2.74ZM88.17 106.22a1.36 1.36 0 1 0 0-2.72 1.36 1.36 0 0 0 0 2.72ZM91.23 106.21a1.35 1.35 0 1 0 0-2.7 1.35 1.35 0 0 0 0 2.7ZM97.35 106.2a1.34 1.34 0 1 0 0-2.68 1.34 1.34 0 0 0 0 2.68ZM100.41 106.19a1.33 1.33 0 1 0 0-2.66 1.33 1.33 0 0 0 0 2.66ZM106.53 106.17a1.31 1.31 0 1 0 0-2.62 1.31 1.31 0 0 0 0 2.62ZM112.64 106.16a1.3 1.3 0 1 0 0-2.6 1.3 1.3 0 0 0 0 2.6ZM118.76 106.14a1.28 1.28 0 1 0 0-2.56 1.28 1.28 0 0 0 0 2.56ZM124.88 106.13a1.27 1.27 0 1 0-.001-2.541 1.27 1.27 0 0 0 .001 2.541ZM130.99 105.57a.71.71 0 1 0 0-1.42.71.71 0 0 0 0 1.42ZM143.23 105.57a.71.71 0 1 0 0-1.42.71.71 0 0 0 0 1.42ZM149.35 105.57a.71.71 0 1 0 0-1.42.71.71 0 0 0 0 1.42ZM155.46 105.57a.71.71 0 1 0 0-1.42.71.71 0 0 0 0 1.42ZM161.58 105.57a.71.71 0 1 0 0-1.42.71.71 0 0 0 0 1.42ZM167.7 105.57a.71.71 0 1 0 0-1.42.71.71 0 0 0 0 1.42ZM173.81 105.57a.71.71 0 1 0 0-1.42.71.71 0 0 0 0 1.42ZM198.28 105.57a.71.71 0 1 0 0-1.42.71.71 0 0 0 0 1.42ZM204.4 106.13a1.27 1.27 0 1 0-.001-2.541 1.27 1.27 0 0 0 .001 2.541ZM2.54 109.45a1.54 1.54 0 1 0 0-3.08 1.54 1.54 0 0 0 0 3.08ZM8.65 109.42a1.51 1.51 0 1 0 0-3.02 1.51 1.51 0 0 0 0 3.02ZM14.77 109.41a1.5 1.5 0 1 0 0-3 1.5 1.5 0 0 0 0 3ZM20.89 109.4a1.49 1.49 0 1 0 0-2.98 1.49 1.49 0 0 0 0 2.98ZM27 109.39a1.48 1.48 0 1 0 0-2.96 1.48 1.48 0 0 0 0 2.96ZM33.12 109.38a1.47 1.47 0 1 0 0-2.94 1.47 1.47 0 0 0 0 2.94Z"/>
  <path fill="#000" d="M36.18 109.38a1.47 1.47 0 1 0 0-2.94 1.47 1.47 0 0 0 0 2.94Z"/>
  <path fill="#000" d="M39.24 109.38a1.47 1.47 0 1 0 0-2.94 1.47 1.47 0 0 0 0 2.94ZM45.35 109.35a1.44 1.44 0 1 0 0-2.88 1.44 1.44 0 0 0 0 2.88ZM51.47 109.34a1.43 1.43 0 1 0 0-2.86 1.43 1.43 0 0 0 0 2.86ZM57.59 109.33a1.42 1.42 0 1 0 0-2.84 1.42 1.42 0 0 0 0 2.84ZM63.71 109.32a1.41 1.41 0 1 0 0-2.82 1.41 1.41 0 0 0 0 2.82ZM69.82 109.3a1.39 1.39 0 1 0 0-2.78 1.39 1.39 0 0 0 0 2.78ZM72.88 109.3a1.39 1.39 0 1 0 0-2.78 1.39 1.39 0 0 0 0 2.78ZM75.94 109.29a1.38 1.38 0 1 0 0-2.76 1.38 1.38 0 0 0 0 2.76ZM79 109.28a1.37 1.37 0 1 0 0-2.74 1.37 1.37 0 0 0 0 2.74ZM82.06 109.28a1.37 1.37 0 1 0 0-2.74 1.37 1.37 0 0 0 0 2.74ZM85.12 109.28a1.37 1.37 0 1 0 0-2.74 1.37 1.37 0 0 0 0 2.74ZM91.23 109.26a1.35 1.35 0 1 0 0-2.7 1.35 1.35 0 0 0 0 2.7ZM94.29 109.25a1.34 1.34 0 1 0 0-2.68 1.34 1.34 0 0 0 0 2.68ZM100.41 109.24a1.33 1.33 0 1 0-.001-2.661 1.33 1.33 0 0 0 .001 2.661ZM103.47 109.24a1.33 1.33 0 1 0 0-2.66 1.33 1.33 0 0 0 0 2.66ZM109.58 109.22a1.31 1.31 0 1 0 0-2.62 1.31 1.31 0 0 0 0 2.62ZM115.7 109.2a1.29 1.29 0 1 0-.001-2.581 1.29 1.29 0 0 0 .001 2.581ZM121.82 109.19a1.28 1.28 0 1 0 0-2.56 1.28 1.28 0 0 0 0 2.56ZM127.94 109.17a1.26 1.26 0 1 0 0-2.52 1.26 1.26 0 0 0 0 2.52ZM134.05 108.62a.71.71 0 1 0 0-1.42.71.71 0 0 0 0 1.42ZM176.87 108.62a.71.71 0 1 0 0-1.42.71.71 0 0 0 0 1.42ZM182.99 108.62a.71.71 0 1 0 0-1.42.71.71 0 0 0 0 1.42ZM189.11 108.62a.71.71 0 1 0 0-1.42.71.71 0 0 0 0 1.42ZM201.34 108.62a.71.71 0 1 0 0-1.42.71.71 0 0 0 0 1.42ZM207.46 109.01a1.1 1.1 0 1 0 .001-2.199 1.1 1.1 0 0 0-.001 2.199ZM2.54 112.51a1.54 1.54 0 1 0 0-3.08 1.54 1.54 0 0 0 0 3.08Z"/>
  <path fill="#000" d="M5.59 112.51a1.54 1.54 0 1 0 0-3.08 1.54 1.54 0 0 0 0 3.08Z"/>
  <path fill="#000" d="M8.65 112.48a1.51 1.51 0 1 0 0-3.02 1.51 1.51 0 0 0 0 3.02Z"/>
  <path fill="#000" d="M11.71 112.48a1.51 1.51 0 1 0 0-3.02 1.51 1.51 0 0 0 0 3.02Z"/>
  <path fill="#000" d="M14.77 112.47a1.5 1.5 0 1 0 0-3 1.5 1.5 0 0 0 0 3Z"/>
  <path fill="#000" d="M17.83 112.47a1.5 1.5 0 1 0 0-3 1.5 1.5 0 0 0 0 3Z"/>
  <path fill="#000" d="M20.89 112.46a1.49 1.49 0 1 0 0-2.98 1.49 1.49 0 0 0 0 2.98Z"/>
  <path fill="#000" d="M23.94 112.45a1.48 1.48 0 1 0 0-2.96 1.48 1.48 0 0 0 0 2.96Z"/>
  <path fill="#000" d="M27 112.45a1.48 1.48 0 1 0 0-2.96 1.48 1.48 0 0 0 0 2.96Z"/>
  <path fill="#000" d="M30.06 112.45a1.48 1.48 0 1 0 0-2.96 1.48 1.48 0 0 0 0 2.96ZM36.18 112.44a1.47 1.47 0 1 0 0-2.94 1.47 1.47 0 0 0 0 2.94Z"/>
  <path fill="#000" d="M39.24 112.43a1.46 1.46 0 1 0 0-2.92 1.46 1.46 0 0 0 0 2.92ZM42.3 112.42a1.45 1.45 0 1 0 0-2.9 1.45 1.45 0 0 0 0 2.9ZM45.35 112.42a1.45 1.45 0 1 0 0-2.9 1.45 1.45 0 0 0 0 2.9ZM48.41 112.41a1.44 1.44 0 1 0 0-2.88 1.44 1.44 0 0 0 0 2.88ZM51.47 112.4a1.43 1.43 0 1 0 0-2.86 1.43 1.43 0 0 0 0 2.86ZM54.53 112.4a1.43 1.43 0 1 0 0-2.86 1.43 1.43 0 0 0 0 2.86ZM57.59 112.39a1.42 1.42 0 1 0 0-2.84 1.42 1.42 0 0 0 0 2.84ZM60.65 112.38a1.41 1.41 0 1 0 0-2.82 1.41 1.41 0 0 0 0 2.82ZM63.71 112.38a1.41 1.41 0 1 0 0-2.82 1.41 1.41 0 0 0 0 2.82ZM66.76 112.37a1.4 1.4 0 1 0 0-2.8 1.4 1.4 0 0 0 0 2.8ZM72.88 112.36a1.39 1.39 0 1 0 0-2.78 1.39 1.39 0 0 0 0 2.78ZM79 112.34a1.37 1.37 0 1 0 0-2.74 1.37 1.37 0 0 0 0 2.74ZM85.12 112.33a1.36 1.36 0 1 0 0-2.72 1.36 1.36 0 0 0 0 2.72ZM88.17 112.33a1.36 1.36 0 1 0 0-2.72 1.36 1.36 0 0 0 0 2.72ZM94.29 112.31a1.34 1.34 0 1 0 0-2.68 1.34 1.34 0 0 0 0 2.68ZM97.35 112.31a1.34 1.34 0 1 0 0-2.68 1.34 1.34 0 0 0 0 2.68ZM103.47 112.28a1.31 1.31 0 1 0 .001-2.619 1.31 1.31 0 0 0-.001 2.619ZM106.53 112.28a1.31 1.31 0 1 0 0-2.62 1.31 1.31 0 0 0 0 2.62ZM112.64 112.27a1.3 1.3 0 1 0 0-2.6 1.3 1.3 0 0 0 0 2.6ZM118.76 112.25a1.28 1.28 0 1 0 0-2.56 1.28 1.28 0 0 0 0 2.56ZM124.88 112.24a1.27 1.27 0 1 0-.001-2.541 1.27 1.27 0 0 0 .001 2.541ZM130.99 112.18a1.21 1.21 0 1 0 0-2.42 1.21 1.21 0 0 0 0 2.42ZM137.11 111.68a.71.71 0 1 0 0-1.42.71.71 0 0 0 0 1.42ZM143.23 111.68a.71.71 0 1 0 0-1.42.71.71 0 0 0 0 1.42ZM149.35 111.68a.71.71 0 1 0 0-1.42.71.71 0 0 0 0 1.42ZM155.46 111.68a.71.71 0 1 0 0-1.42.71.71 0 0 0 0 1.42ZM161.58 111.68a.71.71 0 1 0 0-1.42.71.71 0 0 0 0 1.42ZM167.7 111.68a.71.71 0 1 0 0-1.42.71.71 0 0 0 0 1.42ZM192.16 111.68a.71.71 0 1 0 0-1.42.71.71 0 0 0 0 1.42ZM204.4 111.68a.71.71 0 1 0 0-1.42.71.71 0 0 0 0 1.42ZM2.54 115.57a1.54 1.54 0 1 0 0-3.08 1.54 1.54 0 0 0 0 3.08ZM8.65 115.54a1.51 1.51 0 1 0 0-3.02 1.51 1.51 0 0 0 0 3.02ZM14.77 115.53a1.5 1.5 0 1 0 0-3 1.5 1.5 0 0 0 0 3ZM20.89 115.52a1.49 1.49 0 1 0 0-2.98 1.49 1.49 0 0 0 0 2.98ZM27 115.51a1.48 1.48 0 1 0 0-2.96 1.48 1.48 0 0 0 0 2.96Z"/>
  <path fill="#000" d="M30.06 115.51a1.48 1.48 0 1 0 0-2.96 1.48 1.48 0 0 0 0 2.96Z"/>
  <path fill="#000" d="M33.12 115.5a1.47 1.47 0 1 0 0-2.94 1.47 1.47 0 0 0 0 2.94ZM39.24 115.49a1.46 1.46 0 1 0 0-2.92 1.46 1.46 0 0 0 0 2.92ZM45.35 115.48a1.45 1.45 0 1 0 0-2.9 1.45 1.45 0 0 0 0 2.9ZM51.47 115.46a1.43 1.43 0 1 0 0-2.86 1.43 1.43 0 0 0 0 2.86ZM57.59 115.45a1.42 1.42 0 1 0 0-2.84 1.42 1.42 0 0 0 0 2.84ZM63.71 115.44a1.41 1.41 0 1 0 0-2.82 1.41 1.41 0 0 0 0 2.82ZM69.82 115.42a1.39 1.39 0 1 0 0-2.78 1.39 1.39 0 0 0 0 2.78ZM72.88 115.41a1.38 1.38 0 1 0 0-2.76 1.38 1.38 0 0 0 0 2.76ZM75.94 115.41a1.38 1.38 0 1 0 0-2.76 1.38 1.38 0 0 0 0 2.76ZM79 115.4a1.37 1.37 0 1 0 0-2.74 1.37 1.37 0 0 0 0 2.74ZM82.06 115.4a1.37 1.37 0 1 0 0-2.74 1.37 1.37 0 0 0 0 2.74ZM88.17 115.39a1.36 1.36 0 1 0 0-2.72 1.36 1.36 0 0 0 0 2.72ZM91.23 115.38a1.35 1.35 0 1 0 0-2.7 1.35 1.35 0 0 0 0 2.7ZM97.35 115.37a1.34 1.34 0 1 0 0-2.68 1.34 1.34 0 0 0 0 2.68ZM100.41 115.36a1.33 1.33 0 1 0-.001-2.661 1.33 1.33 0 0 0 .001 2.661ZM106.53 115.34a1.31 1.31 0 1 0-.001-2.621 1.31 1.31 0 0 0 .001 2.621ZM109.58 115.34a1.31 1.31 0 1 0 0-2.62 1.31 1.31 0 0 0 0 2.62ZM115.7 115.32a1.29 1.29 0 1 0-.001-2.581 1.29 1.29 0 0 0 .001 2.581ZM121.82 115.31a1.28 1.28 0 1 0 0-2.56 1.28 1.28 0 0 0 0 2.56ZM127.94 115.29a1.26 1.26 0 1 0 0-2.52 1.26 1.26 0 0 0 0 2.52ZM134.05 114.74a.71.71 0 1 0 0-1.42.71.71 0 0 0 0 1.42ZM170.75 114.74a.71.71 0 1 0 0-1.42.71.71 0 0 0 0 1.42ZM176.87 114.74a.71.71 0 1 0 0-1.42.71.71 0 0 0 0 1.42ZM182.99 114.74a.71.71 0 1 0 0-1.42.71.71 0 0 0 0 1.42ZM195.22 114.74a.71.71 0 1 0 0-1.42.71.71 0 0 0 0 1.42ZM2.54 118.63a1.54 1.54 0 1 0 0-3.08 1.54 1.54 0 0 0 0 3.08Z"/>
  <path fill="#000" d="M5.59 118.61a1.52 1.52 0 1 0 0-3.04 1.52 1.52 0 0 0 0 3.04Z"/>
  <path fill="#000" d="M8.65 118.6a1.51 1.51 0 1 0 0-3.02 1.51 1.51 0 0 0 0 3.02Z"/>
  <path fill="#000" d="M11.71 118.6a1.51 1.51 0 1 0 0-3.02 1.51 1.51 0 0 0 0 3.02Z"/>
  <path fill="#000" d="M14.77 118.59a1.5 1.5 0 1 0 0-3 1.5 1.5 0 0 0 0 3Z"/>
  <path fill="#000" d="M17.83 118.59a1.5 1.5 0 1 0 0-3 1.5 1.5 0 0 0 0 3Z"/>
  <path fill="#000" d="M20.89 118.58a1.49 1.49 0 1 0 0-2.98 1.49 1.49 0 0 0 0 2.98Z"/>
  <path fill="#000" d="M23.94 118.58a1.49 1.49 0 1 0 0-2.98 1.49 1.49 0 0 0 0 2.98ZM30.06 118.57a1.48 1.48 0 1 0 0-2.96 1.48 1.48 0 0 0 0 2.96Z"/>
  <path fill="#000" d="M33.12 118.56a1.47 1.47 0 1 0 0-2.94 1.47 1.47 0 0 0 0 2.94Z"/>
  <path fill="#000" d="M36.18 118.56a1.47 1.47 0 1 0 0-2.94 1.47 1.47 0 0 0 0 2.94Z"/>
  <path fill="#000" d="M39.24 118.55a1.46 1.46 0 1 0 0-2.92 1.46 1.46 0 0 0 0 2.92ZM42.3 118.54a1.45 1.45 0 1 0 0-2.9 1.45 1.45 0 0 0 0 2.9ZM45.35 118.54a1.45 1.45 0 1 0 0-2.9 1.45 1.45 0 0 0 0 2.9ZM48.41 118.53a1.44 1.44 0 1 0 0-2.88 1.44 1.44 0 0 0 0 2.88ZM51.47 118.52a1.43 1.43 0 1 0 0-2.86 1.43 1.43 0 0 0 0 2.86ZM54.53 118.52a1.43 1.43 0 1 0 0-2.86 1.43 1.43 0 0 0 0 2.86ZM57.59 118.51a1.42 1.42 0 1 0 0-2.84 1.42 1.42 0 0 0 0 2.84ZM60.65 118.5a1.41 1.41 0 1 0 0-2.82 1.41 1.41 0 0 0 0 2.82ZM63.71 118.5a1.41 1.41 0 1 0 0-2.82 1.41 1.41 0 0 0 0 2.82ZM66.76 118.49a1.4 1.4 0 1 0 0-2.8 1.4 1.4 0 0 0 0 2.8ZM72.88 118.47a1.38 1.38 0 1 0 0-2.76 1.38 1.38 0 0 0 0 2.76ZM79 118.46a1.37 1.37 0 1 0 0-2.74 1.37 1.37 0 0 0 0 2.74ZM85.12 118.45a1.36 1.36 0 1 0 0-2.72 1.36 1.36 0 0 0 0 2.72ZM91.23 118.44a1.35 1.35 0 1 0 0-2.7 1.35 1.35 0 0 0 0 2.7ZM94.29 118.43a1.34 1.34 0 1 0 0-2.68 1.34 1.34 0 0 0 0 2.68ZM100.41 118.42a1.33 1.33 0 1 0 0-2.66 1.33 1.33 0 0 0 0 2.66ZM103.47 118.4a1.31 1.31 0 1 0 .001-2.619 1.31 1.31 0 0 0-.001 2.619ZM109.58 118.4a1.31 1.31 0 1 0 .001-2.619 1.31 1.31 0 0 0-.001 2.619ZM112.64 118.39a1.3 1.3 0 1 0 0-2.6 1.3 1.3 0 0 0 0 2.6ZM118.76 118.37a1.28 1.28 0 1 0 0-2.56 1.28 1.28 0 0 0 0 2.56ZM124.88 118.36a1.27 1.27 0 1 0-.001-2.541 1.27 1.27 0 0 0 .001 2.541ZM130.99 118.35a1.26 1.26 0 1 0 0-2.52 1.26 1.26 0 0 0 0 2.52ZM137.11 117.8a.71.71 0 1 0 0-1.42.71.71 0 0 0 0 1.42ZM143.23 117.8a.71.71 0 1 0 0-1.42.71.71 0 0 0 0 1.42ZM149.35 117.8a.71.71 0 1 0 0-1.42.71.71 0 0 0 0 1.42ZM155.46 117.8a.71.71 0 1 0 0-1.42.71.71 0 0 0 0 1.42ZM161.58 117.8a.71.71 0 1 0 0-1.42.71.71 0 0 0 0 1.42ZM186.05 117.8a.71.71 0 1 0 0-1.42.71.71 0 0 0 0 1.42ZM198.28 117.8a.71.71 0 1 0 0-1.42.71.71 0 0 0 0 1.42ZM204.4 117.8a.71.71 0 1 0 0-1.42.71.71 0 0 0 0 1.42ZM5.59 121.67a1.52 1.52 0 1 0 0-3.04 1.52 1.52 0 0 0 0 3.04ZM11.71 121.66a1.51 1.51 0 1 0 0-3.02 1.51 1.51 0 0 0 0 3.02ZM17.83 121.65a1.5 1.5 0 1 0 0-3 1.5 1.5 0 0 0 0 3ZM23.94 121.64a1.49 1.49 0 1 0 0-2.98 1.49 1.49 0 0 0 0 2.98Z"/>
  <path fill="#000" d="M27 121.63a1.48 1.48 0 1 0 0-2.96 1.48 1.48 0 0 0 0 2.96ZM33.12 121.62a1.47 1.47 0 1 0 0-2.94 1.47 1.47 0 0 0 0 2.94ZM39.24 121.61a1.46 1.46 0 1 0 0-2.92 1.46 1.46 0 0 0 0 2.92ZM45.35 121.6a1.45 1.45 0 1 0 0-2.9 1.45 1.45 0 0 0 0 2.9ZM51.47 121.58a1.43 1.43 0 1 0 0-2.86 1.43 1.43 0 0 0 0 2.86ZM57.59 121.57a1.42 1.42 0 1 0 0-2.84 1.42 1.42 0 0 0 0 2.84ZM63.71 121.55a1.4 1.4 0 1 0 0-2.8 1.4 1.4 0 0 0 0 2.8ZM69.82 121.54a1.39 1.39 0 1 0 0-2.78 1.39 1.39 0 0 0 0 2.78ZM72.88 121.53a1.38 1.38 0 1 0 0-2.76 1.38 1.38 0 0 0 0 2.76ZM75.94 121.52a1.37 1.37 0 1 0 0-2.74 1.37 1.37 0 0 0 0 2.74ZM79 121.52a1.37 1.37 0 1 0 0-2.74 1.37 1.37 0 0 0 0 2.74ZM82.06 121.52a1.37 1.37 0 1 0 0-2.74 1.37 1.37 0 0 0 0 2.74ZM85.12 121.51a1.36 1.36 0 1 0 0-2.72 1.36 1.36 0 0 0 0 2.72ZM88.17 121.51a1.36 1.36 0 1 0 0-2.72 1.36 1.36 0 0 0 0 2.72ZM94.29 121.49a1.34 1.34 0 1 0 0-2.68 1.34 1.34 0 0 0 0 2.68ZM97.35 121.49a1.34 1.34 0 1 0 0-2.68 1.34 1.34 0 0 0 0 2.68ZM103.47 121.46a1.31 1.31 0 1 0 0-2.62 1.31 1.31 0 0 0 0 2.62ZM106.53 121.46a1.31 1.31 0 1 0-.001-2.621 1.31 1.31 0 0 0 .001 2.621ZM112.64 121.45a1.3 1.3 0 1 0 0-2.6 1.3 1.3 0 0 0 0 2.6ZM118.76 121.43a1.28 1.28 0 1 0 0-2.56 1.28 1.28 0 0 0 0 2.56ZM124.88 121.42a1.27 1.27 0 1 0-.001-2.541 1.27 1.27 0 0 0 .001 2.541ZM130.99 121.41a1.26 1.26 0 1 0 0-2.52 1.26 1.26 0 0 0 0 2.52ZM164.64 120.86a.71.71 0 1 0 0-1.42.71.71 0 0 0 0 1.42ZM170.75 120.86a.71.71 0 1 0 0-1.42.71.71 0 0 0 0 1.42ZM176.87 120.86a.71.71 0 1 0 0-1.42.71.71 0 0 0 0 1.42ZM189.11 120.86a.71.71 0 1 0 0-1.42.71.71 0 0 0 0 1.42ZM5.59 124.73a1.52 1.52 0 1 0 0-3.04 1.52 1.52 0 0 0 0 3.04Z"/>
  <path fill="#000" d="M8.65 124.72a1.51 1.51 0 1 0 0-3.02 1.51 1.51 0 0 0 0 3.02Z"/>
  <path fill="#000" d="M11.71 124.72a1.51 1.51 0 1 0 0-3.02 1.51 1.51 0 0 0 0 3.02Z"/>
  <path fill="#000" d="M14.77 124.71a1.5 1.5 0 1 0 0-3 1.5 1.5 0 0 0 0 3Z"/>
  <path fill="#000" d="M17.83 124.71a1.5 1.5 0 1 0 0-3 1.5 1.5 0 0 0 0 3Z"/>
  <path fill="#000" d="M20.89 124.7a1.49 1.49 0 1 0 0-2.98 1.49 1.49 0 0 0 0 2.98ZM27 124.69a1.48 1.48 0 1 0 0-2.96 1.48 1.48 0 0 0 0 2.96Z"/>
  <path fill="#000" d="M30.06 124.69a1.48 1.48 0 1 0 0-2.96 1.48 1.48 0 0 0 0 2.96Z"/>
  <path fill="#000" d="M33.12 124.68a1.47 1.47 0 1 0 0-2.94 1.47 1.47 0 0 0 0 2.94Z"/>
  <path fill="#000" d="M36.18 124.67a1.46 1.46 0 1 0 0-2.92 1.46 1.46 0 0 0 0 2.92ZM39.24 124.67a1.46 1.46 0 1 0 0-2.92 1.46 1.46 0 0 0 0 2.92ZM42.3 124.66a1.45 1.45 0 1 0 0-2.9 1.45 1.45 0 0 0 0 2.9ZM45.35 124.66a1.45 1.45 0 1 0 0-2.9 1.45 1.45 0 0 0 0 2.9ZM48.41 124.65a1.44 1.44 0 1 0 0-2.88 1.44 1.44 0 0 0 0 2.88ZM51.47 124.64a1.43 1.43 0 1 0 0-2.86 1.43 1.43 0 0 0 0 2.86ZM54.53 124.63a1.42 1.42 0 1 0 0-2.84 1.42 1.42 0 0 0 0 2.84ZM57.59 124.63a1.42 1.42 0 1 0 0-2.84 1.42 1.42 0 0 0 0 2.84ZM60.65 124.62a1.41 1.41 0 1 0 0-2.82 1.41 1.41 0 0 0 0 2.82ZM63.71 124.61a1.4 1.4 0 1 0 0-2.8 1.4 1.4 0 0 0 0 2.8ZM66.76 124.61a1.4 1.4 0 1 0 0-2.8 1.4 1.4 0 0 0 0 2.8ZM72.88 124.59a1.38 1.38 0 1 0 0-2.76 1.38 1.38 0 0 0 0 2.76ZM79 124.58a1.37 1.37 0 1 0 0-2.74 1.37 1.37 0 0 0 0 2.74ZM85.12 124.57a1.36 1.36 0 1 0 0-2.72 1.36 1.36 0 0 0 0 2.72ZM91.23 124.56a1.35 1.35 0 1 0 0-2.7 1.35 1.35 0 0 0 0 2.7ZM97.35 124.54a1.33 1.33 0 1 0 0-2.66 1.33 1.33 0 0 0 0 2.66ZM100.41 124.54a1.33 1.33 0 1 0 0-2.66 1.33 1.33 0 0 0 0 2.66ZM106.53 124.52a1.31 1.31 0 1 0 0-2.62 1.31 1.31 0 0 0 0 2.62ZM109.58 124.52a1.31 1.31 0 1 0 .001-2.619 1.31 1.31 0 0 0-.001 2.619ZM115.7 124.5a1.29 1.29 0 1 0-.001-2.581 1.29 1.29 0 0 0 .001 2.581ZM121.82 124.49a1.28 1.28 0 1 0 0-2.56 1.28 1.28 0 0 0 0 2.56ZM127.94 124.47a1.26 1.26 0 1 0 0-2.52 1.26 1.26 0 0 0 0 2.52ZM134.05 123.92a.71.71 0 1 0 0-1.42.71.71 0 0 0 0 1.42ZM140.17 123.92a.71.71 0 1 0 0-1.42.71.71 0 0 0 0 1.42ZM146.29 123.92a.71.71 0 1 0 0-1.42.71.71 0 0 0 0 1.42ZM152.4 123.92a.71.71 0 1 0 0-1.42.71.71 0 0 0 0 1.42ZM158.52 123.92a.71.71 0 1 0 0-1.42.71.71 0 0 0 0 1.42ZM179.93 123.92a.71.71 0 1 0 0-1.42.71.71 0 0 0 0 1.42ZM192.16 123.92a.71.71 0 1 0 0-1.42.71.71 0 0 0 0 1.42ZM198.28 123.92a.71.71 0 1 0 0-1.42.71.71 0 0 0 0 1.42ZM5.59 127.79a1.52 1.52 0 1 0 0-3.04 1.52 1.52 0 0 0 0 3.04ZM11.71 127.78a1.51 1.51 0 1 0 0-3.02 1.51 1.51 0 0 0 0 3.02ZM17.83 127.77a1.5 1.5 0 1 0 0-3 1.5 1.5 0 0 0 0 3Z"/>
  <path fill="#000" d="M20.89 127.76a1.49 1.49 0 1 0 0-2.98 1.49 1.49 0 0 0 0 2.98Z"/>
  <path fill="#000" d="M23.94 127.75a1.48 1.48 0 1 0 0-2.96 1.48 1.48 0 0 0 0 2.96ZM30.06 127.75a1.48 1.48 0 1 0 0-2.96 1.48 1.48 0 0 0 0 2.96ZM36.18 127.73a1.46 1.46 0 1 0 0-2.92 1.46 1.46 0 0 0 0 2.92ZM42.3 127.72a1.45 1.45 0 1 0 0-2.9 1.45 1.45 0 0 0 0 2.9ZM48.41 127.71a1.44 1.44 0 1 0 0-2.88 1.44 1.44 0 0 0 0 2.88ZM54.53 127.69a1.42 1.42 0 1 0 0-2.84 1.42 1.42 0 0 0 0 2.84ZM60.65 127.68a1.41 1.41 0 1 0 0-2.82 1.41 1.41 0 0 0 0 2.82ZM66.76 127.67a1.4 1.4 0 1 0 0-2.8 1.4 1.4 0 0 0 0 2.8ZM69.82 127.66a1.39 1.39 0 1 0 0-2.78 1.39 1.39 0 0 0 0 2.78ZM72.88 127.65a1.38 1.38 0 1 0 0-2.76 1.38 1.38 0 0 0 0 2.76ZM75.94 127.65a1.38 1.38 0 1 0 0-2.76 1.38 1.38 0 0 0 0 2.76ZM79 127.64a1.37 1.37 0 1 0 0-2.74 1.37 1.37 0 0 0 0 2.74ZM82.06 127.64a1.37 1.37 0 1 0 0-2.74 1.37 1.37 0 0 0 0 2.74ZM85.12 127.63a1.36 1.36 0 1 0 0-2.72 1.36 1.36 0 0 0 0 2.72ZM88.17 127.63a1.36 1.36 0 1 0 0-2.72 1.36 1.36 0 0 0 0 2.72ZM94.29 127.61a1.34 1.34 0 1 0 0-2.68 1.34 1.34 0 0 0 0 2.68ZM100.41 127.6a1.33 1.33 0 1 0-.001-2.661 1.33 1.33 0 0 0 .001 2.661ZM103.47 127.58a1.31 1.31 0 1 0 0-2.62 1.31 1.31 0 0 0 0 2.62ZM109.58 127.58a1.31 1.31 0 1 0 0-2.62 1.31 1.31 0 0 0 0 2.62ZM112.64 127.57a1.3 1.3 0 1 0 0-2.6 1.3 1.3 0 0 0 0 2.6ZM118.76 127.55a1.28 1.28 0 1 0 0-2.56 1.28 1.28 0 0 0 0 2.56ZM124.88 127.54a1.27 1.27 0 1 0-.001-2.541 1.27 1.27 0 0 0 .001 2.541ZM130.99 126.98a.71.71 0 1 0 0-1.42.71.71 0 0 0 0 1.42ZM161.58 126.98a.71.71 0 1 0 0-1.42.71.71 0 0 0 0 1.42ZM167.7 126.98a.71.71 0 1 0 0-1.42.71.71 0 0 0 0 1.42ZM173.81 126.98a.71.71 0 1 0 0-1.42.71.71 0 0 0 0 1.42ZM182.99 126.98a.71.71 0 1 0 0-1.42.71.71 0 0 0 0 1.42ZM5.59 130.84a1.52 1.52 0 1 0 0-3.04 1.52 1.52 0 0 0 0 3.04Z"/>
  <path fill="#000" d="M8.65 130.83a1.51 1.51 0 1 0 0-3.02 1.51 1.51 0 0 0 0 3.02Z"/>
  <path fill="#000" d="M11.71 130.83a1.51 1.51 0 1 0 0-3.02 1.51 1.51 0 0 0 0 3.02Z"/>
  <path fill="#000" d="M14.77 130.82a1.5 1.5 0 1 0 0-3 1.5 1.5 0 0 0 0 3ZM20.89 130.81a1.49 1.49 0 1 0 0-2.98 1.49 1.49 0 0 0 0 2.98Z"/>
  <path fill="#000" d="M23.94 130.8a1.48 1.48 0 1 0 0-2.96 1.48 1.48 0 0 0 0 2.96Z"/>
  <path fill="#000" d="M27 130.8a1.48 1.48 0 1 0 0-2.96 1.48 1.48 0 0 0 0 2.96Z"/>
  <path fill="#000" d="M30.06 130.8a1.48 1.48 0 1 0 0-2.96 1.48 1.48 0 0 0 0 2.96Z"/>
  <path fill="#000" d="M33.12 130.79a1.47 1.47 0 1 0 0-2.94 1.47 1.47 0 0 0 0 2.94Z"/>
  <path fill="#000" d="M36.18 130.78a1.46 1.46 0 1 0 0-2.92 1.46 1.46 0 0 0 0 2.92ZM39.24 130.78a1.46 1.46 0 1 0 0-2.92 1.46 1.46 0 0 0 0 2.92ZM42.3 130.78a1.46 1.46 0 1 0 0-2.92 1.46 1.46 0 0 0 0 2.92ZM45.35 130.77a1.45 1.45 0 1 0 0-2.9 1.45 1.45 0 0 0 0 2.9ZM48.41 130.76a1.44 1.44 0 1 0 0-2.88 1.44 1.44 0 0 0 0 2.88ZM51.47 130.75a1.43 1.43 0 1 0 0-2.86 1.43 1.43 0 0 0 0 2.86ZM54.53 130.74a1.42 1.42 0 1 0 0-2.84 1.42 1.42 0 0 0 0 2.84ZM57.59 130.74a1.42 1.42 0 1 0 0-2.84 1.42 1.42 0 0 0 0 2.84ZM60.65 130.73a1.41 1.41 0 1 0 0-2.82 1.41 1.41 0 0 0 0 2.82ZM63.71 130.72a1.4 1.4 0 1 0 0-2.8 1.4 1.4 0 0 0 0 2.8ZM69.82 130.71a1.39 1.39 0 1 0 0-2.78 1.39 1.39 0 0 0 0 2.78ZM75.94 130.7a1.38 1.38 0 1 0 0-2.76 1.38 1.38 0 0 0 0 2.76ZM82.06 130.69a1.37 1.37 0 1 0 0-2.74 1.37 1.37 0 0 0 0 2.74ZM88.17 130.68a1.36 1.36 0 1 0 0-2.72 1.36 1.36 0 0 0 0 2.72ZM91.23 130.67a1.35 1.35 0 1 0 0-2.7 1.35 1.35 0 0 0 0 2.7ZM97.35 130.65a1.33 1.33 0 1 0 0-2.66 1.33 1.33 0 0 0 0 2.66ZM103.47 130.63a1.31 1.31 0 1 0 .001-2.619 1.31 1.31 0 0 0-.001 2.619ZM106.53 130.63a1.31 1.31 0 1 0 0-2.62 1.31 1.31 0 0 0 0 2.62ZM112.64 130.62a1.3 1.3 0 1 0 0-2.6 1.3 1.3 0 0 0 0 2.6ZM115.7 130.62a1.3 1.3 0 1 0 0-2.6 1.3 1.3 0 0 0 0 2.6ZM121.82 130.6a1.28 1.28 0 1 0 0-2.56 1.28 1.28 0 0 0 0 2.56ZM127.94 130.03a.71.71 0 1 0 0-1.42.71.71 0 0 0 0 1.42ZM134.05 130.03a.71.71 0 1 0 0-1.42.71.71 0 0 0 0 1.42ZM140.17 130.03a.71.71 0 1 0 0-1.42.71.71 0 0 0 0 1.42ZM146.29 130.03a.71.71 0 1 0 0-1.42.71.71 0 0 0 0 1.42ZM152.4 130.03a.71.71 0 1 0 0-1.42.71.71 0 0 0 0 1.42ZM176.87 130.03a.71.71 0 1 0 0-1.42.71.71 0 0 0 0 1.42ZM186.05 130.03a.71.71 0 1 0 0-1.42.71.71 0 0 0 0 1.42ZM192.16 129.93a.61.61 0 1 0 0-1.22.61.61 0 0 0 0 1.22ZM5.59 133.9a1.52 1.52 0 1 0 0-3.04 1.52 1.52 0 0 0 0 3.04ZM11.71 133.89a1.51 1.51 0 1 0 0-3.02 1.51 1.51 0 0 0 0 3.02Z"/>
  <path fill="#000" d="M14.77 133.88a1.5 1.5 0 1 0 0-3 1.5 1.5 0 0 0 0 3Z"/>
  <path fill="#000" d="M17.83 133.88a1.5 1.5 0 1 0 0-3 1.5 1.5 0 0 0 0 3ZM23.94 133.86a1.48 1.48 0 1 0 0-2.96 1.48 1.48 0 0 0 0 2.96ZM30.06 133.86a1.48 1.48 0 1 0 0-2.96 1.48 1.48 0 0 0 0 2.96ZM36.18 133.84a1.46 1.46 0 1 0 0-2.92 1.46 1.46 0 0 0 0 2.92ZM42.3 133.84a1.46 1.46 0 1 0 0-2.92 1.46 1.46 0 0 0 0 2.92ZM48.41 133.82a1.44 1.44 0 1 0 0-2.88 1.44 1.44 0 0 0 0 2.88ZM54.53 133.8a1.42 1.42 0 1 0 0-2.84 1.42 1.42 0 0 0 0 2.84ZM60.65 133.79a1.41 1.41 0 1 0 0-2.82 1.41 1.41 0 0 0 0 2.82ZM66.76 133.78a1.4 1.4 0 1 0 0-2.8 1.4 1.4 0 0 0 0 2.8ZM69.82 133.77a1.39 1.39 0 1 0 0-2.78 1.39 1.39 0 0 0 0 2.78ZM72.88 133.76a1.38 1.38 0 1 0 0-2.76 1.38 1.38 0 0 0 0 2.76ZM75.94 133.76a1.38 1.38 0 1 0 0-2.76 1.38 1.38 0 0 0 0 2.76ZM79 133.75a1.37 1.37 0 1 0 0-2.74 1.37 1.37 0 0 0 0 2.74ZM82.06 133.75a1.37 1.37 0 1 0 0-2.74 1.37 1.37 0 0 0 0 2.74ZM85.12 133.75a1.37 1.37 0 1 0 0-2.74 1.37 1.37 0 0 0 0 2.74ZM91.23 133.73a1.35 1.35 0 1 0 0-2.7 1.35 1.35 0 0 0 0 2.7ZM94.29 133.72a1.34 1.34 0 1 0 0-2.68 1.34 1.34 0 0 0 0 2.68ZM100.41 133.71a1.33 1.33 0 1 0 0-2.66 1.33 1.33 0 0 0 0 2.66ZM106.53 133.69a1.31 1.31 0 1 0 0-2.62 1.31 1.31 0 0 0 0 2.62ZM109.58 133.69a1.31 1.31 0 1 0 .001-2.619 1.31 1.31 0 0 0-.001 2.619ZM115.7 133.68a1.3 1.3 0 1 0 0-2.6 1.3 1.3 0 0 0 0 2.6ZM121.82 133.66a1.28 1.28 0 1 0 0-2.56 1.28 1.28 0 0 0 0 2.56ZM155.46 133.09a.71.71 0 1 0 0-1.42.71.71 0 0 0 0 1.42ZM161.58 133.09a.71.71 0 1 0 0-1.42.71.71 0 0 0 0 1.42ZM167.7 133.09a.71.71 0 1 0 0-1.42.71.71 0 0 0 0 1.42ZM179.93 133.09a.71.71 0 1 0 0-1.42.71.71 0 0 0 0 1.42ZM8.65 136.96a1.52 1.52 0 1 0 0-3.04 1.52 1.52 0 0 0 0 3.04ZM14.77 136.94a1.5 1.5 0 1 0 0-3 1.5 1.5 0 0 0 0 3Z"/>
  <path fill="#000" d="M17.83 136.94a1.5 1.5 0 1 0 0-3 1.5 1.5 0 0 0 0 3Z"/>
  <path fill="#000" d="M20.89 136.93a1.49 1.49 0 1 0 0-2.98 1.49 1.49 0 0 0 0 2.98Z"/>
  <path fill="#000" d="M23.94 136.92a1.48 1.48 0 1 0 0-2.96 1.48 1.48 0 0 0 0 2.96Z"/>
  <path fill="#000" d="M27 136.92a1.48 1.48 0 1 0 0-2.96 1.48 1.48 0 0 0 0 2.96Z"/>
  <path fill="#000" d="M30.06 136.92a1.48 1.48 0 1 0 0-2.96 1.48 1.48 0 0 0 0 2.96Z"/>
  <path fill="#000" d="M33.12 136.91a1.47 1.47 0 1 0 0-2.94 1.47 1.47 0 0 0 0 2.94Z"/>
  <path fill="#000" d="M36.18 136.9a1.46 1.46 0 1 0 0-2.92 1.46 1.46 0 0 0 0 2.92ZM39.24 136.9a1.46 1.46 0 1 0 0-2.92 1.46 1.46 0 0 0 0 2.92ZM42.3 136.9a1.46 1.46 0 1 0 0-2.92 1.46 1.46 0 0 0 0 2.92ZM45.35 136.88a1.44 1.44 0 1 0 0-2.88 1.44 1.44 0 0 0 0 2.88ZM48.41 136.88a1.44 1.44 0 1 0 0-2.88 1.44 1.44 0 0 0 0 2.88ZM51.47 136.87a1.43 1.43 0 1 0 0-2.86 1.43 1.43 0 0 0 0 2.86ZM54.53 136.86a1.42 1.42 0 1 0 0-2.84 1.42 1.42 0 0 0 0 2.84ZM57.59 136.85a1.41 1.41 0 1 0 0-2.82 1.41 1.41 0 0 0 0 2.82ZM60.65 136.85a1.41 1.41 0 1 0 0-2.82 1.41 1.41 0 0 0 0 2.82ZM63.71 136.84a1.4 1.4 0 1 0 0-2.8 1.4 1.4 0 0 0 0 2.8ZM69.82 136.83a1.39 1.39 0 1 0 0-2.78 1.39 1.39 0 0 0 0 2.78ZM75.94 136.82a1.38 1.38 0 1 0 0-2.76 1.38 1.38 0 0 0 0 2.76ZM82.06 136.81a1.37 1.37 0 1 0 0-2.74 1.37 1.37 0 0 0 0 2.74ZM88.17 136.79a1.35 1.35 0 1 0 0-2.7 1.35 1.35 0 0 0 0 2.7ZM94.29 136.78a1.34 1.34 0 1 0 0-2.68 1.34 1.34 0 0 0 0 2.68ZM97.35 136.77a1.33 1.33 0 1 0 0-2.66 1.33 1.33 0 0 0 0 2.66ZM103.47 136.75a1.31 1.31 0 1 0 0-2.62 1.31 1.31 0 0 0 0 2.62ZM109.58 136.75a1.31 1.31 0 1 0 0-2.62 1.31 1.31 0 0 0 0 2.62ZM112.64 136.74a1.3 1.3 0 1 0 0-2.6 1.3 1.3 0 0 0 0 2.6ZM118.76 136.15a.71.71 0 1 0 0-1.42.71.71 0 0 0 0 1.42ZM124.88 136.15a.71.71 0 1 0 0-1.42.71.71 0 0 0 0 1.42ZM130.99 136.15a.71.71 0 1 0 0-1.42.71.71 0 0 0 0 1.42ZM137.11 136.15a.71.71 0 1 0 0-1.42.71.71 0 0 0 0 1.42ZM143.23 136.15a.71.71 0 1 0 0-1.42.71.71 0 0 0 0 1.42ZM149.35 136.15a.71.71 0 1 0 0-1.42.71.71 0 0 0 0 1.42ZM8.65 140.02a1.52 1.52 0 1 0 0-3.04 1.52 1.52 0 0 0 0 3.04Z"/>
  <path fill="#000" d="M11.71 140.01a1.51 1.51 0 1 0 0-3.02 1.51 1.51 0 0 0 0 3.02ZM17.83 140a1.5 1.5 0 1 0 0-3 1.5 1.5 0 0 0 0 3ZM23.94 139.98a1.48 1.48 0 1 0 0-2.96 1.48 1.48 0 0 0 0 2.96ZM30.06 139.98a1.48 1.48 0 1 0 0-2.96 1.48 1.48 0 0 0 0 2.96ZM36.18 139.96a1.46 1.46 0 1 0 0-2.92 1.46 1.46 0 0 0 0 2.92ZM42.3 139.95a1.45 1.45 0 1 0 0-2.9 1.45 1.45 0 0 0 0 2.9ZM48.41 139.94a1.44 1.44 0 1 0 0-2.88 1.44 1.44 0 0 0 0 2.88ZM54.53 139.92a1.42 1.42 0 1 0 0-2.84 1.42 1.42 0 0 0 0 2.84ZM60.65 139.91a1.41 1.41 0 1 0 0-2.82 1.41 1.41 0 0 0 0 2.82ZM66.76 139.86a1.36 1.36 0 1 0 0-2.72 1.36 1.36 0 0 0 0 2.72ZM72.88 139.35a.85.85 0 1 0 0-1.7.85.85 0 0 0 0 1.7ZM79 139.21a.71.71 0 1 0 0-1.42.71.71 0 0 0 0 1.42ZM85.12 139.21a.71.71 0 1 0 0-1.42.71.71 0 0 0 0 1.42ZM91.23 139.21a.71.71 0 1 0 0-1.42.71.71 0 0 0 0 1.42ZM100.41 139.21a.71.71 0 1 0 0-1.42.71.71 0 0 0 0 1.42ZM106.53 139.21a.71.71 0 1 0 0-1.42.71.71 0 0 0 0 1.42ZM8.65 143.08a1.52 1.52 0 1 0 0-3.04 1.52 1.52 0 0 0 0 3.04Z"/>
  <path fill="#000" d="M11.71 143.06a1.5 1.5 0 1 0 0-3 1.5 1.5 0 0 0 0 3Z"/>
  <path fill="#000" d="M14.77 143.06a1.5 1.5 0 1 0 0-3 1.5 1.5 0 0 0 0 3Z"/>
  <path fill="#000" d="M17.83 143.06a1.5 1.5 0 1 0 0-3 1.5 1.5 0 0 0 0 3Z"/>
  <path fill="#000" d="M20.89 143.05a1.49 1.49 0 1 0 0-2.98 1.49 1.49 0 0 0 0 2.98Z"/>
  <path fill="#000" d="M23.94 143.04a1.48 1.48 0 1 0 0-2.96 1.48 1.48 0 0 0 0 2.96Z"/>
  <path fill="#000" d="M27 143.04a1.48 1.48 0 1 0 0-2.96 1.48 1.48 0 0 0 0 2.96Z"/>
  <path fill="#000" d="M30.06 143.03a1.47 1.47 0 1 0 0-2.94 1.47 1.47 0 0 0 0 2.94Z"/>
  <path fill="#000" d="M33.12 143.03a1.47 1.47 0 1 0 0-2.94 1.47 1.47 0 0 0 0 2.94Z"/>
  <path fill="#000" d="M36.18 143.02a1.46 1.46 0 1 0 0-2.92 1.46 1.46 0 0 0 0 2.92ZM39.24 143.02a1.46 1.46 0 1 0 0-2.92 1.46 1.46 0 0 0 0 2.92ZM11.71 146.12a1.5 1.5 0 1 0 0-3 1.5 1.5 0 0 0 0 3ZM17.83 146.11a1.49 1.49 0 1 0 0-2.98 1.49 1.49 0 0 0 0 2.98ZM23.94 146.1a1.48 1.48 0 1 0 0-2.96 1.48 1.48 0 0 0 0 2.96ZM11.71 149.19a1.51 1.51 0 1 0 0-3.02 1.51 1.51 0 0 0 0 3.02Z"/>
  <path fill="#000" d="M14.77 149.18a1.5 1.5 0 1 0 0-3 1.5 1.5 0 0 0 0 3Z"/>
  <path fill="#000" d="M17.83 149.17a1.49 1.49 0 1 0 0-2.98 1.49 1.49 0 0 0 0 2.98ZM20.89 149.08a1.4 1.4 0 1 0 0-2.8 1.4 1.4 0 0 0 0 2.8ZM27 148.39a.71.71 0 1 0 0-1.42.71.71 0 0 0 0 1.42ZM33.12 148.39a.71.71 0 1 0 0-1.42.71.71 0 0 0 0 1.42ZM11.71 152.24a1.51 1.51 0 1 0 0-3.02 1.51 1.51 0 0 0 0 3.02ZM17.83 152.2a1.47 1.47 0 1 0 0-2.94 1.47 1.47 0 0 0 0 2.94ZM36.18 151.44a.71.71 0 1 0 0-1.42.71.71 0 0 0 0 1.42ZM42.3 151.44a.71.71 0 1 0 0-1.42.71.71 0 0 0 0 1.42ZM14.77 155.29a1.5 1.5 0 1 0 0-3 1.5 1.5 0 0 0 0 3ZM20.89 154.5a.71.71 0 1 0 0-1.42.71.71 0 0 0 0 1.42ZM27 154.5a.71.71 0 1 0 0-1.42.71.71 0 0 0 0 1.42ZM45.35 154.5a.71.71 0 1 0 0-1.42.71.71 0 0 0 0 1.42ZM51.47 154.5a.71.71 0 1 0 0-1.42.71.71 0 0 0 0 1.42ZM30.06 157.56a.71.71 0 1 0 0-1.42.71.71 0 0 0 0 1.42ZM36.18 157.56a.71.71 0 1 0 0-1.42.71.71 0 0 0 0 1.42ZM54.53 157.56a.71.71 0 1 0 0-1.42.71.71 0 0 0 0 1.42ZM60.65 157.56a.71.71 0 1 0 0-1.42.71.71 0 0 0 0 1.42ZM66.76 157.56a.71.71 0 1 0 0-1.42.71.71 0 0 0 0 1.42ZM134.05 158.21a1.36 1.36 0 1 0 0-2.72 1.36 1.36 0 0 0 0 2.72ZM137.11 158.32a1.47 1.47 0 1 0 0-2.94 1.47 1.47 0 0 0 0 2.94Z"/>
  <path fill="#000" d="M140.17 158.31a1.46 1.46 0 1 0 0-2.92 1.46 1.46 0 0 0 0 2.92ZM143.23 158.27a1.42 1.42 0 1 0 0-2.84 1.42 1.42 0 0 0 0 2.84ZM20.89 160.62a.71.71 0 1 0 0-1.42.71.71 0 0 0 0 1.42ZM39.24 160.62a.71.71 0 1 0 0-1.42.71.71 0 0 0 0 1.42ZM45.35 160.62a.71.71 0 1 0 0-1.42.71.71 0 0 0 0 1.42ZM69.82 160.62a.71.71 0 1 0 0-1.42.71.71 0 0 0 0 1.42ZM75.94 160.62a.71.71 0 1 0 0-1.42.71.71 0 0 0 0 1.42ZM82.06 160.62a.71.71 0 1 0 0-1.42.71.71 0 0 0 0 1.42ZM127.94 161.4a1.49 1.49 0 1 0 0-2.98 1.49 1.49 0 0 0 0 2.98ZM134.05 161.39a1.48 1.48 0 1 0-.001-2.961 1.48 1.48 0 0 0 .001 2.961ZM140.17 161.37a1.46 1.46 0 1 0 0-2.92 1.46 1.46 0 0 0 0 2.92ZM146.29 161.33a1.42 1.42 0 1 0 0-2.84 1.42 1.42 0 0 0 0 2.84ZM149.35 161.32a1.41 1.41 0 1 0 0-2.82 1.41 1.41 0 0 0 0 2.82ZM152.4 161.31a1.4 1.4 0 1 0 0-2.8 1.4 1.4 0 0 0 0 2.8ZM158.52 161.29a1.38 1.38 0 1 0 0-2.76 1.38 1.38 0 0 0 0 2.76ZM164.64 161.27a1.36 1.36 0 1 0 0-2.72 1.36 1.36 0 0 0 0 2.72ZM170.75 160.97a1.06 1.06 0 1 0-.001-2.121 1.06 1.06 0 0 0 .001 2.121ZM23.94 163.68a.71.71 0 1 0 0-1.42.71.71 0 0 0 0 1.42ZM30.06 163.68a.71.71 0 1 0 0-1.42.71.71 0 0 0 0 1.42ZM48.41 163.68a.71.71 0 1 0 0-1.42.71.71 0 0 0 0 1.42ZM54.53 163.68a.71.71 0 1 0 0-1.42.71.71 0 0 0 0 1.42ZM60.65 163.68a.71.71 0 1 0 0-1.42.71.71 0 0 0 0 1.42ZM85.12 163.68a.71.71 0 1 0 0-1.42.71.71 0 0 0 0 1.42ZM91.23 163.68a.71.71 0 1 0 0-1.42.71.71 0 0 0 0 1.42ZM97.35 163.68a.71.71 0 1 0 0-1.42.71.71 0 0 0 0 1.42ZM124.88 164.48a1.51 1.51 0 1 0 0-3.02 1.51 1.51 0 0 0 0 3.02Z"/>
  <path fill="#000" d="M127.94 164.46a1.49 1.49 0 1 0 0-2.98 1.49 1.49 0 0 0 0 2.98Z"/>
  <path fill="#000" d="M130.99 164.45a1.48 1.48 0 1 0-.001-2.961 1.48 1.48 0 0 0 .001 2.961Z"/>
  <path fill="#000" d="M134.05 164.45a1.48 1.48 0 1 0-.001-2.961 1.48 1.48 0 0 0 .001 2.961Z"/>
  <path fill="#000" d="M137.11 164.44a1.47 1.47 0 1 0 0-2.94 1.47 1.47 0 0 0 0 2.94ZM140.17 164.42a1.45 1.45 0 1 0 0-2.9 1.45 1.45 0 0 0 0 2.9ZM143.23 164.41a1.44 1.44 0 1 0 0-2.88 1.44 1.44 0 0 0 0 2.88ZM149.35 164.38a1.41 1.41 0 1 0 0-2.82 1.41 1.41 0 0 0 0 2.82ZM155.46 164.36a1.39 1.39 0 1 0 0-2.78 1.39 1.39 0 0 0 0 2.78ZM158.52 164.35a1.38 1.38 0 1 0 0-2.76 1.38 1.38 0 0 0 0 2.76ZM161.58 164.34a1.37 1.37 0 1 0 0-2.74 1.37 1.37 0 0 0 0 2.74ZM167.7 164.31a1.34 1.34 0 1 0 0-2.68 1.34 1.34 0 0 0 0 2.68ZM173.81 164.28a1.31 1.31 0 1 0 0-2.62 1.31 1.31 0 0 0 0 2.62ZM179.93 164.26a1.29 1.29 0 1 0-.001-2.581 1.29 1.29 0 0 0 .001 2.581ZM33.12 166.74a.71.71 0 1 0 0-1.42.71.71 0 0 0 0 1.42ZM39.24 166.74a.71.71 0 1 0 0-1.42.71.71 0 0 0 0 1.42ZM63.71 166.74a.71.71 0 1 0 0-1.42.71.71 0 0 0 0 1.42ZM69.82 166.74a.71.71 0 1 0 0-1.42.71.71 0 0 0 0 1.42ZM75.94 166.74a.71.71 0 1 0 0-1.42.71.71 0 0 0 0 1.42ZM100.41 166.74a.71.71 0 1 0 0-1.42.71.71 0 0 0 0 1.42ZM106.53 166.74a.71.71 0 1 0 0-1.42.71.71 0 0 0 0 1.42ZM112.64 166.74a.71.71 0 1 0 0-1.42.71.71 0 0 0 0 1.42ZM121.82 167.54a1.51 1.51 0 1 0 0-3.02 1.51 1.51 0 0 0 0 3.02ZM127.94 167.52a1.49 1.49 0 1 0 0-2.98 1.49 1.49 0 0 0 0 2.98ZM134.05 167.51a1.48 1.48 0 1 0-.001-2.961 1.48 1.48 0 0 0 .001 2.961ZM140.17 167.48a1.45 1.45 0 1 0 0-2.9 1.45 1.45 0 0 0 0 2.9ZM143.23 167.47a1.44 1.44 0 1 0 0-2.88 1.44 1.44 0 0 0 0 2.88ZM146.29 167.46a1.43 1.43 0 1 0 0-2.86 1.43 1.43 0 0 0 0 2.86ZM149.35 167.45a1.42 1.42 0 1 0 0-2.84 1.42 1.42 0 0 0 0 2.84ZM152.4 167.43a1.4 1.4 0 1 0 0-2.8 1.4 1.4 0 0 0 0 2.8ZM158.52 167.41a1.38 1.38 0 1 0 0-2.76 1.38 1.38 0 0 0 0 2.76ZM164.64 167.39a1.36 1.36 0 1 0 0-2.72 1.36 1.36 0 0 0 0 2.72ZM170.75 167.36a1.33 1.33 0 1 0 0-2.66 1.33 1.33 0 0 0 0 2.66ZM176.87 167.34a1.31 1.31 0 1 0 0-2.62 1.31 1.31 0 0 0 0 2.62ZM182.99 167.31a1.28 1.28 0 1 0 0-2.56 1.28 1.28 0 0 0 0 2.56ZM42.3 169.8a.71.71 0 1 0 0-1.42.71.71 0 0 0 0 1.42ZM48.41 169.8a.71.71 0 1 0 0-1.42.71.71 0 0 0 0 1.42ZM54.53 169.8a.71.71 0 1 0 0-1.42.71.71 0 0 0 0 1.42ZM79 169.8a.71.71 0 1 0 0-1.42.71.71 0 0 0 0 1.42ZM85.12 169.8a.71.71 0 1 0 0-1.42.71.71 0 0 0 0 1.42ZM91.23 169.8a.71.71 0 1 0 0-1.42.71.71 0 0 0 0 1.42ZM115.7 169.8a.71.71 0 1 0 0-1.42.71.71 0 0 0 0 1.42ZM121.82 170.6a1.51 1.51 0 1 0 0-3.02 1.51 1.51 0 0 0 0 3.02Z"/>
  <path fill="#000" d="M124.88 170.6a1.51 1.51 0 1 0 0-3.02 1.51 1.51 0 0 0 0 3.02Z"/>
  <path fill="#000" d="M127.94 170.58a1.49 1.49 0 1 0 0-2.98 1.49 1.49 0 0 0 0 2.98Z"/>
  <path fill="#000" d="M130.99 170.57a1.48 1.48 0 1 0-.001-2.961 1.48 1.48 0 0 0 .001 2.961Z"/>
  <path fill="#000" d="M134.05 170.57a1.48 1.48 0 1 0-.001-2.961 1.48 1.48 0 0 0 .001 2.961Z"/>
  <path fill="#000" d="M137.11 170.56a1.47 1.47 0 1 0 0-2.94 1.47 1.47 0 0 0 0 2.94ZM143.23 170.53a1.44 1.44 0 1 0 0-2.88 1.44 1.44 0 0 0 0 2.88ZM149.35 170.51a1.42 1.42 0 1 0 0-2.84 1.42 1.42 0 0 0 0 2.84ZM155.46 170.48a1.39 1.39 0 1 0 0-2.78 1.39 1.39 0 0 0 0 2.78ZM158.52 170.46a1.37 1.37 0 1 0 0-2.74 1.37 1.37 0 0 0 0 2.74ZM161.58 170.46a1.37 1.37 0 1 0 0-2.74 1.37 1.37 0 0 0 0 2.74ZM167.7 170.43a1.34 1.34 0 1 0 0-2.68 1.34 1.34 0 0 0 0 2.68ZM173.81 170.4a1.31 1.31 0 1 0 0-2.62 1.31 1.31 0 0 0 0 2.62ZM179.93 170.38a1.29 1.29 0 1 0-.001-2.581 1.29 1.29 0 0 0 .001 2.581ZM186.05 170.05a.96.96 0 1 0 0-1.92.96.96 0 0 0 0 1.92ZM36.18 172.85a.71.71 0 1 0 0-1.42.71.71 0 0 0 0 1.42ZM57.59 172.85a.71.71 0 1 0 0-1.42.71.71 0 0 0 0 1.42ZM63.71 172.85a.71.71 0 1 0 0-1.42.71.71 0 0 0 0 1.42ZM69.82 172.85a.71.71 0 1 0 0-1.42.71.71 0 0 0 0 1.42ZM94.29 172.85a.71.71 0 1 0 0-1.42.71.71 0 0 0 0 1.42ZM100.41 172.85a.71.71 0 1 0 0-1.42.71.71 0 0 0 0 1.42ZM106.53 172.85a.71.71 0 1 0 0-1.42.71.71 0 0 0 0 1.42ZM118.76 173.68a1.54 1.54 0 1 0-.001-3.081 1.54 1.54 0 0 0 .001 3.081ZM124.88 173.65a1.51 1.51 0 1 0 0-3.02 1.51 1.51 0 0 0 0 3.02ZM130.99 173.62a1.48 1.48 0 1 0-.001-2.961 1.48 1.48 0 0 0 .001 2.961ZM137.11 173.6a1.46 1.46 0 1 0 0-2.92 1.46 1.46 0 0 0 0 2.92ZM140.17 173.6a1.46 1.46 0 1 0 0-2.92 1.46 1.46 0 0 0 0 2.92ZM143.23 173.58a1.44 1.44 0 1 0 0-2.88 1.44 1.44 0 0 0 0 2.88ZM146.29 173.56a1.42 1.42 0 1 0 0-2.84 1.42 1.42 0 0 0 0 2.84ZM149.35 173.56a1.42 1.42 0 1 0 0-2.84 1.42 1.42 0 0 0 0 2.84ZM152.4 173.54a1.4 1.4 0 1 0 0-2.8 1.4 1.4 0 0 0 0 2.8ZM158.52 173.51a1.37 1.37 0 1 0 0-2.74 1.37 1.37 0 0 0 0 2.74ZM164.64 173.5a1.36 1.36 0 1 0 0-2.72 1.36 1.36 0 0 0 0 2.72ZM170.75 173.47a1.33 1.33 0 1 0 .001-2.659 1.33 1.33 0 0 0-.001 2.659ZM176.87 173.45a1.31 1.31 0 1 0 0-2.62 1.31 1.31 0 0 0 0 2.62ZM182.99 172.62a.48.48 0 1 0 0-.96.48.48 0 0 0 0 .96ZM42.3 175.9a.7.7 0 1 0 0-1.4.7.7 0 0 0 0 1.4ZM48.41 175.91a.71.71 0 1 0 0-1.42.71.71 0 0 0 0 1.42ZM72.88 175.91a.71.71 0 1 0 0-1.42.71.71 0 0 0 0 1.42ZM79 175.91a.71.71 0 1 0 0-1.42.71.71 0 0 0 0 1.42ZM85.12 175.91a.71.71 0 1 0 0-1.42.71.71 0 0 0 0 1.42ZM109.58 175.91a.71.71 0 1 0 0-1.42.71.71 0 0 0 0 1.42ZM115.7 175.91a.71.71 0 1 0 0-1.42.71.71 0 0 0 0 1.42ZM121.82 176.72a1.52 1.52 0 1 0 0-3.04 1.52 1.52 0 0 0 0 3.04Z"/>
  <path fill="#000" d="M124.88 176.71a1.51 1.51 0 1 0 0-3.02 1.51 1.51 0 0 0 0 3.02Z"/>
  <path fill="#000" d="M127.94 176.69a1.49 1.49 0 1 0 0-2.98 1.49 1.49 0 0 0 0 2.98Z"/>
  <path fill="#000" d="M130.99 176.68a1.48 1.48 0 1 0-.001-2.961 1.48 1.48 0 0 0 .001 2.961Z"/>
  <path fill="#000" d="M134.05 176.68a1.48 1.48 0 1 0-.001-2.961 1.48 1.48 0 0 0 .001 2.961ZM140.17 176.66a1.46 1.46 0 1 0 0-2.92 1.46 1.46 0 0 0 0 2.92ZM146.29 176.62a1.42 1.42 0 1 0 0-2.84 1.42 1.42 0 0 0 0 2.84ZM152.4 176.6a1.4 1.4 0 1 0 0-2.8 1.4 1.4 0 0 0 0 2.8ZM155.46 176.58a1.38 1.38 0 1 0 0-2.76 1.38 1.38 0 0 0 0 2.76ZM158.52 176.57a1.37 1.37 0 1 0 0-2.74 1.37 1.37 0 0 0 0 2.74ZM161.58 176.57a1.37 1.37 0 1 0 0-2.74 1.37 1.37 0 0 0 0 2.74ZM167.7 176.54a1.34 1.34 0 1 0 0-2.68 1.34 1.34 0 0 0 0 2.68ZM173.81 176.51a1.31 1.31 0 1 0 0-2.62 1.31 1.31 0 0 0 0 2.62ZM179.93 176.49a1.29 1.29 0 1 0-.001-2.581 1.29 1.29 0 0 0 .001 2.581ZM54.53 178.97a.71.71 0 1 0 0-1.42.71.71 0 0 0 0 1.42ZM60.65 178.97a.71.71 0 1 0 0-1.42.71.71 0 0 0 0 1.42ZM66.76 178.97a.71.71 0 1 0 0-1.42.71.71 0 0 0 0 1.42ZM88.17 178.97a.71.71 0 1 0 0-1.42.71.71 0 0 0 0 1.42ZM94.29 178.97a.71.71 0 1 0 0-1.42.71.71 0 0 0 0 1.42ZM100.41 178.97a.71.71 0 1 0 0-1.42.71.71 0 0 0 0 1.42ZM118.76 179.78a1.52 1.52 0 1 0-.001-3.041 1.52 1.52 0 0 0 .001 3.041ZM124.88 179.76a1.5 1.5 0 1 0-.001-3.001 1.5 1.5 0 0 0 .001 3.001ZM130.99 179.74a1.48 1.48 0 1 0-.001-2.961 1.48 1.48 0 0 0 .001 2.961Z"/>
  <path fill="#000" d="M134.05 179.74a1.48 1.48 0 1 0-.001-2.961 1.48 1.48 0 0 0 .001 2.961Z"/>
  <path fill="#000" d="M137.11 179.72a1.46 1.46 0 1 0 0-2.92 1.46 1.46 0 0 0 0 2.92ZM140.17 179.71a1.45 1.45 0 1 0 0-2.9 1.45 1.45 0 0 0 0 2.9ZM143.23 179.7a1.44 1.44 0 1 0 0-2.88 1.44 1.44 0 0 0 0 2.88ZM146.29 179.68a1.42 1.42 0 1 0 0-2.84 1.42 1.42 0 0 0 0 2.84ZM149.35 179.68a1.42 1.42 0 1 0 0-2.84 1.42 1.42 0 0 0 0 2.84ZM155.46 179.64a1.38 1.38 0 1 0 0-2.76 1.38 1.38 0 0 0 0 2.76ZM161.58 179.63a1.37 1.37 0 1 0 0-2.74 1.37 1.37 0 0 0 0 2.74ZM164.64 179.61a1.35 1.35 0 1 0 .001-2.699 1.35 1.35 0 0 0-.001 2.699ZM170.75 179.59a1.33 1.33 0 1 0 0-2.66 1.33 1.33 0 0 0 0 2.66ZM176.87 179.56a1.3 1.3 0 1 0 0-2.6 1.3 1.3 0 0 0 0 2.6ZM69.82 182.03a.71.71 0 1 0 0-1.42.71.71 0 0 0 0 1.42ZM75.94 182.03a.71.71 0 1 0 0-1.42.71.71 0 0 0 0 1.42ZM82.06 182.03a.71.71 0 1 0 0-1.42.71.71 0 0 0 0 1.42ZM103.47 182.03a.71.71 0 1 0 0-1.42.71.71 0 0 0 0 1.42ZM109.58 182.03a.71.71 0 1 0 0-1.42.71.71 0 0 0 0 1.42ZM115.7 182.03a.71.71 0 1 0 0-1.42.71.71 0 0 0 0 1.42ZM121.82 182.83a1.51 1.51 0 1 0 0-3.02 1.51 1.51 0 0 0 0 3.02Z"/>
  <path fill="#000" d="M124.88 182.82a1.5 1.5 0 1 0-.001-3.001 1.5 1.5 0 0 0 .001 3.001Z"/>
  <path fill="#000" d="M127.94 182.81a1.49 1.49 0 1 0 0-2.98 1.49 1.49 0 0 0 0 2.98ZM134.05 182.8a1.48 1.48 0 1 0-.001-2.961 1.48 1.48 0 0 0 .001 2.961ZM140.17 182.77a1.45 1.45 0 1 0 0-2.9 1.45 1.45 0 0 0 0 2.9ZM146.29 182.74a1.42 1.42 0 1 0 0-2.84 1.42 1.42 0 0 0 0 2.84ZM152.4 182.72a1.4 1.4 0 1 0 0-2.8 1.4 1.4 0 0 0 0 2.8ZM155.46 182.7a1.38 1.38 0 1 0 0-2.76 1.38 1.38 0 0 0 0 2.76ZM158.52 182.69a1.37 1.37 0 1 0 0-2.74 1.37 1.37 0 0 0 0 2.74ZM164.64 182.67a1.35 1.35 0 1 0 .001-2.699 1.35 1.35 0 0 0-.001 2.699ZM167.7 182.66a1.34 1.34 0 1 0 0-2.68 1.34 1.34 0 0 0 0 2.68ZM173.81 182.63a1.31 1.31 0 1 0 0-2.62 1.31 1.31 0 0 0 0 2.62ZM85.12 185.09a.71.71 0 1 0 0-1.42.71.71 0 0 0 0 1.42ZM91.23 185.09a.71.71 0 1 0 0-1.42.71.71 0 0 0 0 1.42ZM97.35 185.09a.71.71 0 1 0 0-1.42.71.71 0 0 0 0 1.42ZM118.76 185.09a.71.71 0 1 0 0-1.42.71.71 0 0 0 0 1.42ZM124.88 185.88a1.5 1.5 0 1 0-.001-3.001 1.5 1.5 0 0 0 .001 3.001Z"/>
  <path fill="#000" d="M127.94 185.87a1.49 1.49 0 1 0 0-2.98 1.49 1.49 0 0 0 0 2.98Z"/>
  <path fill="#000" d="M130.99 185.86a1.48 1.48 0 1 0-.001-2.961 1.48 1.48 0 0 0 .001 2.961Z"/>
  <path fill="#000" d="M134.05 185.85a1.47 1.47 0 1 0 0-2.94 1.47 1.47 0 0 0 0 2.94Z"/>
  <path fill="#000" d="M137.11 185.84a1.46 1.46 0 1 0 0-2.92 1.46 1.46 0 0 0 0 2.92ZM140.17 185.83a1.45 1.45 0 1 0 0-2.9 1.45 1.45 0 0 0 0 2.9ZM143.23 185.82a1.44 1.44 0 1 0 0-2.88 1.44 1.44 0 0 0 0 2.88ZM146.29 185.8a1.42 1.42 0 1 0 0-2.84 1.42 1.42 0 0 0 0 2.84ZM149.35 185.79a1.41 1.41 0 1 0 0-2.82 1.41 1.41 0 0 0 0 2.82ZM155.46 185.76a1.38 1.38 0 1 0 0-2.76 1.38 1.38 0 0 0 0 2.76ZM161.58 185.75a1.37 1.37 0 1 0 0-2.74 1.37 1.37 0 0 0 0 2.74ZM167.7 185.72a1.34 1.34 0 1 0 0-2.68 1.34 1.34 0 0 0 0 2.68ZM42.3 188.73a1.29 1.29 0 1 0 0-2.58 1.29 1.29 0 0 0 0 2.58ZM45.35 188.95a1.51 1.51 0 1 0 0-3.02 1.51 1.51 0 0 0 0 3.02Z"/>
  <path fill="#000" d="M48.41 188.94a1.5 1.5 0 1 0 0-3 1.5 1.5 0 0 0 0 3Z"/>
  <path fill="#000" d="M51.47 188.93a1.49 1.49 0 1 0 0-2.98 1.49 1.49 0 0 0 0 2.98Z"/>
  <path fill="#000" d="M54.53 188.92a1.48 1.48 0 1 0 0-2.96 1.48 1.48 0 0 0 0 2.96Z"/>
  <path fill="#000" d="M57.59 188.91a1.47 1.47 0 1 0 0-2.94 1.47 1.47 0 0 0 0 2.94Z"/>
  <path fill="#000" d="M60.65 188.9a1.46 1.46 0 1 0 0-2.92 1.46 1.46 0 0 0 0 2.92ZM63.71 188.88a1.44 1.44 0 1 0 0-2.88 1.44 1.44 0 0 0 0 2.88ZM66.76 188.87a1.43 1.43 0 1 0 0-2.86 1.43 1.43 0 0 0 0 2.86ZM72.88 188.05a.61.61 0 1 0 0-1.22.61.61 0 0 0 0 1.22ZM100.41 188.15a.71.71 0 1 0 0-1.42.71.71 0 0 0 0 1.42ZM106.53 188.15a.71.71 0 1 0 0-1.42.71.71 0 0 0 0 1.42ZM112.64 188.15a.71.71 0 1 0 0-1.42.71.71 0 0 0 0 1.42ZM121.82 188.15a.71.71 0 1 0 0-1.42.71.71 0 0 0 0 1.42ZM127.94 188.83a1.39 1.39 0 1 0 0-2.78 1.39 1.39 0 0 0 0 2.78ZM134.05 188.91a1.47 1.47 0 1 0 0-2.94 1.47 1.47 0 0 0 0 2.94ZM140.17 188.89a1.45 1.45 0 1 0 0-2.9 1.45 1.45 0 0 0 0 2.9ZM146.29 188.87a1.43 1.43 0 1 0 0-2.86 1.43 1.43 0 0 0 0 2.86ZM152.4 188.84a1.4 1.4 0 1 0 0-2.8 1.4 1.4 0 0 0 0 2.8ZM155.46 188.82a1.38 1.38 0 1 0 0-2.76 1.38 1.38 0 0 0 0 2.76ZM158.52 188.81a1.37 1.37 0 1 0 0-2.74 1.37 1.37 0 0 0 0 2.74ZM161.58 188.81a1.37 1.37 0 1 0 0-2.74 1.37 1.37 0 0 0 0 2.74ZM164.64 188.79a1.35 1.35 0 1 0 .001-2.699 1.35 1.35 0 0 0-.001 2.699ZM48.41 192a1.5 1.5 0 1 0 0-3 1.5 1.5 0 0 0 0 3ZM54.53 191.98a1.48 1.48 0 1 0 0-2.96 1.48 1.48 0 0 0 0 2.96ZM60.65 191.96a1.46 1.46 0 1 0 0-2.92 1.46 1.46 0 0 0 0 2.92ZM66.76 191.93a1.43 1.43 0 1 0 0-2.86 1.43 1.43 0 0 0 0 2.86ZM69.82 191.91a1.41 1.41 0 1 0 0-2.82 1.41 1.41 0 0 0 0 2.82ZM75.94 191.88a1.38 1.38 0 1 0 0-2.76 1.38 1.38 0 0 0 0 2.76ZM82.06 191.86a1.36 1.36 0 1 0 0-2.72 1.36 1.36 0 0 0 0 2.72ZM85.12 191.84a1.34 1.34 0 1 0 0-2.68 1.34 1.34 0 0 0 0 2.68ZM88.17 191.83a1.33 1.33 0 1 0 0-2.66 1.33 1.33 0 0 0 0 2.66ZM91.23 191.81a1.31 1.31 0 1 0 0-2.62 1.31 1.31 0 0 0 0 2.62ZM94.29 191.78a1.28 1.28 0 1 0 0-2.56 1.28 1.28 0 0 0 0 2.56ZM115.7 191.21a.71.71 0 1 0 0-1.42.71.71 0 0 0 0 1.42ZM127.94 191.21a.71.71 0 1 0 0-1.42.71.71 0 0 0 0 1.42ZM134.05 191.67a1.17 1.17 0 1 0 0-2.34 1.17 1.17 0 0 0 0 2.34ZM137.11 191.96a1.46 1.46 0 1 0 0-2.92 1.46 1.46 0 0 0 0 2.92ZM140.17 191.95a1.45 1.45 0 1 0 0-2.9 1.45 1.45 0 0 0 0 2.9ZM143.23 191.94a1.44 1.44 0 1 0 0-2.88 1.44 1.44 0 0 0 0 2.88ZM146.29 191.93a1.43 1.43 0 1 0 0-2.86 1.43 1.43 0 0 0 0 2.86ZM149.35 191.91a1.41 1.41 0 1 0 0-2.82 1.41 1.41 0 0 0 0 2.82ZM155.46 191.89a1.39 1.39 0 1 0 0-2.78 1.39 1.39 0 0 0 0 2.78ZM161.58 191.87a1.37 1.37 0 1 0 0-2.74 1.37 1.37 0 0 0 0 2.74ZM51.47 194.8a1.25 1.25 0 1 0 0-2.5 1.25 1.25 0 0 0 0 2.5ZM54.53 195.03a1.48 1.48 0 1 0 0-2.96 1.48 1.48 0 0 0 0 2.96Z"/>
  <path fill="#000" d="M57.59 195.02a1.47 1.47 0 1 0 0-2.94 1.47 1.47 0 0 0 0 2.94Z"/>
  <path fill="#000" d="M60.65 195.01a1.46 1.46 0 1 0 0-2.92 1.46 1.46 0 0 0 0 2.92ZM63.71 194.99a1.44 1.44 0 1 0 0-2.88 1.44 1.44 0 0 0 0 2.88ZM69.82 194.96a1.41 1.41 0 1 0 0-2.82 1.41 1.41 0 0 0 0 2.82ZM72.88 194.94a1.39 1.39 0 1 0 0-2.78 1.39 1.39 0 0 0 0 2.78ZM75.94 194.93a1.38 1.38 0 1 0 0-2.76 1.38 1.38 0 0 0 0 2.76ZM79 194.92a1.37 1.37 0 1 0 0-2.74 1.37 1.37 0 0 0 0 2.74ZM85.12 194.89a1.34 1.34 0 1 0 0-2.68 1.34 1.34 0 0 0 0 2.68ZM91.23 194.86a1.31 1.31 0 1 0 0-2.62 1.31 1.31 0 0 0 0 2.62ZM97.35 194.83a1.28 1.28 0 1 0 0-2.56 1.28 1.28 0 0 0 0 2.56ZM140.17 195a1.45 1.45 0 1 0 0-2.9 1.45 1.45 0 0 0 0 2.9ZM146.29 194.97a1.42 1.42 0 1 0 0-2.84 1.42 1.42 0 0 0 0 2.84ZM152.4 194.95a1.4 1.4 0 1 0 0-2.8 1.4 1.4 0 0 0 0 2.8ZM155.46 194.94a1.39 1.39 0 1 0 0-2.78 1.39 1.39 0 0 0 0 2.78ZM60.65 198.06a1.45 1.45 0 1 0 0-2.9 1.45 1.45 0 0 0 0 2.9ZM63.71 198.05a1.44 1.44 0 1 0 0-2.88 1.44 1.44 0 0 0 0 2.88ZM66.76 198.04a1.43 1.43 0 1 0 0-2.86 1.43 1.43 0 0 0 0 2.86ZM72.88 198a1.39 1.39 0 1 0 0-2.78 1.39 1.39 0 0 0 0 2.78ZM79 197.98a1.37 1.37 0 1 0 0-2.74 1.37 1.37 0 0 0 0 2.74ZM82.06 197.97a1.36 1.36 0 1 0 0-2.72 1.36 1.36 0 0 0 0 2.72ZM88.17 197.94a1.33 1.33 0 1 0 0-2.66 1.33 1.33 0 0 0 0 2.66ZM94.29 197.91a1.3 1.3 0 1 0 0-2.6 1.3 1.3 0 0 0 0 2.6ZM100.41 197.88a1.27 1.27 0 1 0-.001-2.541 1.27 1.27 0 0 0 .001 2.541ZM127.94 197.32a.71.71 0 1 0 0-1.42.71.71 0 0 0 0 1.42ZM134.05 197.32a.71.71 0 1 0 0-1.42.71.71 0 0 0 0 1.42ZM140.17 197.32a.71.71 0 1 0 0-1.42.71.71 0 0 0 0 1.42ZM146.29 198.03a1.42 1.42 0 1 0 0-2.84 1.42 1.42 0 0 0 0 2.84ZM149.35 198.02a1.41 1.41 0 1 0 0-2.82 1.41 1.41 0 0 0 0 2.82ZM63.71 201.11a1.44 1.44 0 1 0 0-2.88 1.44 1.44 0 0 0 0 2.88ZM69.82 201.08a1.41 1.41 0 1 0 0-2.82 1.41 1.41 0 0 0 0 2.82ZM72.88 201.06a1.39 1.39 0 1 0 0-2.78 1.39 1.39 0 0 0 0 2.78ZM75.94 201.05a1.38 1.38 0 1 0 0-2.76 1.38 1.38 0 0 0 0 2.76ZM82.06 201.03a1.36 1.36 0 1 0 0-2.72 1.36 1.36 0 0 0 0 2.72ZM85.12 201.01a1.34 1.34 0 1 0 0-2.68 1.34 1.34 0 0 0 0 2.68ZM91.23 200.98a1.31 1.31 0 1 0 0-2.62 1.31 1.31 0 0 0 0 2.62ZM97.35 200.95a1.28 1.28 0 1 0 0-2.56 1.28 1.28 0 0 0 0 2.56ZM103.47 200.38a.71.71 0 1 0 0-1.42.71.71 0 0 0 0 1.42ZM109.58 200.38a.71.71 0 1 0 0-1.42.71.71 0 0 0 0 1.42ZM115.7 200.38a.71.71 0 1 0 0-1.42.71.71 0 0 0 0 1.42ZM121.82 200.38a.71.71 0 1 0 0-1.42.71.71 0 0 0 0 1.42ZM143.23 201.11a1.44 1.44 0 1 0 0-2.88 1.44 1.44 0 0 0 0 2.88ZM72.88 204.12a1.39 1.39 0 1 0 0-2.78 1.39 1.39 0 0 0 0 2.78ZM79 203.99a1.26 1.26 0 1 0 0-2.52 1.26 1.26 0 0 0 0 2.52ZM85.12 203.99a1.26 1.26 0 1 0 0-2.52 1.26 1.26 0 0 0 0 2.52ZM88.17 204.06a1.33 1.33 0 1 0 0-2.66 1.33 1.33 0 0 0 0 2.66ZM94.29 204.03a1.3 1.3 0 1 0 0-2.6 1.3 1.3 0 0 0 0 2.6ZM100.41 203.44a.71.71 0 1 0 0-1.42.71.71 0 0 0 0 1.42ZM124.88 203.44a.71.71 0 1 0 0-1.42.71.71 0 0 0 0 1.42ZM130.99 203.44a.71.71 0 1 0 0-1.42.71.71 0 0 0 0 1.42ZM137.11 203.44a.71.71 0 1 0 0-1.42.71.71 0 0 0 0 1.42ZM91.23 206.5a.71.71 0 1 0 0-1.42.71.71 0 0 0 0 1.42ZM97.35 206.5a.71.71 0 1 0 0-1.42.71.71 0 0 0 0 1.42ZM103.47 206.5a.71.71 0 1 0 0-1.42.71.71 0 0 0 0 1.42ZM109.58 206.5a.71.71 0 1 0 0-1.42.71.71 0 0 0 0 1.42ZM115.7 206.5a.71.71 0 1 0 0-1.42.71.71 0 0 0 0 1.42Z"/>
</svg>