<svg xmlns="http://www.w3.org/2000/svg" width="111" height="111" fill="none"><path fill="#000" d="M5.56 30.006c2.693 2.418 5.218 4.971 6.863 8.278 1.333 2.68 3.452 4.694 6.035 6.242 5.247 3.094 12.832 6.185 10.726 13.282-1.28 4.744-4.369 6.309-8.97 4.565-5.18-1.866-9.509-5.293-14.345-7.811-.903-.442-1.839-.817-2.867-.829-1.38-.017-2.02.823-1.659 2.137.215.781.56 1.51 1.023 2.169C5.662 62.733 6.584 68 6.301 73.589c-.15 2.985.44 5.78 2.358 8.226 2.184 2.782 4.294 5.623 5.413 9.038.63 1.922 1.293 3.824 1.002 5.913-.689 5.552-5.85 7.15-6.127 12.374-.032.604.021 1.202.077 1.799h1.93c.022-2.325.725-4.469 2.177-6.431 2.367-3.386 4.44-7.194 3.175-11.438-1.009-3.646-2.719-7.083-4.698-10.299-2.32-3.551-2.782-7.381-2.017-11.443.272-1.446.385-2.929.922-4.316.477-1.231 1.248-1.622 2.53-1.301.624.156 1.257.335 1.837.606 3.392 1.584 6.865 1.597 10.42.647 3.031-.81 5.067-2.574 5.841-5.659 1.073-4.409 1.71-8.504-2.049-11.879-5.652-5.078-11.496-5.797-15.375-13.406-1.053-2.074-2.684-3.753-4.529-5.214-4.22-3.165-7.17-6.279-9.038-10.478v3.042a27.748 27.748 0 0 0 5.41 6.636ZM28.864 2.355A28.637 28.637 0 0 1 27.75.938h-2.43c.77 1.586 1.89 2.981 3.197 4.273.737.728 1.358 1.533 1.695 2.533.6 1.784-.392 3.273-2.275 3.352-3.488.081-5.622-2.884-8.059-4.855-3.006-2.421-6.483-2.733-10.089-1.908-2.824.646-5.619 1.438-8.346 2.442-.449.165-.874.372-1.29.594V9.51c2.81-2.012 6.951-2.541 10.283-3.095 2.638-.398 5.004.248 7.004 2.075.76.694 1.577 1.325 2.371 1.982 2.011 1.666 4.013 3.341 6.611 4.079 2.92.829 5.665-.27 6.784-2.812.91-2.068.325-3.943-.943-5.683-.992-1.36-2.332-2.407-3.398-3.701Z"/><path fill="#000" d="M45.614 8.463C44.506 5.514 42.817 3.02 40.557.938H38.45c2.322 1.966 4.166 4.286 5.202 7.211 1.24 3.501 2.499 6.996 3.733 10.5 1.946 5.828-1.02 11.638-6.067 14.745-1.262.835-2.54 1.665-3.531 2.829-1.883 2.102-.286 4.129 1.602 5.5 4.132 3.168 8.247 5.109 6.436 11.107-1.413 4.489-2.716 9.014-4.23 13.469-2.893 8.511-8.174 10.606-15.641 14.442-2.21 1.176-2.81 2.902-2.04 5.27.403 1.24 1.093 2.332 1.864 3.355 1.583 2.1 1.83 4.26.747 6.674-2.128 4.897-5.39 9.495-5.727 14.897h1.634c.195-4.474 2.38-8.47 5.262-11.883 1.47-1.758 3.409-2.537 5.72-2.609 2.244-.07 4.46-.359 6.279-1.896.817-.691 1.58-1.427 2.154-2.329 1.527-2.398.83-5.212-1.637-6.985-1.412-1.015-3.05-1.533-4.591-2.265-1.287-.611-1.505-1.31-.804-2.544.284-.499.62-.978.988-1.421 6.998-7.768 9.593-18.041 13.297-27.533 1.753-4.561-1.805-7.414-4.373-10.649-1.378-1.821-1.441-3.23-.207-5.125 2.253-3.179 4.606-6.255 5.584-10.124.945-3.583.85-6.953-1.175-10.179-1.368-2.18-2.414-4.533-3.316-6.932Z"/><path fill="#000" d="M34.708 1.663a12.158 12.158 0 0 1-.843-.726H32.2a34.819 34.819 0 0 0 1.817 1.742c5.533 4.509 5.922 11.525 2.022 17.182-3.75 6.03-11.582 6.133-16.98 2.208-2.13-1.448-4.128-3.085-6.226-4.581-1.456-1.038-3.038-1.853-4.898-1.88-2.002-.029-3.19 1.391-2.836 3.346.222 1.228.78 2.285 1.563 3.257 1.427 1.773 3.36 2.893 5.29 3.984 3.337 1.886 6.003 4.373 7.369 7.983 1.372 3.624 3.79 6.33 6.95 8.507 2.628 1.809 5.355 3.485 7.8 5.547 2.214 1.868 3.39 4.174 3.044 7.109-.29 2.452-.543 4.91-.922 7.348-.49 3.147-1.958 5.742-4.737 7.486-1.452.912-3.054 1.525-4.621 2.212-2.46 1.079-5.103 1.649-7.567 2.703-3.195 1.29-4.082 4.277-3.207 7.436 1.137 5.228 5.127 9.978 3.807 15.533-.571 2.46-1.721 4.685-2.77 6.953-.883 1.912-1.643 3.848-1.87 5.926h1.675c.107-1.263.394-2.499.852-3.69 2.135-5.824 5.708-10.493 2.78-16.829-.721-1.606-1.334-3.265-1.924-4.924-.54-1.518-.921-3.09-.671-4.715.422-2.748 2.534-3.877 4.842-4.733 2.637-.978 5.205-2.104 7.759-3.276 7.165-3.315 7.386-8.646 8.387-15.518.95-4.577 1.025-6.94-2.961-9.976-4.784-3.871-12.532-6.542-13.007-13.552-.118-2.282.739-3.427 3.005-3.843 1.875-.344 3.77-.569 5.56-1.288 2.98-1.197 5.614-2.81 7.126-5.767 1.069-2.09 1.489-4.356 1.746-6.66.649-5.814-.866-10.766-5.69-14.504Z"/><path fill="#000" d="M8.327 12.506c5.485.938 9.341 5.2 14.175 7.552 4.643 2.239 8.536 1.704 11.865-1.773 3.154-3.295 4.043-8.452 1.23-12.46-1.064-1.515-2.484-2.703-3.773-4.01a20.334 20.334 0 0 1-.814-.878h-1.812a21.097 21.097 0 0 0 2.29 2.467c.873.81 1.673 1.703 2.36 2.679 4.6 6.989-2.997 14.076-9.98 9.986-2.69-1.391-4.907-3.437-7.348-5.171-4.598-3.266-9.409-2.848-14.273-.779-1.14.485-1.813 1.357-2.097 2.44v3.543c.761 5.281 4.191 9.641 8.63 12.676 2.604 1.895 5.046 3.96 6.538 6.859 3.543 7.17 9.803 8.518 15.226 13.467 3.74 3.458 3.054 6.556 2.546 11.127-.434 4.344-2.689 7.149-6.944 8.525-3.21 1.039-6.474 1.514-9.816 1.673-2.283.109-3.715 1.334-4.432 3.423-.806 2.346-.615 4.668.28 6.95 1.277 3.254 2.961 6.326 4.3 9.559 1.675 4.051 1.596 7.909-.582 11.719-.622 1.088-1.22 2.189-1.87 3.26a12.164 12.164 0 0 0-1.775 5.599h1.755c.285-3.073 1.935-5.806 3.288-8.576 1.181-2.454 2.08-4.969 1.773-7.763-.227-2.071-1.09-3.941-1.824-5.852-1.032-2.687-2.409-5.255-2.955-8.109-.86-3.919 1.207-6.702 5.15-7.497a53.246 53.246 0 0 0 9.013-2.929c6.74-2.734 6.621-8.289 7.164-14.517.252-2.958-.958-5.274-3.17-7.195-2.277-1.976-4.829-3.563-7.322-5.23-8.523-5.539-5.892-9.387-12.744-14.43-1.404-1.027-2.892-1.943-4.28-2.99C5.49 23.882 3.4 21.52 2.816 18.186c-.68-3.88 1.292-6.407 5.511-5.68Z"/><path fill="#000" d="M55.246 42.531c-2.423-3.488-2.908-7.156-1.384-11.128 1.4-3.648 2.678-7.341 4.062-10.995 1.195-3.156 1.102-6.047-1.357-8.654-2.074-2.199-4.145-4.419-5.496-7.167-.61-1.24-1.227-2.473-1.937-3.65h-2.581c.745.94 1.392 1.96 1.932 3.069 1.368 2.807 2.964 5.469 5.065 7.812 3.026 3.191 3.466 5.514 2.284 9.582-1.126 3.911-2.553 7.718-3.93 11.543-3.437 8.994 7.568 12.07 3.538 20.881-1.546 3.275-3.169 6.521-4.917 9.694-1.625 2.949-3.579 5.71-5.038 8.765-1.681 3.52-2.19 6.954.113 10.407 2.425 4.086 2.904 8.801.359 12.965-1.083 1.825-2.398 3.495-3.717 5.157-1.172 1.476-2.689 2.402-4.601 2.589-1.096.107-2.2.129-3.299.214-1.436.112-2.807.43-4.024 1.256-1.826 1.238-3.145 3.715-3.402 6.066h3.164c1.096-3.309 5.217-4.282 7.574-.609.123.192.24.398.353.609h7.687c.222-.03.469-.034.743-.013.044.003.087.009.131.013h6.025a279.24 279.24 0 0 1-5.705-4.207c-2.777-1.991-2.225-4.714-.843-7.385.979-1.982 2.112-3.897 2.626-6.078.915-3.885.292-7.604-1.412-11.133-1.76-3.646-1.339-7.108.64-10.455 2.729-4.615 6.047-8.853 8.799-13.466 1.921-3.219 2.82-6.447 1.677-10.065-.655-2.07-1.903-3.852-3.129-5.617ZM110.15 61.551a27.162 27.162 0 0 0-1.35-.368c-1.349-.325-2.718-.595-3.988-1.18-2.759-1.167-2.751-3.841-1.593-6.195 1.472-3.173 4.239-5.118 6.931-7.163V34.162c-1.953-.111-3.89.197-5.817.925-1.207.456-2.424.936-3.726 1.013-4.606.27-8.65-1.327-12.3-3.925-1.938-1.378-2.178-3.186-1.047-5.271.697-1.283 1.675-2.36 2.694-3.388 1.952-1.968 3.918-3.92 5.707-6.041 1.704-2.019 3.467-3.982 5.83-5.297 1.81-1.007 3.756-1.708 5.667-2.487 1.173-.449 2.167-1.045 2.992-1.756V4.51c-1.142 1.686-2.984 2.999-5.138 3.756-3.434 1.383-6.59 3.133-9.049 5.957-2.133 2.451-4.308 4.864-6.606 7.166-1.364 1.366-2.744 2.723-3.864 4.302-2.54 3.583-2.197 5.85 1.46 8.313 4.067 2.74 8.337 5.134 12.872 7.066 3.598 1.533 4.017 2.66 2.681 6.282-.909 2.465-2.082 4.828-2.869 7.342-.438 1.4-.723 2.82-.43 4.26.742 3.764 6.357 4.65 10.942 5.333l.001-2.736Z"/><path fill="#000" d="M107.396 73.515c-5.457-1.365-12.042-.865-15.628-5.996-1.76-2.449-2.754-5.034-2.228-8.096.312-1.815.965-3.521 1.505-5.263 1.125-3.63.6-6.898-2.333-9.48-2.896-2.551-5.878-5.016-9.128-7.128-2.743-1.813-5.82-4.044-4.392-7.9.668-1.882 1.877-3.436 3.157-4.926 2.828-3.291 5.702-6.541 8.26-10.052 2.525-3.467 5.286-6.721 8.784-9.297 1.46-1.147 4.055-2.609 5.271-4.439h-2.563c-.818 1.17-2.107 2.169-3.093 2.968-3.29 2.664-6.414 5.495-8.92 8.923-2.809 3.84-5.628 7.663-8.857 11.182-2.938 3.14-7.192 8.81-2.43 12.262 3.937 2.962 8.01 5.752 11.656 9.081 2.147 1.96 3.344 4.261 2.811 7.263-.414 2.334-1.343 4.547-1.557 6.926-.427 4.75 1.362 8.641 4.713 11.906 1.691 1.648 3.932 2.281 6.104 3.016 1.577.493 5.006 1.534 3.393 3.708-2.108 2.567-7.564 3.753-10.76 4.412-2.914.575-5.88.377-8.82.586-1.298.093-2.577.296-3.713.982-2.39 1.457-.492 3.17 1.256 4.042 1.402.79 2.865 1.477 4.08 2.573 2.168 1.96 3.196 4.545 4.114 7.196 1.637 4.644-.328 8.491-3.603 11.806-.36.389-.727.774-1.088 1.168h1.415c.84-.869 1.707-1.713 2.483-2.639 2.431-2.903 3.31-6.176 2.52-9.881-.583-2.73-1.563-5.347-2.275-8.04-.634-2.397-.29-3.172 1.912-4.379 2.778-1.377 5.771-2.258 8.706-3.228 3.879-1.26 7.355-3.14 10.171-6.113 1.671-1.763 1.439-2.532-.923-3.143ZM33.651 35.314c1.938-1.52 4.105-2.675 6.216-3.921 4.648-2.744 6.59-6.613 5.592-11.502-.62-3.041-1.448-6.04-2.173-9.06-.909-3.788-2.714-7.017-5.82-9.502a35.97 35.97 0 0 1-.484-.393h-1.8c.36.334.724.66 1.097.98 2.57 2.201 4.403 4.857 5.11 8.195.656 3.092.76 6.222.764 9.374.11 8.394-6.97 10.616-13.56 13.33-2.293.916-2.975 2.831-1.87 5.017.91 1.727 2.418 3.011 3.968 4.158 2.481 1.854 5.281 3.24 7.718 5.156 2.266 1.781 3.347 4.021 2.7 6.931-.68 3.064-1.232 6.154-1.815 9.238-1.754 9.533-9.108 10.824-16.749 14.476-2.102 1-3.309 2.64-3.203 5.041.148 2.733 1.423 5.26 2.496 7.732 2.221 4.78.296 8.885-1.7 13.314-.995 2.282-1.836 4.593-2.064 7.059h1.594c.156-2.327.852-4.542 1.797-6.701 2.147-5.14 5.262-9.338 2.016-14.855-.483-.828-.872-1.718-1.226-2.611-1.488-3.549-.602-6.383 3.062-7.85 7.014-3.227 12.91-5.371 15.24-13.437 1.201-4.186 2.208-8.425 3.35-12.629 1.78-6.701-6.736-8.703-10.535-12.357-2.14-2.064-2.045-3.36.28-5.183Z"/><path fill="#000" d="M96.172 76.416a22.213 22.213 0 0 0-1.784-1.159c-4.668-2.731-6.722-7.115-7.723-12.114-.58-2.897.022-5.761.701-8.57.817-3.385.224-6.297-2.525-8.615-2.312-1.95-4.555-3.981-6.99-5.785-2.96-2.202-8.013-4.504-6.48-8.986.644-2.031 1.816-3.751 3.157-5.362 2.921-3.507 6.037-6.861 8.57-10.672 1.966-2.96 4.258-5.642 6.84-8.09 1.893-1.797 3.985-3.381 5.783-5.28.26-.274.5-.555.71-.846h-2.18c-.976 1.503-2.604 2.773-3.792 3.911-3.187 2.923-6.225 5.976-8.649 9.572-1.869 2.773-3.832 5.476-6.034 8.002-2.336 2.769-7.263 7.856-6.712 11.639.287 2.093 1.76 3.402 3.35 4.508 3.861 2.682 7.262 5.877 10.652 9.09 2.56 2.339 2.37 5.472 2.11 8.633-.3 3.333-.432 6.673.522 9.937.548 1.874 1.211 3.715 1.82 5.571.98 2.885 1.691 4.977-1.858 6.129-5.68 1.799-11.124 1.663-15.185 6.85-3.28 4.283 2.22 5.407 5.418 6.259 3.887 1.072 7.09 2.983 9.027 6.676 2.244 4.162 1.01 7.702-1.997 11.054-.6.72-1.22 1.426-1.8 2.17h1.331c2.605-3.083 5.84-6.025 5.08-10.333-.85-4.792-3.278-8.5-8.013-10.442-2.326-1.009-7.36-2.583-4.95-5.872 4.624-5.436 15.69-1.596 21.595-5.494 1.096-.741 1.086-1.6.006-2.381ZM27.081 53.289c-.49-1.5-1.56-2.564-2.768-3.504-5.019-3.744-10.312-4.08-13.42-10.397a29.513 29.513 0 0 0-5.926-8.129C3.118 29.456 1.527 27.435.15 25.25v2.694c1.537 2.425 3.206 4.767 4.788 7.164 1.316 1.994 2.025 4.214 2.052 6.615.016 1.381-.56 2.003-1.967 2.088-1.326.08-2.655.102-3.983.123a4.953 4.953 0 0 0-.89.105v5.384c2.44-.486 4.805.33 7.05 1.682 2.813 1.639 5.42 3.591 8.153 5.351 2.741 1.773 8 4.803 10.751 1.679 1.227-1.428 1.563-3.053.977-4.846ZM47.275 4.703c-.667-1.368-1.481-2.646-2.507-3.766h-2.56c1.62 1.562 2.943 3.37 3.872 5.506 1.334 3.064 2.894 6.007 4.792 8.774 1.388 2.023 1.862 4.287 1.483 6.694-.34 2.154-.84 4.275-1.621 6.323-.872 2.285-2.117 4.394-3.14 6.608-.991 2.147-.94 4.22.37 6.223.633.967 1.249 1.945 1.919 2.886 2 2.807 2.392 5.731.815 8.868-.59 1.172-1.09 2.393-1.565 3.617-2.28 5.857-4.836 11.59-7.734 17.173-.68 1.309-1.368 2.613-1.9 3.994-.7 1.814-.388 3.381 1.019 4.75.646.629 1.25 1.301 1.853 1.971 2.636 2.93 2.93 6.426.756 9.407-2.17 2.974-5.048 4.728-8.82 4.863-6.448.068-10.348 6.44-10.67 12.343h1.86c.256-4.108 2.372-7.998 6.73-9.139 1.129-.313 2.298-.395 3.457-.503 4.16-.386 5.74-2.115 8.266-5.111 2.772-3.329 3.362-6.997 1.55-10.941-1.53-3.216-3.995-4.921-2.952-8.9.363-1.405.903-2.74 1.535-4.038 2.95-6.055 6.232-11.942 9.04-18.075 1.668-3.643 1.794-6.93-.502-10.253-.456-.66-.815-1.384-1.25-2.059-1.765-2.737-2.051-5.596-.832-8.625 1.508-3.748 2.937-7.517 3.875-11.464.729-3.069.435-5.846-1.655-8.319-2.26-2.672-3.961-5.682-5.484-8.807Z"/><path fill="#000" d="M81.739.938c.27 1.302-.609 2.912-1.599 4.096-3.019 3.522-5.852 7.166-8.177 11.194-2.41 4.174-5.322 8.029-8.032 12.012-2.845 4.18-2.991 8.24.779 12.123 2.353 2.423 4.772 4.79 6.745 7.558 1.454 2.039 3.237 3.85 4.454 6.053 2.12 3.836 2.361 7.929 1.526 12.138-.537 2.709-2.129 4.677-4.6 5.843a42.28 42.28 0 0 0-8.648 5.436c-2.527 2.051-4.762 4.261-5.514 7.554-.567 2.48-.447 4.967-.06 7.459.855 5.524 3.517 8.482 8.856 9.78 2.81.728 7.899.422 7.17 4.619-.178 1.395-.566 2.754-.813 4.136h1.628c.689-1.851 1.779-3.552 2.419-5.428.9-2.665-.901-4.545-3.318-5.395-1.879-.712-3.859-.758-5.82-.94-4.822-.254-7.776-2.947-8.684-7.566-.953-4.524.003-8.433 3.785-11.465 3.257-2.612 6.71-4.886 10.52-6.641 2.488-1.145 4.084-3.038 4.575-5.812.428-2.426.422-4.858.297-7.29-.313-6.207-3.057-8.809-6.773-13.337-1.618-1.959-3.198-3.948-5.168-5.596-.71-.594-1.324-1.31-1.958-1.998-3.182-3.455-2.975-7.082-.512-10.709 2.689-3.96 5.737-7.676 8.263-11.75 2.153-3.472 4.49-6.803 7.329-9.773 1.6-1.676 3.19-3.37 4.204-5.488.14-.292.249-.559.332-.811h-3.206V.938Z"/><path fill="#000" d="M78.507.938H67.081c4.245 1.316 8.794.998 7.676 4.469-.304.949-.806 1.811-1.283 2.685-2.276 4.168-4.205 8.518-6.754 12.542-3.887 6.621-10.592 12.98-3.997 20.135a110.547 110.547 0 0 1 8.237 10.312c1.905 2.689 3.797 5.367 4.083 8.784.361 4.306-.917 7.511-5.075 9.454-2.855 1.335-5.432 3.024-7.916 4.956-7.12 5.249-6.156 13.301-5.558 21.09.358 6.377 5.266 9.653 10.628 12.155 1.616.729 2.688 1.928 3.313 3.418h2.09c-.019-.607-.042-1.213-.067-1.821-.088-2.115-1.17-3.363-3.155-3.986-4.407-1.352-9.152-3.263-10.683-8.016-1.208-3.677-1.502-7.475-1.118-11.311.312-3.111 1.612-5.808 3.902-7.959 3.044-2.859 6.404-5.267 10.271-6.979 2.167-.959 3.78-2.576 4.451-4.93 1.287-4.509.78-8.809-1.917-12.679-3.01-4.321-6.155-8.546-9.937-12.274-2.157-2.126-3.585-4.64-3.139-7.837.272-1.946 1.094-3.677 2.161-5.302 1.64-2.499 3.41-4.911 5.01-7.439 3.137-4.959 5.737-10.258 9.567-14.779.37-.436.648-.959.91-1.472.783-1.589.533-2.583-.274-3.216Z"/><path fill="#000" d="M90.696.938c-.17.265-.36.523-.57.774-1.71 2.057-3.624 3.928-5.511 5.825-4.883 4.683-8.02 10.745-12.372 15.871-1.904 2.26-3.802 4.535-5.222 7.144-1.22 2.239-1.31 4.457.217 6.613.579.818 1.233 1.594 2.03 2.19 3.832 2.862 6.902 6.48 10.117 9.947 3.435 3.498 2.914 8.519 3.24 13.019.188 2.621.53 5.232.745 7.852.203 2.473-.755 4.346-3.037 5.525-1.297.671-2.647 1.201-4.013 1.702-4.161 1.528-7.854 3.809-10.771 7.116-2.874 3.259-1.34 7.614 2.906 8.67 1.7.423 3.449.542 5.179.772 3.662.485 6.618 2.099 8.61 5.253 2.004 3.003.923 5.9-1.086 8.576-.758 1.048-1.566 2.064-2.263 3.151h1.3c.933-1.294 2.003-2.491 2.943-3.779 2.43-3.333 2.387-6.477.043-9.842-2.036-2.923-4.907-4.353-8.273-5.082-1.984-.43-4.04-.61-5.895-1.516-2.223-1.086-2.871-3.228-1.39-5.187 2.389-3.158 5.533-5.348 9.334-6.602 2.144-.707 4.35-1.238 6.394-2.233 2.652-1.274 2.714-3.449 2.188-6.002-.406-2.496-1.224-4.906-1.45-7.447-.25-2.795-.1-5.587-.17-8.379-.053-2.205-.57-4.285-2.073-5.967-2.151-2.405-4.535-4.588-6.882-6.802-1.71-1.611-3.784-2.8-5.431-4.493-3.94-3.772-.522-8.295 2.152-11.666 2.578-3.202 5.366-6.242 7.62-9.692 2.403-3.677 5.22-7.002 8.41-10.039 1.702-1.621 3.496-3.17 4.902-5.073.049-.066.096-.132.142-.199h-2.063ZM58.528 43.065c-1.084-1.357-2.002-2.831-2.625-4.466-1.158-3.035-.447-5.941.667-8.794 1.341-3.435 2.964-6.749 4.493-10.104 2.352-5.162 1.643-8.087-2.03-11.22-2.493-2.127-4.164-4.726-5.492-7.543h-2.539c.051.113.101.226.147.34 1.45 3.578 3.732 6.58 6.5 9.232 2.67 2.558 3.217 5.511 1.88 8.873-1.455 3.658-2.956 7.298-4.368 10.972-.833 2.167-1.406 4.397-1.044 6.765.319 2.089 1.341 3.856 2.497 5.57 1.453 2.154 2.995 4.257 3.682 6.822.897 3.352 1.051 6.577-1.358 9.471-2.798 3.361-5.026 7.147-7.923 10.438-3.314 4.101-4.453 8.122-2.386 13.121 1.546 3.841 1.834 7.845.799 11.895-.486 1.902-1.345 3.674-2 5.518-.838 2.361-.372 4.367 1.498 6.105a64.522 64.522 0 0 0 5.926 4.881h2.973a36.349 36.349 0 0 1-6.109-5.135c-1.159-1.215-2.134-2.51-2.243-4.249-.071-1.133.198-2.233.477-3.319.703-2.738 1.281-5.477 1.274-8.336-.021-9.893-5.517-12.147 3.08-20.971 2.564-2.699 4.73-5.762 7.744-8.053 2.015-1.531 2.647-3.607 2.043-6.087-1.045-4.293-2.779-8.243-5.563-11.726Z"/><path fill="#000" d="M68.647 54.93c-2.473-4.653-5.083-9.208-8.56-13.242-2.804-3.256-3.45-6.97-1.908-11.056 1.106-2.93 2.698-5.604 4.154-8.353 1.38-2.605 2.95-5.132 3.592-8.055 1.019-4.406-.001-6.494-3.832-8.997-1.696-1.193-3.07-2.621-4.117-4.289h-2.647c1.47 2.857 3.594 5.246 6.173 7.358 1.788 1.464 2.603 3.512 2.4 5.918-.191 2.266-1.094 4.269-2.075 6.255-2.232 4.888-6.744 11.455-5.352 16.898.525 2.099 1.68 3.878 3.035 5.519 3.182 3.851 5.299 8.261 6.91 12.918.982 2.838.328 4.778-2.167 6.432-2.711 1.797-5.158 3.851-7.333 6.254-3.46 3.569-7.05 6.588-5.915 12.097 1.2 5.776 1.489 11.558.22 17.374-.515 2.367-.404 4.697 1.34 6.623a57.44 57.44 0 0 0 3.55 3.567c1.206 1.116 2.607 1.953 4.008 2.788h3.213c-5.065-2.945-11.281-7.002-10.446-13.594.315-2.801.434-5.625.34-8.459-.1-3.081-.456-6.145-.541-9.225-.061-2.187.695-4.095 2.094-5.746 2.048-2.416 4.5-4.422 6.889-6.486 1.599-1.382 3.615-2.12 5.37-3.264 2.262-1.472 3.244-3.476 2.699-6.167a11.229 11.229 0 0 0-1.094-3.068Z"/><path fill="#000" d="M63.378 42.705c-4.355-4.489-5.572-8.644-2.39-14.23 1.711-3.087 3.605-6.076 5.43-9.101 2.167-3.597 3.77-7.441 5.055-11.417 1.48-4.214-2.54-4.34-5.456-5.638A14.413 14.413 0 0 1 63.365.937h-3.42a9.377 9.377 0 0 0 1.952 1.857c1.16.813 2.386 1.532 3.58 2.298 2.46 1.578 3.075 3.074 2.593 5.963-1.238 7.086-6.203 12.583-8.945 19.075-3.595 8.778 3.63 12.036 7.383 18.759 1.404 2.449 3.158 4.696 4.298 7.299 1.922 4.39.891 7.772-3.399 9.915-3.314 1.655-6.12 3.889-8.92 6.233-3.224 2.698-4.804 5.886-4.602 10.148.24 5.062.36 10.139.136 15.215-.107 2.438.73 4.585 2.427 6.394 2.066 2.202 4.328 4.14 7.061 5.51.791.396 1.59.815 2.302 1.333h2.88c-.87-1.105-2.092-1.916-3.409-2.554a24.14 24.14 0 0 1-7.05-5.192c-1.422-1.507-2.347-3.25-2.53-5.287-.469-5.215-.719-10.439-.21-15.669.276-2.836 1.266-5.327 3.471-7.296 3.04-2.714 6.162-5.263 9.98-6.89 5.136-1.985 6.082-8.045 3.556-12.473-2.65-4.554-5.567-8.938-9.12-12.87Z"/><path fill="#000" d="M86.816.938a7.152 7.152 0 0 1-.583 1.009c-2.336 3.482-5.583 6.21-8.153 9.509-2.137 2.744-3.885 5.75-5.91 8.567-2.137 2.973-4.409 5.853-6.499 8.858-2.743 3.943-2.494 7.065.742 10.584.935 1.017 2.031 1.887 3.02 2.857 2.81 2.755 5.231 5.845 7.718 8.875 3.625 4.352 3.073 10.323 3.133 15.613.014 3.979-1.852 6.614-5.532 8.077-3.147 1.251-5.925 3.113-8.67 5.054-3.56 2.517-5.805 5.583-5.155 10.206.52 3.7 2.882 6.324 6.601 6.924 4.08.593 7.303-.045 10.702 2.972 3.881 3.459.057 7.222-1.707 10.897h1.41c.957-1.657 2.203-3.162 3.147-4.825 1.133-2.006 1.397-4.085.042-6.088-1.45-2.145-3.415-3.655-5.982-4.323-1.957-.509-3.978-.517-5.967-.77-1.625-.207-3.2-.571-4.444-1.719-2.68-2.473-2.848-6.604-.358-9.454 1.823-2.087 4.194-3.51 6.481-5.017 2.085-1.374 4.47-2.158 6.737-3.169 2.96-1.32 4.592-3.437 4.391-6.771-.227-3.748-.345-7.503-.622-11.246-.237-3.203-1.5-5.998-3.745-8.36-2.007-2.083-3.773-4.407-5.833-6.436-1.552-1.404-3.18-2.726-4.632-4.237-3.159-3.144-2.249-7.017.275-10.233 2.182-2.903 4.5-5.71 6.582-8.68 3.434-4.897 6.8-9.828 11.168-13.997 1.48-1.412 2.9-2.91 3.972-4.674h-2.329V.938Z"/><path fill="#000" d="M110.15 65.81c-3.515-.316-7.043-.528-10.135-2.444-2.233-1.353-3.158-3.303-2.763-5.856.385-2.482 1.342-4.805 1.967-7.22 1.109-4.282.307-6.402-3.4-8.863-1.828-1.213-3.693-2.371-5.504-3.608-3.728-2.548-10.749-5.58-7.133-11.013.874-1.436 1.978-2.697 3.12-3.922 2.613-2.801 5.293-5.539 7.773-8.461 1.9-2.238 3.927-4.355 6.608-5.713 4.075-2.074 8.809-3.538 9.188-7.772h-2.369c-.574 2.014-2.638 3.604-4.685 4.496-3.28 1.597-6.39 3.416-8.732 6.283-3.336 4.084-6.907 7.966-10.43 11.888-2.446 2.639-5.427 6.659-2.262 9.905.502.542 1.04 1.049 1.651 1.482 3.365 2.384 6.726 4.772 10.02 7.255 3.05 2.3 4.43 5.199 3.526 8.981-.522 2.181-1.13 4.341-1.663 6.52-.75 3.073.143 5.513 2.797 7.373 3.688 2.613 8.097 2.455 12.426 2.625V65.81Z"/><path fill="#000" d="M110.151 69.128c-1.582-.031-3.164.005-4.742-.103-2.59-.178-5.208-.321-7.528-1.63-4.04-2.279-5.746-5.164-4.448-9.703.458-1.6.938-3.194 1.352-4.805 1.353-5.178-.322-7.944-4.49-11.055-3.032-2.458-6.301-4.603-9.394-6.979-2.662-2.045-3.097-4.711-1.362-7.563.923-1.516 2.056-2.869 3.232-4.188 2.677-3.001 5.335-6.015 7.875-9.132 4.602-5.966 5.878-6.392 12.214-10.156 1.292-.789 2.266-1.719 2.714-2.877h-2.911c-.48.815-1.235 1.505-2.098 2.142-.88.649-1.805 1.239-2.721 1.841-2.712 1.782-5.137 3.859-7.171 6.405-2.928 3.665-5.762 7.405-8.918 10.89-1.66 1.832-3.34 3.666-4.517 5.871-1.94 3.312-.47 6.059 2.455 8.02 3.508 2.421 6.903 4.985 10.134 7.758 2.078 1.784 3.368 3.956 3.262 6.784-.081 2.149-.826 4.138-1.468 6.154-.487 1.531-.993 3.078-.806 4.7.447 3.88 2.702 6.5 6.15 8.147 4.173 1.858 8.734 1.378 13.186 1.753v-2.274Z"/><path fill="#000" d="M110.15 27.414a1383.59 1383.59 0 0 1-6.445-.375c-1.676-.103-3.374-.083-5-.575-1.045-.316-1.533-.998-1.296-1.944 1.412-5.741 4.533-9.163 10.229-10.996.799-.289 1.666-.607 2.513-.985V9.948c-1.311.804-2.776 1.312-4.224 1.836-2.552.923-5.007 2.071-6.83 4.087-2.715 3.003-5.17 6.234-8.052 9.095-2.3 2.489-2.853 5.312.695 6.88 6.91 2.971 9.975-2.059 18.412-1.049v-3.383h-.002ZM1.65 76.752C.82 81.174 1.261 82 4.772 84.009c3.44 1.967 5.904 4.686 6.823 8.666.951 4.12-.368 6.772-4.365 8.264-.965.36-1.972.61-2.943.955-1.175.418-1.53.976-1.362 2.198.488 2.333 1.502 4.53 2.083 6.845h2.463a22.598 22.598 0 0 1-.169-2.969c.02-1.69.614-3.126 1.834-4.306 3.02-2.695 5.542-5.507 4.628-9.83-1.05-5.207-3.423-8.1-7.029-11.8-1.555-1.693-2.368-3.635-2.29-5.945.058-1.7.067-3.403.065-5.105-.007-4.055-1.007-7.799-3.597-11.032l-.763-.952v3.326c2.683 4.188 2.517 9.558 1.498 14.428Z"/><path fill="#000" d="M.15 86.914v8.589c1.614.933 3.211 1.895 5.031 2.399 2.682.702 4.737-.763 4.771-3.446.331-5.492-5.562-10.422-9.802-7.542ZM10.967.938C7.257 1.815 3.71 3.181.15 4.506v1.608c2.528-1.094 5.234-1.75 7.846-2.613 2.356-.781 4.771-1.065 7.258-.982 1.95.065 3.841.566 5.783.622 1.154.034 1.598-.334 1.716-1.476.025-.242.042-.484.056-.727H10.967ZM2.111 35.421c-.443-1.734-1.16-3.35-1.96-4.93v9.101c1.614-.73 2.62-1.81 1.96-4.17ZM1.458.938c-.436.176-.873.351-1.308.529v1.842A794.425 794.425 0 0 0 6.571.938H1.458ZM.15 65.03v10.397c1.073-3.388 1.25-7.16 0-10.398ZM2.957 110.938c-.664-1.646-1.644-3.087-2.807-4.41v4.41h2.807ZM110.15 14.493c-1.258.504-2.548.943-3.799 1.555-1.838.95-3.498 2.089-4.192 4.168-.517 1.551-.063 2.763 1.345 3.612.784.472 1.654.712 2.543.895 1.357.279 2.728.392 4.103.463V14.493ZM110.15 84.097a1086.282 1086.282 0 0 0-8.782 3.856c-3.487 1.552-5.312 4.221-5.506 8.031-.14 5.08 1.237 10.789-2.543 14.954h5.09c-.105-.285-.17-.639-.208-1.086-.349-4.253-.927-8.496-.828-12.774.08-3.402 1.54-6.113 4.618-7.714 2.655-1.382 5.403-2.571 8.16-3.743v-1.524h-.001Z"/><path fill="#000" d="M110.15 77.95a17.71 17.71 0 0 0-1.692 1.026c-3.187 2.207-6.671 3.757-10.329 4.998-1.986.673-3.94 1.446-5.747 2.53-6.973 4.102 2.361 12.304-3.069 20.521-.942 1.452-2.162 2.678-3.368 3.913h1.61c.481-.473.961-.947 1.43-1.431 7.288-7.511.296-15.238 4.078-20.53 1.132-1.483 2.721-2.363 4.383-3.08 2.425-1.047 4.927-1.92 7.342-2.989 1.836-.812 3.57-1.84 5.361-2.75l.001-2.208Z"/><path fill="#000" d="M110.151 110.719c-1.364-.944-2.871-1.637-4.347-2.388-1.417-.721-2.774-1.513-3.741-2.827-2.487-3.382-3.053-9.992.387-12.979 1.146-1.067 2.502-1.806 3.933-2.424 1.257-.543 2.513-1.091 3.769-1.636v-1.696c-2.256.991-4.506 1.994-6.718 3.073-5.651 2.614-5.47 8.521-4.456 13.79.532 2.977 1.677 5.49 4.913 6.535.74.239 1.479.486 2.201.77h4.059v-.218Z"/><path fill="#000" d="M110.15 81.398c-3.278 1.683-6.631 3.196-10.094 4.476a17.253 17.253 0 0 0-3.689 1.913c-7.66 5.251 2.134 14.793-7.412 23.15h2.284c4.247-4.125 3.761-8.522 3.546-14.264-.446-7.776 4.637-9.092 11.104-11.698 1.456-.595 2.849-1.326 4.261-2.018v-1.559ZM110.151 50.118c-.061.056-.12.114-.181.169-2.256 1.981-6.168 6.001-1.835 7.998a39.38 39.38 0 0 0 2.016.873v-9.04Z"/><path fill="#000" d="M110.15 107.051c-1.489-.874-3.014-1.702-4.357-2.803-3.253-2.748-3.931-8.175.391-10.908 1.257-.795 2.602-1.384 3.965-1.931v-1.728c-1.647.664-3.271 1.338-4.813 2.193-1.519.842-2.776 1.996-3.471 3.638-1.438 3.395-.524 8.812 4.263 11.37 1.252.669 2.506 1.336 3.731 2.05.099.058.193.121.29.18l.001-2.061Z"/><path fill="#000" d="M110.15 103.32a12.892 12.892 0 0 1-1.471-1.281c-2.978-3.152-1.266-5.672 1.471-7.3v-2.092c-1.257.532-2.47 1.157-3.551 2.053-3.339 2.749-2.081 7.156 1.17 9.35.757.566 1.565 1.059 2.381 1.541v-2.271Z"/><path fill="#000" d="M110.151 97.068c-.842.989-1.102 2.199-.138 3.614.045.063.092.122.138.183v-3.797Z"/></svg>